<svg xmlns="http://www.w3.org/2000/svg" xmlns:xlink="http://www.w3.org/1999/xlink" width="400" zoomAndPan="magnify" viewBox="0 0 300 299.999988" height="400" preserveAspectRatio="xMidYMid meet" version="1.0"><defs><clipPath id="56cd5255ad"><path d="M 1.246094 2.324219 L 298.996094 2.324219 L 298.996094 300 L 1.246094 300 Z M 1.246094 2.324219 " clip-rule="nonzero"/></clipPath></defs><g clip-path="url(#56cd5255ad)"><path fill="#14678c" d="M 150.082031 2.324219 C 67.882812 2.324219 1.246094 68.960938 1.246094 151.15625 C 1.246094 233.355469 67.882812 299.992188 150.082031 299.992188 C 232.277344 299.992188 298.914062 233.355469 298.914062 151.15625 C 298.914062 68.960938 232.277344 2.324219 150.082031 2.324219 Z M 150.082031 288.71875 C 74.109375 288.71875 12.519531 227.128906 12.519531 151.15625 C 12.519531 75.183594 74.109375 13.597656 150.082031 13.597656 C 226.054688 13.597656 287.640625 75.183594 287.640625 151.15625 C 287.640625 227.128906 226.054688 288.71875 150.082031 288.71875 Z M 150.082031 288.71875 " fill-opacity="1" fill-rule="nonzero"/></g><path fill="#14678c" d="M 132.613281 224.113281 C 128.878906 224.46875 125.898438 224.878906 122.902344 225.023438 C 105.921875 225.824219 93.347656 219.128906 85.722656 203.519531 C 83.296875 198.546875 80.1875 193.855469 76.949219 189.351562 C 75.007812 186.644531 72.28125 184.472656 69.765625 182.21875 L 69.734375 182.191406 C 68.179688 180.824219 68.867188 178.261719 70.910156 177.917969 C 73.308594 177.515625 75.546875 177.949219 77.726562 178.503906 C 84.554688 180.242188 88.9375 185.082031 92.429688 190.871094 C 100.328125 203.964844 113.925781 209.425781 128.632812 205.527344 C 131.128906 204.863281 132.230469 203.789062 132.773438 201.066406 C 133.40625 197.890625 134.269531 194.757812 135.195312 191.566406 C 135.332031 191.097656 135.417969 190.617188 135.457031 190.132812 C 135.496094 189.644531 135.488281 189.15625 135.425781 188.671875 C 135.367188 188.183594 135.257812 187.710938 135.101562 187.246094 C 134.945312 186.78125 134.742188 186.339844 134.496094 185.917969 C 134.25 185.496094 133.964844 185.101562 133.636719 184.738281 C 133.308594 184.371094 132.949219 184.042969 132.554688 183.753906 C 132.164062 183.460938 131.746094 183.214844 131.300781 183.007812 C 130.855469 182.800781 130.394531 182.644531 129.921875 182.53125 L 129.835938 182.511719 C 114.578125 178.859375 101.398438 172.0625 92.902344 158.117188 C 88.359375 150.660156 86.113281 142.445312 86.230469 133.890625 C 86.359375 124.179688 87.21875 114.449219 88.335938 104.796875 C 89.121094 98 92.269531 91.980469 97.15625 87.089844 C 98.859375 85.386719 99.003906 83.957031 98.183594 81.753906 C 94.816406 72.71875 95.402344 63.667969 98.386719 54.617188 C 99.230469 52.0625 100.425781 51.695312 102.871094 52.464844 C 110.433594 54.847656 116.074219 59.765625 121.03125 65.65625 L 121.082031 65.71875 C 121.703125 66.464844 122.421875 67.105469 123.238281 67.640625 C 124.054688 68.171875 124.929688 68.574219 125.863281 68.84375 C 126.796875 69.113281 127.753906 69.242188 128.726562 69.226562 C 129.699219 69.210938 130.648438 69.050781 131.574219 68.75 C 147.265625 63.605469 171.070312 63.539062 185.867188 68.628906 C 186.796875 68.945312 187.753906 69.117188 188.734375 69.144531 C 189.71875 69.167969 190.679688 69.050781 191.625 68.785156 C 192.570312 68.515625 193.457031 68.117188 194.28125 67.582031 C 195.105469 67.050781 195.832031 66.40625 196.460938 65.652344 L 196.507812 65.59375 C 201.472656 59.703125 207.136719 54.824219 214.695312 52.4375 C 217.230469 51.636719 218.308594 52.246094 219.113281 54.710938 C 222.058594 63.765625 222.5625 72.765625 219.375 81.890625 C 218.925781 83.175781 218.941406 85.410156 219.742188 86.222656 C 226.515625 93.09375 229.484375 101.625 230.234375 110.867188 C 230.960938 119.796875 231.75 128.878906 230.921875 137.746094 C 228.765625 160.808594 214.742188 174.238281 193.417969 180.917969 C 191.59375 181.488281 189.742188 181.964844 187.847656 182.414062 C 187.355469 182.53125 186.882812 182.695312 186.425781 182.910156 C 185.96875 183.128906 185.539062 183.390625 185.136719 183.695312 C 184.734375 184 184.367188 184.34375 184.035156 184.730469 C 183.707031 185.113281 183.421875 185.523438 183.175781 185.96875 C 182.933594 186.410156 182.738281 186.875 182.59375 187.359375 C 182.445312 187.84375 182.351562 188.335938 182.308594 188.839844 C 182.265625 189.34375 182.277344 189.847656 182.339844 190.347656 C 182.402344 190.851562 182.519531 191.339844 182.683594 191.816406 C 185.589844 200.234375 185.144531 209.226562 185.101562 218.160156 C 185.089844 220.214844 185.082031 222.269531 185.078125 224.324219 C 185.078125 225.171875 185.035156 226.019531 184.949219 226.863281 C 184.863281 227.707031 184.738281 228.546875 184.570312 229.378906 C 184.402344 230.210938 184.195312 231.03125 183.949219 231.84375 C 183.703125 232.65625 183.414062 233.453125 183.089844 234.234375 C 182.761719 235.019531 182.398438 235.785156 181.996094 236.53125 C 181.597656 237.28125 181.160156 238.003906 180.6875 238.710938 C 180.214844 239.414062 179.710938 240.09375 179.171875 240.75 C 178.632812 241.40625 178.0625 242.03125 177.460938 242.632812 C 176.859375 243.230469 176.230469 243.800781 175.574219 244.335938 C 174.917969 244.875 174.238281 245.378906 173.53125 245.851562 C 172.828125 246.320312 172.097656 246.753906 171.351562 247.15625 C 170.601562 247.554688 169.835938 247.917969 169.050781 248.242188 C 168.269531 248.566406 167.46875 248.851562 166.65625 249.097656 C 165.847656 249.339844 165.023438 249.546875 164.191406 249.710938 C 163.359375 249.878906 162.519531 250 161.675781 250.085938 C 160.832031 250.167969 159.984375 250.210938 159.136719 250.210938 L 158.554688 250.210938 C 157.703125 250.210938 156.855469 250.167969 156.011719 250.085938 C 155.164062 250 154.324219 249.875 153.492188 249.710938 C 152.660156 249.546875 151.835938 249.339844 151.023438 249.09375 C 150.210938 248.84375 149.410156 248.558594 148.625 248.234375 C 147.839844 247.910156 147.074219 247.546875 146.324219 247.144531 C 145.574219 246.746094 144.847656 246.308594 144.140625 245.835938 C 143.433594 245.363281 142.753906 244.859375 142.097656 244.320312 C 141.4375 243.78125 140.808594 243.210938 140.210938 242.609375 C 139.609375 242.011719 139.039062 241.382812 138.5 240.726562 C 137.960938 240.066406 137.457031 239.386719 136.984375 238.679688 C 136.511719 237.972656 136.074219 237.246094 135.675781 236.496094 C 135.273438 235.746094 134.910156 234.980469 134.585938 234.195312 C 134.261719 233.410156 133.976562 232.609375 133.726562 231.796875 C 133.480469 230.984375 133.277344 230.160156 133.109375 229.328125 C 132.945312 228.496094 132.820312 227.65625 132.738281 226.808594 C 132.652344 225.964844 132.613281 225.117188 132.613281 224.265625 Z M 132.613281 224.113281 " fill-opacity="1" fill-rule="nonzero"/></svg>