<svg xmlns="http://www.w3.org/2000/svg" xmlns:xlink="http://www.w3.org/1999/xlink" width="400" zoomAndPan="magnify" viewBox="0 0 300 299.999988" height="400" preserveAspectRatio="xMidYMid meet" version="1.0"><path fill="#d9b060" d="M 149.988281 32.878906 C 85.414062 32.878906 32.875 85.417969 32.875 149.992188 C 32.875 214.566406 85.414062 267.105469 149.988281 267.105469 C 214.5625 267.105469 267.101562 214.566406 267.101562 149.992188 C 267.101562 85.414062 214.566406 32.878906 149.988281 32.878906 Z M 149.988281 260.757812 C 88.910156 260.757812 39.21875 211.066406 39.21875 149.988281 C 39.21875 88.910156 88.910156 39.21875 149.988281 39.21875 C 211.066406 39.21875 260.757812 88.910156 260.757812 149.988281 C 260.757812 211.066406 211.066406 260.757812 149.988281 260.757812 Z M 149.988281 260.757812 " fill-opacity="1" fill-rule="nonzero"/><path fill="#d9b060" d="M 290.484375 171.359375 C 296.515625 165.902344 299.980469 158.113281 299.980469 149.988281 C 299.980469 141.929688 296.566406 134.183594 290.625 128.742188 C 287.21875 125.621094 286.289062 120.546875 288.328125 116.105469 C 291.640625 108.886719 291.816406 100.53125 288.808594 93.183594 C 285.734375 85.660156 279.578125 79.761719 271.929688 77 C 267.203125 75.296875 264.121094 70.847656 264.421875 66.191406 C 264.96875 57.90625 261.910156 49.792969 256.050781 43.929688 C 250.4375 38.316406 242.664062 35.246094 234.726562 35.511719 C 229.851562 35.683594 225.5625 32.808594 223.855469 28.210938 C 221.09375 20.761719 215.308594 14.730469 207.988281 11.667969 C 200.496094 8.519531 191.972656 8.703125 184.605469 12.160156 C 180.058594 14.300781 174.734375 13.226562 171.367188 9.496094 C 165.910156 3.457031 158.121094 0 149.988281 0 C 141.929688 0 134.183594 3.414062 128.742188 9.355469 C 125.621094 12.765625 120.546875 13.691406 116.105469 11.652344 C 108.886719 8.34375 100.53125 8.164062 93.183594 11.171875 C 85.660156 14.25 79.761719 20.402344 77 28.050781 C 75.296875 32.777344 70.847656 35.863281 66.191406 35.558594 C 57.90625 35.011719 49.792969 38.070312 43.929688 43.929688 C 38.316406 49.546875 35.246094 57.316406 35.511719 65.253906 C 35.675781 70.15625 32.808594 74.417969 28.210938 76.125 C 20.761719 78.890625 14.730469 84.671875 11.667969 91.992188 C 8.527344 99.492188 8.703125 108.011719 12.160156 115.375 C 14.300781 119.925781 13.226562 125.246094 9.496094 128.613281 C 3.457031 134.070312 0 141.859375 0 149.988281 C 0 158.042969 3.414062 165.789062 9.355469 171.234375 C 12.765625 174.355469 13.691406 179.429688 11.652344 183.871094 C 8.34375 191.089844 8.164062 199.445312 11.171875 206.789062 C 14.25 214.3125 20.402344 220.214844 28.050781 222.972656 C 32.777344 224.679688 35.863281 229.125 35.558594 233.78125 C 35.011719 242.066406 38.070312 250.183594 43.929688 256.042969 C 49.546875 261.65625 57.308594 264.734375 65.253906 264.460938 C 70.15625 264.308594 74.417969 267.164062 76.125 271.761719 C 78.890625 279.210938 84.671875 285.246094 91.992188 288.308594 C 99.492188 291.449219 108.011719 291.269531 115.375 287.8125 C 119.925781 285.683594 125.246094 286.746094 128.613281 290.476562 C 134.070312 296.511719 141.859375 299.96875 149.988281 299.96875 C 158.042969 299.96875 165.789062 296.554688 171.234375 290.609375 C 174.355469 287.203125 179.429688 286.277344 183.871094 288.316406 C 191.089844 291.625 199.445312 291.804688 206.789062 288.796875 C 214.3125 285.71875 220.214844 279.566406 222.972656 271.914062 C 224.679688 267.195312 229.121094 264.113281 233.78125 264.410156 C 242.066406 264.949219 250.175781 261.898438 256.042969 256.039062 C 261.65625 250.421875 264.726562 242.652344 264.460938 234.714844 C 264.296875 229.816406 267.164062 225.546875 271.761719 223.84375 C 279.210938 221.082031 285.246094 215.296875 288.308594 207.976562 C 291.449219 200.476562 291.269531 191.957031 287.8125 184.59375 C 285.6875 180.050781 286.761719 174.734375 290.484375 171.359375 Z M 286.234375 166.660156 C 280.421875 171.910156 278.753906 180.210938 282.085938 187.300781 C 284.78125 193.042969 284.921875 199.691406 282.472656 205.535156 C 280.042969 211.324219 275.460938 215.722656 269.570312 217.90625 C 262.484375 220.535156 257.882812 227.382812 258.136719 234.9375 C 258.347656 241.21875 256.011719 247.125 251.570312 251.566406 C 246.996094 256.140625 240.667969 258.519531 234.207031 258.09375 C 226.753906 257.597656 219.679688 262.40625 217.015625 269.773438 C 214.859375 275.734375 210.261719 280.535156 204.398438 282.933594 C 198.585938 285.3125 192.238281 285.179688 186.519531 282.5625 C 179.570312 279.371094 171.550781 280.890625 166.5625 286.335938 C 162.320312 290.972656 156.28125 293.628906 149.992188 293.628906 C 143.65625 293.628906 137.578125 290.933594 133.328125 286.226562 C 129.878906 282.410156 125.113281 280.378906 120.242188 280.378906 C 117.695312 280.378906 115.121094 280.929688 112.6875 282.074219 C 106.945312 284.769531 100.296875 284.90625 94.453125 282.460938 C 88.660156 280.03125 84.265625 275.449219 82.078125 269.554688 C 79.445312 262.46875 72.613281 257.859375 65.042969 258.125 C 58.761719 258.332031 52.855469 256 48.417969 251.558594 C 43.84375 246.984375 41.464844 240.660156 41.886719 234.195312 C 42.375 226.734375 37.574219 219.667969 30.210938 217.003906 C 24.246094 214.847656 19.445312 210.246094 17.046875 204.386719 C 14.667969 198.574219 14.800781 192.222656 17.421875 186.507812 C 20.609375 179.554688 19.089844 171.539062 13.644531 166.550781 C 9.007812 162.308594 6.351562 156.269531 6.351562 149.980469 C 6.351562 143.644531 9.046875 137.566406 13.753906 133.316406 C 19.5625 128.0625 21.234375 119.765625 17.902344 112.671875 C 15.207031 106.933594 15.066406 100.285156 17.515625 94.441406 C 19.945312 88.648438 24.523438 84.253906 30.417969 82.0625 C 37.503906 79.429688 42.105469 72.585938 41.851562 65.03125 C 41.640625 58.75 43.976562 52.84375 48.417969 48.402344 C 52.988281 43.828125 59.320312 41.449219 65.777344 41.875 C 73.246094 42.371094 80.304688 37.5625 82.972656 30.195312 C 85.128906 24.234375 89.726562 19.429688 95.589844 17.035156 C 101.398438 14.652344 107.75 14.789062 113.464844 17.40625 C 120.417969 20.597656 128.4375 19.074219 133.421875 13.632812 C 137.667969 8.996094 143.707031 6.335938 149.992188 6.335938 C 156.332031 6.335938 162.410156 9.035156 166.660156 13.742188 C 171.910156 19.550781 180.210938 21.21875 187.300781 17.890625 C 193.042969 15.195312 199.691406 15.054688 205.535156 17.503906 C 211.324219 19.933594 215.722656 24.511719 217.90625 30.40625 C 220.535156 37.492188 227.394531 42.085938 234.9375 41.835938 C 241.230469 41.632812 247.125 43.960938 251.566406 48.402344 C 256.140625 52.976562 258.519531 59.300781 258.09375 65.765625 C 257.605469 73.226562 262.40625 80.292969 269.773438 82.957031 C 275.734375 85.117188 280.535156 89.714844 282.933594 95.578125 C 285.3125 101.386719 285.179688 107.738281 282.5625 113.445312 C 279.371094 120.398438 280.890625 128.417969 286.335938 133.40625 C 290.972656 137.648438 293.628906 143.6875 293.628906 149.976562 C 293.636719 156.324219 290.941406 162.402344 286.234375 166.660156 Z M 286.234375 166.660156 " fill-opacity="1" fill-rule="nonzero"/><path fill="#d9b060" d="M 170.261719 68.84375 L 153.164062 75.683594 L 153.164062 68.101562 L 146.820312 68.101562 L 146.820312 75.683594 L 129.726562 68.84375 L 90.75 79.824219 L 59.480469 178.089844 L 66 195.5625 L 120.5 195.5625 L 127.023438 178.089844 L 97.269531 84.574219 L 129.371094 75.535156 L 146.820312 82.519531 L 146.820312 214.332031 L 122.742188 214.332031 L 115.007812 235.058594 L 184.980469 235.058594 L 177.246094 214.332031 L 153.164062 214.332031 L 153.164062 82.515625 L 170.617188 75.535156 L 202.71875 84.574219 L 172.964844 178.089844 L 179.484375 195.5625 L 233.984375 195.5625 L 240.507812 178.089844 L 209.238281 79.824219 Z M 70.398438 189.21875 L 67.398438 181.179688 L 119.09375 181.179688 L 116.09375 189.21875 Z M 119.328125 174.835938 L 67.167969 174.835938 L 93.25 92.875 Z M 175.839844 228.707031 L 124.140625 228.707031 L 127.144531 220.671875 L 172.835938 220.671875 Z M 206.734375 92.875 L 232.8125 174.835938 L 180.652344 174.835938 Z M 183.890625 189.21875 L 180.886719 181.179688 L 232.585938 181.179688 L 229.582031 189.21875 Z M 183.890625 189.21875 " fill-opacity="1" fill-rule="nonzero"/></svg>