<svg xmlns="http://www.w3.org/2000/svg" xmlns:xlink="http://www.w3.org/1999/xlink" width="400" zoomAndPan="magnify" viewBox="0 0 300 299.999988" height="400" preserveAspectRatio="xMidYMid meet" version="1.0"><path fill="#05e0e9" d="M 275.570312 208.789062 L 24.429688 208.789062 C 22.496094 208.789062 20.914062 207.207031 20.914062 205.273438 L 20.914062 58.347656 C 20.914062 46.574219 30.402344 36.90625 42.355469 36.90625 L 257.644531 36.90625 C 269.421875 36.90625 279.085938 46.574219 279.085938 58.347656 L 279.085938 205.273438 C 279.085938 207.207031 277.503906 208.789062 275.570312 208.789062 Z M 27.945312 201.757812 L 272.054688 201.757812 L 272.054688 58.347656 C 272.054688 50.4375 265.554688 43.9375 257.644531 43.9375 L 42.355469 43.9375 C 34.269531 43.9375 27.945312 50.4375 27.945312 58.347656 Z M 27.945312 201.757812 " fill-opacity="1" fill-rule="evenodd"/><path fill="#05e0e9" d="M 269.246094 263.09375 L 30.578125 263.09375 C 13.707031 263.09375 0 249.210938 0 232.335938 L 0 205.273438 C 0 203.339844 1.582031 201.757812 3.515625 201.757812 L 92.265625 201.757812 L 116.167969 235.675781 C 116.871094 236.554688 117.925781 237.082031 118.980469 237.082031 L 180.84375 237.082031 C 182.074219 237.082031 183.128906 236.554688 183.832031 235.675781 L 207.734375 201.757812 L 296.484375 201.757812 C 298.417969 201.757812 300 203.339844 300 205.273438 L 300 232.335938 C 300 249.210938 286.117188 263.09375 269.246094 263.09375 Z M 271.351562 235.851562 L 235.324219 235.851562 C 233.390625 235.851562 231.808594 234.269531 231.808594 232.335938 C 231.808594 230.402344 233.390625 228.824219 235.324219 228.824219 L 271.351562 228.824219 C 273.285156 228.824219 274.867188 230.402344 274.867188 232.335938 C 274.867188 234.269531 273.285156 235.851562 271.351562 235.851562 Z M 64.675781 235.851562 L 28.648438 235.851562 C 26.714844 235.851562 25.132812 234.269531 25.132812 232.335938 C 25.132812 230.402344 26.714844 228.824219 28.648438 228.824219 L 64.675781 228.824219 C 66.609375 228.824219 68.191406 230.402344 68.191406 232.335938 C 68.191406 234.269531 66.609375 235.851562 64.675781 235.851562 Z M 100.878906 201.757812 L 199.121094 201.757812 L 179.085938 230.050781 L 120.914062 230.050781 Z M 100.878906 201.757812 " fill-opacity="1" fill-rule="evenodd"/><path fill="#05e0e9" d="M 192.617188 129.878906 C 175.921875 129.878906 159.578125 123.726562 147.453125 113.003906 C 143.410156 109.316406 140.246094 106.152344 137.609375 103.339844 C 131.808594 97.363281 129 94.726562 124.957031 94.726562 C 119.859375 94.726562 111.773438 98.59375 96.484375 108.964844 C 95.253906 109.84375 93.496094 109.667969 92.265625 108.789062 C 91.210938 107.910156 90.683594 106.328125 91.210938 104.921875 C 91.738281 103.339844 104.570312 65.730469 138.488281 65.730469 C 141.828125 65.730469 145.167969 66.082031 148.507812 66.785156 C 161.6875 69.421875 177.679688 79.261719 185.941406 86.996094 C 195.253906 95.957031 201.40625 101.230469 208.964844 101.230469 C 214.410156 101.230469 220.914062 98.417969 229.351562 92.089844 C 230.402344 91.386719 231.808594 91.210938 233.039062 91.738281 C 234.269531 92.441406 234.972656 93.671875 234.972656 94.902344 C 234.972656 115.816406 217.925781 129.878906 192.617188 129.878906 Z M 166.609375 179.964844 C 149.914062 179.964844 133.566406 173.8125 121.441406 163.09375 C 117.398438 159.578125 114.234375 156.238281 111.597656 153.425781 C 105.800781 147.453125 102.988281 144.816406 98.945312 144.816406 C 93.847656 144.816406 85.765625 148.859375 70.472656 159.050781 C 69.246094 159.929688 67.488281 159.929688 66.433594 159.050781 C 65.203125 157.996094 64.675781 156.414062 65.203125 155.007812 C 65.730469 153.425781 78.558594 115.816406 112.652344 115.816406 C 115.816406 115.816406 119.15625 116.167969 122.496094 116.871094 C 135.675781 119.683594 151.667969 129.351562 159.929688 137.257812 C 169.246094 146.046875 175.394531 151.316406 182.953125 151.316406 C 188.402344 151.316406 194.902344 148.507812 203.339844 142.355469 C 204.394531 141.476562 205.800781 141.300781 207.03125 142.003906 C 208.261719 142.53125 208.964844 143.761719 208.964844 145.167969 C 208.964844 165.90625 191.914062 179.964844 166.609375 179.964844 Z M 166.609375 179.964844 " fill-opacity="1" fill-rule="evenodd"/></svg>