<svg xmlns="http://www.w3.org/2000/svg" xmlns:xlink="http://www.w3.org/1999/xlink" width="400" zoomAndPan="magnify" viewBox="0 0 300 299.999988" height="400" preserveAspectRatio="xMidYMid meet" version="1.0"><defs><clipPath id="c81566083b"><path d="M 0 173 L 152 173 L 152 292.125 L 0 292.125 Z M 0 173 " clip-rule="nonzero"/></clipPath><clipPath id="1385a7dca4"><path d="M 199 7.875 L 256 7.875 L 256 64 L 199 64 Z M 199 7.875 " clip-rule="nonzero"/></clipPath></defs><path fill="#f47921" d="M 85.324219 126.183594 C 75.503906 107.035156 76.640625 85.832031 88.015625 72.40625 C 101.640625 56.320312 123.957031 58.472656 124.890625 58.574219 C 152.855469 61.726562 177.917969 97.394531 184.113281 147.960938 L 194.417969 129.382812 C 194.417969 129.382812 198.003906 112.222656 226.941406 126.292969 C 226.941406 126.292969 298.195312 154.859375 299.921875 92.058594 C 299.921875 92.058594 273.980469 141.035156 200.820312 67.285156 C 175.949219 38.300781 140.65625 24.550781 109.910156 33.222656 C 107.917969 33.785156 62.882812 47.1875 61.113281 81.625 C 59.84375 106.792969 82.640625 124.195312 85.324219 126.183594 Z M 85.324219 126.183594 " fill-opacity="1" fill-rule="nonzero"/><path fill="#ee2672" d="M 157.285156 90.703125 C 155.027344 98.726562 153.828125 106.90625 153.691406 115.238281 C 153.523438 126.46875 153.238281 145.683594 165.980469 158.261719 C 169.359375 161.589844 172.414062 163.242188 176.351562 165.363281 C 191.941406 173.777344 200.707031 170.207031 224.371094 176.503906 C 241.046875 180.941406 243.859375 184.621094 244.953125 186.351562 C 250.160156 194.59375 246.171875 205.832031 242.808594 214.917969 C 237.402344 229.546875 229.683594 239.253906 222.25 248.144531 C 212.800781 259.488281 200.324219 273.777344 184.800781 289.835938 C 189.003906 280.050781 192.886719 269.289062 197.027344 257.855469 C 203.074219 241.144531 209 222.996094 208.488281 217.234375 C 208.875 216.582031 209.167969 215.882812 209.363281 215.148438 C 209.5625 214.414062 209.660156 213.664062 209.652344 212.902344 C 209.648438 212.140625 209.539062 211.394531 209.332031 210.664062 C 209.121094 209.929688 208.820312 209.238281 208.421875 208.589844 C 206.277344 205.15625 202.410156 204.78125 201.988281 204.746094 C 194.449219 205.175781 188.261719 205.09375 184.03125 204.9375 C 164.941406 204.25 151.390625 203.582031 140.046875 194.566406 C 136.863281 192.148438 134.171875 189.265625 131.980469 185.921875 C 123.136719 172.183594 127.324219 155.464844 131.019531 141.554688 C 134.070312 130.125 140.84375 111.023438 157.285156 90.703125 Z M 157.285156 90.703125 " fill-opacity="1" fill-rule="nonzero"/><g clip-path="url(#c81566083b)"><path fill="#37bbba" d="M 119.71875 173.429688 C 119.71875 173.429688 122.023438 199.167969 151.792969 208.960938 C 143.90625 222.554688 133.984375 234.445312 122.027344 244.640625 C 103.839844 260.0625 86.25 266.566406 60.566406 275.800781 C 40.84375 282.878906 20.675781 288.320312 0.0664062 292.125 C 8.667969 287.398438 20.777344 280.535156 35.023438 271.765625 C 57.894531 257.679688 69.523438 250.4375 78.664062 240.796875 C 88.375 230.539062 94.027344 220.835938 103.953125 203.792969 C 110.996094 191.691406 116.171875 181.144531 119.71875 173.429688 Z M 119.71875 173.429688 " fill-opacity="1" fill-rule="nonzero"/></g><g clip-path="url(#1385a7dca4)"><path fill="#37bbba" d="M 255.367188 35.914062 C 255.367188 36.832031 255.324219 37.75 255.234375 38.664062 C 255.144531 39.578125 255.007812 40.484375 254.828125 41.382812 C 254.648438 42.285156 254.425781 43.175781 254.160156 44.054688 C 253.894531 44.933594 253.585938 45.796875 253.234375 46.644531 C 252.882812 47.492188 252.488281 48.324219 252.054688 49.132812 C 251.625 49.941406 251.152344 50.730469 250.640625 51.492188 C 250.132812 52.257812 249.585938 52.992188 249.003906 53.703125 C 248.417969 54.414062 247.804688 55.09375 247.15625 55.742188 C 246.503906 56.390625 245.824219 57.007812 245.117188 57.589844 C 244.40625 58.171875 243.667969 58.71875 242.90625 59.230469 C 242.140625 59.742188 241.355469 60.210938 240.542969 60.644531 C 239.734375 61.078125 238.90625 61.46875 238.058594 61.820312 C 237.207031 62.171875 236.34375 62.480469 235.464844 62.75 C 234.585938 63.015625 233.695312 63.238281 232.796875 63.417969 C 231.894531 63.597656 230.988281 63.730469 230.074219 63.820312 C 229.160156 63.910156 228.242188 63.957031 227.324219 63.957031 C 226.40625 63.957031 225.492188 63.910156 224.578125 63.820312 C 223.664062 63.730469 222.753906 63.597656 221.855469 63.417969 C 220.953125 63.238281 220.0625 63.015625 219.183594 62.75 C 218.304688 62.480469 217.441406 62.171875 216.59375 61.820312 C 215.746094 61.46875 214.917969 61.078125 214.105469 60.644531 C 213.296875 60.210938 212.511719 59.742188 211.746094 59.230469 C 210.984375 58.71875 210.246094 58.171875 209.535156 57.589844 C 208.824219 57.007812 208.144531 56.390625 207.496094 55.742188 C 206.847656 55.09375 206.230469 54.414062 205.648438 53.703125 C 205.066406 52.992188 204.519531 52.257812 204.007812 51.492188 C 203.5 50.730469 203.027344 49.941406 202.59375 49.132812 C 202.160156 48.324219 201.769531 47.492188 201.417969 46.644531 C 201.066406 45.796875 200.757812 44.933594 200.492188 44.054688 C 200.222656 43.175781 200 42.285156 199.824219 41.382812 C 199.644531 40.484375 199.507812 39.578125 199.417969 38.664062 C 199.328125 37.75 199.285156 36.832031 199.285156 35.914062 C 199.285156 34.996094 199.328125 34.078125 199.417969 33.164062 C 199.507812 32.25 199.644531 31.34375 199.824219 30.441406 C 200 29.542969 200.222656 28.652344 200.492188 27.773438 C 200.757812 26.894531 201.066406 26.03125 201.417969 25.183594 C 201.769531 24.335938 202.160156 23.503906 202.59375 22.695312 C 203.027344 21.886719 203.5 21.097656 204.007812 20.335938 C 204.519531 19.570312 205.066406 18.835938 205.648438 18.125 C 206.230469 17.414062 206.847656 16.734375 207.496094 16.085938 C 208.144531 15.4375 208.824219 14.820312 209.535156 14.238281 C 210.246094 13.65625 210.984375 13.109375 211.746094 12.597656 C 212.511719 12.085938 213.296875 11.617188 214.105469 11.183594 C 214.917969 10.75 215.746094 10.359375 216.59375 10.007812 C 217.441406 9.65625 218.304688 9.347656 219.183594 9.078125 C 220.0625 8.8125 220.953125 8.589844 221.855469 8.410156 C 222.753906 8.230469 223.664062 8.097656 224.578125 8.007812 C 225.492188 7.917969 226.40625 7.871094 227.324219 7.871094 C 228.242188 7.871094 229.160156 7.917969 230.074219 8.007812 C 230.988281 8.097656 231.894531 8.230469 232.796875 8.410156 C 233.695312 8.589844 234.585938 8.8125 235.464844 9.078125 C 236.34375 9.347656 237.207031 9.65625 238.058594 10.007812 C 238.90625 10.359375 239.734375 10.75 240.542969 11.183594 C 241.355469 11.617188 242.140625 12.085938 242.90625 12.597656 C 243.667969 13.109375 244.40625 13.65625 245.117188 14.238281 C 245.824219 14.820312 246.503906 15.4375 247.15625 16.085938 C 247.804688 16.734375 248.417969 17.414062 249.003906 18.125 C 249.585938 18.835938 250.132812 19.570312 250.640625 20.335938 C 251.152344 21.097656 251.625 21.886719 252.054688 22.695312 C 252.488281 23.503906 252.882812 24.335938 253.234375 25.183594 C 253.585938 26.03125 253.894531 26.894531 254.160156 27.773438 C 254.425781 28.652344 254.648438 29.542969 254.828125 30.441406 C 255.007812 31.34375 255.144531 32.25 255.234375 33.164062 C 255.324219 34.078125 255.367188 34.996094 255.367188 35.914062 Z M 255.367188 35.914062 " fill-opacity="1" fill-rule="nonzero"/></g></svg>