<svg xmlns="http://www.w3.org/2000/svg" xmlns:xlink="http://www.w3.org/1999/xlink" width="400" zoomAndPan="magnify" viewBox="0 0 300 299.999988" height="400" preserveAspectRatio="xMidYMid meet" version="1.0"><path fill="#c3c2c1" d="M 159.375 140.078125 L 300 140.078125 L 300 9.429688 C 300 4.277344 295.800781 0.0976562 290.625 0.0976562 L 159.375 0.0976562 Z M 159.375 140.078125 " fill-opacity="1" fill-rule="nonzero"/><path fill="#c3c2c1" d="M 140.625 140.078125 L 140.625 0.0976562 L 9.375 0.0976562 C 4.199219 0.0976562 0 4.277344 0 9.429688 L 0 140.078125 Z M 140.625 140.078125 " fill-opacity="1" fill-rule="nonzero"/><path fill="#c3c2c1" d="M 140.625 158.742188 L 0 158.742188 L 0 289.386719 C 0 294.539062 4.199219 298.71875 9.375 298.71875 L 140.625 298.71875 Z M 140.625 158.742188 " fill-opacity="1" fill-rule="nonzero"/><path fill="#c3c2c1" d="M 159.375 158.742188 L 159.375 298.71875 L 290.625 298.71875 C 295.800781 298.71875 300 294.539062 300 289.386719 L 300 158.742188 Z M 159.375 158.742188 " fill-opacity="1" fill-rule="nonzero"/></svg>