<svg xmlns="http://www.w3.org/2000/svg" xmlns:xlink="http://www.w3.org/1999/xlink" width="400" zoomAndPan="magnify" viewBox="0 0 300 299.999988" height="400" preserveAspectRatio="xMidYMid meet" version="1.0"><defs><clipPath id="4a1c34cae1"><path d="M 57 249 L 242 249 L 242 283.273438 L 57 283.273438 Z M 57 249 " clip-rule="nonzero"/></clipPath></defs><path fill="#5badff" d="M 249.28125 236.425781 C 240.253906 238.847656 230.617188 239.625 221.851562 242.617188 C 236.699219 229.871094 235.851562 210.148438 245.761719 195.132812 C 248.917969 190.882812 251.527344 186.425781 255.203125 182.390625 C 249.175781 194.496094 251.789062 210.199219 244.867188 221.941406 C 242.203125 226.609375 238.390625 231.136719 234.175781 234.800781 C 235.554688 234.746094 236.757812 233.554688 237.96875 232.757812 C 249.214844 221.523438 263.90625 218.378906 276.070312 209.253906 C 280.945312 205.363281 285.40625 200.269531 287.546875 194.761719 C 285.246094 213.402344 266.726562 230.871094 249.28125 236.425781 Z M 249.28125 236.425781 " fill-opacity="1" fill-rule="nonzero"/><path fill="#5badff" d="M 289.785156 160.953125 C 284.28125 168.789062 277.625 176.085938 272.542969 184.054688 C 273.109375 177.746094 273.855469 169.992188 271.402344 164.015625 C 267.152344 151.148438 263.414062 138.085938 262.207031 123.96875 L 262.375 118.566406 C 265.574219 132.988281 279.722656 142.902344 278.832031 159.074219 C 279.15625 162.996094 277.945312 166.328125 277.210938 169.773438 L 277.453125 170.03125 L 278.089844 169.3125 C 280.191406 161.378906 281.25 153.039062 284.511719 145.632812 C 289.148438 134.984375 294.9375 124.230469 292.578125 111.371094 C 299.628906 126.535156 297.492188 146.792969 289.785156 160.953125 Z M 289.785156 160.953125 " fill-opacity="1" fill-rule="nonzero"/><path fill="#5badff" d="M 281.105469 79.261719 C 290.382812 91.847656 292.414062 111.90625 285.65625 126.347656 C 283.140625 132.464844 281.359375 138.984375 280.371094 145.757812 C 279.898438 144.589844 279.789062 143.019531 279.371094 141.71875 C 275.679688 127.585938 262.328125 117.511719 256.835938 104.1875 C 255.09375 99.828125 253.609375 95.328125 252.789062 90.597656 C 258.65625 101.460938 273.113281 107.070312 277.054688 119.042969 C 278.667969 122.074219 278.578125 125.855469 279.582031 129.109375 C 279.789062 129.109375 280 128.953125 280 128.742188 C 278.265625 116.410156 278.796875 103.5 280.46875 91.320312 C 280.371094 84.726562 279.726562 78.324219 276.066406 73.21875 C 278.414062 74.589844 279.472656 77.21875 281.105469 79.261719 Z M 281.105469 79.261719 " fill-opacity="1" fill-rule="nonzero"/><path fill="#5badff" d="M 274.558594 76.84375 C 276.996094 87.875 273.4375 98.617188 275.675781 109.753906 L 275.59375 109.847656 C 269.597656 98.050781 256.875 92.480469 248.117188 83.035156 C 243.042969 77.429688 240.835938 70.601562 239.570312 63.367188 C 244.585938 75.476562 258.125 78.144531 265.894531 88.351562 C 268.496094 90.703125 269.34375 93.960938 271.019531 96.628906 L 271.296875 96.363281 C 266.824219 86.8125 265.328125 76.0625 262.210938 65.875 C 260.648438 61.460938 257.550781 57.121094 253.390625 54.339844 C 263.59375 56.429688 272.4375 67.089844 274.558594 76.84375 Z M 274.558594 76.84375 " fill-opacity="1" fill-rule="nonzero"/><path fill="#5badff" d="M 247.285156 51.546875 C 254.96875 58.429688 258.445312 67.347656 260.6875 76.582031 L 261.957031 79.515625 C 250.804688 71.484375 240.675781 60.691406 233.554688 49.289062 L 224.855469 40.480469 C 232.5 43.726562 240.746094 45.664062 247.285156 51.546875 Z M 247.285156 51.546875 " fill-opacity="1" fill-rule="nonzero"/><path fill="#5badff" d="M 71.15625 41.945312 C 63.445312 48.710938 58.101562 57.265625 52.382812 65.246094 C 47.253906 71.601562 40.699219 75.789062 34.886719 81.253906 C 38.023438 74.742188 38.136719 66.964844 42.585938 60.984375 C 48.917969 49.925781 60.660156 46.035156 71.15625 41.941406 Z M 71.15625 41.945312 " fill-opacity="1" fill-rule="nonzero"/><path fill="#5badff" d="M 28.992188 65.503906 C 32.742188 60.839844 37.496094 57.59375 42.84375 56.226562 C 32.457031 63.371094 33.132812 76.171875 29.839844 86.8125 C 28.789062 90.746094 26.96875 94.371094 26.058594 98.40625 L 26.324219 98.617188 C 28.050781 94.054688 31.089844 89.746094 34.878906 86.027344 C 42.257812 79.210938 53.167969 74.960938 56.785156 64.875 C 56.621094 78.890625 44.941406 89.90625 33.769531 97.785156 C 29.160156 101.832031 24.714844 106.441406 22.179688 111.644531 C 21.929688 108.109375 22.703125 104.558594 22.449219 100.773438 C 21.234375 88.539062 20.351562 74.574219 28.992188 65.503906 Z M 28.992188 65.503906 " fill-opacity="1" fill-rule="nonzero"/><path fill="#5badff" d="M 7.976562 107.335938 C 7.664062 94.941406 12.804688 84.820312 20.046875 75.582031 C 20.257812 75.476562 20.40625 75.265625 20.675781 75.316406 C 12.703125 87.445312 19.300781 102.722656 18.9375 116.515625 L 17.886719 130.636719 C 18.042969 130.738281 18.042969 131.160156 18.410156 131 C 18.882812 129.425781 18.984375 127.742188 19.300781 126.125 C 21.179688 114.734375 31.058594 106.652344 39.6875 98.78125 C 41.53125 96.722656 43.160156 94.632812 44.105469 92.21875 C 43.402344 97.886719 41.625 103.609375 39.277344 108.851562 C 32.558594 121.964844 20.152344 132.726562 17.886719 147.738281 C 16.785156 133.351562 7 122.59375 7.976562 107.335938 Z M 7.976562 107.335938 " fill-opacity="1" fill-rule="nonzero"/><path fill="#5badff" d="M 1.945312 124.964844 C 2.835938 121.089844 3.519531 117.078125 5.203125 113.519531 C 2.011719 129.910156 13.023438 141.71875 16.632812 155.921875 C 18.144531 161.238281 18.515625 166.945312 20.675781 171.929688 C 20.878906 172.039062 21.054688 171.828125 21.175781 171.667969 C 15.800781 156.578125 23.5625 142.554688 31.363281 130.738281 C 33.257812 127.535156 34.351562 123.972656 35.296875 120.292969 C 36.125 127.121094 34.398438 134.988281 33.410156 142.078125 C 31.511719 151.101562 28.679688 159.65625 26.214844 168.414062 C 24.59375 173.882812 25.019531 180.054688 25.855469 185.789062 L 25.074219 185.164062 C 19.355469 174.605469 8.03125 166.371094 4.667969 154.835938 C 1.898438 145.640625 0.0585938 134.988281 1.945312 124.96875 Z M 1.945312 124.964844 " fill-opacity="1" fill-rule="nonzero"/><path fill="#5badff" d="M 1.433594 156.976562 C 2.691406 174.347656 21.351562 183.527344 30 197.910156 C 32.046875 200.851562 33.824219 204.105469 36.558594 206.570312 C 36.128906 204.71875 34.40625 203.160156 33.773438 201.265625 C 30.746094 195.234375 29.644531 188.046875 30.371094 180.757812 C 31.207031 171.882812 34.925781 163.648438 33.507812 154.316406 C 41.105469 170.722656 38.800781 191.199219 43.046875 208.976562 C 44.160156 212.863281 46.410156 216.335938 47.882812 220.050781 C 32.265625 209.40625 10.972656 199.273438 4.046875 179.761719 C 1.128906 173.03125 0.800781 164.703125 1.433594 156.976562 Z M 1.433594 156.976562 " fill-opacity="1" fill-rule="nonzero"/><path fill="#5badff" d="M 10.757812 196.863281 C 19.464844 216.582031 41.269531 218.214844 55.890625 230.222656 C 58.582031 232.613281 61.398438 234.640625 64.4375 236.058594 L 64.59375 235.898438 C 61.238281 232.859375 57.355469 229.398438 55.003906 225.460938 C 46.449219 213.550781 49.457031 196.867188 43.046875 184.054688 C 48.871094 191.03125 54.167969 198.28125 57.6875 206.199219 C 62.917969 219.117188 64.917969 233.710938 77.019531 243.476562 C 63.921875 239.15625 48.574219 240.363281 37.011719 232.285156 C 24.386719 224.519531 13.121094 211.34375 10.757812 196.867188 Z M 10.757812 196.863281 " fill-opacity="1" fill-rule="nonzero"/><path fill="#5badff" d="M 33.132812 233.65625 C 47.089844 249.554688 69.902344 244.25 88.496094 248.410156 C 91.125 248.765625 93.527344 249.820312 96.3125 249.394531 C 94.09375 247.988281 91.019531 248.140625 88.597656 246.863281 C 74.023438 241.738281 71.886719 225.941406 63.972656 215.289062 C 74.082031 222.007812 82.578125 231.074219 91.90625 239.855469 C 98.609375 245.734375 106.675781 248.449219 115.179688 250.179688 C 113.136719 250.925781 110.457031 250.722656 108.265625 251.296875 C 92.992188 255.054688 76.023438 261.203125 59.824219 255.699219 C 49.292969 252.378906 38.429688 244.042969 33.128906 233.65625 Z M 33.132812 233.65625 " fill-opacity="1" fill-rule="nonzero"/><g clip-path="url(#4a1c34cae1)"><path fill="#5badff" d="M 222.609375 270.703125 C 206.878906 276.578125 190.460938 270.433594 178.175781 261.105469 C 173.199219 257.941406 168.816406 253.382812 162.382812 253.785156 C 160.046875 253.742188 157.796875 253.855469 155.8125 254.429688 C 167.75 259.992188 178.839844 267.65625 188.976562 277.460938 C 187.265625 279.414062 185.054688 281.242188 182.96875 282.925781 C 173.199219 272.386719 162.382812 262.242188 150.269531 256.320312 C 147.894531 256.625 145.640625 258.054688 143.5 259.207031 C 133.636719 265.449219 123.886719 273.476562 116.554688 283.308594 L 110.253906 278.101562 C 120.308594 267.917969 131.433594 259.988281 143.597656 254.328125 C 131.644531 250.535156 123.839844 260.5625 114.765625 265.664062 C 104.1875 273.058594 88.980469 276.527344 76.199219 271.429688 C 69.324219 268.816406 62.667969 264.972656 57.6875 258.726562 C 67.746094 265.664062 82.726562 266.390625 94.167969 261.886719 C 109.515625 255.21875 125.464844 246.769531 143.96875 250.8125 C 146.855469 250.863281 149.664062 253.742188 152.390625 251.289062 C 166.144531 247.714844 181.714844 250.171875 193.554688 256.464844 L 205.757812 261.363281 C 217.101562 265.5625 231.765625 264.402344 241.488281 257.480469 C 236.488281 263.710938 229.660156 268.175781 222.609375 270.703125 Z M 222.609375 270.703125 " fill-opacity="1" fill-rule="nonzero"/></g><path fill="#5badff" d="M 239.460938 254.429688 C 221.796875 261.105469 204.03125 252.910156 187.105469 250.171875 L 183.847656 249.757812 L 183.847656 249.652344 C 191.941406 247.816406 199.792969 245.402344 206.234375 239.582031 C 215.722656 230.453125 224.164062 221.058594 234.699219 213.863281 C 226.886719 223.890625 226.058594 238.164062 213.152344 244.613281 C 209.957031 246.703125 205.929688 247.074219 202.632812 248.660156 C 207.332031 248.761719 211.636719 247.074219 216.289062 246.601562 C 233.59375 243.882812 253.390625 246.671875 265.53125 231.914062 C 261.023438 242.199219 249.738281 250.8125 239.460938 254.429688 Z M 239.460938 254.429688 " fill-opacity="1" fill-rule="nonzero"/><path fill="#5badff" d="M 271.550781 204.683594 C 264.578125 209.253906 257.507812 213.492188 250.804688 218.6875 L 250.804688 218.050781 C 261.070312 200.96875 256.050781 177.503906 262.378906 158.703125 L 264.738281 152.40625 C 263.417969 164.117188 268.496094 174.039062 268.140625 185.789062 C 267.785156 192.886719 265.46875 199.179688 261.746094 204.851562 L 262.378906 204.851562 C 267.40625 198.234375 271.335938 191.203125 277.214844 184.902344 C 286.339844 176.09375 295.613281 167.0625 296.8125 154.835938 C 299.910156 175.242188 288.472656 193.128906 271.550781 204.683594 Z M 271.550781 204.683594 " fill-opacity="1" fill-rule="nonzero"/><path fill="#5badff" d="M 147.65625 160.207031 L 150.824219 160.207031 L 150.824219 239.75 L 147.65625 239.75 Z M 147.65625 160.207031 " fill-opacity="1" fill-rule="evenodd"/><path fill="#5badff" d="M 130.480469 152.394531 L 132.71875 154.636719 L 76.492188 210.839844 L 74.257812 208.601562 Z M 130.480469 152.394531 " fill-opacity="1" fill-rule="evenodd"/><path fill="#5badff" d="M 125.101562 135.820312 L 125.101562 138.992188 L 45.648438 138.898438 L 45.648438 135.726562 Z M 125.101562 135.820312 " fill-opacity="1" fill-rule="evenodd"/><path fill="#5badff" d="M 132.652344 120.484375 L 130.414062 122.722656 L 74.230469 66.46875 L 76.476562 64.226562 Z M 132.652344 120.484375 " fill-opacity="1" fill-rule="evenodd"/><path fill="#5badff" d="M 150.792969 113.949219 L 147.625 113.945312 L 147.699219 34.402344 L 150.859375 34.40625 Z M 150.792969 113.949219 " fill-opacity="1" fill-rule="evenodd"/><path fill="#5badff" d="M 166.6875 121.539062 L 164.457031 119.292969 L 220.714844 63.121094 L 222.945312 65.367188 Z M 166.6875 121.539062 " fill-opacity="1" fill-rule="evenodd"/><path fill="#5badff" d="M 172.828125 139.242188 L 172.820312 136.070312 L 252.269531 135.972656 L 252.28125 139.140625 Z M 172.828125 139.242188 " fill-opacity="1" fill-rule="evenodd"/><path fill="#5badff" d="M 163.652344 155.433594 L 165.890625 153.183594 L 222.113281 209.390625 L 219.886719 211.628906 Z M 163.652344 155.433594 " fill-opacity="1" fill-rule="evenodd"/><path fill="#5badff" d="M 178.871094 57.808594 C 222.632812 74.183594 244.871094 123.027344 228.511719 166.835938 C 212.15625 210.644531 163.363281 232.910156 119.609375 216.535156 C 75.847656 200.15625 53.613281 151.3125 69.964844 107.503906 C 86.324219 63.695312 135.113281 41.429688 178.871094 57.804688 Z M 177.589844 61.242188 C 219.453125 76.910156 240.730469 123.640625 225.082031 165.554688 C 209.433594 207.46875 162.753906 228.769531 120.886719 213.101562 C 79.023438 197.4375 57.75 150.703125 73.394531 108.789062 C 89.046875 66.875 135.722656 45.574219 177.589844 61.242188 Z M 177.589844 61.242188 " fill-opacity="1" fill-rule="evenodd"/><path fill="#5badff" d="M 172.082031 75.992188 C 205.816406 88.617188 222.960938 126.269531 210.351562 160.039062 C 197.742188 193.808594 160.128906 210.972656 126.402344 198.351562 C 92.671875 185.726562 75.523438 148.070312 88.132812 114.304688 C 100.742188 80.53125 138.355469 63.367188 172.085938 75.992188 Z M 170.796875 79.445312 C 202.621094 91.355469 218.800781 126.886719 206.902344 158.75 C 195.003906 190.617188 159.515625 206.8125 127.6875 194.898438 C 95.859375 182.988281 79.679688 147.457031 91.578125 115.59375 C 103.476562 83.726562 138.964844 67.535156 170.796875 79.445312 Z M 170.796875 79.445312 " fill-opacity="1" fill-rule="evenodd"/><path fill="#5badff" d="M 165.496094 93.628906 C 189.507812 102.613281 201.707031 129.414062 192.734375 153.449219 C 183.757812 177.484375 156.988281 189.699219 132.980469 180.714844 C 108.972656 171.730469 96.773438 144.933594 105.746094 120.894531 C 114.722656 96.859375 141.488281 84.644531 165.496094 93.628906 Z M 164.316406 96.789062 C 186.582031 105.121094 197.898438 129.976562 189.578125 152.265625 C 181.253906 174.558594 156.429688 185.886719 134.164062 177.554688 C 111.898438 169.222656 100.582031 144.367188 108.90625 122.078125 C 117.226562 99.785156 142.054688 88.457031 164.316406 96.789062 Z M 164.316406 96.789062 " fill-opacity="1" fill-rule="evenodd"/><path fill="#5badff" d="M 158.089844 113.46875 C 171.160156 118.359375 177.800781 132.949219 172.917969 146.03125 C 168.03125 159.117188 153.460938 165.765625 140.390625 160.875 C 127.320312 155.984375 120.679688 141.398438 125.5625 128.3125 C 130.449219 115.226562 145.023438 108.578125 158.089844 113.46875 Z M 156.8125 116.890625 C 168 121.074219 173.679688 133.558594 169.5 144.753906 C 165.320312 155.953125 152.851562 161.640625 141.667969 157.457031 C 130.480469 153.269531 124.796875 140.789062 128.976562 129.589844 C 133.160156 118.394531 145.628906 112.703125 156.8125 116.890625 Z M 156.8125 116.890625 " fill-opacity="1" fill-rule="evenodd"/><path fill="#5badff" d="M 198.601562 45.242188 C 249.785156 73.441406 269.214844 137.511719 241.964844 188.253906 C 214.714844 239 151.058594 257.296875 99.878906 229.097656 C 48.695312 200.898438 29.269531 136.832031 56.519531 86.085938 C 83.765625 35.34375 147.421875 17.046875 198.605469 45.242188 Z M 196.8125 48.582031 C 246.136719 75.757812 264.859375 137.503906 238.597656 186.402344 C 212.339844 235.300781 150.992188 252.9375 101.664062 225.761719 C 52.335938 198.585938 33.617188 136.839844 59.878906 87.941406 C 86.136719 39.039062 147.480469 21.40625 196.808594 48.582031 Z M 196.8125 48.582031 " fill-opacity="1" fill-rule="evenodd"/><path fill="#5badff" d="M 211.027344 186.335938 C 211.089844 186.882812 210.902344 188.222656 211.15625 188.527344 C 211.417969 188.945312 212.398438 188.855469 212.824219 188.710938 C 213.984375 188.273438 215.136719 186.738281 215.675781 185.585938 C 216.050781 185.003906 216.304688 184.320312 216.222656 183.554688 L 215.410156 181.09375 C 215.207031 180.230469 214.933594 178.710938 214.015625 178.351562 C 214.101562 178.125 214.394531 177.765625 214.359375 177.441406 C 214.144531 176.46875 212.523438 176.722656 211.941406 177.4375 C 211.648438 177.792969 211.734375 178.558594 211.667969 179.003906 C 211.652344 179.886719 211.40625 181.671875 211.054688 182.476562 C 210.703125 183.277344 209.714844 184.359375 209.703125 185.242188 C 209.773438 185.898438 210.472656 186.273438 211.027344 186.335938 Z M 157 179.507812 L 157.289062 180.140625 C 157.300781 180.25 157.429688 180.460938 157.542969 180.449219 C 158.277344 181.15625 159.308594 179.519531 158.078125 179.300781 C 157.96875 179.308594 157.738281 179.21875 157.640625 179.339844 C 157.425781 179.359375 157.207031 179.378906 157 179.507812 Z M 157.816406 177.890625 C 157.316406 178.375 157.136719 178.722656 157.945312 179.089844 Z M 144.695312 168.269531 C 143.894531 169 143.957031 168.554688 143.546875 168.8125 C 143.242188 169.058594 143.496094 169.367188 143.21875 169.835938 C 143.132812 170.0625 142.8125 170.199219 142.839844 170.417969 C 142.765625 170.757812 143.117188 170.945312 143.453125 171.023438 C 143.902344 171.09375 145.207031 170.976562 145.617188 170.722656 C 146.019531 170.355469 145.859375 169.929688 146.046875 169.582031 C 146.144531 169.460938 146.335938 169.222656 146.433594 169.105469 C 146.484375 168.546875 145.3125 167.882812 144.695312 168.269531 Z M 176.199219 164.886719 L 176.316406 165.980469 L 176.191406 166.871094 C 177.375 166.65625 178.105469 166.257812 179.15625 165.835938 C 179.472656 165.695312 180.101562 165.417969 180.34375 165.617188 C 180.691406 165.808594 180.507812 166.152344 180.421875 166.382812 C 180.253906 166.835938 179.574219 167.671875 179.28125 168.027344 C 178.398438 168.988281 177.089844 169.105469 175.988281 170.085938 C 175.394531 170.691406 175.234375 171.257812 174.640625 171.859375 C 174.046875 172.464844 173.621094 172.613281 173.316406 172.859375 C 173.027344 173.21875 173.269531 173.417969 172.652344 173.800781 L 173.003906 173 C 172.667969 172.917969 172.230469 172.960938 171.976562 172.648438 C 171.832031 172.335938 171.796875 172.003906 171.871094 171.667969 C 172.019531 170.996094 172.15625 169.21875 172.546875 168.742188 C 172.644531 168.625 173.492188 168.328125 173.804688 168.1875 L 173.660156 168.863281 C 173.988281 168.835938 174.527344 168.785156 174.734375 168.65625 C 175.269531 168.496094 175.804688 167.347656 176.082031 166.882812 L 174.605469 167.453125 C 174.863281 166.769531 175.589844 165.382812 176.199219 164.886719 Z M 146.992188 168.171875 C 146.773438 169.183594 147.390625 168.796875 147.765625 169.207031 C 148.003906 169.402344 148.039062 169.730469 148.074219 170.058594 L 147.214844 170.246094 L 146.839844 170.832031 L 146.351562 171.425781 L 147.828125 171.84375 C 147.089844 172.132812 146.640625 172.0625 146.167969 172.765625 L 148.019531 172.597656 C 149.226562 172.601562 150.132812 172.851562 151.269531 172.195312 L 151.03125 171.996094 L 151.359375 170.976562 L 150.539062 170.5 L 150.25 169.863281 L 148.867188 168.226562 L 148.40625 168.046875 C 148.796875 167.570312 149.585938 166.726562 148.460938 166.496094 L 147.90625 166.4375 L 148.390625 165.84375 C 147.726562 165.792969 147.171875 165.734375 146.671875 166.21875 C 146.089844 166.929688 146.074219 167.8125 146.992188 168.171875 Z M 146.351562 154.015625 L 146.324219 154.789062 L 146.070312 154.480469 L 146.101562 155.800781 C 146.296875 156.554688 147.144531 156.257812 147.335938 156.019531 C 147.542969 155.890625 147.601562 155.441406 147.582031 155.226562 C 147.558594 155.007812 147.425781 154.800781 147.304688 154.699219 C 147.074219 154.609375 146.964844 154.621094 146.746094 154.636719 L 146.675781 153.984375 Z M 56.667969 160.96875 C 56.625 162.625 57.0625 162.585938 57.429688 163.984375 C 57.621094 164.738281 57.320312 164.988281 57.917969 166.476562 C 58.207031 167.113281 58.386719 167.757812 59.074219 168.023438 C 58.875 166.167969 58.648438 165.089844 58.027344 163.382812 C 57.582031 162.320312 57.242188 162.238281 56.886719 160.949219 Z M 207.015625 142.835938 C 206.496094 143.101562 206.3125 143.449219 206.371094 143.992188 C 206.320312 144.550781 206.800781 144.945312 207.335938 144.789062 C 208.074219 144.503906 208.199219 142.617188 207.015625 142.835938 Z M 104.136719 142.597656 C 103.867188 143.171875 103.816406 143.726562 104.410156 144.117188 C 104.351562 143.570312 104.507812 143.003906 104.136719 142.597656 Z M 136.277344 143.125 L 136.640625 143.425781 C 137.441406 142.691406 137.613281 142.234375 138.195312 141.523438 C 138.679688 140.925781 139.007812 140.898438 139.308594 140.652344 C 139.503906 140.410156 139.480469 140.191406 139.550781 139.855469 C 139.722656 139.398438 140.039062 139.261719 139.957031 138.496094 C 139.996094 137.832031 139.5625 136.878906 138.8125 137.058594 L 138.644531 136.523438 C 138.320312 136.550781 137.785156 136.710938 137.484375 136.957031 C 137.179688 137.203125 137.335938 137.632812 136.9375 137.996094 C 136.449219 138.589844 135.605469 138.886719 135.398438 139.015625 C 135.082031 139.15625 135.226562 139.472656 134.714844 139.851562 C 134.003906 140.355469 133.53125 140.066406 133.109375 140.214844 C 132.574219 140.371094 131.785156 141.214844 131.386719 141.582031 C 130.804688 142.292969 130.632812 142.75 130.390625 143.546875 C 130.304688 143.773438 130.121094 144.121094 130.253906 144.328125 C 130.386719 144.539062 130.710938 144.507812 130.917969 144.378906 C 131.34375 144.230469 132.273438 143.707031 132.613281 143.785156 C 132.9375 143.757812 133.074219 143.964844 133.300781 144.054688 C 133.640625 144.132812 133.859375 144.117188 134.085938 144.203125 C 134.316406 144.292969 134.570312 144.601562 134.808594 144.800781 C 135.390625 145.078125 135.972656 144.367188 136.144531 143.910156 C 136.230469 143.683594 136.3125 143.453125 136.277344 143.125 Z M 136.910156 134.691406 L 136.921875 134.800781 L 136.800781 134.703125 Z M 137.875 135.488281 C 138.164062 136.125 139.226562 136.800781 139.828125 137.296875 C 140.035156 137.167969 140.132812 137.050781 140.214844 136.820312 C 140.484375 136.246094 140.367188 135.152344 139.785156 134.875 C 139.4375 134.6875 139.011719 134.835938 138.699219 134.972656 C 138.6875 134.863281 138.542969 134.546875 138.421875 134.445312 C 137.566406 133.644531 136.496094 135.941406 137.875 135.488281 Z M 133.324219 134.023438 C 134.058594 134.730469 134.070312 134.839844 135.050781 134.75 C 134.902344 135.425781 134.027344 136.496094 133.316406 136.007812 C 132.847656 135.71875 132.796875 135.285156 132.570312 135.195312 C 132.21875 135.003906 132.191406 135.777344 132 136.015625 C 131.535156 136.828125 130.761719 136.789062 130.6875 138.117188 L 131.097656 137.859375 C 131.515625 138.703125 132.292969 137.753906 132.816406 137.484375 C 132.71875 137.605469 132.523438 137.84375 132.441406 138.070312 C 132.363281 138.410156 132.726562 138.707031 133.042969 138.566406 C 133.355469 138.429688 133.734375 137.84375 134.035156 137.597656 C 134.339844 137.351562 134.449219 137.339844 134.761719 137.199219 C 135.066406 136.953125 135.464844 136.585938 135.769531 136.339844 C 136.679688 135.597656 136.726562 136.03125 137.042969 134.902344 C 137.019531 134.683594 137.117188 134.566406 137.09375 134.347656 C 136.660156 133.394531 135.101562 134.195312 134.976562 134.097656 L 134.300781 133.9375 C 134.074219 133.847656 133.648438 133.996094 133.324219 134.023438 Z M 138.351562 133.792969 L 137.808594 133.84375 L 137.953125 134.160156 C 138.59375 133.992188 139.027344 133.953125 139.054688 133.179688 C 138.511719 133.226562 138.402344 133.238281 138.351562 133.792969 Z M 104.074219 135.878906 L 103.570312 138.351562 L 103.792969 139.429688 L 104.246094 141.59375 C 104.527344 141.128906 105.027344 139.652344 105.078125 139.097656 L 105.203125 138.203125 C 105.242188 137.539062 105.324219 137.3125 105.039062 136.675781 L 104.332031 137.289062 L 104.289062 135.859375 Z M 139.480469 133.03125 C 139.410156 132.375 139.53125 132.476562 140.085938 132.535156 L 140.078125 131.433594 C 139.761719 131.570312 139.328125 131.613281 139.023438 131.859375 C 138.539062 132.453125 138.597656 133 139.480469 133.03125 Z M 136.246094 131.558594 L 136.617188 131.964844 C 137.367188 131.789062 137.609375 131.984375 138.285156 132.144531 L 138.019531 131.726562 L 138.300781 131.261719 C 138.953125 131.203125 139.003906 130.648438 138.726562 130.121094 C 138.605469 130.023438 138.378906 129.933594 138.257812 129.832031 C 137.085938 129.167969 136.972656 130.167969 136.695312 130.636719 Z M 139.0625 131.195312 C 139.28125 131.175781 139.5 131.15625 139.703125 131.027344 C 140.105469 130.660156 139.878906 129.578125 139.527344 129.390625 C 139.1875 129.308594 139.007812 129.65625 139.03125 129.875 L 138.957031 130.210938 Z M 104.078125 133.894531 C 104.46875 133.421875 104.601562 132.636719 104.652344 132.082031 C 103.929688 132.476562 103.996094 133.132812 104.078125 133.894531 Z M 107.9375 126.828125 C 108.039062 127.808594 107.917969 128.703125 107.574219 129.613281 C 107.136719 130.644531 106.082031 132.0625 105.859375 133.074219 L 105.605469 132.765625 C 105.132812 133.46875 105.078125 135.019531 105.378906 135.761719 C 105.972656 135.160156 106.109375 134.375 106.472656 133.679688 C 107.191406 132.183594 108.152344 130.886719 108.519531 129.199219 C 108.582031 128.753906 108.671875 127.53125 108.40625 127.113281 C 108.273438 126.90625 108.164062 126.917969 107.9375 126.828125 Z M 207.027344 129.71875 C 207.597656 128.894531 207.75 127.230469 207.96875 126.214844 C 208.488281 123.855469 209.578125 122.765625 209.261719 119.820312 C 209.191406 119.164062 208.941406 117.863281 208.15625 117.714844 C 206.9375 117.601562 207.4375 119.210938 207.363281 119.546875 C 207.398438 119.875 207.3125 120.101562 207.226562 120.332031 C 206.691406 121.480469 206.941406 122.78125 206.960938 123.992188 L 206.730469 127.980469 Z M 189.40625 110.910156 C 189.425781 111.128906 189.546875 111.230469 189.679688 111.4375 C 189.800781 111.539062 189.921875 111.636719 190.042969 111.734375 C 190.742188 112.113281 191.105469 111.421875 190.839844 111.003906 C 190.710938 110.792969 190.265625 110.722656 190.046875 110.742188 C 189.828125 110.761719 189.609375 110.78125 189.40625 110.910156 Z M 205.683594 109.007812 C 205.789062 109.992188 206.183594 111.609375 206.601562 112.453125 L 207.5625 114.238281 L 208.699219 117.664062 C 209.28125 116.949219 208.972656 116.097656 208.78125 115.34375 C 208.289062 113.84375 207.582031 112.363281 206.992188 110.984375 C 206.585938 110.25 206.285156 109.503906 205.683594 109.007812 Z M 199.667969 107.234375 L 199.582031 108.453125 L 198.09375 107.925781 C 198.066406 108.703125 198.414062 109.882812 199.027344 110.488281 L 200.222656 111.371094 C 201.1875 112.167969 202.164062 113.070312 203.03125 113.984375 C 203.789062 114.910156 203.824219 115.238281 204.089844 115.652344 C 204.332031 115.851562 204.570312 116.050781 204.886719 115.914062 C 205.089844 115.785156 205.140625 115.230469 205.226562 115 L 205.59375 114.304688 C 205.75 113.742188 205.332031 112.898438 205.054688 112.371094 L 204.335938 110.78125 C 204.035156 110.039062 203.855469 109.394531 203.351562 108.777344 C 202.492188 107.972656 201.839844 108.03125 200.9375 107.78125 Z M 169.394531 108.742188 C 169.328125 109.1875 169.292969 109.851562 168.757812 110.011719 C 168.652344 110.019531 168.203125 109.949219 168.082031 109.851562 L 167.667969 111.101562 C 167.484375 111.449219 167.140625 112.359375 167.179688 112.6875 C 167.128906 113.242188 167.890625 113.175781 168.277344 112.699219 C 168.679688 112.332031 168.730469 111.777344 169.007812 111.3125 C 169.460938 110.390625 170.292969 109.984375 170.394531 108.871094 Z M 203.121094 104.609375 C 203.445312 105.574219 203.671875 105.664062 204.203125 106.496094 C 204.480469 107.023438 204.40625 107.359375 205.046875 107.191406 C 204.664062 106.675781 203.59375 104.898438 203.121094 104.609375 Z M 157.488281 110.472656 C 156.269531 110.363281 157.074219 111.722656 156.914062 112.285156 C 156.648438 112.863281 155.425781 113.742188 154.832031 113.355469 C 154.519531 113.496094 154.191406 113.523438 153.851562 113.445312 C 153.515625 113.363281 153.273438 113.164062 152.949219 113.195312 L 151.214844 114.453125 C 150.910156 114.699219 150.5 114.957031 150.0625 114.996094 C 149.738281 115.027344 149.300781 115.0625 149.109375 115.304688 C 148.804688 115.550781 149.09375 116.1875 149.238281 116.503906 L 149.757812 117.226562 C 148.691406 117.542969 148.773438 118.308594 148.878906 119.292969 C 148.9375 119.835938 149.148438 121.800781 149.300781 122.226562 C 149.46875 122.765625 150.183594 123.25 150.75 123.421875 C 151.101562 123.609375 151.65625 123.667969 151.980469 123.640625 L 152.058594 122.3125 L 152.382812 122.28125 L 152.71875 123.355469 C 152.828125 123.34375 153.046875 123.324219 153.15625 123.316406 L 154.507812 123.632812 C 154.628906 123.734375 154.628906 123.734375 154.75 123.832031 C 154.894531 124.148438 154.625 124.726562 154.660156 125.054688 C 154.851562 125.808594 155.636719 125.957031 156.292969 125.898438 C 156.273438 126.78125 156.359375 126.554688 156.308594 127.109375 C 156.371094 127.65625 156.042969 127.683594 156.714844 128.835938 C 156.847656 129.042969 157.125 129.570312 157.453125 129.542969 C 157.777344 129.511719 158.457031 128.679688 159.183594 128.285156 C 159.351562 128.820312 159.363281 128.929688 159.832031 129.21875 L 159.675781 129.78125 L 160.910156 129.011719 C 160.542969 130.695312 159.84375 130.316406 159.078125 131.378906 C 158.808594 131.953125 158.976562 132.492188 158.816406 133.054688 L 158.9375 133.15625 L 159.351562 132.898438 L 159.664062 132.757812 C 160.632812 132.5625 159.878906 133.730469 159.902344 133.949219 C 159.9375 134.277344 160.167969 134.367188 160.398438 134.457031 L 159.886719 134.832031 L 160.1875 135.578125 L 158.226562 135.753906 C 157.261719 135.949219 156.457031 136.683594 155.648438 137.308594 L 155.671875 137.527344 L 156.007812 137.605469 L 154.132812 138.546875 C 154.699219 138.714844 155.4375 138.429688 155.984375 138.378906 C 156.515625 138.222656 156.417969 138.339844 157.0625 138.171875 L 157.410156 138.363281 L 157.347656 138.808594 L 159.738281 139.585938 C 160.304688 139.753906 160.71875 139.496094 161.070312 139.6875 C 161.539062 139.976562 161.378906 140.539062 162.167969 140.6875 C 163.070312 140.9375 163.785156 140.433594 164.535156 140.257812 L 163.648438 141.21875 L 164.058594 141.953125 L 165.125 141.636719 C 164.335938 142.476562 164.375 141.816406 162.851562 141.949219 C 163.199219 142.140625 164.238281 142.597656 164.46875 142.6875 C 165.035156 142.859375 165.335938 142.609375 166.136719 142.867188 C 166.8125 143.027344 167.632812 143.503906 167.851562 142.492188 C 167.984375 142.703125 168.117188 142.910156 168.238281 143.011719 C 168.585938 143.199219 168.804688 143.179688 169.144531 143.257812 C 169.59375 143.328125 170.652344 144.003906 170.605469 144.5625 C 170.503906 144.679688 170.40625 144.796875 170.3125 144.917969 C 170.167969 144.597656 170.023438 144.28125 169.769531 143.976562 C 169.144531 143.257812 168.1875 143.566406 167.402344 143.414062 L 165.820312 143.007812 L 164.597656 142.894531 C 163.9375 142.84375 163.5625 142.4375 162.910156 142.496094 C 162.691406 142.515625 162.375 142.65625 162.402344 142.875 C 162.421875 143.089844 162.664062 143.292969 162.785156 143.390625 C 163.484375 143.765625 163.230469 143.460938 164.292969 144.136719 C 164.882812 144.523438 165.089844 144.394531 165.65625 144.5625 L 166.238281 144.84375 C 166.683594 144.914062 166.769531 144.683594 167.21875 144.753906 C 167.433594 144.734375 167.878906 144.804688 168.113281 144.894531 L 166.222656 145.726562 L 164.773438 145.527344 C 165.0625 146.160156 165.183594 146.261719 164.695312 146.855469 L 164.429688 146.4375 C 164.136719 146.792969 164.164062 147.011719 163.871094 147.371094 L 163.386719 147.964844 C 163.300781 148.191406 163.011719 148.550781 162.789062 148.570312 C 162.464844 148.597656 162.09375 148.191406 161.847656 147.992188 C 161.378906 147.703125 161.160156 147.722656 160.628906 147.882812 C 161.027344 148.507812 161.234375 148.378906 161.8125 148.65625 C 162.285156 148.945312 163.488281 149.9375 163.863281 150.347656 C 163.75 150.355469 163.644531 150.367188 163.558594 150.59375 C 163.363281 150.832031 163.578125 151.804688 163.832031 152.109375 C 164.070312 152.3125 164.304688 152.398438 164.625 152.371094 L 163.332031 153.589844 C 163.898438 153.757812 164.105469 153.628906 164.585938 154.027344 L 163.496094 154.125 L 162.0625 153.042969 L 160.566406 152.40625 C 161.125 152.464844 162.003906 152.496094 162.523438 152.230469 C 163.457031 151.703125 163.011719 150.644531 162.289062 150.046875 C 161.820312 149.757812 161.492188 149.789062 160.9375 149.726562 C 160.492188 149.65625 159.804688 149.386719 159.367188 149.425781 L 158.179688 149.644531 L 158.257812 149.304688 C 157.917969 149.226562 157.796875 149.128906 157.492188 149.375 C 157.132812 149.078125 157.121094 148.96875 156.675781 148.898438 L 156.730469 149.441406 L 156.238281 148.9375 L 156.191406 149.492188 C 155.921875 149.074219 155.910156 148.96875 155.453125 148.789062 L 155.820312 150.1875 L 155.640625 150.535156 C 155.035156 151.027344 155.042969 152.128906 155.113281 152.785156 C 155.253906 154.09375 154.960938 154.453125 154.851562 155.453125 C 154.824219 156.226562 155.078125 156.535156 154.867188 157.65625 C 154.808594 158.101562 154.390625 159.351562 154.207031 159.699219 L 153.722656 160.292969 L 153.359375 160.988281 C 153.171875 161.335938 152.871094 161.582031 152.6875 161.929688 C 152.515625 162.386719 152.757812 162.585938 152.890625 162.792969 C 153.070312 163.4375 152.613281 163.257812 153.371094 164.183594 L 152.984375 164.660156 L 153.417969 164.617188 C 153.171875 165.414062 153.667969 165.921875 154.417969 165.742188 C 154.949219 165.582031 155.53125 164.871094 155.691406 164.304688 L 155.910156 164.285156 L 157.375 166.6875 C 157.628906 166.996094 157.6875 167.542969 158.136719 167.613281 C 158.582031 167.683594 158.75 167.226562 158.933594 166.878906 C 159.128906 166.640625 159.335938 166.511719 159.527344 166.273438 C 159.796875 165.699219 159.269531 164.863281 159.320312 164.308594 C 159.378906 163.863281 159.683594 163.617188 159.734375 163.058594 C 159.652344 162.296875 159.085938 162.125 158.710938 161.71875 C 158.335938 161.3125 158.292969 160.875 158.230469 160.328125 C 158.101562 159.128906 158.71875 158.742188 158.832031 157.742188 C 158.871094 157.074219 158.496094 156.667969 158.449219 156.230469 C 158.414062 155.90625 158.488281 155.566406 158.816406 155.539062 C 159.566406 155.359375 159.65625 156.234375 159.71875 156.78125 L 159.617188 157.890625 C 159.554688 158.339844 159.371094 158.683594 159.433594 159.230469 C 159.589844 159.65625 159.84375 159.964844 159.984375 160.28125 C 160.238281 160.589844 160.273438 160.917969 160.515625 161.117188 C 160.742188 161.207031 160.863281 161.304688 161.082031 161.285156 C 161.308594 161.375 161.539062 161.464844 161.757812 161.445312 C 162.289062 161.285156 162.839844 160.246094 163.34375 159.871094 C 163.648438 159.621094 164.097656 159.691406 164.421875 159.664062 C 164.238281 160.011719 163.753906 160.605469 163.5625 160.84375 C 163.148438 161.097656 162.398438 161.277344 162.359375 161.941406 C 162.128906 162.84375 163.324219 162.738281 163.296875 163.511719 C 163.246094 164.066406 162.402344 163.371094 162.148438 164.054688 C 161.78125 164.75 162.265625 165.148438 162.433594 165.683594 C 162.46875 166.011719 162.285156 166.355469 162.210938 166.695312 C 161.75 167.507812 161.363281 166.992188 160.746094 167.378906 C 160.226562 167.644531 159.65625 168.46875 159.121094 168.625 C 158.699219 168.773438 158.335938 168.476562 158.007812 168.503906 C 157.574219 168.542969 157.210938 169.238281 156.488281 168.640625 C 155.75 167.9375 156.589844 167.53125 156.40625 166.886719 L 155.964844 165.824219 C 155.347656 166.207031 154.742188 166.707031 154.941406 167.570312 C 155.246094 168.3125 155.96875 168.910156 155.589844 169.492188 C 155.285156 169.742188 154.632812 169.800781 154.125 170.175781 C 153.507812 170.5625 152.863281 171.722656 152.65625 171.851562 C 152.351562 172.097656 152.027344 172.128906 151.726562 172.375 L 150.628906 173.464844 C 150.535156 173.585938 150.535156 173.585938 150.4375 173.703125 L 149.074219 173.273438 L 149.15625 174.039062 C 148.609375 174.085938 148.609375 174.085938 148.164062 174.019531 C 147.828125 173.9375 147.160156 173.886719 146.992188 174.34375 C 146.804688 174.691406 147.714844 174.941406 147.945312 175.027344 C 149.332031 175.675781 149.601562 177.195312 149.011719 177.800781 C 148.609375 178.164062 147.921875 177.898438 147.476562 177.828125 C 146.46875 177.695312 144.886719 177.289062 143.898438 177.265625 C 142.59375 177.382812 143.011719 178.226562 142.757812 178.910156 C 142.695312 179.359375 142.28125 179.617188 142.210938 179.953125 C 142.109375 180.070312 142.125 180.179688 142.136719 180.289062 C 142.125 180.179688 142.496094 181.582031 142.480469 181.472656 C 142.636719 181.898438 143.402344 181.832031 143.847656 181.898438 C 144.414062 182.070312 144.558594 182.386719 145.027344 182.675781 C 145.488281 182.855469 145.695312 182.726562 146.117188 182.578125 C 147.09375 182.488281 148.027344 182.957031 149.480469 182.164062 C 149.792969 182.027344 150.097656 181.78125 150.183594 181.550781 C 150.476562 181.195312 150.328125 180.875 150.730469 180.511719 C 151.226562 180.023438 152.195312 179.828125 152.703125 179.449219 C 153.105469 179.085938 152.816406 178.449219 153.554688 178.164062 C 154.085938 178.003906 154.675781 178.394531 155.414062 178.105469 C 156.054688 177.9375 156.746094 177.214844 157.390625 177.046875 C 158.042969 176.988281 158.449219 177.722656 159.355469 177.972656 L 162.957031 178.75 C 163.066406 178.738281 163.292969 178.832031 163.414062 178.929688 C 164.378906 179.722656 162.992188 180.070312 162.457031 180.230469 C 162.03125 180.375 161.925781 180.386719 161.488281 180.425781 C 161.609375 180.523438 161.621094 180.632812 161.742188 180.734375 C 162.203125 180.914062 163.3125 181.035156 163.714844 180.667969 C 163.90625 180.429688 163.886719 180.210938 163.851562 179.882812 C 164.269531 179.734375 164.476562 179.605469 164.648438 179.148438 C 164.613281 178.824219 164.46875 178.503906 164.773438 178.257812 C 164.964844 178.019531 165.398438 177.980469 165.730469 177.949219 C 165.222656 177.335938 164.8125 177.59375 164.144531 177.542969 C 163.808594 177.460938 163.675781 177.253906 163.335938 177.171875 C 163.007812 177.203125 162.707031 177.453125 162.25 177.273438 C 161.910156 177.191406 161.546875 176.894531 161.210938 176.8125 C 160.859375 176.625 159.964844 176.484375 160.015625 175.929688 C 160.101562 175.699219 160.199219 175.582031 160.414062 175.5625 C 160.515625 175.445312 160.621094 175.433594 160.734375 175.421875 L 160.886719 175.851562 C 162.050781 175.417969 161.671875 176 162.675781 176.128906 C 163.582031 176.378906 164.644531 176.0625 165.566406 176.421875 C 166.132812 176.589844 165.949219 176.9375 166.445312 177.445312 C 167.046875 177.941406 167.90625 177.753906 168.664062 177.6875 C 168.570312 177.804688 168.460938 177.816406 168.472656 177.925781 C 168.289062 178.273438 168.53125 178.46875 168.761719 178.558594 C 169.578125 179.035156 170.792969 178.046875 169.753906 177.589844 L 171.425781 176.777344 C 170.617188 176.410156 170.214844 176.777344 169.15625 176.101562 C 169.699219 176.050781 169.808594 176.042969 170.207031 175.675781 L 170.269531 175.226562 L 172.039062 174.296875 C 171.480469 175.230469 172.109375 174.953125 172.320312 175.925781 C 172.867188 175.875 173.542969 176.035156 174.089844 175.988281 C 174.511719 175.839844 175.671875 175.402344 175.976562 175.15625 C 176.277344 174.910156 176.355469 174.570312 176.65625 174.324219 L 177.914062 173.769531 C 178.425781 173.394531 178.8125 172.917969 179.203125 172.441406 C 179.394531 172.203125 179.589844 171.964844 179.929688 172.046875 C 180.386719 172.226562 180.503906 173.316406 180.550781 173.753906 C 180.695312 174.070312 180.851562 174.496094 180.886719 174.824219 C 180.820312 176.265625 179.3125 176.511719 178.402344 177.253906 C 177.796875 177.746094 177.332031 178.5625 176.703125 178.839844 C 175.890625 179.460938 173.566406 180.332031 172.5 180.648438 L 170.238281 181.070312 C 169.71875 181.339844 169.113281 181.835938 168.941406 182.289062 C 168.769531 182.746094 169.046875 183.273438 168.527344 183.539062 C 168.007812 183.808594 165.839844 184.109375 165.285156 184.050781 C 164.390625 183.910156 164.695312 183.664062 163.386719 183.78125 C 162.191406 183.890625 160.898438 184.117188 159.664062 183.894531 C 159.859375 183.65625 160.25 183.179688 160.320312 182.84375 C 160.40625 182.617188 160.285156 182.515625 160.261719 182.296875 C 160.25 182.191406 160.226562 181.972656 160.105469 181.871094 C 159.851562 181.5625 158.984375 181.640625 158.65625 181.671875 C 157.90625 181.847656 158.039062 182.058594 156.84375 182.164062 L 152.824219 182.636719 C 150.867188 182.8125 149.304688 183.613281 148.542969 183.683594 C 148 183.730469 146.777344 183.621094 146.210938 183.449219 C 145.75 183.273438 145.269531 182.875 144.75 183.140625 C 144.214844 183.300781 144.046875 183.753906 143.417969 184.03125 C 142.785156 184.308594 141.589844 184.417969 140.875 184.921875 C 140.160156 185.425781 140.535156 185.835938 139.699219 186.238281 C 139.273438 186.390625 137.847656 186.40625 137.304688 186.457031 C 136.097656 186.453125 135.488281 186.949219 134.4375 187.375 L 133.273438 187.808594 C 132.851562 187.957031 131.992188 188.144531 131.808594 188.492188 C 131.625 188.839844 131.890625 189.253906 131.925781 189.585938 C 131.960938 189.910156 131.886719 190.246094 131.8125 190.585938 C 131.246094 191.40625 129.777344 192.089844 130.015625 193.28125 C 130.207031 194.035156 130.65625 194.105469 131.496094 194.800781 C 132.605469 195.914062 133.433594 197.492188 134.628906 198.378906 C 136.171875 199.453125 138.402344 200.792969 140.3125 201.175781 L 143.625 201.316406 C 145.402344 201.488281 146.765625 201.917969 148.628906 201.859375 L 152.726562 201.160156 C 153.597656 201.082031 154.890625 200.855469 155.800781 201.105469 C 156.707031 201.351562 156.882812 202 158.515625 201.851562 L 160.789062 201.539062 C 161.324219 201.378906 161.746094 201.230469 162.324219 201.511719 C 163.726562 202.265625 161.351562 203.691406 162.4375 204.585938 C 163.039062 205.082031 165.03125 205.234375 165.832031 205.492188 C 166.386719 205.554688 168.136719 206.496094 168.511719 206.90625 C 168.753906 207.105469 168.773438 207.324219 169.027344 207.632812 C 169.277344 207.9375 169.847656 208.105469 169.882812 208.4375 C 169.917969 208.761719 169.214844 209.378906 169.019531 209.613281 C 168.425781 210.21875 167.269531 211.757812 167.921875 212.691406 C 168.175781 212.996094 168.863281 213.265625 169.214844 213.453125 L 172.390625 214.382812 C 173.765625 214.917969 173.882812 216.011719 174.714844 216.597656 C 175.304688 216.984375 176.285156 216.898438 177.058594 216.9375 L 180.332031 217.746094 C 181.46875 218.085938 180.996094 218.789062 181.886719 218.929688 C 183.777344 219.089844 186.671875 217.398438 188.210938 216.378906 L 191.332031 214.773438 C 192.582031 214.113281 193.707031 213.347656 194.832031 212.585938 C 196.96875 210.960938 198.714844 208.820312 199.773438 206.410156 C 200.136719 205.71875 201.171875 204.082031 201.234375 203.636719 C 201.378906 202.960938 200.679688 202.582031 200.949219 202.007812 C 201.300781 201.203125 202.722656 200.085938 203.0625 199.175781 C 203.34375 198.707031 203.261719 197.945312 202.789062 197.65625 C 202.332031 197.476562 202.027344 197.722656 201.121094 197.472656 C 201.804688 195.652344 203.046875 193.886719 204.074219 192.25 C 204.550781 191.546875 205.402344 190.257812 205.417969 189.375 C 205.421875 188.382812 204.535156 188.351562 204.164062 187.945312 C 203.804688 187.644531 203.886719 187.417969 203.65625 187.328125 C 203.199219 187.148438 202.472656 187.542969 202.023438 187.472656 C 201.699219 187.503906 201.457031 187.304688 201.230469 187.214844 C 200.875 187.027344 200.453125 187.175781 200.128906 187.203125 C 199.636719 185.707031 200.660156 182.96875 201.164062 181.492188 C 202.136719 178.316406 203.445312 175.113281 202.972656 171.738281 L 202.472656 169.140625 C 202.328125 168.820312 202.066406 168.40625 201.640625 168.554688 C 201 168.722656 200.4375 170.644531 200.167969 171.21875 L 198.699219 173.886719 C 198.320312 174.472656 198.078125 175.265625 197.578125 175.75 C 197.179688 176.117188 196.546875 176.394531 196.027344 176.660156 C 195.859375 176.125 195.546875 176.265625 195.121094 176.414062 L 193.148438 177.472656 C 192.738281 177.730469 191.925781 178.351562 191.378906 178.402344 C 190.945312 178.441406 190.691406 178.132812 190.050781 178.300781 C 189.617188 178.339844 188.878906 178.628906 188.539062 178.546875 C 188.09375 178.476562 187.609375 178.078125 187.164062 178.011719 C 186.828125 177.929688 186.183594 178.097656 185.867188 178.234375 C 184.78125 178.332031 183.078125 177.824219 181.953125 177.59375 C 182.160156 177.464844 182.378906 177.449219 182.355469 177.230469 C 182.515625 176.664062 181.644531 175.75 182.710938 175.433594 C 182.816406 175.425781 183.035156 175.402344 183.144531 175.394531 L 185.003906 175.335938 L 186.085938 175.128906 C 186.640625 175.191406 186.785156 175.507812 187.546875 175.441406 L 190.21875 174.757812 C 191.308594 174.660156 191.75 175.722656 192.878906 174.960938 C 193.800781 174.328125 194.664062 172.15625 194.996094 171.132812 L 195.945312 168.734375 L 196.3125 167.046875 C 196.730469 165.796875 197.105469 165.214844 196.953125 163.792969 L 196.730469 161.71875 C 196.636719 160.847656 196.460938 160.199219 195.5625 161.054688 C 194.867188 161.777344 194.625 162.570312 193.515625 162.449219 C 193.21875 163.800781 193.40625 165.546875 192.0625 166.328125 C 191.550781 166.703125 190.984375 166.535156 190.453125 166.691406 C 190.136719 166.832031 189.722656 167.089844 189.496094 167 C 189.167969 167.027344 188.929688 166.828125 188.894531 166.503906 C 188.953125 166.054688 189.691406 165.769531 190.011719 165.628906 C 191.0625 165.207031 191.59375 165.046875 192.371094 164.097656 C 192.84375 163.390625 192.894531 162.835938 193.273438 162.25 C 193.660156 161.777344 194 161.855469 194.386719 161.378906 C 194.675781 161.023438 195.214844 159.871094 195.492188 159.40625 L 196.824219 155.429688 C 197.46875 154.269531 198.546875 154.0625 198.828125 152.605469 L 198.996094 153.140625 C 200.148438 152.597656 200.136719 151.496094 199.914062 150.414062 C 200.566406 150.355469 201.894531 150.457031 202.425781 150.296875 L 204.898438 148.753906 C 205.515625 148.367188 206.535156 147.613281 206.679688 146.941406 C 206.851562 146.484375 206.144531 145.003906 205.890625 144.695312 C 205.757812 144.488281 205.640625 144.390625 205.40625 144.300781 C 204.839844 144.128906 204.089844 144.308594 203.683594 143.574219 C 203.175781 142.957031 202.613281 140.804688 202.195312 139.960938 C 201.292969 137.726562 201.234375 138.171875 200.8125 137.328125 C 200.535156 136.800781 200.585938 136.246094 200.527344 135.699219 C 200.371094 135.273438 200.117188 134.964844 200.097656 134.746094 C 200.046875 134.3125 200.351562 134.0625 200.644531 133.707031 C 201.105469 132.894531 201.035156 132.238281 201.53125 131.753906 C 201.933594 131.386719 202.285156 131.578125 202.464844 131.230469 C 203.132812 130.289062 201.515625 129.550781 202.0625 128.511719 C 202.339844 128.042969 203.132812 127.203125 203.675781 127.152344 C 204.097656 127.003906 204.449219 127.191406 204.871094 127.046875 C 205.285156 126.789062 205.3125 126.015625 205.484375 125.558594 C 205.90625 124.417969 206.574219 124.46875 206.734375 122.910156 C 206.785156 122.355469 206.8125 121.582031 206.550781 121.164062 C 206.042969 120.546875 205.328125 121.054688 205.15625 121.507812 C 204.78125 122.09375 204.863281 122.859375 204.933594 123.511719 C 204.894531 124.175781 204.769531 125.070312 204.394531 125.65625 C 203.933594 126.46875 202.992188 125.890625 202.726562 125.476562 C 202.59375 125.265625 202.679688 125.039062 202.65625 124.820312 C 202.671875 123.9375 202.417969 123.628906 202.640625 122.617188 C 202.699219 122.171875 203.113281 120.921875 202.984375 120.710938 C 202.945312 120.386719 201.949219 119.261719 201.699219 118.953125 C 201.203125 118.449219 200.3125 117.316406 199.488281 117.832031 C 198.761719 118.226562 198.914062 119.644531 198.777344 120.429688 C 198.703125 120.765625 198.554688 121.441406 198.230469 121.46875 C 198.027344 121.597656 197.660156 121.300781 197.421875 121.101562 C 196.808594 120.496094 196.433594 120.089844 196.328125 119.105469 C 196.664062 119.1875 197.574219 119.433594 197.636719 118.988281 C 197.585938 118.550781 197.070312 117.828125 196.632812 117.867188 C 196.1875 117.796875 196.125 118.242188 195.53125 117.855469 C 195.050781 117.457031 193.984375 115.679688 193.476562 115.0625 C 192.839844 114.238281 191.886719 113.554688 190.953125 113.085938 C 190.390625 112.917969 188.554688 112.199219 188.042969 112.578125 C 187.839844 112.707031 187.871094 113.03125 187.789062 113.261719 C 187.667969 113.160156 187.546875 113.0625 187.332031 113.082031 C 186.542969 112.933594 186.3125 113.835938 186.261719 114.390625 C 186.285156 114.609375 186.332031 115.046875 186.015625 115.183594 C 185.699219 115.320312 185.460938 115.125 185.21875 114.925781 C 184.628906 114.535156 184.617188 114.425781 183.820312 114.167969 C 183.976562 114.59375 184.128906 115.023438 184.394531 115.4375 C 185.035156 116.261719 185.46875 116.222656 185.367188 117.335938 C 184.449219 116.976562 183.414062 116.519531 182.785156 115.804688 L 183.632812 115.507812 L 183.609375 115.289062 C 183.261719 115.101562 182.066406 114.214844 182.019531 113.78125 C 181.984375 113.453125 182.417969 113.414062 182.382812 113.085938 C 182.460938 112.746094 182.109375 112.558594 182.277344 112.101562 C 182.570312 111.746094 183.199219 111.46875 183.152344 111.03125 C 183.128906 110.8125 182.886719 110.617188 182.660156 110.527344 C 182.191406 110.238281 181.355469 109.652344 180.859375 110.136719 C 180.457031 110.503906 180.761719 111.246094 180.539062 112.257812 C 180.199219 112.179688 179.617188 111.898438 179.28125 111.820312 C 178.835938 111.75 178.316406 112.015625 177.734375 111.738281 C 176.9375 111.480469 176.652344 110.84375 175.960938 110.574219 C 174.695312 110.027344 173.628906 110.34375 172.441406 110.5625 C 171.902344 110.609375 171.027344 110.6875 170.507812 110.957031 C 170.097656 111.214844 169.914062 111.558594 169.730469 111.90625 C 169.246094 112.503906 168.289062 112.808594 168.382812 113.679688 C 168.574219 114.4375 169.242188 114.488281 169.480469 114.683594 L 170.175781 116.054688 C 169.425781 116.230469 169.074219 116.042969 168.425781 116.101562 L 165.847656 116.664062 C 164.527344 116.671875 164.121094 115.9375 163.3125 115.570312 C 162.855469 115.390625 162.527344 115.417969 162.175781 115.230469 C 161.8125 114.933594 161.78125 114.605469 161.660156 114.503906 C 161.40625 114.199219 160.296875 114.078125 159.96875 114.105469 C 159.992188 114.324219 160.003906 114.433594 159.808594 114.671875 C 159.625 115.019531 158.695312 115.542969 158.257812 115.582031 C 158.054688 115.710938 157.714844 115.632812 157.484375 115.542969 L 157.546875 115.09375 C 157.597656 114.539062 157.269531 114.570312 156.847656 114.71875 C 156.203125 114.886719 155.816406 115.359375 155.308594 115.738281 C 155.492188 115.390625 155.664062 114.933594 155.953125 114.578125 C 156.355469 114.210938 156.886719 114.050781 157.40625 113.785156 L 159.050781 112.757812 C 159.464844 112.5 160.097656 112.222656 160.398438 111.972656 C 161.308594 111.230469 161.496094 108.898438 161.257812 107.710938 C 159.574219 108.410156 160.023438 108.480469 158.882812 109.132812 C 158.472656 109.390625 158.253906 109.410156 157.941406 109.550781 C 157.636719 109.796875 157.5625 110.136719 157.488281 110.472656 Z M 169.039062 106.460938 L 170.109375 107.246094 L 170.925781 108.714844 C 171.554688 108.4375 171.640625 108.207031 172.066406 108.0625 C 172.269531 107.933594 173.625 108.25 173.3125 107.398438 C 173.191406 107.296875 173.070312 107.199219 172.949219 107.101562 L 172.878906 107.4375 C 172.515625 107.136719 172.035156 106.742188 171.574219 106.5625 C 171.113281 106.382812 169.578125 106.410156 169.039062 106.460938 Z M 172.722656 107.011719 C 174.246094 106.875 173.980469 106.457031 174.851562 106.378906 C 175.273438 106.230469 175.949219 106.390625 176.398438 106.460938 L 176.335938 106.90625 C 177.253906 107.265625 177.195312 106.71875 177.871094 106.878906 C 178.558594 107.144531 178.980469 107.992188 180.117188 108.328125 C 180.574219 108.507812 180.804688 108.597656 181.21875 108.339844 C 181.480469 108.757812 181.589844 108.75 182.023438 108.710938 C 182.074219 108.152344 182.390625 108.015625 182.242188 107.695312 C 182.101562 107.378906 180.953125 106.929688 180.855469 108.042969 C 180.46875 107.527344 180.675781 107.398438 180.53125 107.082031 C 180.144531 106.5625 179.371094 106.523438 178.839844 106.679688 C 178.613281 105.597656 178.757812 105.917969 177.25 105.171875 C 176.777344 104.882812 175.742188 104.425781 175.183594 104.363281 C 174.519531 104.3125 174.347656 104.769531 173.828125 105.035156 C 173.539062 105.394531 173.199219 105.3125 172.898438 105.5625 C 172.605469 105.917969 172.675781 106.574219 172.722656 107.011719 Z M 195.71875 102.1875 L 197.09375 103.71875 C 197.609375 104.445312 198.128906 105.167969 198.742188 105.773438 C 199.222656 106.171875 199.914062 106.441406 200.554688 106.273438 C 200.976562 106.125 202.261719 104.796875 201.210938 104.230469 C 200.863281 104.042969 200.339844 104.308594 200.015625 104.335938 C 200.042969 103.5625 199.996094 103.128906 199.804688 102.371094 C 199.78125 102.15625 199.734375 101.71875 199.308594 101.867188 C 198.789062 102.132812 199.402344 103.730469 198.582031 103.253906 L 198.230469 103.066406 L 197.871094 102.765625 C 197.480469 103.242188 197.941406 103.421875 198.316406 103.828125 C 198.796875 104.226562 199.167969 104.632812 199.238281 105.289062 C 198.058594 104.511719 197.988281 103.859375 197.226562 102.9375 C 196.734375 102.429688 196.375 102.128906 195.71875 102.1875 Z M 200.4375 101.105469 C 200.738281 101.847656 201.902344 103.507812 202.703125 103.765625 C 202.160156 102.824219 201.464844 101.453125 200.4375 101.105469 Z M 119.875 109.113281 C 120.199219 109.082031 120.636719 109.042969 120.851562 109.023438 L 123.691406 109.871094 C 124.476562 110.019531 125.25 110.0625 125.769531 110.785156 C 124.355469 110.914062 124.65625 110.667969 123.53125 110.4375 C 122.53125 110.304688 122.226562 110.554688 121.453125 110.511719 C 121.003906 110.441406 120.777344 110.355469 120.4375 110.273438 L 117.523438 110.753906 C 116.75 110.714844 116.582031 110.179688 116.121094 110 C 115.652344 109.710938 115.230469 109.859375 114.816406 110.117188 C 114.082031 110.40625 113.363281 110.910156 112.648438 111.414062 C 111.316406 112.304688 109.777344 113.324219 108.820312 114.625 C 108.152344 115.566406 108.316406 116.101562 107.648438 117.042969 C 106.972656 117.875 105.410156 118.675781 104.351562 120.09375 C 103.585938 121.15625 103.65625 121.808594 103.367188 122.167969 C 103.171875 122.402344 101.828125 123.1875 101.511719 123.324219 C 101.199219 123.464844 100.871094 123.492188 100.664062 123.621094 C 100.363281 123.871094 100.179688 124.214844 99.996094 124.5625 L 98.917969 125.761719 C 98.640625 126.226562 97.507812 127.984375 97.445312 128.429688 C 97.417969 129.203125 98.664062 129.53125 98.007812 130.582031 C 97.910156 130.703125 97.8125 130.820312 97.714844 130.941406 C 97 131.445312 96.808594 130.691406 96.253906 130.628906 C 95.578125 130.472656 94.570312 131.332031 93.96875 130.835938 C 93.59375 130.429688 93.753906 129.863281 93.707031 129.425781 C 93.539062 128.890625 93.300781 128.691406 93.144531 128.265625 C 92.867188 127.738281 93.085938 126.726562 92.316406 125.695312 C 91.921875 125.070312 91.460938 124.890625 91.109375 125.695312 L 90.851562 126.375 C 90.421875 125.425781 90.664062 124.628906 89.878906 124.480469 C 88.875 124.351562 88.570312 125.589844 87.988281 126.304688 C 86.53125 128.085938 86.289062 127.890625 85.175781 128.761719 L 83.695312 130.324219 L 82.773438 130.960938 C 82.277344 131.445312 81.945312 132.46875 81.691406 133.152344 L 80.625 137.546875 C 80.390625 138.445312 80 139.917969 79.042969 140.222656 C 78.730469 140.359375 77.738281 140.339844 77.398438 140.257812 C 77.050781 140.070312 76.796875 139.761719 76.460938 139.679688 C 76.132812 139.710938 75.261719 139.789062 74.453125 139.421875 C 73.96875 139.023438 73.332031 138.199219 72.871094 138.019531 C 72.414062 137.839844 71.980469 137.878906 71.542969 137.917969 C 71 137.96875 70.238281 138.035156 69.789062 137.96875 C 68.65625 137.628906 67.921875 135.929688 67.492188 134.976562 C 67.335938 134.550781 67.046875 133.914062 66.699219 133.726562 C 66.214844 133.328125 65.632812 134.042969 65.066406 133.871094 C 64.621094 133.800781 63.628906 132.789062 63.050781 132.511719 C 62.929688 132.410156 62.566406 132.113281 62.363281 132.242188 C 62.144531 132.261719 62.082031 132.707031 62 132.9375 C 61.984375 133.820312 62.226562 134.015625 62.730469 134.632812 C 62.851562 134.734375 63.222656 135.140625 62.917969 135.386719 C 62.414062 135.765625 61.679688 134.066406 61.109375 134.890625 C 61.023438 135.117188 61.035156 135.226562 60.9375 135.34375 L 60.722656 135.363281 L 60.195312 133.539062 L 60.113281 132.773438 L 59.382812 131.078125 L 58.484375 131.929688 L 58.269531 130.957031 L 57.96875 130.210938 C 57.800781 129.675781 57.367188 129.714844 56.957031 129.972656 C 56.144531 130.597656 55.582031 131.527344 55.074219 131.90625 C 54.457031 132.292969 53.984375 132.003906 53.5625 132.152344 C 53.042969 132.417969 52.679688 133.113281 52.519531 133.679688 L 51.679688 138.160156 C 50.957031 141.644531 50.492188 142.457031 50.894531 146.167969 L 51.332031 148.222656 L 51.746094 151.050781 L 52.117188 152.449219 L 52.335938 152.429688 C 52.183594 151.007812 52.226562 148.359375 52.628906 147.003906 C 53.023438 145.535156 53.652344 145.257812 53.683594 143.492188 L 53.941406 144.902344 C 54.539062 144.296875 54.492188 143.859375 55.324219 143.453125 C 55.601562 143.980469 55.722656 144.078125 55.902344 144.726562 C 56.070312 145.261719 56.117188 145.695312 56.394531 146.222656 C 56.671875 146.75 56.898438 146.839844 57.164062 147.257812 C 57.417969 147.5625 57.582031 148.101562 57.738281 148.527344 C 58.039062 149.269531 58.277344 150.464844 59.183594 150.710938 C 59.535156 149.910156 59.433594 148.925781 59.445312 148.042969 C 59.53125 147.816406 59.570312 147.152344 59.773438 147.023438 C 60.308594 146.863281 60.523438 147.835938 60.558594 148.164062 C 60.867188 149.019531 61.09375 150.101562 61.613281 150.824219 C 62.152344 151.769531 62.578125 151.617188 63.285156 153.097656 L 63.445312 152.535156 C 63.746094 153.277344 63.367188 153.863281 64.1875 154.339844 C 64.140625 153.902344 64.050781 152.039062 64.230469 151.691406 C 64.316406 151.460938 64.644531 151.433594 64.863281 151.414062 L 65.371094 155.117188 C 65.417969 155.550781 65.582031 156.089844 65.835938 156.398438 C 66.453125 157.003906 67.167969 156.496094 67.441406 157.023438 L 67.871094 158.96875 C 68.242188 160.367188 68.757812 162.085938 69.332031 163.355469 C 69.765625 164.308594 70.339844 165.578125 71.074219 166.285156 C 71.328125 166.59375 71.703125 167 72.125 166.851562 C 72.550781 166.703125 72.382812 166.167969 72.453125 165.832031 C 72.519531 165.386719 72.722656 165.257812 72.796875 164.917969 C 72.847656 164.363281 72.667969 163.714844 72.945312 163.25 C 72.800781 163.925781 73.027344 164.015625 73.097656 164.671875 C 73.191406 165.542969 73.40625 166.515625 73.71875 167.371094 C 74.1875 168.652344 74.53125 169.832031 75.316406 170.972656 C 75.832031 171.699219 77.027344 172.582031 77.75 173.179688 C 78.738281 174.191406 79.714844 175.097656 80.90625 175.980469 L 82.332031 176.957031 L 83.515625 177.730469 C 84.5625 178.300781 84.675781 177.296875 85.328125 177.238281 C 85.667969 177.316406 86.859375 178.203125 87.222656 178.5 C 89.054688 180.210938 88.449219 179.714844 89.714844 181.253906 L 92.570312 184.300781 C 93.304688 185.007812 94.21875 186.359375 95.222656 186.488281 L 96.226562 186.621094 C 97.347656 186.847656 98.605469 187.289062 99.777344 186.960938 C 100.214844 186.921875 100.515625 186.675781 100.710938 186.4375 C 101 186.078125 101.171875 185.625 101.609375 185.585938 C 102.054688 185.652344 103.09375 186.113281 103.550781 186.292969 C 104.710938 186.847656 106.351562 187.804688 107.585938 188.023438 C 108.816406 188.242188 109.703125 187.28125 109.5 186.417969 C 109.1875 185.5625 107.886719 184.6875 107.1875 183.320312 C 106.515625 182.167969 106.050781 180.886719 105.277344 179.855469 L 103.507812 177.699219 L 102.449219 176.03125 L 101.933594 175.304688 C 101.800781 175.097656 101.609375 174.34375 101.574219 174.015625 L 100.363281 170.925781 C 99.8125 169.875 98.722656 169.972656 98.015625 168.496094 C 98.519531 169.109375 99.484375 169.90625 100.171875 170.171875 C 99.863281 169.320312 99.164062 167.949219 98.648438 167.226562 L 97.539062 166.113281 C 98.140625 166.609375 98.625 167.007812 99.410156 167.15625 L 99.640625 166.253906 C 99.984375 165.339844 100.296875 165.203125 100.289062 164.101562 C 100.199219 162.234375 98.480469 159.523438 98.234375 157.234375 C 98.125 156.25 98.347656 155.238281 98.460938 154.238281 L 98.488281 152.472656 C 98.453125 152.144531 98.648438 151.90625 98.710938 151.460938 L 98.691406 150.25 C 98.839844 149.574219 98.925781 149.347656 98.855469 148.691406 L 98.328125 146.863281 L 98.296875 145.542969 L 98.109375 143.796875 C 97.96875 142.488281 98.671875 141.875 98.792969 140.984375 C 98.859375 140.535156 98.292969 139.375 98.050781 139.175781 C 97.699219 138.984375 96.953125 139.164062 97.21875 138.589844 C 97.488281 138.015625 98.472656 139.027344 98.726562 139.335938 C 99.046875 138.203125 98.804688 138.003906 98.589844 137.03125 L 98.175781 134.203125 C 97.984375 133.449219 97.503906 133.054688 97.46875 132.726562 C 97.542969 132.386719 97.867188 132.359375 98.253906 131.882812 C 98.644531 131.40625 98.804688 130.84375 98.855469 130.285156 L 98.875 128.410156 C 98.996094 127.519531 99.75 126.347656 100.707031 126.042969 C 101.671875 125.84375 102.660156 126.859375 103.207031 126.808594 C 103.75 126.761719 104.015625 126.1875 104.199219 125.839844 L 105.457031 122.199219 L 105.675781 122.179688 C 106.214844 123.125 106.785156 123.292969 107.515625 123.996094 L 108.144531 124.714844 C 108.265625 124.8125 108.472656 124.683594 108.679688 124.554688 C 109.066406 124.078125 109.53125 122.273438 109.253906 121.746094 C 109.097656 121.320312 108.617188 120.921875 108.449219 120.386719 C 108.414062 120.058594 108.597656 119.714844 108.777344 119.367188 C 109.035156 118.679688 109.171875 117.898438 109.667969 117.414062 C 110.648438 116.332031 112.609375 116.15625 113.804688 117.042969 C 114.40625 117.539062 114.332031 117.875 114.585938 118.183594 C 114.960938 118.589844 115.503906 118.542969 115.683594 119.1875 C 115.707031 119.40625 115.65625 119.960938 115.582031 120.296875 C 115.652344 120.953125 115.785156 121.160156 115.527344 121.84375 C 115.164062 122.539062 114.558594 123.035156 114.3125 123.828125 C 113.972656 124.742188 114.527344 124.800781 114.390625 125.585938 C 114.148438 126.378906 113.554688 126.984375 113.308594 127.777344 C 113.027344 128.242188 113.074219 128.679688 112.570312 129.054688 C 112.15625 129.3125 111.492188 129.261719 111.054688 129.300781 C 110.414062 129.46875 109.90625 129.84375 109.386719 130.113281 C 109.40625 130.332031 109.429688 130.546875 109.5625 130.757812 C 109.742188 131.402344 110.289062 131.351562 110.816406 131.195312 C 111.675781 131.007812 112.816406 130.355469 113.660156 131.050781 C 114.394531 131.757812 114.617188 133.832031 115.246094 134.542969 C 115.847656 135.042969 116.285156 135.003906 116.960938 135.164062 C 117.417969 135.34375 117.769531 135.53125 118.128906 135.828125 C 118.972656 136.523438 118.707031 137.097656 119.089844 137.617188 C 119.453125 137.914062 119.769531 137.777344 120.140625 138.183594 L 121.738281 140.792969 L 122.84375 139.8125 C 123.214844 140.222656 123.652344 140.179688 123.703125 139.625 C 123.667969 139.296875 123.488281 138.65625 123.34375 138.335938 C 124.078125 139.042969 124.136719 139.585938 124.132812 140.578125 C 124.15625 140.796875 124.074219 141.027344 124.207031 141.234375 C 124.25 141.671875 124.78125 142.503906 125.140625 142.804688 C 125.613281 143.089844 125.925781 142.953125 126.339844 142.695312 C 126.714844 142.109375 126.9375 141.097656 127.519531 140.386719 C 128.003906 139.789062 128.972656 139.59375 129.847656 138.523438 C 129.617188 138.433594 128.929688 138.164062 129.003906 137.828125 C 129.175781 137.371094 129.828125 137.3125 130.238281 137.054688 C 130.84375 136.558594 131.308594 135.746094 131.441406 134.964844 L 130.113281 134.863281 L 129.328125 134.710938 L 128.238281 134.8125 L 127.167969 134.023438 L 125.621094 133.945312 C 125.886719 133.367188 126.070312 133.019531 126.722656 132.960938 C 127.050781 132.933594 127.507812 133.113281 127.714844 132.984375 C 128.136719 132.835938 128.089844 132.398438 128.394531 132.152344 C 128.976562 131.4375 129.832031 131.25 129.960938 130.359375 C 130.851562 130.496094 131.046875 130.261719 131.492188 130.328125 C 132.410156 130.6875 132.695312 132.316406 133.117188 133.160156 C 131.980469 132.820312 132.195312 133.792969 132.167969 134.566406 C 132.582031 134.308594 133.066406 133.714844 133.488281 133.566406 L 134.917969 133.550781 C 135.242188 133.519531 135.339844 133.402344 135.65625 133.261719 C 136.40625 133.085938 136.898438 133.589844 137.296875 134.21875 C 137.707031 133.960938 137.683594 133.742188 137.417969 133.324219 L 137.964844 133.273438 L 137.652344 132.421875 C 137.109375 132.46875 136.988281 132.371094 136.828125 132.9375 C 136.359375 132.648438 136.359375 132.648438 135.804688 132.585938 L 136.203125 132.222656 L 136.179688 132.003906 C 135.25 131.535156 136.316406 131.21875 136.472656 130.652344 C 136.546875 130.316406 136.417969 130.109375 136.28125 129.898438 L 137.652344 129.335938 C 138.234375 128.625 138.726562 129.128906 138.972656 128.335938 C 140.09375 128.566406 139.726562 127.167969 140.574219 126.871094 C 140.777344 126.742188 141.117188 126.820312 141.335938 126.800781 C 141.648438 126.664062 141.960938 126.523438 142.277344 126.386719 C 142.714844 126.347656 142.933594 126.328125 143.355469 126.179688 C 143.765625 125.921875 144.144531 125.335938 144.433594 124.980469 C 144.628906 124.742188 145.027344 124.375 145.113281 124.148438 C 145.1875 123.808594 145.042969 123.492188 144.988281 122.945312 C 145.433594 123.015625 145.761719 122.988281 146.050781 122.628906 C 146.355469 122.382812 146.304688 121.945312 145.847656 121.765625 C 145.738281 121.777344 145.410156 121.808594 145.304688 121.816406 L 146.808594 120.46875 L 147.101562 119.121094 L 146.675781 119.269531 L 146.828125 118.59375 L 145.628906 118.703125 C 145.820312 118.464844 146.40625 117.75 146.597656 117.511719 C 147.109375 117.136719 147.664062 117.195312 147.921875 116.511719 C 146.84375 116.71875 145.523438 117.71875 144.84375 118.550781 L 143.785156 119.96875 L 143.847656 119.523438 C 142.785156 119.839844 142.851562 120.492188 142.441406 120.75 L 142.234375 120.878906 C 142.5625 120.851562 140.375 120.9375 140.714844 121.015625 C 140.15625 120.957031 139.554688 120.460938 139.070312 120.0625 C 138.710938 119.761719 138.457031 119.457031 138.046875 119.714844 L 136.007812 118.132812 C 136.199219 117.894531 136.300781 117.777344 136.058594 117.578125 C 135.816406 117.378906 135.25 117.207031 134.777344 116.921875 C 133.933594 116.226562 133.972656 115.558594 133.867188 114.578125 C 133.773438 113.703125 133.664062 113.714844 133.367188 112.96875 C 133.222656 112.652344 133.199219 112.433594 132.945312 112.125 C 132.691406 111.816406 132.101562 111.429688 131.738281 111.132812 C 131.257812 110.734375 130.65625 110.238281 130.097656 110.175781 C 129.3125 110.027344 128.707031 110.523438 128.03125 110.363281 C 127.460938 110.195312 126.726562 109.488281 126.039062 109.21875 C 125.59375 109.148438 125.050781 109.199219 124.613281 109.238281 C 124.589844 109.019531 124.542969 108.582031 124.3125 108.492188 C 123.964844 108.304688 123.332031 108.582031 122.898438 108.621094 C 122.464844 108.660156 122.320312 108.339844 121.980469 108.261719 C 121.644531 108.179688 120.105469 108.210938 119.914062 108.445312 C 119.707031 108.574219 119.851562 108.894531 119.875 109.113281 Z M 197.65625 97.71875 C 198.546875 98.847656 200.136719 100.359375 201.480469 100.570312 C 201.082031 99.945312 200.742188 99.863281 200.261719 99.464844 C 199.550781 98.980469 198.34375 97.984375 197.65625 97.71875 Z M 188.941406 93.320312 L 188.664062 92.792969 C 189.125 92.972656 189.585938 93.152344 189.847656 93.570312 C 189.992188 93.886719 190.015625 94.105469 190.050781 94.433594 C 190.121094 95.085938 191.265625 96.527344 191.929688 96.578125 C 192.160156 96.667969 192.148438 96.558594 192.367188 96.539062 L 191.804688 94.386719 C 191.550781 94.078125 191.238281 94.214844 190.863281 93.808594 L 188.601562 91.144531 C 188.464844 90.9375 187.960938 90.320312 188.035156 89.984375 C 188.226562 89.746094 188.773438 89.699219 188.992188 89.679688 L 186.917969 87.769531 C 186.675781 87.570312 186.304688 87.164062 185.878906 87.3125 C 185.457031 87.460938 185.296875 88.027344 185.113281 88.375 C 184.933594 88.722656 184.640625 89.078125 184.675781 89.40625 C 184.832031 89.832031 185.328125 90.339844 185.578125 90.644531 L 187.507812 92.234375 C 188.003906 92.742188 188.253906 93.050781 188.941406 93.320312 Z M 217.160156 93.097656 C 216.875 91.472656 215.828125 89.914062 214.601562 88.699219 L 212.667969 87.109375 C 211.925781 86.296875 211.117188 84.9375 210.023438 83.933594 C 208.816406 82.9375 207.910156 82.691406 206.839844 81.902344 L 205.015625 80.304688 L 201.761719 77.621094 C 200.917969 76.925781 199.917969 75.800781 199.277344 74.980469 C 198.628906 74.042969 198.8125 73.699219 198.4375 73.289062 C 198.183594 72.984375 197.269531 72.625 196.820312 72.554688 L 196.992188 72.097656 L 196.183594 71.730469 C 196.632812 70.808594 196.003906 71.085938 195.367188 70.261719 C 195.113281 69.953125 195.066406 69.515625 194.667969 68.890625 C 194.042969 68.175781 193.210938 67.589844 192.390625 67.113281 L 188.421875 64.933594 C 187.140625 64.277344 185.390625 63.332031 183.953125 63.242188 C 182.851562 63.230469 182.148438 63.84375 181.070312 64.050781 C 180.105469 64.246094 178.015625 64.214844 177.34375 65.15625 C 176.667969 65.988281 178.367188 67.488281 178.980469 68.09375 L 180.703125 69.8125 C 181.199219 70.320312 181.339844 70.636719 181.84375 71.253906 C 182.328125 71.652344 183.269531 72.230469 183.65625 72.746094 C 184.039062 73.261719 183.398438 73.429688 183.914062 74.152344 C 184.3125 74.78125 185.277344 75.574219 185.566406 76.210938 C 185.722656 76.636719 185.792969 77.292969 186.15625 77.589844 C 186.503906 77.78125 186.914062 77.519531 187.242188 77.492188 C 187.773438 77.335938 189.339844 76.53125 189.808594 76.820312 C 190.277344 77.109375 191.882812 78.730469 192.253906 79.136719 C 192.496094 79.335938 192.988281 79.839844 192.914062 80.179688 C 192.976562 80.726562 191.261719 80.105469 191.667969 80.84375 C 191.800781 81.050781 192.851562 81.617188 193.214844 81.914062 L 194.550781 83.117188 L 196.105469 84.300781 C 196.464844 84.597656 196.863281 85.222656 197.214844 85.414062 C 197.902344 85.683594 198.253906 84.878906 198.847656 85.265625 C 200.003906 85.824219 200.835938 87.402344 202.039062 88.394531 C 202.859375 88.875 203.0625 88.746094 203.753906 89.015625 C 204.332031 89.292969 204.707031 89.699219 205.296875 90.085938 C 206.226562 90.554688 206.300781 90.21875 207.386719 91.113281 C 208.832031 92.304688 210.0625 93.515625 211.300781 94.839844 C 211.796875 95.34375 213.015625 96.449219 213.582031 96.617188 C 213.691406 96.605469 213.796875 96.597656 213.910156 96.585938 L 215.15625 95.925781 C 215.15625 95.925781 215.265625 95.914062 215.253906 95.804688 C 215.324219 95.46875 215.277344 95.03125 215.351562 94.695312 C 215.425781 94.355469 215.632812 94.230469 215.695312 93.78125 C 215.765625 93.445312 215.699219 92.789062 216.011719 92.652344 C 216.328125 92.511719 216.929688 93.007812 217.160156 93.097656 Z M 190.597656 64.738281 C 190.550781 64.300781 190.429688 64.203125 190.273438 63.773438 C 189.625 62.839844 188.902344 62.246094 187.875 61.894531 C 187.539062 61.816406 186.523438 61.578125 186.339844 61.921875 C 186.058594 62.390625 187.242188 63.164062 187.589844 63.355469 C 187.953125 63.652344 188.414062 63.832031 188.773438 64.128906 C 189.476562 64.507812 189.8125 64.585938 190.597656 64.738281 Z M 147.964844 55.5625 C 149.40625 55.652344 149.945312 55.605469 151.324219 56.140625 C 152.578125 56.582031 153.3125 57.285156 154.753906 57.378906 L 153.140625 55.648438 L 154.058594 55.015625 C 153.578125 54.617188 153.363281 54.636719 152.890625 54.347656 C 152.648438 54.148438 152.625 53.929688 152.386719 53.734375 C 152.167969 53.753906 151.621094 53.800781 151.40625 53.820312 C 150.761719 53.988281 150.230469 54.148438 149.492188 54.433594 C 148.851562 54.601562 147.992188 54.789062 147.964844 55.5625 Z M 154.5625 52.546875 C 154.40625 53.109375 153.871094 53.269531 153.363281 53.644531 C 153.480469 53.742188 153.496094 53.855469 153.617188 53.953125 C 153.96875 54.140625 155.757812 54.421875 156.203125 54.492188 C 157.304688 54.503906 157.339844 53.839844 158.636719 53.613281 L 160.253906 53.355469 C 161.777344 53.21875 163.855469 53.144531 165.214844 52.46875 C 164.699219 51.746094 164.371094 51.773438 163.574219 51.515625 C 162.328125 51.1875 161 51.085938 159.730469 51.53125 C 158.554688 51.855469 158.601562 52.292969 157.078125 52.429688 Z M 131.449219 239.328125 C 106.03125 233.898438 136.617188 240.40625 131.449219 239.328125 Z M 131.449219 239.328125 " fill-opacity="1" fill-rule="nonzero"/></svg>