<svg xmlns="http://www.w3.org/2000/svg" xmlns:xlink="http://www.w3.org/1999/xlink" width="400" zoomAndPan="magnify" viewBox="0 0 300 299.999988" height="400" preserveAspectRatio="xMidYMid meet" version="1.0"><defs><clipPath id="8a56a38bac"><path d="M 13.125 0 L 286.875 0 L 286.875 300 L 13.125 300 Z M 13.125 0 " clip-rule="nonzero"/></clipPath></defs><g clip-path="url(#8a56a38bac)"><path fill="#d6a051" d="M 133.09375 148.632812 C 125.175781 146.851562 117.453125 141.882812 113.988281 134.3125 L 113.988281 134.28125 C 114.003906 134.222656 114.039062 134.191406 114.082031 134.222656 C 114.097656 134.222656 114.113281 134.222656 114.113281 134.253906 C 119.578125 140.914062 125.832031 144.0625 133.15625 148.484375 L 133.183594 148.484375 C 133.214844 148.542969 133.199219 148.601562 133.140625 148.628906 L 133.09375 148.628906 Z M 103.9375 220.027344 C 110.976562 218.148438 115.863281 218.964844 123.039062 220.089844 C 123.144531 220.089844 123.191406 220.058594 123.160156 219.96875 C 123.160156 219.910156 123.144531 219.875 123.097656 219.847656 C 123.050781 219.789062 122.976562 219.757812 122.867188 219.730469 C 115.890625 218.425781 110.816406 217.367188 103.808594 219.695312 C 103.734375 219.636719 103.707031 219.695312 103.734375 219.878906 C 103.734375 220 103.808594 220.0625 103.933594 220.03125 Z M 64.730469 180.667969 C 74.824219 188.996094 86.042969 195.445312 98.367188 199.988281 C 98.367188 199.988281 98.382812 200.019531 98.398438 200.019531 C 98.460938 200.019531 98.503906 199.957031 98.503906 199.898438 L 98.503906 199.867188 C 98.472656 199.777344 98.441406 199.683594 98.410156 199.597656 C 98.363281 199.445312 98.289062 199.351562 98.15625 199.292969 C 84.652344 192.449219 75.101562 187.605469 64.566406 180.15625 C 64.566406 180.15625 64.515625 180.128906 64.488281 180.128906 C 64.429688 180.128906 64.386719 180.191406 64.386719 180.25 L 64.386719 180.308594 C 64.460938 180.554688 64.570312 180.671875 64.734375 180.671875 Z M 124.128906 158.355469 C 132.507812 160.019531 140.039062 163.019531 146.277344 169.042969 C 146.3125 169.074219 146.355469 169.105469 146.382812 169.074219 C 146.445312 169.074219 146.488281 169.015625 146.519531 168.921875 C 146.566406 168.863281 146.566406 168.777344 146.503906 168.710938 C 140.890625 162.351562 132.847656 159.601562 124.722656 158.085938 L 119.457031 156.816406 C 119.40625 156.816406 119.378906 156.816406 119.363281 156.847656 C 119.347656 156.90625 119.335938 156.964844 119.304688 157.027344 C 119.289062 157.089844 119.304688 157.148438 119.378906 157.148438 L 124.128906 158.359375 Z M 140.136719 142.523438 C 140.433594 146.183594 140.101562 149.273438 142.644531 152.273438 C 144.78125 154.820312 146.597656 157.570312 148.113281 160.535156 C 148.203125 160.71875 148.261719 160.71875 148.28125 160.507812 C 148.972656 153 145.417969 146.761719 140.40625 141.769531 C 140.363281 141.734375 140.304688 141.703125 140.242188 141.703125 C 140.167969 141.703125 140.074219 141.769531 140.027344 141.824219 C 139.921875 142.066406 139.953125 142.308594 140.136719 142.523438 Z M 53.8125 89.535156 C 52.785156 113.152344 57.082031 135.402344 69.949219 155.476562 C 70.449219 156.265625 70.996094 157.597656 71.886719 158.324219 C 71.929688 158.355469 71.992188 158.386719 72.066406 158.386719 C 72.21875 158.386719 72.339844 158.269531 72.339844 158.117188 C 72.339844 158.085938 72.324219 158.023438 72.308594 157.996094 C 71.054688 155.421875 68.492188 150.425781 64.617188 142.976562 C 55.171875 124.90625 54.191406 101.285156 54.339844 81.152344 C 54.339844 81 54.292969 80.96875 54.191406 81.0625 C 54.070312 81.152344 54.003906 81.242188 54.003906 81.359375 C 53.988281 84.085938 53.914062 86.808594 53.808594 89.535156 Z M 150 46.695312 L 150.152344 46.722656 C 155.507812 46.90625 159.71875 51.207031 159.554688 56.289062 C 159.375 61.253906 155.144531 65.164062 150 65.21875 C 144.855469 65.160156 140.628906 61.253906 140.460938 56.289062 C 140.277344 51.203125 144.492188 46.902344 149.863281 46.722656 Z M 163.09375 56.652344 L 164.125 56.257812 C 164.261719 56.230469 164.335938 56.109375 164.335938 55.984375 C 164.335938 55.835938 164.246094 55.714844 164.109375 55.683594 L 162.992188 55.351562 C 162.671875 55.257812 162.503906 55.046875 162.460938 54.746094 C 161.746094 48.535156 156.902344 46.054688 151.527344 45.023438 C 151.199219 44.964844 150.910156 44.75 150.773438 44.421875 L 150.242188 43.179688 C 150.183594 43.058594 150.109375 42.996094 150 42.933594 C 149.894531 42.996094 149.820312 43.054688 149.773438 43.179688 L 149.226562 44.421875 C 149.089844 44.753906 148.800781 44.96875 148.472656 45.023438 C 143.109375 46.054688 138.25 48.535156 137.542969 54.746094 C 137.496094 55.046875 137.328125 55.257812 137.011719 55.351562 L 135.890625 55.683594 C 135.753906 55.714844 135.664062 55.835938 135.664062 55.984375 C 135.664062 56.105469 135.753906 56.230469 135.875 56.257812 L 136.910156 56.652344 C 137.121094 56.746094 137.242188 56.867188 137.289062 57.109375 C 137.96875 60.773438 138.816406 64.648438 142.417969 66.402344 C 143.644531 67.003906 146.824219 67.367188 150 67.398438 C 153.195312 67.367188 156.375 67.003906 157.582031 66.402344 C 161.199219 64.644531 162.046875 60.773438 162.714844 57.109375 C 162.757812 56.863281 162.878906 56.746094 163.09375 56.652344 Z M 150 79.511719 C 150.105469 79.511719 150.199219 79.453125 150.304688 79.269531 C 151.46875 77.332031 152.433594 75.335938 153.253906 73.277344 C 153.585938 72.398438 153.464844 71.671875 152.84375 71.066406 C 152.792969 71 152.765625 70.972656 152.738281 70.914062 C 152.648438 70.703125 152.753906 70.460938 152.980469 70.339844 C 153.046875 70.339844 153.085938 70.308594 153.148438 70.308594 L 189.707031 69.308594 C 189.75 69.308594 189.765625 69.28125 189.765625 69.214844 L 189.765625 68.972656 C 189.765625 68.941406 189.75 68.914062 189.707031 68.914062 C 187.570312 68.699219 184.574219 68.546875 180.683594 68.425781 C 170.453125 68.183594 160.265625 67.851562 150 67.851562 C 139.734375 67.851562 129.5625 68.183594 119.316406 68.425781 C 115.421875 68.546875 112.425781 68.699219 110.304688 68.914062 C 110.261719 68.914062 110.230469 68.941406 110.230469 68.972656 L 110.230469 69.214844 C 110.230469 69.28125 110.261719 69.308594 110.304688 69.308594 L 146.863281 70.308594 C 146.910156 70.308594 146.96875 70.339844 147.03125 70.339844 C 147.242188 70.460938 147.347656 70.707031 147.257812 70.914062 C 147.230469 70.976562 147.199219 71.003906 147.152344 71.066406 C 146.550781 71.667969 146.410156 72.398438 146.757812 73.277344 C 147.5625 75.335938 148.542969 77.332031 149.691406 79.269531 C 149.800781 79.453125 149.90625 79.511719 149.996094 79.511719 Z M 166.90625 148.632812 C 174.824219 146.851562 182.5625 141.882812 186.011719 134.3125 L 186.011719 134.28125 C 185.996094 134.222656 185.964844 134.191406 185.933594 134.222656 C 185.902344 134.222656 185.886719 134.222656 185.886719 134.253906 C 180.425781 140.914062 174.167969 144.0625 166.84375 148.484375 C 166.820312 148.484375 166.804688 148.492188 166.796875 148.511719 C 166.78125 148.542969 166.8125 148.601562 166.859375 148.628906 L 166.902344 148.628906 Z M 150 299.984375 L 150.03125 299.984375 C 150.378906 293.777344 151.316406 287.695312 152.816406 281.730469 C 156.414062 267.46875 167.105469 254.054688 182.199219 251.574219 C 191.75 250.003906 202.964844 253.722656 211.140625 259.082031 C 212.503906 259.964844 213.609375 260.625 214.488281 261.082031 C 215.050781 261.382812 215.152344 261.265625 214.800781 260.75 C 208.539062 251.421875 199.089844 246.640625 187.84375 246.425781 C 170.421875 246.0625 157.6875 257.902344 150.238281 272.824219 C 150.179688 272.917969 150.105469 273.011719 149.996094 273.039062 C 149.890625 273.011719 149.816406 272.917969 149.769531 272.824219 C 142.324219 257.902344 129.570312 246.0625 112.164062 246.425781 C 100.917969 246.640625 91.457031 251.421875 85.207031 260.75 C 84.84375 261.265625 84.949219 261.382812 85.503906 261.082031 C 86.386719 260.625 87.503906 259.964844 88.851562 259.082031 C 97.027344 253.722656 108.242188 250 117.792969 251.574219 C 132.890625 254.054688 143.59375 267.46875 147.175781 281.730469 C 148.675781 287.695312 149.613281 293.78125 149.976562 299.984375 Z M 196.066406 220.027344 C 189.023438 218.148438 184.136719 218.964844 176.960938 220.089844 C 176.867188 220.089844 176.8125 220.058594 176.839844 219.96875 C 176.839844 219.910156 176.871094 219.875 176.902344 219.847656 C 176.953125 219.789062 177.023438 219.757812 177.148438 219.730469 C 184.109375 218.425781 189.183594 217.367188 196.191406 219.695312 C 196.265625 219.636719 196.292969 219.695312 196.265625 219.878906 C 196.265625 220 196.191406 220.0625 196.070312 220.03125 Z M 235.269531 180.667969 C 225.175781 188.996094 213.957031 195.445312 201.632812 199.988281 L 201.605469 200.019531 C 201.539062 200.019531 201.496094 199.957031 201.496094 199.898438 L 201.496094 199.867188 C 201.542969 199.777344 201.558594 199.683594 201.589844 199.597656 C 201.632812 199.445312 201.707031 199.351562 201.84375 199.292969 C 215.34375 192.449219 224.898438 187.605469 235.433594 180.15625 C 235.449219 180.15625 235.476562 180.128906 235.511719 180.128906 C 235.574219 180.128906 235.628906 180.191406 235.628906 180.25 L 235.628906 180.308594 C 235.554688 180.554688 235.433594 180.671875 235.265625 180.671875 Z M 175.871094 158.355469 C 167.5 160.019531 159.960938 163.019531 153.738281 169.042969 C 153.691406 169.074219 153.644531 169.105469 153.617188 169.074219 C 153.558594 169.074219 153.523438 169.015625 153.480469 168.921875 C 153.4375 168.863281 153.449219 168.777344 153.496094 168.710938 C 159.113281 162.351562 167.152344 159.601562 175.296875 158.085938 L 180.550781 156.816406 C 180.59375 156.816406 180.640625 156.816406 180.640625 156.847656 C 180.65625 156.90625 180.671875 156.964844 180.699219 157.027344 C 180.714844 157.089844 180.6875 157.148438 180.640625 157.148438 L 175.875 158.359375 Z M 159.886719 142.523438 C 159.582031 146.183594 159.902344 149.273438 157.355469 152.273438 C 155.222656 154.820312 153.40625 157.570312 151.886719 160.535156 C 151.796875 160.71875 151.742188 160.71875 151.726562 160.507812 C 151.027344 153 154.585938 146.761719 159.597656 141.769531 C 159.640625 141.734375 159.703125 141.703125 159.765625 141.703125 C 159.855469 141.703125 159.929688 141.769531 159.976562 141.824219 C 160.097656 142.066406 160.070312 142.308594 159.886719 142.523438 Z M 246.199219 89.535156 C 247.214844 113.152344 242.917969 135.402344 230.0625 155.476562 C 229.546875 156.265625 229.003906 157.597656 228.109375 158.324219 C 228.066406 158.355469 228.003906 158.386719 227.945312 158.386719 C 227.792969 158.386719 227.671875 158.269531 227.671875 158.117188 C 227.671875 158.085938 227.671875 158.023438 227.691406 157.996094 C 228.945312 155.421875 231.503906 150.425781 235.378906 142.976562 C 244.824219 124.90625 245.804688 101.285156 245.660156 81.152344 C 245.660156 81 245.703125 80.96875 245.824219 81.0625 C 245.941406 81.152344 245.988281 81.242188 245.988281 81.359375 C 246.023438 84.085938 246.082031 86.808594 246.203125 89.535156 Z M 149.996094 208.917969 C 150.070312 208.917969 150.148438 208.886719 150.210938 208.824219 C 161.003906 202.199219 171.496094 195.054688 181.683594 187.421875 C 195.792969 176.886719 209.761719 161.054688 211.441406 142.765625 C 211.695312 139.917969 211.488281 135.410156 210.804688 129.203125 C 208.414062 107.769531 205.78125 84.003906 213.910156 62.988281 C 213.925781 62.929688 213.941406 62.929688 213.957031 62.867188 C 214.109375 62.65625 214.394531 62.597656 214.621094 62.75 C 214.65625 62.78125 214.683594 62.8125 214.714844 62.8125 L 218.457031 66.777344 C 218.625 66.960938 218.65625 67.140625 218.589844 67.351562 C 213.824219 82.582031 214.261719 99.109375 216.03125 115.339844 C 217.246094 126.417969 217.925781 133.476562 218.09375 136.503906 C 219.304688 160.359375 203 180.011719 184.167969 193.605469 C 173.316406 201.449219 162.019531 208.863281 150.292969 215.824219 C 150.1875 215.886719 150.09375 215.917969 150.003906 215.945312 C 149.914062 215.917969 149.824219 215.882812 149.714844 215.824219 C 138 208.863281 126.707031 201.445312 115.839844 193.605469 C 97.019531 180.015625 80.703125 160.363281 81.910156 136.503906 C 82.078125 133.476562 82.761719 126.421875 83.972656 115.339844 C 85.746094 99.109375 86.199219 82.582031 81.414062 67.351562 C 81.351562 67.136719 81.398438 66.957031 81.566406 66.777344 L 85.304688 62.8125 C 85.304688 62.8125 85.351562 62.78125 85.382812 62.75 C 85.609375 62.597656 85.894531 62.65625 86.046875 62.867188 C 86.0625 62.933594 86.097656 62.933594 86.097656 62.988281 C 94.238281 84.003906 91.605469 107.769531 89.214844 129.203125 C 88.515625 135.414062 88.304688 139.921875 88.5625 142.765625 C 90.242188 161.050781 104.214844 176.886719 118.320312 187.421875 C 128.511719 195.054688 139.015625 202.199219 149.796875 208.824219 C 149.871094 208.890625 149.933594 208.917969 150.007812 208.917969 Z M 149.996094 189.75 C 154.675781 189.933594 157.246094 195.410156 159.988281 198.746094 C 160.183594 198.988281 160.140625 199.195312 159.886719 199.378906 L 150.832031 205.3125 C 150.765625 205.339844 150.679688 205.371094 150.585938 205.371094 C 150.386719 205.371094 150.207031 205.253906 150.164062 205.042969 L 149.996094 204.375 L 149.828125 205.042969 C 149.785156 205.253906 149.601562 205.371094 149.40625 205.371094 C 149.3125 205.371094 149.222656 205.339844 149.160156 205.3125 L 140.105469 199.378906 C 139.851562 199.195312 139.820312 198.984375 140.015625 198.746094 C 142.742188 195.410156 145.328125 189.933594 149.992188 189.75 Z M 149.996094 181.667969 L 150.558594 181.574219 C 150.601562 181.546875 150.632812 181.546875 150.664062 181.546875 C 151.027344 181.546875 151.3125 181.847656 151.3125 182.210938 C 151.3125 182.273438 151.3125 182.332031 151.296875 182.363281 L 150.359375 185.816406 C 150.332031 185.933594 150.195312 186.027344 150.058594 186.027344 L 149.941406 186.027344 C 149.804688 186.027344 149.683594 185.933594 149.636719 185.816406 L 148.699219 182.363281 C 148.683594 182.332031 148.683594 182.269531 148.683594 182.210938 C 148.683594 181.847656 148.96875 181.546875 149.332031 181.546875 C 149.382812 181.546875 149.410156 181.546875 149.4375 181.574219 L 150 181.667969 Z M 149.996094 22.351562 C 151.675781 25.773438 154.023438 28.710938 157.078125 31.128906 C 171.429688 42.542969 187.902344 47.601562 206.476562 46.300781 C 206.746094 46.269531 206.925781 46.394531 206.957031 46.695312 C 207.59375 50.71875 208.910156 54.535156 210.894531 58.078125 C 211.03125 58.347656 211.046875 58.625 210.9375 58.863281 C 202.144531 82.996094 204.609375 108.726562 207.945312 133.980469 C 211.832031 163.40625 182.886719 183.359375 161.996094 197.289062 C 161.878906 197.347656 161.753906 197.40625 161.601562 197.40625 C 161.390625 197.40625 161.179688 197.289062 161.054688 197.105469 C 157.195312 191.992188 150.078125 183.117188 162.570312 181.515625 C 162.75 181.515625 162.816406 181.421875 162.75 181.242188 C 162.722656 181.179688 162.691406 181.125 162.632812 181.058594 C 162.539062 181 162.402344 180.941406 162.21875 180.941406 C 159.8125 180.878906 157.4375 180.789062 155.0625 180.695312 C 149.535156 180.453125 150.214844 174.1875 153.183594 171.523438 C 161.871094 163.742188 171.394531 172.097656 179.28125 166.648438 C 179.535156 166.464844 179.507812 166.34375 179.203125 166.316406 C 177.160156 165.980469 174.074219 165.648438 172.632812 164.011719 C 172.617188 164.011719 172.601562 163.984375 172.566406 163.953125 C 172.507812 163.800781 172.566406 163.617188 172.734375 163.53125 L 172.785156 163.53125 C 175.191406 163.078125 177.972656 162.953125 180.007812 162.289062 C 185.347656 160.589844 189.359375 157.230469 192.054688 152.144531 C 192.222656 151.8125 192.144531 151.71875 191.8125 151.871094 C 187.089844 154.023438 185.199219 151.78125 181.0625 151.507812 C 175.566406 151.144531 170.84375 154.871094 166.484375 157.746094 C 166.425781 157.777344 166.378906 157.804688 166.320312 157.804688 C 166.183594 157.804688 166.066406 157.683594 166.066406 157.535156 C 166.066406 157.535156 166.066406 157.472656 166.082031 157.441406 C 170.410156 147.117188 182.5 149.265625 189.527344 142.699219 C 195.097656 137.492188 196.339844 131.34375 193.207031 124.203125 C 193.089844 123.929688 192.992188 123.929688 192.921875 124.203125 C 191.136719 131.074219 187.695312 136.792969 182.613281 141.367188 C 176.164062 147.179688 166.054688 148.726562 160.707031 155.625 C 157.632812 159.59375 154.636719 163.648438 151.734375 167.738281 C 151.734375 167.738281 151.699219 167.765625 151.667969 167.765625 C 151.621094 167.796875 151.550781 167.765625 151.515625 167.707031 L 151.515625 167.640625 C 153.246094 154.625 165.414062 146.664062 174.527344 139.0625 C 177.832031 136.304688 179.023438 133.914062 178.902344 129.738281 C 178.886719 129.496094 178.769531 129.4375 178.539062 129.523438 L 176.175781 130.527344 L 176.085938 130.527344 C 175.949219 130.527344 175.84375 130.402344 175.84375 130.28125 C 175.84375 130.222656 175.859375 130.164062 175.917969 130.101562 C 177.75 128.347656 178.703125 126.921875 178.796875 125.863281 C 179.34375 119.441406 177.207031 114.265625 172.378906 110.390625 C 172.046875 110.089844 172.015625 110.117188 172.304688 110.453125 C 176.984375 115.84375 176.527344 120.808594 170.992188 125.347656 C 170.222656 125.984375 169.175781 127.738281 168.914062 128.980469 C 167.398438 136.304688 167.929688 142.753906 161.117188 147.691406 C 160.847656 147.871094 160.707031 147.8125 160.722656 147.476562 L 161.027344 140.96875 C 161.042969 140.726562 161.144531 140.484375 161.34375 140.335938 C 163.402344 138.578125 166.535156 135.699219 167.324219 133.097656 C 167.324219 133.066406 167.339844 133.03125 167.339844 133.003906 C 167.339844 132.855469 167.1875 132.707031 167.035156 132.707031 C 166.929688 132.707031 166.839844 132.765625 166.78125 132.855469 C 165.539062 135.15625 163.84375 137.097656 161.738281 138.671875 C 161.660156 138.730469 161.558594 138.761719 161.449219 138.761719 C 161.222656 138.761719 161.015625 138.609375 160.964844 138.367188 C 160.722656 136.882812 160.347656 135.433594 159.875 134.007812 C 159.875 133.976562 159.84375 133.914062 159.8125 133.914062 C 159.753906 133.855469 159.660156 133.886719 159.617188 133.945312 C 159.585938 134.011719 159.585938 134.039062 159.585938 134.066406 L 160.117188 138.914062 C 160.132812 139.183594 160.050781 139.429688 159.859375 139.640625 C 156.40625 143.121094 153.136719 146.542969 151.734375 151.417969 C 151.683594 151.535156 151.613281 151.597656 151.503906 151.597656 C 151.371094 151.597656 151.25 151.476562 151.25 151.351562 C 151.449219 149.207031 151.355469 147.113281 152.234375 145.089844 C 156.265625 135.976562 163.058594 126.589844 158.394531 116.324219 C 158.304688 116.144531 158.109375 115.992188 157.878906 115.992188 C 157.730469 115.992188 157.578125 116.085938 157.46875 116.175781 C 153.246094 120.570312 152.292969 128.648438 151.929688 134.429688 C 151.929688 134.492188 151.894531 134.550781 151.824219 134.550781 C 151.761719 134.582031 151.6875 134.613281 151.613281 134.640625 C 151.503906 134.667969 151.445312 134.640625 151.460938 134.523438 C 151.992188 128.828125 152.277344 125.136719 152.308594 123.410156 C 152.382812 118.566406 157.152344 117.296875 157.304688 111.996094 C 157.398438 108.546875 153.125 101.945312 151.519531 98.644531 C 151.371094 98.34375 151.222656 98.34375 151.070312 98.644531 C 150.707031 99.398438 150.355469 100.128906 149.996094 100.796875 C 149.648438 100.128906 149.285156 99.402344 148.921875 98.644531 C 148.773438 98.34375 148.621094 98.34375 148.472656 98.644531 C 146.867188 101.945312 142.609375 108.542969 142.691406 111.996094 C 142.839844 117.296875 147.609375 118.570312 147.683594 123.410156 C 147.714844 125.136719 148.003906 128.828125 148.535156 134.523438 C 148.546875 134.640625 148.488281 134.667969 148.382812 134.640625 C 148.308594 134.609375 148.246094 134.578125 148.167969 134.550781 C 148.089844 134.550781 148.0625 134.488281 148.0625 134.429688 C 147.699219 128.648438 146.746094 120.566406 142.523438 116.175781 C 142.417969 116.085938 142.265625 115.992188 142.109375 115.992188 C 141.882812 115.992188 141.6875 116.144531 141.597656 116.324219 C 136.933594 126.589844 143.730469 135.976562 147.757812 145.089844 C 148.636719 147.117188 148.558594 149.207031 148.742188 151.351562 C 148.742188 151.472656 148.636719 151.597656 148.488281 151.597656 C 148.382812 151.597656 148.304688 151.535156 148.257812 151.417969 C 146.867188 146.542969 143.582031 143.121094 140.132812 139.640625 C 139.929688 139.429688 139.859375 139.1875 139.886719 138.914062 L 140.402344 134.066406 C 140.402344 134.035156 140.402344 134.007812 140.375 133.945312 C 140.328125 133.886719 140.238281 133.855469 140.175781 133.914062 C 140.144531 133.914062 140.132812 133.980469 140.113281 134.007812 C 139.644531 135.429688 139.28125 136.882812 139.023438 138.367188 C 138.976562 138.609375 138.78125 138.761719 138.542969 138.761719 C 138.4375 138.761719 138.328125 138.730469 138.253906 138.671875 C 136.152344 137.097656 134.46875 135.15625 133.210938 132.855469 C 133.152344 132.765625 133.0625 132.707031 132.96875 132.707031 C 132.800781 132.707031 132.664062 132.855469 132.664062 133.003906 L 132.664062 133.097656 C 133.453125 135.699219 136.585938 138.574219 138.644531 140.335938 C 138.84375 140.484375 138.949219 140.730469 138.964844 140.96875 L 139.265625 147.476562 C 139.28125 147.8125 139.160156 147.871094 138.871094 147.691406 C 132.058594 142.757812 132.589844 136.304688 131.078125 128.980469 C 130.820312 127.738281 129.773438 125.984375 129 125.347656 C 123.441406 120.804688 123.019531 115.839844 127.683594 110.453125 C 127.96875 110.121094 127.953125 110.089844 127.605469 110.390625 C 122.78125 114.265625 120.644531 119.441406 121.191406 125.863281 C 121.285156 126.921875 122.238281 128.34375 124.085938 130.101562 C 124.128906 130.164062 124.144531 130.222656 124.144531 130.28125 C 124.144531 130.402344 124.042969 130.527344 123.902344 130.527344 L 123.8125 130.527344 L 121.445312 129.523438 C 121.21875 129.433594 121.117188 129.496094 121.101562 129.738281 C 120.964844 133.914062 122.160156 136.308594 125.476562 139.0625 C 134.574219 146.664062 146.757812 154.625 148.472656 167.640625 C 148.488281 167.671875 148.472656 167.707031 148.472656 167.707031 C 148.4375 167.765625 148.367188 167.796875 148.320312 167.765625 C 148.304688 167.765625 148.289062 167.738281 148.273438 167.738281 C 145.351562 163.648438 142.355469 159.59375 139.28125 155.625 C 133.933594 148.722656 123.828125 147.179688 117.378906 141.367188 C 112.292969 136.796875 108.855469 131.074219 107.066406 124.203125 C 106.992188 123.929688 106.902344 123.929688 106.785156 124.203125 C 103.664062 131.34375 104.902344 137.492188 110.476562 142.699219 C 117.488281 149.269531 129.59375 147.117188 133.910156 157.441406 C 133.925781 157.472656 133.925781 157.503906 133.925781 157.503906 C 133.925781 157.683594 133.820312 157.804688 133.65625 157.804688 C 133.609375 157.804688 133.5625 157.777344 133.519531 157.746094 C 129.160156 154.867188 124.421875 151.144531 118.929688 151.507812 C 114.796875 151.78125 112.914062 154.023438 108.195312 151.871094 C 107.863281 151.71875 107.773438 151.8125 107.941406 152.144531 C 110.636719 157.230469 114.648438 160.589844 119.992188 162.289062 C 122.023438 162.953125 124.820312 163.074219 127.199219 163.53125 L 127.242188 163.53125 C 127.425781 163.621094 127.5 163.800781 127.425781 163.953125 C 127.410156 163.984375 127.394531 164.011719 127.363281 164.011719 C 125.925781 165.648438 122.835938 165.980469 120.792969 166.316406 C 120.492188 166.34375 120.476562 166.464844 120.714844 166.648438 C 128.605469 172.097656 138.121094 163.742188 146.8125 171.523438 C 149.796875 174.1875 150.480469 180.453125 144.933594 180.695312 C 142.558594 180.789062 140.183594 180.878906 137.792969 180.941406 C 137.609375 180.941406 137.457031 181.003906 137.378906 181.058594 C 137.316406 181.125 137.277344 181.179688 137.246094 181.242188 C 137.195312 181.425781 137.246094 181.515625 137.429688 181.515625 C 149.933594 183.117188 142.816406 191.992188 138.957031 197.105469 C 138.820312 197.289062 138.605469 197.40625 138.394531 197.40625 C 138.257812 197.40625 138.121094 197.34375 138 197.289062 C 117.109375 183.363281 88.179688 163.410156 92.054688 133.980469 C 95.386719 108.726562 97.851562 82.992188 89.058594 58.863281 C 88.953125 58.621094 88.964844 58.347656 89.117188 58.078125 C 91.101562 54.535156 92.402344 50.71875 93.039062 46.695312 C 93.085938 46.394531 93.25 46.273438 93.519531 46.300781 C 112.097656 47.601562 128.566406 42.546875 142.917969 31.128906 C 145.976562 28.710938 148.335938 25.769531 150 22.351562 Z M 149.996094 3.730469 C 150.132812 3.730469 150.238281 3.796875 150.300781 3.882812 C 166.46875 25.5 187.296875 37.667969 215.03125 29.40625 C 215.5625 29.257812 215.773438 29.4375 215.648438 29.980469 C 212.800781 43.269531 214.285156 54.078125 226.019531 62.585938 C 226.320312 62.828125 226.367188 63.074219 226.125 63.371094 L 224.625 65.339844 C 224.460938 65.554688 224.15625 65.613281 223.914062 65.460938 C 212.695312 58.527344 209.90625 48.382812 210.335938 35.703125 L 210.335938 35.667969 C 210.335938 35.367188 210.109375 35.15625 209.804688 35.15625 L 209.652344 35.15625 C 184.753906 42.785156 165.921875 28.039062 150.328125 10.875 C 150.21875 10.753906 150.101562 10.722656 149.992188 10.722656 C 149.882812 10.722656 149.78125 10.753906 149.660156 10.875 C 134.066406 28.039062 115.234375 42.785156 90.335938 35.15625 L 90.183594 35.15625 C 89.894531 35.15625 89.652344 35.367188 89.652344 35.667969 L 89.652344 35.703125 C 90.09375 48.382812 87.304688 58.527344 76.074219 65.460938 C 75.847656 65.613281 75.53125 65.550781 75.363281 65.339844 L 73.851562 63.371094 C 73.636719 63.074219 73.667969 62.828125 73.972656 62.585938 C 85.703125 54.078125 87.1875 43.269531 84.339844 29.980469 C 84.234375 29.433594 84.429688 29.253906 84.960938 29.40625 C 112.707031 37.667969 133.523438 25.5 149.6875 3.882812 C 149.765625 3.792969 149.871094 3.730469 149.992188 3.730469 Z M 149.996094 269.554688 L 150.027344 269.496094 C 160.535156 250.117188 179.488281 240.460938 201.386719 245.851562 C 204.054688 246.515625 206.957031 248.0625 209.789062 249.09375 C 210.03125 249.152344 210.273438 249.152344 210.515625 249.058594 C 221.09375 244.972656 232.914062 235.433594 235.3125 223.6875 C 235.746094 221.476562 235.355469 221.296875 234.113281 223.175781 C 231.84375 226.628906 228.570312 229.773438 224.335938 232.652344 C 217.460938 237.28125 210.011719 237.617188 202.035156 236.496094 C 191.847656 235.101562 180.855469 234.832031 171.488281 239.496094 C 167.609375 241.429688 163.765625 244.792969 160.269531 247.730469 C 160.160156 247.824219 160.011719 247.882812 159.855469 247.882812 C 159.476562 247.882812 159.191406 247.578125 159.191406 247.214844 C 159.191406 247.097656 159.222656 246.972656 159.28125 246.851562 C 163.246094 240.675781 167.5625 237.742188 174.691406 235.195312 C 179.492188 233.46875 184.121094 231.351562 188.589844 228.867188 C 188.84375 228.714844 188.84375 228.566406 188.574219 228.445312 C 184.09375 226.261719 178.519531 226.113281 173.648438 225.898438 C 173.574219 225.898438 173.5 225.867188 173.4375 225.835938 C 173.167969 225.71875 173.027344 225.382812 173.167969 225.082031 C 173.195312 225.019531 173.242188 224.960938 173.285156 224.929688 C 175.933594 222.414062 189.335938 225.230469 193.132812 225.808594 C 198.066406 226.535156 203.414062 225.992188 208.652344 226.746094 C 208.894531 226.773438 209.105469 226.867188 209.285156 227.046875 C 209.816406 227.535156 210.46875 227.863281 211.207031 228.015625 C 211.539062 228.078125 211.6875 227.925781 211.617188 227.59375 C 209.40625 216.152344 197.898438 212.308594 187.589844 214.09375 C 187.421875 214.121094 187.363281 214.058594 187.394531 213.875 C 187.421875 213.785156 187.5 213.722656 187.640625 213.664062 C 191.257812 212.394531 194.949219 211.878906 198.707031 212.089844 C 205.667969 212.515625 211.785156 216.511719 218.855469 214.542969 C 226.667969 212.332031 233.390625 208.183594 239.003906 202.039062 C 239.140625 201.886719 239.230469 201.734375 239.292969 201.523438 C 239.519531 200.824219 239.957031 200.554688 240.652344 200.679688 C 258.15625 204.066406 273.292969 212.421875 286.050781 225.71875 C 286.535156 225.960938 286.808594 226.015625 286.871094 225.867188 C 276.910156 212.640625 264.101562 203.828125 248.449219 199.4375 C 244.695312 198.375 232.433594 195.921875 230.101562 199.679688 C 229.890625 200.015625 229.980469 200.164062 230.355469 200.164062 L 238.195312 200.164062 C 238.53125 200.164062 238.578125 200.285156 238.332031 200.53125 C 233.746094 204.824219 227.933594 202.617188 221.394531 201.132812 C 217.777344 200.316406 213.449219 200.585938 208.4375 201.953125 C 191.636719 206.523438 177.027344 214.03125 164.613281 224.507812 C 161.371094 227.261719 158.496094 231.046875 156.027344 235.863281 C 154.320312 239.40625 152.984375 243.039062 152.003906 246.792969 C 152.003906 246.820312 151.972656 246.851562 151.941406 246.851562 C 151.863281 246.882812 151.820312 246.917969 151.757812 246.917969 C 151.679688 246.945312 151.664062 246.917969 151.679688 246.851562 C 152.433594 242.855469 153.769531 239.070312 155.644531 235.4375 C 166.542969 214.640625 190.207031 204.800781 211.765625 199.777344 C 223.632812 197.019531 237.664062 191.175781 246.78125 183.820312 C 254.242188 177.820312 260.648438 167.648438 259.117188 157.660156 C 259.101562 157.476562 258.953125 157.390625 258.800781 157.390625 C 258.679688 157.390625 258.558594 157.449219 258.515625 157.570312 C 256.4375 162.566406 253.277344 163.136719 247.644531 164.503906 C 240.089844 166.320312 235.519531 169.894531 229.890625 175.222656 C 229.855469 175.25 229.824219 175.28125 229.78125 175.28125 C 229.632812 175.316406 229.480469 175.25 229.433594 175.101562 C 229.417969 175.070312 229.417969 175.011719 229.433594 174.980469 C 229.753906 172.773438 234.78125 168.167969 236.476562 166.625 C 237.609375 165.625 240.335938 163.65625 244.664062 160.777344 C 249.375 157.632812 253.808594 154.152344 258.003906 150.335938 C 261.667969 146.972656 262.800781 143.371094 264.480469 138.894531 C 265.554688 136.046875 267.128906 134.109375 269.082031 131.898438 C 269.097656 131.898438 269.097656 131.867188 269.097656 131.835938 C 269.097656 131.808594 269.066406 131.742188 269.003906 131.742188 L 268.972656 131.742188 C 265.339844 134.015625 261.464844 135.804688 257.316406 137.105469 C 256.816406 137.257812 256.53125 137.316406 256.4375 137.316406 C 255.953125 137.195312 255.609375 136.742188 255.609375 136.253906 C 255.609375 135.957031 255.738281 135.652344 255.953125 135.441406 C 262.554688 129.382812 271.542969 122.691406 276.121094 116.636719 C 281.597656 109.371094 283.976562 100.804688 283.234375 91.023438 C 283.21875 90.929688 283.15625 90.875 283.082031 90.875 C 283.019531 90.875 282.960938 90.933594 282.945312 90.996094 C 281.675781 95.746094 278.75 99.5 273.953125 100.894531 C 262.375 104.289062 256.4375 110.492188 251.15625 121.9375 C 245.054688 135.195312 239.015625 150.097656 232.097656 161.296875 C 226.253906 170.808594 215.851562 180.132812 207.164062 188.0625 C 206.980469 188.214844 206.847656 188.183594 206.742188 187.96875 C 206.695312 187.820312 206.710938 187.699219 206.816406 187.574219 C 208.9375 185.058594 210.890625 182.582031 213.296875 180.183594 C 234.960938 158.417969 251.003906 127.019531 254.960938 96.65625 C 257.214844 79.21875 251.191406 51.027344 234.734375 40.796875 C 234.675781 40.761719 234.632812 40.734375 234.566406 40.734375 C 234.386719 40.734375 234.253906 40.886719 234.253906 41.035156 C 234.253906 41.097656 234.269531 41.125 234.285156 41.1875 C 237.039062 46.789062 238.324219 52.691406 238.160156 58.867188 C 238.027344 63.410156 236.507812 68.769531 235.359375 73.554688 C 233.089844 82.96875 235.613281 91.296875 238.113281 100.347656 C 238.144531 100.410156 238.144531 100.46875 238.144531 100.5625 C 238.144531 101.015625 237.765625 101.378906 237.3125 101.378906 C 237.191406 101.378906 237.066406 101.347656 236.949219 101.316406 C 236.765625 101.226562 236.535156 100.953125 236.28125 100.46875 C 233.136719 94.6875 231.53125 88.480469 231.480469 81.847656 C 231.480469 81.757812 231.4375 81.726562 231.378906 81.757812 C 231.300781 81.757812 231.242188 81.789062 231.183594 81.820312 C 231.136719 81.847656 231.117188 81.847656 231.117188 81.910156 C 231.152344 83.878906 231.101562 85.210938 230.953125 85.875 C 229.003906 94.777344 228.835938 103.800781 230.9375 112.703125 C 232.453125 119.089844 234.40625 124.628906 233.570312 131.292969 C 233.527344 131.503906 233.34375 131.6875 233.136719 131.6875 C 232.933594 131.6875 232.75 131.535156 232.710938 131.351562 C 231.210938 123.695312 227.582031 117.816406 225.488281 110.585938 C 225.355469 110.132812 225.1875 110.132812 224.992188 110.550781 C 223.597656 113.582031 222.929688 116.582031 222.992188 119.546875 C 223.414062 125.660156 224.625 131.988281 224.792969 137.710938 C 224.941406 143.074219 224.941406 146.734375 224.742188 148.761719 C 223.667969 161.296875 216.148438 173.285156 207.625 182.792969 C 206.914062 183.578125 206.246094 184.152344 205.613281 184.488281 C 205.082031 184.792969 205.023438 184.699219 205.445312 184.277344 C 215.390625 173.949219 222.929688 162.023438 224.226562 147.671875 C 224.851562 140.828125 224.429688 133.167969 222.941406 124.753906 C 222.699219 123.359375 222.777344 121.820312 222.535156 120.304688 C 220.898438 107.949219 220.414062 95.539062 221.035156 83.066406 C 221.125 81.335938 221.355469 79.617188 221.71875 77.886719 C 221.777344 77.617188 221.929688 77.554688 222.140625 77.734375 C 225.863281 80.640625 230.585938 77.980469 230.269531 73.46875 C 230.023438 70.226562 226.652344 68.683594 223.847656 70.257812 C 223.789062 70.289062 223.730469 70.320312 223.683594 70.320312 C 223.484375 70.320312 223.351562 70.171875 223.351562 69.988281 C 223.351562 69.925781 223.367188 69.867188 223.398438 69.808594 L 228.511719 61.996094 C 228.664062 61.75 228.617188 61.570312 228.390625 61.417969 C 222.003906 57.207031 218.160156 51.492188 216.886719 44.28125 C 215.921875 38.890625 217.359375 32.445312 218.566406 26.84375 C 218.632812 26.570312 218.507812 26.445312 218.21875 26.511719 C 213.828125 27.355469 208.789062 28.75 205.097656 29.265625 C 180.664062 32.6875 164.132812 18.003906 150.25 0.136719 C 150.191406 0.0742188 150.101562 0.0195312 149.996094 0.0195312 C 149.890625 0.0195312 149.816406 0.078125 149.742188 0.136719 C 135.859375 18.003906 119.34375 32.683594 94.898438 29.265625 C 91.203125 28.75 86.164062 27.355469 81.773438 26.511719 C 81.488281 26.445312 81.359375 26.570312 81.425781 26.84375 C 82.636719 32.445312 84.070312 38.894531 83.121094 44.28125 C 81.835938 51.492188 78.003906 57.207031 71.601562 61.417969 C 71.371094 61.566406 71.34375 61.75 71.480469 61.996094 L 76.59375 69.808594 C 76.625 69.867188 76.65625 69.925781 76.65625 69.988281 C 76.65625 70.171875 76.507812 70.320312 76.324219 70.320312 C 76.261719 70.320312 76.203125 70.289062 76.160156 70.257812 C 73.34375 68.683594 69.96875 70.226562 69.726562 73.46875 C 69.40625 77.980469 74.132812 80.644531 77.855469 77.734375 C 78.082031 77.554688 78.21875 77.617188 78.277344 77.886719 C 78.644531 79.617188 78.871094 81.335938 78.960938 83.066406 C 79.597656 95.539062 79.097656 107.953125 77.464844 120.304688 C 77.222656 121.820312 77.3125 123.363281 77.070312 124.753906 C 75.566406 133.167969 75.148438 140.828125 75.769531 147.671875 C 77.070312 162.023438 84.621094 173.949219 94.550781 184.277344 C 94.992188 184.699219 94.929688 184.792969 94.386719 184.488281 C 93.753906 184.152344 93.085938 183.578125 92.386719 182.792969 C 83.847656 173.285156 76.328125 161.292969 75.253906 148.761719 C 75.070312 146.734375 75.070312 143.074219 75.222656 137.710938 C 75.371094 131.988281 76.585938 125.660156 77.003906 119.546875 C 77.070312 116.582031 76.402344 113.582031 75.023438 110.550781 C 74.808594 110.128906 74.644531 110.128906 74.523438 110.585938 C 72.417969 117.820312 68.800781 123.695312 67.285156 131.351562 C 67.242188 131.535156 67.054688 131.6875 66.859375 131.6875 C 66.644531 131.6875 66.464844 131.503906 66.4375 131.292969 C 65.601562 124.628906 67.554688 119.085938 69.074219 112.703125 C 71.160156 103.800781 70.992188 94.777344 69.039062 85.875 C 68.90625 85.210938 68.839844 83.878906 68.875 81.910156 C 68.875 81.847656 68.855469 81.847656 68.8125 81.820312 C 68.75 81.789062 68.695312 81.757812 68.628906 81.757812 C 68.554688 81.722656 68.527344 81.757812 68.527344 81.847656 C 68.460938 88.480469 66.859375 94.6875 63.710938 100.46875 C 63.457031 100.953125 63.242188 101.222656 63.042969 101.316406 C 62.925781 101.347656 62.800781 101.378906 62.679688 101.378906 C 62.230469 101.378906 61.851562 101.015625 61.851562 100.5625 C 61.851562 100.472656 61.863281 100.410156 61.878906 100.347656 C 64.394531 91.292969 66.921875 82.96875 64.648438 73.554688 C 63.5 68.773438 61.96875 63.410156 61.835938 58.867188 C 61.667969 52.691406 62.953125 46.789062 65.710938 41.1875 C 65.738281 41.125 65.738281 41.09375 65.738281 41.035156 C 65.738281 40.886719 65.601562 40.734375 65.421875 40.734375 C 65.375 40.734375 65.320312 40.761719 65.273438 40.796875 C 48.804688 51.027344 42.777344 79.21875 45.035156 96.65625 C 48.984375 127.019531 65.03125 158.417969 86.695312 180.183594 C 89.101562 182.582031 91.054688 185.058594 93.191406 187.574219 C 93.28125 187.695312 93.292969 187.820312 93.25 187.96875 C 93.144531 188.183594 93.023438 188.214844 92.828125 188.0625 C 84.136719 180.132812 73.75 170.808594 67.894531 161.296875 C 60.976562 150.097656 54.9375 135.199219 48.835938 121.9375 C 43.570312 110.496094 37.617188 104.289062 26.039062 100.894531 C 21.242188 99.5 18.320312 95.75 17.0625 90.996094 C 17.035156 90.929688 16.96875 90.875 16.910156 90.875 C 16.832031 90.875 16.777344 90.933594 16.761719 91.023438 C 16.035156 100.804688 18.394531 109.371094 23.886719 116.636719 C 28.449219 122.691406 37.4375 129.378906 44.039062 135.441406 C 44.253906 135.652344 44.386719 135.957031 44.386719 136.253906 C 44.386719 136.742188 44.054688 137.191406 43.570312 137.316406 C 43.464844 137.316406 43.175781 137.257812 42.675781 137.105469 C 38.527344 135.804688 34.652344 134.019531 31.035156 131.742188 L 30.988281 131.742188 C 30.941406 131.742188 30.894531 131.808594 30.894531 131.835938 C 30.894531 131.867188 30.894531 131.898438 30.910156 131.898438 C 32.863281 134.109375 34.441406 136.046875 35.507812 138.894531 C 37.191406 143.371094 38.34375 146.976562 42.003906 150.335938 C 46.183594 154.152344 50.632812 157.632812 55.328125 160.777344 C 59.660156 163.65625 62.382812 165.625 63.519531 166.625 C 65.214844 168.167969 70.242188 172.773438 70.574219 174.980469 C 70.574219 175.011719 70.574219 175.070312 70.558594 175.101562 C 70.511719 175.25 70.363281 175.316406 70.210938 175.28125 C 70.164062 175.28125 70.132812 175.25 70.089844 175.222656 C 64.472656 169.894531 59.902344 166.320312 52.347656 164.503906 C 46.734375 163.136719 43.554688 162.566406 41.476562 157.570312 C 41.433594 157.449219 41.316406 157.390625 41.191406 157.390625 C 41.042969 157.390625 40.90625 157.480469 40.875 157.660156 C 39.347656 167.648438 45.765625 177.820312 53.210938 183.820312 C 62.339844 191.175781 76.359375 197.019531 88.238281 199.777344 C 109.792969 204.800781 133.457031 214.640625 144.34375 235.4375 C 146.234375 239.070312 147.554688 242.855469 148.324219 246.851562 C 148.324219 246.917969 148.308594 246.945312 148.230469 246.917969 C 148.183594 246.917969 148.113281 246.882812 148.0625 246.851562 C 148.003906 246.851562 147.988281 246.820312 147.988281 246.792969 C 147 243.039062 145.671875 239.402344 143.960938 235.863281 C 141.492188 231.046875 138.628906 227.265625 135.375 224.507812 C 122.964844 214.03125 108.367188 206.523438 91.554688 201.953125 C 86.539062 200.585938 82.226562 200.316406 78.59375 201.132812 C 72.066406 202.617188 66.242188 204.824219 61.65625 200.53125 C 61.410156 200.285156 61.460938 200.164062 61.808594 200.164062 L 69.632812 200.164062 C 70.011719 200.164062 70.085938 200.015625 69.902344 199.679688 C 67.554688 195.925781 55.296875 198.378906 51.539062 199.4375 C 35.890625 203.828125 23.082031 212.636719 13.121094 225.867188 C 13.195312 226.015625 13.46875 225.960938 13.933594 225.71875 C 26.699219 212.425781 41.832031 204.066406 59.351562 200.679688 C 60.035156 200.554688 60.484375 200.824219 60.695312 201.523438 C 60.761719 201.734375 60.863281 201.886719 60.984375 202.039062 C 66.601562 208.183594 73.324219 212.332031 81.132812 214.542969 C 88.203125 216.511719 94.335938 212.515625 101.28125 212.089844 C 105.035156 211.878906 108.730469 212.394531 112.347656 213.664062 C 112.484375 213.722656 112.558594 213.785156 112.59375 213.875 C 112.636719 214.058594 112.558594 214.121094 112.394531 214.09375 C 102.085938 212.308594 90.578125 216.152344 88.367188 227.59375 C 88.292969 227.929688 88.441406 228.078125 88.777344 228.015625 C 89.53125 227.863281 90.171875 227.535156 90.714844 227.046875 C 90.882812 226.867188 91.109375 226.773438 91.347656 226.746094 C 96.574219 225.992188 101.917969 226.53125 106.867188 225.808594 C 110.652344 225.234375 124.066406 222.414062 126.695312 224.929688 C 126.746094 224.960938 126.789062 225.023438 126.820312 225.082031 C 126.957031 225.382812 126.832031 225.71875 126.550781 225.835938 C 126.484375 225.867188 126.429688 225.898438 126.351562 225.898438 C 121.460938 226.113281 115.890625 226.261719 111.410156 228.445312 C 111.15625 228.5625 111.140625 228.714844 111.410156 228.867188 C 115.875 231.351562 120.503906 233.46875 125.308594 235.195312 C 132.421875 237.742188 136.738281 240.675781 140.71875 246.851562 C 140.78125 246.972656 140.808594 247.097656 140.808594 247.214844 C 140.808594 247.578125 140.511719 247.882812 140.144531 247.882812 C 139.980469 247.882812 139.84375 247.824219 139.71875 247.730469 C 136.222656 244.796875 132.378906 241.433594 128.5 239.496094 C 119.144531 234.832031 108.140625 235.101562 97.953125 236.496094 C 89.976562 237.617188 82.527344 237.28125 75.65625 232.652344 C 71.417969 229.773438 68.148438 226.628906 65.890625 223.175781 C 64.648438 221.296875 64.242188 221.476562 64.679688 223.6875 C 67.074219 235.433594 78.898438 244.976562 89.476562 249.058594 C 89.722656 249.152344 89.960938 249.152344 90.203125 249.09375 C 93.035156 248.0625 95.941406 246.515625 98.605469 245.851562 C 120.503906 240.460938 139.460938 250.117188 149.964844 269.496094 Z M 149.996094 222.359375 C 150.179688 222.359375 150.359375 222.296875 150.527344 222.175781 C 161.035156 215.730469 171.917969 209.730469 182.148438 202.742188 C 182.183594 202.710938 182.226562 202.710938 182.269531 202.710938 C 182.359375 202.710938 182.4375 202.800781 182.421875 202.890625 C 182.421875 202.953125 182.40625 202.980469 182.359375 203.007812 C 182.089844 203.3125 181.726562 203.585938 181.238281 203.917969 C 167.980469 212.367188 156.546875 223.78125 149.996094 238.28125 C 143.457031 223.78125 132.027344 212.367188 118.753906 203.917969 C 118.285156 203.589844 117.90625 203.316406 117.632812 203.007812 C 117.601562 202.980469 117.585938 202.949219 117.570312 202.890625 C 117.570312 202.796875 117.632812 202.710938 117.738281 202.710938 C 117.769531 202.710938 117.8125 202.710938 117.84375 202.742188 C 128.074219 209.730469 138.960938 215.730469 149.464844 222.175781 C 149.648438 222.296875 149.816406 222.359375 149.996094 222.359375 Z M 149.996094 50.574219 L 149.980469 50.574219 C 147.148438 50.574219 144.851562 52.871094 144.851562 55.71875 C 144.851562 58.566406 147.148438 60.863281 149.980469 60.863281 L 150.027344 60.863281 C 152.859375 60.863281 155.15625 58.566406 155.15625 55.71875 C 155.15625 52.871094 152.859375 50.574219 150.027344 50.574219 Z M 149.996094 50.574219 " fill-opacity="1" fill-rule="evenodd"/></g></svg>