<svg xmlns="http://www.w3.org/2000/svg" xmlns:xlink="http://www.w3.org/1999/xlink" width="400" zoomAndPan="magnify" viewBox="0 0 300 299.999988" height="400" preserveAspectRatio="xMidYMid meet" version="1.0"><path fill="#c3c2c1" d="M 168.945312 130.195312 C 167.652344 130.816406 166.042969 131.539062 164.964844 132.015625 C 162.355469 131.589844 159.734375 131.464844 157.09375 131.632812 C 156.394531 131.597656 155.695312 131.585938 154.996094 131.570312 C 154.152344 131.570312 153.308594 131.539062 152.328125 131.46875 C 151.976562 131.46875 150.222656 131.640625 149.097656 131.746094 C 148.75 131.78125 148.46875 131.816406 148.292969 131.851562 L 147.167969 131.921875 C 145.484375 132.058594 143.65625 132.234375 141.871094 132.449219 C 140.242188 132.691406 138.605469 132.761719 136.960938 132.65625 C 136.648438 132.65625 136.328125 132.582031 136.015625 132.550781 C 134.542969 132.164062 133.050781 131.890625 131.539062 131.734375 C 130.628906 131.492188 129.710938 131.4375 128.78125 131.570312 C 127.785156 131.570312 126.820312 131.570312 125.796875 131.617188 C 126.328125 130.800781 126.707031 129.921875 126.941406 128.976562 C 131.535156 128.667969 136.019531 129.21875 140.402344 130.625 C 143.3125 131.621094 143.597656 131.75 146.871094 130.625 C 154.890625 127.960938 163.214844 128.886719 168.945312 130.195312 Z M 177.359375 147.925781 C 177.59375 149.265625 177.945312 150.574219 178.40625 151.855469 C 178.527344 151.957031 178.652344 152.074219 178.765625 152.167969 C 178.996094 152.398438 179.242188 152.609375 179.503906 152.800781 L 179.570312 152.871094 C 179.863281 152.324219 180.195312 151.800781 180.566406 151.304688 C 180.472656 151 180.378906 150.691406 180.292969 150.382812 C 179.828125 148.660156 179.546875 146.910156 179.453125 145.128906 L 178.847656 145.957031 C 178.394531 146.539062 177.925781 147.183594 177.359375 147.925781 Z M 197.460938 134.730469 C 196.386719 135.214844 195.273438 135.601562 194.128906 135.886719 C 193.011719 136.214844 191.703125 136.613281 190.328125 137.109375 C 189.667969 139.164062 189.347656 141.269531 189.363281 143.429688 C 193.042969 140.839844 196.855469 138.601562 199.3125 137.183594 C 200.367188 136.550781 201.140625 136.097656 201.453125 135.851562 L 201.558594 135.816406 C 202.425781 135.289062 203.347656 134.886719 204.324219 134.613281 C 204.464844 134.273438 204.546875 133.917969 204.566406 133.550781 C 204.582031 133.183594 204.539062 132.820312 204.429688 132.46875 C 204.320312 132.117188 204.15625 131.796875 203.933594 131.5 C 203.710938 131.207031 203.445312 130.960938 203.132812 130.761719 L 202.933594 130.65625 C 202.460938 131.066406 201.976562 131.484375 201.484375 131.886719 C 200.234375 132.964844 198.894531 133.910156 197.460938 134.730469 Z M 115.4375 122.488281 C 115.566406 122.328125 115.671875 122.152344 115.75 121.960938 C 115.925781 121.605469 115.890625 120.730469 115.648438 119.539062 C 115.53125 119.054688 115.390625 118.582031 115.21875 118.113281 C 113.945312 118.445312 112.671875 118.8125 111.394531 119.21875 C 112.636719 120.144531 113.980469 121.21875 115.4375 122.488281 Z M 107.085938 150.378906 C 106.808594 151.339844 106.476562 152.277344 106.089844 153.199219 C 106.632812 153.695312 107.1875 154.195312 107.761719 154.625 C 109.433594 151.378906 110.304688 147.929688 110.363281 144.277344 C 110.011719 143.675781 109.648438 143.09375 109.277344 142.550781 C 108.710938 141.730469 108.140625 141.003906 107.578125 140.320312 C 108.222656 143.710938 108.058594 147.066406 107.085938 150.382812 Z M 127.484375 117.148438 C 127.980469 119.183594 128.125 121.375 127.925781 122.125 C 141.996094 120 156.980469 120.769531 170.386719 124.429688 C 170.238281 123.957031 170.089844 123.488281 169.933594 123.011719 C 169.371094 121.355469 168.914062 119.667969 168.566406 117.957031 C 168.523438 117.710938 168.496094 117.457031 168.476562 117.179688 C 161.6875 115.535156 154.804688 114.578125 147.824219 114.304688 C 140.84375 114.03125 133.90625 114.453125 127.011719 115.5625 C 127.214844 116.089844 127.378906 116.625 127.507812 117.152344 Z M 222.070312 151.746094 C 220.910156 150.832031 218.769531 152.742188 217.402344 153.429688 C 216.671875 153.96875 215.894531 154.433594 215.074219 154.824219 C 214.730469 155.324219 214.402344 155.820312 214.078125 156.320312 C 213.332031 157.390625 212.429688 158.3125 211.378906 159.089844 L 211.058594 159.332031 C 209.867188 160.328125 208.605469 161.324219 207.308594 162.242188 L 207.273438 162.242188 L 207.273438 162.289062 C 207.136719 162.382812 207.011719 162.488281 206.890625 162.601562 L 206.820312 162.671875 C 206.613281 163.476562 206.230469 164.191406 205.675781 164.816406 C 208.523438 165.371094 211.390625 165.523438 214.277344 165.273438 C 215.613281 164.710938 215.1875 166.503906 215.152344 167.203125 C 220.695312 227.761719 201.472656 262.230469 155.125 285.96875 C 144.320312 291.511719 143.269531 291.476562 133.476562 286.566406 C 86.285156 262.785156 66.667969 228.269531 72.25 167.183594 C 72.179688 166.484375 71.796875 164.695312 73.125 165.253906 C 75.035156 165.417969 76.945312 165.417969 78.855469 165.253906 C 78.175781 164.671875 77.496094 164.085938 76.867188 163.476562 C 75.238281 161.96875 73.777344 160.308594 72.484375 158.503906 L 72.488281 158.503906 C 71.554688 157 70.839844 155.398438 70.339844 153.703125 C 70.214844 153.617188 70.085938 153.542969 69.964844 153.449219 C 68.5625 152.78125 66.457031 150.851562 65.265625 151.765625 C 64.070312 152.679688 64.804688 154.113281 64.734375 155.25 C 52.351562 257.144531 109.800781 287.597656 132.800781 296.195312 C 143.078125 300.019531 144.097656 299.949219 153.199219 296.722656 C 175.269531 288.894531 235.367188 259.40625 222.667969 155.222656 C 222.582031 154.097656 223.285156 152.695312 222.09375 151.75 Z M 119.253906 269.039062 C 132.164062 279.320312 139.652344 271.03125 140.621094 270.441406 C 140.691406 270.652344 140.726562 270.867188 140.796875 271.074219 C 143.003906 286.441406 144.375 286.441406 146.585938 271.074219 C 146.65625 270.867188 146.691406 270.652344 146.761719 270.441406 C 147.707031 271.039062 155.21875 279.320312 168.09375 269.039062 C 177.914062 260.6875 213.949219 242.023438 207.457031 174.695312 C 207.242188 172.765625 206.195312 171.675781 203.777344 170.941406 C 201.855469 170.339844 199.976562 169.625 198.140625 168.796875 C 197.871094 168.886719 197.601562 168.96875 197.320312 169.042969 C 197.253906 169.046875 197.195312 169.070312 197.144531 169.113281 C 196.894531 169.378906 196.648438 169.613281 196.363281 169.835938 C 198.019531 170.675781 199.800781 171.492188 201.742188 172.269531 C 203.636719 172.933594 204.441406 173.707031 204.476562 175.320312 C 207.566406 209.285156 202.867188 243.382812 159.746094 271.097656 C 156.835938 272.257812 155.183594 273.066406 152.414062 271.800781 C 149.289062 270.433594 146.800781 267.417969 145.289062 265.167969 C 143.671875 262.710938 143.796875 262.640625 141.921875 265.378906 C 140.429688 267.621094 137.988281 270.46875 134.957031 271.800781 C 132.183594 273.066406 130.53125 272.257812 127.621094 271.097656 C 111.703125 260.855469 101.011719 249.734375 94.019531 238.078125 C 93.957031 238.039062 93.894531 237.992188 93.835938 237.945312 L 93.800781 237.910156 C 93.457031 237.585938 93.257812 237.1875 93.203125 236.714844 C 93.203125 236.714844 93.203125 236.691406 93.203125 236.679688 C 82.050781 217.1875 80.976562 196.230469 82.855469 175.320312 C 82.925781 173.707031 83.730469 172.929688 85.625 172.269531 C 87.523438 171.605469 89.152344 170.777344 90.730469 169.976562 C 90.183594 169.5625 89.65625 169.167969 89.195312 168.804688 C 87.371094 169.628906 85.503906 170.339844 83.59375 170.933594 C 81.167969 171.671875 80.078125 172.757812 79.871094 174.691406 C 73.4375 242.019531 109.472656 260.6875 119.253906 269.039062 Z M 83.433594 135.292969 C 84.660156 136.261719 85.769531 137.351562 86.761719 138.5625 C 87.089844 138.601562 87.417969 138.636719 87.757812 138.660156 C 88.527344 138.421875 89.289062 138.457031 90.035156 138.765625 C 90.699219 139.035156 91.214844 139.480469 91.578125 140.097656 C 92.734375 140.835938 95.785156 142.835938 96.347656 143.292969 C 96.910156 143.75 97.460938 144.347656 98 144.886719 C 98.253906 139.910156 97.003906 135.539062 95.222656 134.035156 C 95.46875 133.871094 95.722656 133.722656 95.976562 133.539062 C 93.757812 132.667969 91.550781 131.742188 89.507812 130.886719 L 86.417969 129.625 C 85.695312 130.003906 84.96875 130.375 84.25 130.765625 C 83.886719 131.007812 83.585938 131.308594 83.347656 131.671875 C 83.109375 132.035156 82.953125 132.429688 82.875 132.855469 C 82.800781 133.285156 82.808594 133.707031 82.90625 134.132812 C 83.003906 134.554688 83.179688 134.941406 83.433594 135.292969 Z M 115.769531 97.085938 C 116.765625 90.617188 117.667969 93.925781 117.347656 95.714844 C 116.648438 100.105469 120.785156 103.328125 120.785156 106.730469 C 120.890625 109.820312 122.542969 111.363281 124.398438 114.195312 C 125.765625 116.265625 126.503906 121.035156 126.253906 121.492188 C 124.816406 124.332031 126.429688 127.734375 124.078125 130.945312 C 123.550781 132.3125 123.871094 133.507812 124.675781 134.667969 C 125.761719 136.277344 126.042969 136.320312 127.308594 134.878906 C 128.46875 132.636719 131.066406 133.511719 131.785156 133.6875 C 135.199219 134.554688 138.648438 134.753906 142.140625 134.277344 C 144.128906 134.035156 146.453125 133.855469 148.453125 133.679688 C 148.839844 133.648438 151.933594 133.296875 152.207031 133.296875 C 155.367188 133.542969 158.453125 133.160156 161.503906 134.242188 C 162.589844 134.609375 163.667969 134.574219 164.730469 134.140625 C 165.726562 133.679688 170.417969 131.652344 171.695312 130.839844 C 173.6875 129.578125 173.417969 129.160156 172.820312 126.214844 C 172.222656 123.269531 171.03125 120.949219 170.433594 117.617188 C 170.011719 115.40625 170.78125 111.546875 170.890625 111.019531 C 171.3125 108.351562 176.640625 97.722656 177.03125 97.125 C 177.417969 96.527344 178.085938 96.597656 177.800781 95.375 C 177.660156 94.671875 178.296875 93.582031 178.605469 92.914062 C 179.066406 91.929688 179.398438 90.898438 179.601562 89.832031 C 180.164062 86.921875 181.671875 87.199219 181.636719 89.40625 C 181.53125 94.003906 179.847656 95.058594 180.023438 97.476562 C 180.199219 99.722656 178.167969 108.8125 177.746094 113.234375 C 177.398438 116.742188 178.242188 118.914062 180.585938 121.40625 C 181.398438 122.285156 182.796875 122.53125 183.289062 120.25 C 183.886719 118.039062 185.183594 117.125 187.269531 116.214844 C 190.957031 114.636719 195.058594 112.847656 199.058594 111.6875 C 200.957031 111.019531 201.796875 109.859375 199.832031 108.457031 C 199.132812 107.972656 198.472656 107.449219 197.839844 106.878906 C 196.613281 105.476562 197.839844 103.546875 198.160156 102.179688 C 199.070312 97.929688 201.347656 94.320312 203.804688 90.847656 C 205.980469 87.824219 206.542969 82.601562 206.792969 81.234375 C 207.632812 78.429688 208.78125 80.671875 208.722656 81.09375 C 208.6875 82.089844 208.019531 84.707031 208.4375 86.601562 C 209.304688 89.472656 206.816406 100.945312 206.816406 102.089844 C 206.886719 104.757812 208.886719 106.296875 211.484375 105.945312 C 212.976562 105.734375 214.011719 105.667969 215.164062 104.824219 C 217.582031 103.035156 220.394531 102.367188 222.988281 101.8125 C 224.359375 101.53125 225.058594 100.40625 225.933594 99.351562 C 228.386719 96.304688 228.214844 95.53125 227.726562 92.339844 C 227.023438 88.832031 227.304688 88.199219 227.34375 86.089844 C 227.273438 82.894531 227.128906 82.339844 224.921875 81.074219 C 223.117188 79.996094 221.433594 78.757812 219.867188 77.359375 C 217.65625 75.367188 217.128906 72.796875 216.042969 70.234375 C 213.78125 64.667969 210.796875 52.878906 209.496094 49.6875 C 206.761719 42.984375 210.269531 48.597656 210.761719 49.1875 C 214.796875 54.417969 217.324219 60.59375 221.671875 66.132812 C 224.441406 69.710938 227.25 72.558594 231.125 74.871094 C 232.347656 75.625 233.238281 76.667969 233.792969 77.996094 C 234.320312 79.257812 234.878906 80.871094 235.4375 82.167969 C 236.382812 84.449219 236.492188 82.90625 236.875 82.308594 C 237.257812 81.710938 244.476562 68.667969 244.625 67.121094 C 244.839844 64.945312 244.347656 64.875 243.257812 64.730469 C 240.789062 64.402344 238.308594 64.289062 235.820312 64.382812 C 233.890625 64.488281 230.695312 65.152344 228.945312 61.507812 C 227.949219 58.5625 226.804688 55.679688 225.859375 52.734375 C 225.613281 52.035156 225.582031 49.679688 225.648438 48.839844 C 225.714844 48.140625 226.382812 46.703125 226.910156 48.5625 C 227.273438 49.757812 227.753906 50.902344 228.347656 52 C 230.453125 55.402344 233.402344 56.734375 237.433594 57.230469 C 239.523438 57.425781 241.613281 57.484375 243.710938 57.402344 C 245.042969 57.367188 245.359375 56.839844 245.253906 55.542969 C 244.796875 49.964844 243.570312 44.980469 239.21875 41.195312 C 236.40625 38.734375 233.636719 36.140625 230.90625 33.617188 C 229.183594 32.039062 226.515625 28.878906 226.066406 27.296875 C 225.292969 24.703125 226.378906 25.230469 226.976562 25.476562 C 227.328125 25.617188 239.816406 36.5625 244.585938 37.511719 C 247.957031 38.8125 249.289062 41.339844 250.34375 45.019531 C 251.433594 48.5625 252.449219 51.441406 252.976562 55.195312 C 253.292969 57.4375 253.640625 56.839844 254.132812 56.3125 C 256.449219 53.925781 258.34375 51.542969 258.871094 48.277344 C 258.9375 46.984375 258.773438 45.71875 258.375 44.488281 C 256.582031 38.625 243.921875 19.230469 242.796875 12.910156 C 242.273438 10.667969 241.886719 8.242188 240.484375 6.105469 C 239.324219 4.277344 240.167969 3.964844 239.488281 2.527344 C 239.152344 0.214844 241.144531 0.00390625 241.179688 1.761719 C 241.003906 3.867188 242.933594 4.460938 243.214844 6.039062 C 243.777344 8.636719 245.351562 10.394531 246.441406 12.671875 C 247.320312 14.496094 264.472656 40.777344 267.175781 45.089844 C 268.4375 47.054688 267.875 49.6875 267.347656 51.824219 C 267.035156 52.769531 266.472656 55.4375 265.140625 58.035156 C 263.980469 60.277344 259.804688 66.175781 254.542969 72.035156 C 253.59375 72.953125 252.753906 73.960938 252.015625 75.054688 C 246.863281 82.320312 243.238281 90.28125 241.140625 98.933594 C 240.785156 100.375 241.070312 103.351562 233.839844 107.601562 C 227.839844 111.003906 199.511719 117.25 193.214844 125.671875 C 192.511719 126.617188 192.96875 127.53125 194.160156 127.601562 C 195.875 127.636719 202.542969 125.460938 203.875 124.515625 C 207.242188 122.871094 205.867188 125.148438 205.035156 126.203125 C 204.511719 126.835938 199.140625 131.816406 196.617188 133.113281 C 194.582031 134.167969 188.234375 135.042969 183.25 138.691406 C 179.566406 141.253906 178.511719 143.496094 175.351562 147.496094 C 174.582031 148.65625 173.742188 150.484375 176.511719 152.65625 C 178.304688 154.09375 179.496094 155.988281 181.074219 153.988281 C 184.199219 147.289062 200.546875 138.726562 202.46875 137.359375 C 204.363281 136.199219 207.132812 135.601562 212.148438 135.53125 C 215.097656 135.496094 218.253906 134.867188 221.199219 134.933594 C 223.585938 134.96875 225.933594 135.671875 228.164062 136.304688 C 230.867188 137.074219 228.269531 139.386719 227.53125 140.40625 C 226.621094 141.636719 225.359375 142.511719 224.585938 143.890625 C 224.238281 144.523438 223.59375 144.800781 223.011719 145.1875 C 220.867188 146.679688 218.53125 147.960938 216.730469 149.890625 C 215.160156 151.578125 213.769531 153.402344 212.558594 155.363281 C 211.820312 156.371094 210.941406 157.238281 209.925781 157.960938 C 208.730469 158.957031 207.472656 159.890625 206.242188 160.800781 C 205.695312 161.136719 205.308594 161.605469 205.085938 162.203125 C 204.695312 163.640625 203.679688 164.378906 202.417969 164.90625 C 200.558594 165.675781 198.875 166.765625 196.910156 167.257812 C 196.535156 167.351562 196.203125 167.527344 195.914062 167.785156 C 194.304688 169.542969 192.230469 170.625 190.199219 171.679688 C 187.777344 172.980469 186.6875 175.328125 185.179688 177.367188 C 184.546875 178.242188 184.183594 179.296875 183.25 179.929688 C 182.652344 180.351562 182.652344 181.019531 182.511719 181.582031 C 182.476562 184.109375 182.761719 185.476562 180.375 188.386719 C 178.96875 190.632812 179.671875 193.363281 180.09375 195.722656 C 180.59375 198.632812 180.550781 201.652344 182.164062 204.179688 C 182.933594 205.40625 182.09375 205.933594 182.199219 206.320312 C 182.304688 206.703125 182.128906 207.582031 182.234375 207.902344 C 182.339844 208.21875 190.867188 228.296875 191.109375 228.847656 C 191.949219 230.835938 192.902344 234.039062 189.949219 228.601562 C 189.777344 228.289062 183.386719 217.511719 181.707031 212.039062 C 180.617188 208.558594 179.285156 205.128906 178.933594 204.109375 C 178.585938 203.089844 178.199219 204.25 178.125 204.359375 C 178.050781 204.46875 177.351562 208.671875 174.894531 211.691406 C 173.804688 213.023438 170.476562 224.671875 170.367188 224.847656 C 170.257812 225.019531 169.597656 227.96875 169.597656 224.421875 C 169.597656 222.386719 172.085938 211.230469 174.648438 207.40625 C 176.140625 205.234375 175 203.761719 176.140625 201.933594 C 176.3125 201.652344 177.332031 200.941406 177.296875 200.53125 C 177.230469 198.742188 177.050781 196.847656 177.085938 195.058594 C 177.085938 192.710938 175.855469 194.21875 175.648438 194.53125 C 174.152344 196.777344 172.140625 198.816406 171.824219 201.582031 C 171.964844 207.40625 169.835938 211.789062 169.089844 216.914062 C 168.421875 221.230469 161.230469 236.457031 158.074219 236.527344 C 157.550781 236.484375 157.128906 236.671875 156.8125 237.089844 C 155.582031 240.285156 150.949219 242.5625 150.285156 242.8125 C 148.792969 243.339844 147.40625 243.511719 146.707031 245.296875 C 146.324219 246.292969 144.289062 246.386719 143.691406 245.125 C 141.65625 242.8125 140.078125 242.984375 137.902344 242.035156 C 136.109375 241.261719 135.023438 239.679688 134.460938 237.894531 C 134.214844 237.160156 134.253906 236.597656 133.375 236.285156 C 131.878906 235.652344 130.359375 233.234375 128.847656 231.617188 C 128.464844 231.335938 128.203125 230.964844 128.058594 230.511719 C 127.917969 230.058594 127.921875 229.609375 128.074219 229.160156 C 127.863281 225.945312 127.300781 222.792969 126.386719 219.707031 C 125.269531 215.914062 117.582031 204.78125 116.671875 202.09375 C 116.214844 200.796875 115.675781 200.601562 115.269531 202.59375 C 114.859375 204.582031 118.109375 217.46875 118.8125 218.941406 C 119.511719 220.414062 119.308594 221.113281 118.351562 219.886719 C 116.5625 217.539062 113.875 206.203125 113.761719 205.886719 C 113.691406 205.746094 113.265625 204.621094 112.460938 206.09375 C 111.691406 207.78125 108.21875 217.039062 104.429688 223.460938 C 102.636719 226.476562 99.128906 232.375 95.726562 236.234375 C 94.988281 237.074219 94.988281 236.339844 95.199219 235.886719 C 96.003906 233.988281 98.988281 228.550781 99.96875 226.796875 C 102.351562 222.234375 111.054688 204.515625 112.074219 196.515625 C 112.320312 194.449219 112.636719 192.976562 112.003906 191.042969 C 111.691406 190.050781 110.707031 189.328125 110.8125 187.925781 C 111.269531 184.558594 110.3125 182.625 109.761719 180.203125 C 109.265625 178.066406 106.988281 175.011719 103.867188 174.660156 C 99.441406 175.011719 97.867188 173.539062 95.65625 171.503906 C 93.902344 169.890625 91.902344 168.558594 90.003906 167.085938 C 88.707031 166.089844 87.339844 165.820312 85.902344 166.625 C 84.742188 167.292969 83.726562 166.800781 82.886719 166.128906 C 79.621094 163.566406 76.417969 160.90625 74.011719 157.429688 C 72.570312 155.4375 70.886719 149.429688 70.957031 147.671875 C 70.988281 146.304688 69.238281 143.53125 68.851562 142.933594 C 67.625 141.046875 66.269531 139.257812 64.78125 137.566406 C 62.011719 134.65625 66.503906 133.957031 68.113281 134.023438 C 77.09375 134.484375 79.933594 138.585938 84.324219 139.8125 C 85.523438 140.265625 86.761719 140.488281 88.042969 140.476562 C 88.25 140.378906 88.460938 140.324219 88.6875 140.316406 C 88.914062 140.308594 89.132812 140.347656 89.34375 140.429688 C 89.550781 140.511719 89.734375 140.636719 89.894531 140.796875 C 90.054688 140.957031 90.171875 141.140625 90.253906 141.351562 C 90.566406 141.5625 94.640625 144.230469 95.199219 144.6875 C 97.6875 146.859375 99.675781 149.386719 102.039062 151.742188 C 104.671875 154.375 107.339844 157.25 111.019531 158.441406 C 112.074219 158.757812 112.597656 158.757812 112.847656 158.269531 C 113.195312 157.636719 114.386719 154.484375 114.742188 153.851562 C 115.199219 153.011719 115.09375 151.921875 114.878906 150.726562 C 113.441406 143.566406 108.414062 138.289062 106.179688 135.957031 C 105.3125 135.144531 104.316406 134.546875 103.195312 134.164062 C 95.054688 131.675781 83.859375 126.058594 81.472656 126.023438 C 80.476562 126.023438 79.652344 124.761719 79.402344 124.53125 C 79.152344 124.304688 66.667969 115.292969 63.089844 114.140625 C 55.6875 111.785156 53.96875 106.035156 53.859375 105.824219 C 52.734375 103.019531 50.378906 96.492188 47.890625 92.671875 C 45.902344 89.652344 38.382812 77.585938 36.175781 74.761719 C 31.613281 68.933594 35.367188 58.867188 35.578125 58.199219 C 36.769531 54.515625 42.734375 47.324219 42.804688 42.023438 C 42.855469 39.910156 43.21875 37.847656 43.898438 35.84375 C 44.574219 33.839844 45.539062 31.984375 46.785156 30.273438 C 49.601562 25.582031 59.441406 11.652344 60.492188 11.125 C 62.878906 9.304688 65.089844 4.847656 65.125 4.742188 C 65.929688 2.777344 68.507812 2.53125 67.015625 5.511719 C 66.625 6.320312 64.175781 10.488281 64.347656 11.164062 C 64.769531 12.742188 59.542969 23.902344 56.523438 26.429688 C 55.398438 27.375 52.800781 36.378906 52.488281 37.269531 C 50.800781 42.460938 53.820312 42.179688 55.925781 41.25 C 59.855469 39.492188 57.960938 41.984375 57.648438 42.476562 C 57.507812 42.757812 52.703125 49.179688 49.929688 49.671875 C 49.230469 49.777344 48.179688 51.320312 48.109375 51.5625 C 45.019531 63.214844 49.375 73.207031 58.847656 71.734375 C 63.722656 70.613281 70.667969 61.632812 72.214844 59.070312 C 72.777344 58.160156 72.636719 57.417969 74.179688 56.542969 C 76.351562 55.140625 78.003906 50.367188 78.160156 50.074219 C 78.402344 49.652344 78.546875 49.234375 78.757812 48.8125 C 82.476562 42.777344 80.933594 48.285156 79.949219 49.234375 C 79.527344 50.394531 79.671875 52.359375 79.421875 53.617188 C 78.757812 56.847656 76.476562 59.722656 75.441406 62.777344 C 73.902344 67.40625 71.269531 70.421875 68.8125 74.496094 C 67.269531 77.09375 64.421875 78.742188 62.460938 81.269531 C 61.269531 82.761719 53.09375 79.40625 54.324219 82.636719 C 54.496094 83.164062 56.113281 84.742188 57.804688 87.726562 C 58.917969 89.898438 59.832031 92.152344 60.546875 94.488281 C 61.492188 97.503906 65.457031 99.121094 66.195312 100.730469 C 67.285156 103.148438 67.910156 102.222656 67.1875 100.234375 C 67.152344 100.164062 66.558594 96.023438 67.328125 94.234375 C 67.890625 92.832031 67.996094 91.429688 68.871094 90.511719 C 69.367188 90.015625 76.832031 79.429688 84.90625 74.546875 C 85.539062 74.199219 87.539062 69.460938 86.34375 74.546875 C 85.183594 79.496094 74.976562 87.914062 75.398438 98.054688 C 76.132812 100.367188 77.078125 101.667969 77.46875 104.054688 C 77.679688 105.546875 77.539062 107.214844 78.277344 109 C 80.207031 113.175781 83.648438 115.839844 87.46875 117.769531 C 90.765625 119.910156 88.59375 117.105469 88.460938 116.777344 C 88.039062 115.933594 85.339844 110.109375 85.128906 109.160156 C 84.039062 104.632812 82.394531 96.722656 82.359375 96.722656 C 81.128906 91.492188 84.039062 93.914062 84.347656 95.039062 C 85.613281 99.429688 93.050781 109.074219 94.660156 111.25 C 95.820312 112.859375 97.078125 114.582031 99.1875 115.003906 C 102.800781 116.199219 107.121094 117.636719 114.308594 123.914062 C 115.886719 125.285156 116.90625 123.742188 117.394531 122.796875 C 118.058594 121.460938 117.53125 117.851562 115.601562 114.691406 C 113.429688 111.183594 115.460938 99.042969 115.742188 97.078125 Z M 169.605469 160.660156 C 168.765625 161.65625 168.273438 164.695312 168.273438 166.03125 C 168.273438 167.925781 167.1875 169.363281 165.398438 170.167969 C 164.871094 170.378906 164.484375 170.742188 164.238281 171.257812 C 164.066406 171.570312 163.886719 172.03125 163.433594 171.996094 C 160.835938 171.78125 160.238281 173.710938 159.648438 175.539062 C 158.59375 178.835938 158.417969 176.53125 158.652344 175.886719 C 159.25 173.496094 159.8125 171.183594 161.847656 169.539062 C 162.46875 169.03125 162.964844 168.421875 163.339844 167.710938 C 163.65625 166.871094 164.074219 166.03125 164.832031 167.214844 C 165.601562 168.054688 166.023438 167.5625 166.414062 166.6875 C 167.042969 165.144531 167.605469 161.320312 168.621094 159.949219 C 169.636719 158.582031 171.183594 158.792969 169.617188 160.652344 Z M 97.542969 159.851562 C 96.945312 158.691406 94.667969 156.308594 94.488281 156.066406 C 91.4375 152.238281 87.929688 150.167969 83.820312 147.75 C 82.945312 147.222656 80.667969 146.625 79.578125 146.257812 C 78.910156 146.015625 75.785156 145.265625 79.363281 145.265625 C 81.398438 145.265625 84.59375 145.507812 86.417969 145.582031 C 87.113281 145.664062 87.761719 145.878906 88.371094 146.222656 C 88.980469 146.570312 89.496094 147.019531 89.925781 147.570312 C 92.03125 150.308594 93.90625 152.800781 95.960938 155.570312 C 96.867188 156.839844 97.671875 158.164062 98.382812 159.550781 C 98.695312 160.21875 98.453125 161.621094 97.542969 159.867188 Z M 205.039062 143.878906 C 204.375 144.195312 195.394531 149.5625 194.058594 150.347656 C 191.640625 151.785156 192.761719 151.292969 192.09375 153.605469 C 191.097656 157.011719 188.238281 159.890625 186.449219 162.976562 C 185.710938 164.308594 185.453125 164.378906 184.457031 166.484375 C 184.351562 166.550781 183.089844 167.976562 183.546875 165.640625 C 183.636719 165.195312 183.8125 164.785156 184.074219 164.414062 C 185.339844 162.921875 185.160156 161.925781 185.476562 160.550781 C 186.96875 154.484375 190.214844 150.164062 195.617188 147.253906 C 195.722656 147.183594 204.25 142.835938 204.386719 142.777344 C 205.582031 142.277344 209.261719 141.722656 205.054688 143.867188 Z M 130.875 210.023438 C 130.378906 206.238281 134 200.449219 133.507812 196.449219 C 133.195312 193.710938 134.277344 194.238281 134.734375 195.363281 C 134.910156 195.890625 135.472656 195.257812 135.472656 194.550781 C 135.472656 191.46875 135.929688 186.34375 134.769531 183.328125 C 134.273438 182.132812 135.054688 182.066406 135.542969 182.59375 C 137.75 184.945312 137.75 194.273438 137.75 198.015625 C 137.75 198.257812 137.75 198.960938 137.1875 199.140625 C 136.277344 199.3125 136.195312 203.3125 135.398438 205.242188 C 134.835938 206.648438 132.167969 206.890625 132.03125 209.769531 C 132.167969 210.648438 131.152344 212.230469 130.871094 210.050781 Z M 150.347656 171.46875 C 150.769531 165.570312 149.578125 159.398438 153.960938 153.46875 C 154.957031 152.132812 155.398438 152.378906 154.90625 153.398438 C 154.34375 154.515625 153.960938 156.730469 154.378906 157.820312 C 154.488281 158.148438 154.714844 158.328125 155.0625 158.351562 C 155.40625 158.378906 155.660156 158.234375 155.816406 157.925781 C 156.941406 156.167969 157.253906 153.996094 158.871094 152.558594 C 160.488281 151.121094 161.257812 149.050781 162.765625 147.398438 C 163.261719 146.871094 164.550781 145.257812 163.886719 147.746094 C 163.570312 148.976562 160.378906 152.222656 159.503906 155.746094 C 159.003906 157.328125 157.398438 158.449219 156.765625 160.132812 C 155.996094 162.203125 155.539062 164.308594 153.960938 165.925781 C 152.800781 167.121094 152.242188 168.976562 151.714844 170.558594 C 151.578125 170.980469 151.4375 172.523438 151.21875 172.90625 C 150.832031 173.503906 150.273438 172.800781 150.34375 171.46875 Z M 127.679688 155.960938 C 128.105469 156.238281 130.523438 157.453125 131.855469 159.042969 C 132.277344 159.570312 133.433594 161.359375 133.890625 161.851562 C 134.207031 162.167969 136.347656 163.503906 135.222656 161.042969 C 134.6875 160.246094 134.230469 159.402344 133.855469 158.515625 C 133.75 157.988281 134.488281 157.816406 135.292969 158.832031 C 135.855469 159.53125 137.328125 160.820312 137.648438 161.671875 C 138.175781 162.96875 138.144531 164.199219 138.910156 162.617188 C 139.367188 161.777344 140.242188 161.039062 140.804688 162.546875 C 141.1875 164.164062 143.160156 165.421875 141.648438 167.214844 C 141.367188 167.5625 140.523438 168.707031 140.59375 169.179688 C 141.398438 171.351562 142.417969 173.777344 141.539062 177.285156 C 141.675781 178.867188 142.765625 177.8125 142.871094 177.386719 C 143.367188 175.527344 144.550781 175.527344 144.484375 177.285156 C 144.453125 178.136719 144.585938 178.960938 144.890625 179.761719 C 145.195312 180.558594 145.644531 181.265625 146.234375 181.878906 C 146.796875 182.546875 146.796875 183.871094 146.867188 184.757812 C 147.386719 190.894531 146.304688 194.792969 146.511719 199.769531 C 146.546875 200.890625 145.421875 201.457031 145.386719 199.597656 C 145.386719 199.382812 144.792969 193.457031 144.476562 190.640625 C 144.261719 187.90625 142.6875 187.730469 143.285156 185.484375 C 143.351562 185.234375 143.457031 184.21875 142.375 184.539062 C 142.183594 184.570312 142.003906 184.539062 141.835938 184.4375 C 141.667969 184.335938 141.558594 184.195312 141.496094 184.011719 C 141.429688 180.675781 139.394531 179.941406 139.148438 177.625 C 139.054688 177.007812 139.101562 176.398438 139.289062 175.800781 C 140.164062 173.34375 139.53125 170.925781 138.832031 168.539062 C 137.636719 165.660156 137.253906 168.398438 137.253906 168.851562 C 137.304688 169.296875 137.304688 169.738281 137.253906 170.183594 C 137.078125 170.679688 136.484375 170.679688 135.988281 169.238281 C 134.871094 166.152344 131.816406 159.730469 127.394531 156.996094 C 126.761719 156.605469 124.832031 154.152344 127.671875 155.941406 Z M 132.035156 189.816406 C 131.929688 189.46875 131.539062 187.398438 131.332031 187.078125 C 130.339844 185.640625 128.734375 185.46875 128.457031 187.429688 C 128.8125 188.761719 127.460938 187.988281 127.019531 187.078125 C 126.179688 185.886719 124.847656 186.023438 124.074219 184.449219 C 123.199219 182.695312 122.25 182.800781 122.914062 185.078125 C 122.949219 185.398438 123.054688 185.691406 123.234375 185.957031 C 124.394531 187.324219 124.359375 188.550781 122.394531 186.339844 C 122.1875 186.054688 121.953125 185.800781 121.691406 185.566406 C 121.378906 185.289062 120.113281 184.796875 120.429688 186.40625 C 120.625 187.078125 120.90625 187.710938 121.273438 188.304688 C 121.976562 189.214844 123.941406 192.902344 124.183594 193.957031 C 124.359375 194.65625 124.148438 194.761719 123.65625 194.234375 C 120.324219 190.441406 116.324219 183.601562 116.78125 177.988281 C 116.816406 177.253906 117.238281 177.183594 117.621094 177.78125 C 118.03125 178.375 118.394531 178.996094 118.710938 179.640625 C 118.8125 179.902344 118.988281 180.089844 119.238281 180.214844 C 119.484375 180.335938 119.746094 180.355469 120.011719 180.273438 C 120.640625 180.097656 120.710938 179.46875 120.539062 178.941406 C 120.136719 177.601562 119.890625 176.230469 119.800781 174.835938 C 119.660156 173.570312 119.695312 172.847656 119.097656 172.90625 C 117.488281 173.121094 115.660156 172.238281 118.398438 171.710938 C 119.515625 171.503906 119.273438 170.585938 118.710938 169.816406 C 118.324219 169.253906 117.976562 168.585938 117.515625 167.957031 C 116.324219 166.378906 117.167969 166.09375 118.148438 166.585938 C 119.832031 167.429688 122.496094 169.710938 123.796875 170.515625 C 126.78125 172.34375 128.769531 174 129.582031 178.269531 C 129.90625 179.402344 130.40625 180.457031 131.074219 181.429688 C 132.195312 183.417969 133.351562 184.933594 133.039062 188.890625 C 132.933594 190.257812 132.269531 190.433594 132.042969 189.835938 Z M 125.652344 183.46875 C 126.632812 183.597656 127.617188 183.621094 128.601562 183.539062 C 129.199219 183.539062 129.164062 182.871094 129.097656 182.378906 C 129.066406 181.996094 128.820312 181.675781 128.539062 181.878906 C 127.660156 182.546875 126.546875 181.914062 125.550781 182.128906 C 124.851562 182.269531 124.957031 183.289062 125.65625 183.460938 Z M 159.652344 189.121094 C 160.8125 187.402344 160.949219 185.433594 161.195312 183.613281 C 162.5625 172.457031 170.320312 171.089844 174.527344 170.769531 C 175.824219 170.5625 176.386719 170.945312 176.597656 172.207031 C 177.160156 175.578125 176.386719 177.183594 175.601562 178.3125 C 174.816406 179.441406 174.546875 179.152344 173.429688 178.242188 C 172.929688 177.785156 172.796875 178.207031 172.582031 178.417969 C 172.085938 178.945312 172.652344 180.035156 171.671875 180.277344 C 171.351562 180.703125 170.726562 181.363281 171.394531 181.855469 C 171.671875 182.066406 172.339844 181.433594 172.582031 181.222656 C 172.96875 180.980469 173.8125 180.945312 172.96875 182.21875 C 172.472656 182.957031 168.726562 188.886719 162.523438 188.816406 C 162.199219 188.828125 161.902344 188.921875 161.632812 189.101562 C 161.367188 189.28125 161.164062 189.515625 161.03125 189.8125 C 159.800781 192.652344 158.613281 195.460938 159.976562 198.6875 C 160.789062 200.496094 161.105469 202.390625 160.921875 204.367188 C 160.851562 204.929688 162.183594 208.089844 162.359375 208.542969 C 162.605469 209.207031 162.324219 209.347656 161.902344 208.75 C 161.128906 207.59375 159.304688 203.625 158.636719 202.4375 C 156.921875 199.242188 156.003906 195.734375 155.199219 192.367188 C 154.460938 189.140625 154.074219 183.839844 154.777344 180.472656 C 155.019531 179.347656 155.582031 179.476562 155.582031 180.75 C 155.582031 183.175781 157.074219 186.722656 158.214844 188.890625 C 158.5625 189.523438 159.207031 189.660156 159.652344 189.066406 Z M 163.089844 183.507812 C 163.089844 183.929688 163.054688 184.347656 163.089844 184.769531 C 163.09375 184.929688 163.128906 185.082031 163.199219 185.222656 C 163.265625 185.367188 163.359375 185.492188 163.480469 185.59375 C 163.601562 185.699219 163.738281 185.773438 163.890625 185.820312 C 164.039062 185.867188 164.195312 185.878906 164.351562 185.859375 C 164.707031 185.835938 165.023438 185.714844 165.304688 185.496094 C 165.585938 185.28125 165.78125 185.003906 165.894531 184.667969 C 166 184.3125 165.757812 183.894531 165.476562 183.964844 C 165.179688 184.054688 164.890625 184.035156 164.609375 183.910156 C 164.324219 183.78125 164.117188 183.578125 163.984375 183.296875 C 163.601562 182.703125 163.179688 182.800781 163.109375 183.507812 Z M 171.160156 176.875 C 171.523438 175.917969 171.523438 174.957031 171.160156 174 C 170.492188 172.734375 169.402344 173.679688 169.546875 174.175781 C 169.6875 174.839844 169.824219 175.507812 170.003906 176.242188 C 170.183594 176.980469 170.429688 178.667969 171.164062 176.875 Z M 166.949219 218.066406 C 167.449219 216.976562 167.304688 215.75 167.375 214.625 C 167.546875 211.46875 167.441406 208.242188 168.636719 205.222656 C 169.484375 203.390625 170.230469 201.515625 170.871094 199.601562 C 171.570312 197.113281 172.90625 194.933594 174.203125 192.832031 C 178.59375 185.867188 180.730469 175.460938 179.78125 168.09375 C 179.429688 165.566406 180.65625 166.976562 180.90625 167.671875 C 181.355469 168.917969 181.707031 170.195312 181.957031 171.496094 C 182.058594 172.761719 182.453125 173.074219 183.53125 172.164062 C 184.476562 171.394531 185.289062 170.40625 186.199219 169.566406 C 186.871094 168.824219 187.617188 168.167969 188.441406 167.601562 C 190.128906 166.109375 194.375 164.96875 197.601562 164.867188 C 199.09375 164.796875 200.164062 164.617188 200.96875 163.214844 C 202.761719 160.128906 204.058594 156.96875 208.058594 155.394531 C 208.867188 154.867188 209.957031 154.164062 210.511719 153.214844 C 212.445312 149.972656 214.585938 146.871094 216.933594 143.914062 C 218.582031 141.25 219.109375 138.941406 214.691406 139.386719 C 210.023438 139.214844 205.53125 138.160156 201.816406 141.179688 C 201.101562 141.648438 200.320312 141.90625 199.46875 141.949219 C 196.414062 142.089844 185.539062 150.195312 183.75 154.339844 C 183.363281 155.394531 182.453125 156.269531 181.714844 157.144531 C 181.46875 157.441406 181.171875 157.679688 180.835938 157.867188 C 180.496094 158.050781 180.132812 158.167969 179.75 158.21875 C 179.367188 158.265625 178.988281 158.242188 178.613281 158.148438 C 178.238281 158.054688 177.890625 157.894531 177.578125 157.671875 C 175.058594 155.753906 173.222656 153.320312 172.070312 150.375 C 170.175781 145.214844 166.734375 141.179688 162.617188 137.671875 C 158.757812 134.796875 157.949219 136.675781 157.878906 136.933594 C 157.683594 137.6875 157.648438 138.445312 157.777344 139.214844 C 158.089844 141.847656 152.339844 145.457031 151.566406 149.421875 C 151.429688 151.769531 150.570312 151.769531 150.570312 149.597656 C 150.433594 148.261719 152.605469 142.6875 152.886719 140.402344 C 152.894531 139.980469 152.769531 139.605469 152.503906 139.277344 C 151.871094 138.929688 151.066406 138.75 152.003906 137.980469 C 152.226562 137.757812 152.390625 137.5 152.503906 137.207031 C 152.570312 136.578125 151.941406 136.507812 150.960938 136.578125 C 146.398438 136.964844 141.835938 137.3125 137.242188 137.03125 C 136.402344 136.960938 135.5625 136.925781 134.714844 136.855469 C 134.015625 136.820312 133.875 137.167969 134.292969 137.765625 C 135.414062 139.257812 135.558594 141.097656 135.90625 142.890625 C 136.042969 143.625 135.59375 144.085938 135.066406 143.59375 C 134.722656 143.21875 134.453125 142.796875 134.257812 142.328125 C 133.726562 141.261719 132.964844 140.398438 131.980469 139.730469 C 130.75 138.820312 128.050781 139.132812 127.625 140.257812 C 126.945312 142.054688 126.148438 143.796875 125.238281 145.488281 C 123.757812 148.179688 121.710938 150.335938 119.097656 151.957031 C 116.996094 153.601562 116.433594 155.816406 115.835938 158.304688 C 115.097656 161.460938 113.238281 161.949219 110.113281 161.074219 C 106.289062 159.984375 103.484375 157.429688 100.660156 154.96875 C 98.203125 152.789062 96.679688 149.847656 94.523438 147.386719 C 93.226562 145.921875 91.683594 144.800781 89.890625 144.019531 C 85.855469 142.195312 81.578125 141.632812 77.257812 141.074219 C 77.050781 141.050781 76.84375 141.046875 76.636719 141.066406 C 76.425781 141.085938 76.222656 141.128906 76.023438 141.191406 C 75.824219 141.257812 75.636719 141.339844 75.453125 141.445312 C 75.273438 141.546875 75.105469 141.667969 74.949219 141.808594 C 74.792969 141.949219 74.65625 142.105469 74.535156 142.273438 C 74.410156 142.441406 74.308594 142.625 74.226562 142.816406 C 74.140625 143.007812 74.078125 143.203125 74.039062 143.410156 C 73.996094 143.613281 73.976562 143.820312 73.980469 144.03125 C 73.804688 151.746094 78.925781 158.871094 80.152344 161.21875 C 81.648438 163.988281 83.453125 164.871094 86.578125 164.03125 C 87.519531 163.710938 88.429688 163.78125 89.3125 164.238281 C 90.308594 164.800781 91.457031 165.363281 92.1875 166.167969 C 94.785156 169.078125 98.222656 169.78125 101.800781 170.308594 C 105.066406 170.765625 108.503906 170.660156 110.925781 173.570312 C 111.523438 174.34375 111.976562 173.820312 112.292969 173.1875 C 112.75 172.277344 113.382812 170.238281 114.085938 169.367188 C 114.507812 168.804688 116.074219 166.980469 115.207031 169.265625 C 114.332031 171.652344 114.214844 175.4375 113.714844 177.894531 C 112.722656 182.984375 112.722656 188.3125 115.328125 193.125 C 116.449219 195.230469 117.675781 197.019531 118.625 199.230469 C 118.980469 200 119.125 201.542969 119.621094 202.105469 C 121.65625 204.457031 123.128906 207.648438 124.148438 210.488281 C 124.816406 212.3125 126.503906 212.476562 126.636719 214.417969 C 126.777344 214.945312 126.742188 215.910156 126.957031 216.453125 C 126.996094 216.609375 127.074219 216.742188 127.199219 216.847656 C 127.320312 216.953125 127.464844 217.015625 127.625 217.03125 C 127.785156 217.046875 127.9375 217.015625 128.078125 216.933594 C 128.21875 216.851562 128.324219 216.738281 128.394531 216.59375 C 128.683594 215.734375 129.015625 214.890625 129.386719 214.066406 C 130.296875 213.113281 131.8125 213.78125 130.195312 214.835938 C 129.386719 215.363281 129.847656 217.222656 129.804688 217.433594 C 129.070312 221.042969 127.140625 218.765625 129.734375 224.894531 C 129.996094 225.511719 130.101562 226.15625 130.050781 226.824219 C 129.417969 229.734375 130.015625 231.703125 133.175781 233.175781 C 133.804688 233.347656 134.230469 234.167969 134.578125 234.507812 C 134.925781 234.847656 135.347656 235.453125 135.839844 235.453125 C 138.542969 235.453125 141.140625 236.015625 143.769531 235.140625 C 144.679688 234.855469 144.964844 234.230469 144.332031 233.703125 C 143.277344 232.707031 142.4375 231.492188 140.6875 231.3125 C 138.757812 231.105469 134.21875 228.542969 133.527344 223.597656 C 133.421875 223.097656 133.742188 219.351562 135.597656 222.601562 C 135.910156 223.058594 137.839844 225.023438 138.757812 225.234375 C 141.914062 225.6875 140.4375 223.742188 139.949219 223.375 C 138.546875 222.378906 139.527344 221.582031 137.386719 220.847656 C 136.296875 220.421875 134.964844 219.851562 134.402344 218.8125 C 132.542969 215.652344 134.4375 212.386719 137.175781 211.234375 C 137.703125 210.988281 139.207031 211.199219 139.738281 211.375 C 144.015625 213.269531 149.457031 213.363281 152.671875 211.691406 C 155.375 210.289062 156.457031 210.394531 158.496094 212.496094 C 158.847656 212.816406 160.636719 215.09375 159.269531 217.058594 C 158.214844 218.636719 156.496094 219.796875 154.792969 220.671875 C 153.707031 221.234375 152.800781 221.476562 152.546875 222.878906 C 152.441406 223.6875 152.546875 224.421875 153.359375 224.285156 C 154.726562 224.003906 156.234375 223.824219 156.96875 222.492188 C 157.214844 221.972656 157.546875 221.519531 157.964844 221.125 C 158.320312 220.8125 159.859375 219.367188 160.175781 221.824219 C 159.859375 231.367188 150.351562 231.472656 148.839844 233.269531 C 148.492188 233.621094 148.839844 234.761719 149.472656 234.984375 C 152.105469 235.929688 156.804688 234.671875 158.429688 232.53125 C 159.234375 231.40625 159.546875 230.671875 160.359375 229.546875 C 162.886719 225.933594 165.164062 222.582031 164.109375 217.867188 C 164.109375 217.796875 163.96875 214.742188 164.914062 216.566406 C 164.984375 216.742188 165.96875 220.183594 166.949219 218.058594 Z M 56.386719 20.421875 C 55.929688 20.984375 55.511719 21.367188 55.160156 21.859375 C 54.207031 23.296875 53.265625 24.703125 52.351562 26.140625 C 50 29.859375 47.652344 33.601562 46.382812 37.890625 C 45.648438 40.277344 45.292969 43.050781 44.769531 45.503906 C 44.105469 48.800781 42.527344 51.472656 40.347656 54.03125 C 38.601562 56.144531 35.175781 67.761719 38.65625 73.472656 C 41.324219 77.089844 44.09375 81.050781 46.515625 84.804688 C 48.386719 87.660156 50.914062 91.613281 52.089844 93.542969 C 52.859375 94.105469 52.402344 94.804688 52.402344 95.160156 C 52.4375 96.320312 53.492188 97.4375 53.980469 98.386719 C 54.628906 99.539062 55.0625 100.765625 55.277344 102.070312 C 55.632812 103.792969 58.820312 108.839844 60.507812 109.296875 C 66.152344 110.839844 84.539062 127.367188 98.675781 129.296875 C 104.921875 130.457031 106.636719 132.804688 109.167969 135.230469 C 113.308594 139.160156 114.675781 143.125 116.710938 148.421875 C 117.378906 150.179688 117.414062 150.667969 118.890625 149.542969 C 121.308594 147.679688 122.503906 145.015625 124.011719 142.492188 C 125.097656 140.734375 125.941406 139.722656 123.800781 137.964844 C 121.695312 135.230469 121.03125 132.140625 122.363281 128.769531 C 122.539062 128.347656 122.75 124.292969 123.238281 122.800781 C 123.726562 121.308594 123.800781 119.996094 123.03125 118.976562 C 121.585938 117.144531 120.828125 115.066406 120.746094 112.734375 C 120.640625 111.015625 119.253906 109.125 118.640625 107.472656 C 118.144531 106.105469 117.523438 105.507812 117.449219 107.722656 C 117.34375 110.207031 120.253906 120.421875 120.183594 122.878906 C 119.800781 125.441406 117.273438 130.492188 111.941406 125.929688 C 110.640625 123.824219 103.515625 120.035156 100.640625 118.46875 C 94.816406 116.222656 88.925781 108.714844 88.203125 107.167969 C 86.59375 103.90625 86.941406 106.113281 87.148438 107.835938 C 87.710938 112.433594 94.34375 118.433594 95.078125 120.675781 C 95.097656 120.78125 95.101562 120.890625 95.09375 120.996094 C 95.085938 121.101562 95.0625 121.207031 95.027344 121.308594 C 94.988281 121.410156 94.941406 121.503906 94.882812 121.59375 C 94.820312 121.683594 94.75 121.761719 94.667969 121.832031 C 94.589844 121.902344 94.5 121.960938 94.402344 122.011719 C 94.308594 122.058594 94.207031 122.09375 94.101562 122.113281 C 93.996094 122.136719 93.890625 122.144531 93.78125 122.136719 C 93.675781 122.132812 93.570312 122.113281 93.46875 122.078125 C 91.476562 121.550781 82.871094 120.585938 75.855469 110.257812 C 74.105469 107.488281 74.363281 101.097656 73.085938 96.613281 C 71.75 93.382812 75.890625 87.839844 76.132812 87.453125 C 81.398438 79.910156 77.292969 83.804688 75.140625 86.257812 C 73.648438 87.976562 72.089844 90.152344 70.578125 91.90625 C 68.507812 94.257812 69.140625 100.816406 70.613281 104.011719 C 71.945312 106.851562 68.257812 105.34375 67.769531 105.066406 C 63.195312 102.347656 59.652344 99.105469 57.5625 94.242188 C 56.375 91.714844 55.019531 89.28125 53.492188 86.945312 C 52.4375 85.230469 51.003906 83.785156 50.089844 81.96875 C 49.351562 80.429688 49.421875 79.65625 50.964844 79.128906 C 52.722656 78.496094 58.089844 79.761719 59.035156 79.832031 C 59.699219 79.898438 60.339844 79.804688 60.957031 79.550781 C 61.574219 79.296875 62.09375 78.910156 62.515625 78.394531 C 65.722656 74.875 70.878906 66.140625 71.089844 65.769531 C 73.019531 62.367188 71.652344 62.75 70.421875 64.777344 C 70.25 65.058594 67.6875 68.214844 66.667969 69.6875 C 64.597656 72.671875 61.4375 74.003906 58.070312 74.636719 C 56.734375 74.898438 55.394531 74.902344 54.054688 74.65625 C 52.714844 74.40625 51.46875 73.921875 50.3125 73.199219 C 49.152344 72.496094 46.703125 71.058594 45.152344 66.394531 C 44.160156 61.304688 44.160156 56.289062 46.453125 51.414062 C 47.363281 49.484375 47.222656 48.539062 50.273438 46.359375 C 51.398438 45.621094 56.242188 43.34375 51.113281 43.796875 C 49.078125 44.074219 49.394531 41.691406 50.023438 40.148438 C 51.074219 37.414062 50.796875 35.175781 51.21875 33.097656 C 51.757812 29.949219 53.375 27.460938 55.125 24.976562 C 55.894531 23.886719 57.542969 21.675781 58.070312 20.097656 C 58.277344 19.433594 59.824219 16.273438 56.382812 20.453125 Z M 239.003906 60.914062 C 240.441406 61.792969 244.199219 62.109375 244.832031 62.109375 C 247.429688 61.933594 247.53125 63.105469 247.707031 63.757812 C 247.933594 64.570312 248 65.394531 247.902344 66.230469 C 247.804688 67.070312 247.554688 67.859375 247.144531 68.597656 C 246.148438 70.457031 238.761719 85.296875 237.457031 89.402344 C 236.652344 91.890625 233.734375 92.105469 233.734375 89.367188 C 233.734375 88.375 233.949219 86.949219 233.5625 86 C 232.6875 83.824219 231.839844 81.792969 230.929688 79.652344 C 230.253906 78.167969 229.1875 77.058594 227.734375 76.320312 C 225.761719 75.195312 224.058594 73.757812 222.617188 72.003906 C 221.285156 70.429688 219.847656 68.8125 218.964844 66.847656 C 217.5625 64.394531 218.125 67.125 218.402344 67.761719 C 219.140625 69.40625 219.703125 71.058594 220.648438 72.566406 C 222.503906 75.589844 224.914062 78.078125 227.875 80.03125 C 228.402344 80.378906 229.867188 80.203125 229.453125 81.890625 C 229.804688 84.035156 230.542969 85.542969 230.855469 87.996094 C 231.03125 89.363281 230.925781 92.066406 231.382812 94.132812 C 231.597656 95.101562 231.5625 96.058594 231.277344 97.011719 C 230.648438 98.941406 228.925781 100.449219 227.105469 101.78125 C 225.386719 103.273438 218.894531 107.042969 210.332031 108.90625 C 209.421875 109.148438 208.617188 109.078125 208.195312 108.378906 C 207.25 106.835938 205.109375 106.585938 204.296875 105.011719 C 203.824219 104.164062 203.71875 103.277344 203.984375 102.34375 C 204.617188 100.167969 204.484375 97.503906 205.179688 95.324219 C 206.125 92.308594 205.25 93.148438 204.269531 94.867188 C 202.933594 97.253906 202.199219 99.816406 201.183594 102.328125 C 200.484375 104.121094 200.726562 104.398438 201.957031 105.625 C 202.597656 106.324219 203.277344 106.988281 203.988281 107.617188 C 204.15625 107.742188 204.300781 107.886719 204.433594 108.050781 C 204.5625 108.214844 204.667969 108.390625 204.757812 108.578125 C 204.84375 108.765625 204.90625 108.964844 204.945312 109.167969 C 204.980469 109.371094 204.996094 109.578125 204.984375 109.785156 C 204.972656 109.992188 204.933594 110.195312 204.871094 110.394531 C 204.8125 110.59375 204.726562 110.78125 204.617188 110.960938 C 204.511719 111.136719 204.382812 111.300781 204.234375 111.445312 C 204.085938 111.59375 203.925781 111.71875 203.746094 111.824219 C 200.585938 113.578125 190.550781 115.4375 183.503906 125.859375 C 182.308594 126.703125 181.511719 126.421875 180.484375 125.542969 C 179.675781 124.839844 174.378906 120.875 174.449219 113.894531 C 174.515625 107.925781 173.675781 111.367188 173.496094 111.90625 C 173.394531 112.222656 174.09375 118.292969 174.933594 120.960938 C 175.777344 123.625 176.429688 126.328125 176.199219 129.558594 C 176.234375 130.820312 175.109375 132.085938 174.339844 132.640625 C 171.878906 134.257812 169.363281 135.695312 166.304688 136.183594 C 165.359375 136.359375 165.601562 137.34375 166.339844 138.011719 C 168.351562 139.847656 170.199219 141.835938 171.878906 143.980469 C 172.875 145.3125 172.582031 146.4375 173.949219 144.820312 C 179.949219 133.667969 192.582031 131.527344 193.457031 131.207031 C 195.597656 130.4375 195.035156 129.945312 193.703125 130.214844 C 192.507812 130.460938 189.175781 129.40625 191.175781 124.878906 C 191.9375 123.550781 192.882812 122.367188 194.007812 121.328125 C 195.132812 120.285156 196.386719 119.4375 197.769531 118.777344 C 201.453125 116.984375 211.667969 112.496094 212.578125 112.308594 C 214.566406 111.960938 225.875 107.746094 230.1875 106.203125 C 233.910156 104.871094 236.75 102.765625 237.875 98.835938 C 238.648438 96.066406 243.769531 80.308594 253.105469 68.984375 C 256.015625 65.402344 260.1875 62.421875 262.015625 57.96875 C 262.714844 56.214844 267.558594 48.988281 262.855469 43.375 C 261.488281 41.234375 257.878906 35.234375 257.3125 34.496094 C 253.769531 30.019531 256.4375 34.285156 256.613281 34.921875 C 256.714844 35.269531 259.945312 40.359375 260.714844 42.53125 C 262.332031 47.164062 261.347656 51.761719 258.1875 55.6875 C 255.277344 59.824219 252.328125 65.964844 251.140625 61.332031 C 251.035156 60.875 249.910156 52.070312 248.785156 48.351562 C 248.152344 46.25 247.242188 43.933594 245.304688 42.636719 C 244.039062 41.796875 243.128906 40.8125 241.933594 39.832031 C 239.65625 38.429688 241.585938 40.53125 242.074219 41.058594 C 243.40625 42.601562 244.878906 44.460938 245.582031 46.394531 C 246.808594 49.890625 247.648438 53.480469 248.109375 57.160156 C 248.25 58.214844 247.832031 59.402344 246.847656 59.859375 C 244.777344 60.359375 242.367188 60.734375 240.179688 60.140625 C 236.199219 58.527344 237.40625 60 238.984375 60.910156 Z M 139.433594 239.25 C 140.203125 240.824219 141.398438 241.5625 143.414062 241.144531 C 143.734375 241.058594 144.050781 241.082031 144.359375 241.214844 C 146.113281 242.125 147.796875 241.109375 149.484375 240.894531 C 150.675781 240.722656 151.726562 239.902344 152.640625 239.035156 C 152.996094 238.6875 153.34375 238.332031 153.238281 237.839844 C 153.066406 237.207031 152.503906 237.382812 152.078125 237.34375 C 150.328125 237.238281 148.503906 237.558594 146.925781 236.347656 C 146.707031 236.246094 146.484375 236.234375 146.257812 236.3125 C 144.398438 237.257812 142.277344 237.1875 140.222656 237.648438 C 140.058594 237.683594 139.90625 237.757812 139.773438 237.863281 C 139.640625 237.96875 139.535156 238.097656 139.460938 238.25 C 139.386719 238.40625 139.347656 238.566406 139.347656 238.738281 C 139.347656 238.90625 139.378906 239.070312 139.453125 239.222656 Z M 146.273438 226.375 C 146.449219 225.285156 146.378906 224.234375 146.800781 223.324219 C 147.25 222.660156 147.355469 221.949219 147.113281 221.183594 C 146.695312 220.023438 148.03125 218.164062 149.105469 218.199219 C 150.542969 218.269531 151.632812 217.636719 152.679688 216.933594 C 153.277344 216.511719 153.179688 216.375 152.472656 216.511719 C 150.859375 216.824219 149.105469 216.792969 147.703125 217.507812 C 146.050781 218.351562 144.402344 218.003906 142.726562 218.035156 C 142.023438 218.070312 141.730469 218.769531 142.378906 219.03125 C 142.824219 219.175781 143.277344 219.246094 143.746094 219.242188 C 145.238281 219.277344 145.496094 219.59375 145.496094 221.035156 C 145.441406 221.5 145.417969 221.96875 145.429688 222.4375 C 145.640625 223.703125 145.324219 225 145.53125 226.417969 C 145.636719 227.121094 146.164062 227.085938 146.269531 226.382812 Z M 146.273438 226.375 " fill-opacity="1" fill-rule="nonzero"/></svg>