<?xml version="1.0" encoding="UTF-8"?>
<svg width="432" height="432" viewBox="0 0 432 432" fill="none" xmlns="http://www.w3.org/2000/svg">
  <style>
    .logo { fill: #FF6B00; }
  </style>
  <path class="logo" d="M216 0C97.0964 0 0 97.0964 0 216C0 334.904 97.0964 432 216 432C334.904 432 432 334.904 432 216C432 97.0964 334.904 0 216 0ZM216 396C116.942 396 36 315.058 36 216C36 116.942 116.942 36 216 36C315.058 36 396 116.942 396 216C396 315.058 315.058 396 216 396Z"/>
  <path class="logo" d="M216 72C136.471 72 72 136.471 72 216C72 295.529 136.471 360 216 360C295.529 360 360 295.529 360 216C360 136.471 295.529 72 216 72ZM216 324C156.471 324 108 275.529 108 216C108 156.471 156.471 108 216 108C275.529 108 324 156.471 324 216C324 275.529 275.529 324 216 324Z"/>
  <circle class="logo" cx="216" cy="216" r="72"/>
</svg> 