<svg xmlns="http://www.w3.org/2000/svg" xmlns:xlink="http://www.w3.org/1999/xlink" width="500" zoomAndPan="magnify" viewBox="0 0 375 374.999991" height="500" preserveAspectRatio="xMidYMid meet" version="1.0"><defs><clipPath id="0db207a5a1"><path d="M 121 7.980469 L 258 7.980469 L 258 144 L 121 144 Z M 121 7.980469 " clip-rule="nonzero"/></clipPath><clipPath id="7657f7497b"><path d="M 109 286 L 270 286 L 270 367.230469 L 109 367.230469 Z M 109 286 " clip-rule="nonzero"/></clipPath><clipPath id="30f2f7913f"><path d="M 257 198 L 356.25 198 L 356.25 266 L 257 266 Z M 257 198 " clip-rule="nonzero"/></clipPath><clipPath id="a5e962be06"><path d="M 18.75 198 L 118 198 L 118 266 L 18.75 266 Z M 18.75 198 " clip-rule="nonzero"/></clipPath></defs><g clip-path="url(#0db207a5a1)"><path fill="#4377c3" d="M 189.15625 30.667969 C 213.851562 30.667969 233.847656 50.703125 233.847656 75.386719 C 233.847656 100.09375 213.851562 120.105469 189.15625 120.105469 C 164.492188 120.105469 144.464844 100.09375 144.464844 75.386719 C 144.464844 50.703125 164.492188 30.667969 189.15625 30.667969 Z M 123.519531 91.207031 L 133.59375 92.898438 C 134.71875 96.496094 136.203125 99.941406 137.972656 103.199219 L 131.976562 111.617188 C 131.191406 112.714844 131.328125 114.226562 132.277344 115.1875 L 149.957031 132.875 C 150.914062 133.835938 152.425781 133.960938 153.523438 133.179688 L 162.160156 127.027344 C 165.328125 128.6875 168.691406 130.074219 172.164062 131.132812 L 173.921875 141.636719 C 174.15625 142.957031 175.308594 143.945312 176.652344 143.945312 L 201.660156 143.945312 C 203.007812 143.945312 204.160156 142.957031 204.394531 141.636719 L 206.148438 131.132812 C 209.636719 130.074219 213 128.6875 216.171875 127.027344 L 224.804688 133.179688 C 225.902344 133.960938 227.398438 133.835938 228.359375 132.875 L 246.039062 115.1875 C 247 114.226562 247.121094 112.714844 246.355469 111.617188 L 240.355469 103.199219 C 242.125 99.941406 243.59375 96.496094 244.71875 92.898438 L 254.796875 91.207031 C 256.125 90.972656 257.101562 89.820312 257.101562 88.476562 L 257.101562 63.449219 C 257.101562 62.105469 256.125 60.949219 254.796875 60.71875 L 245.078125 59.082031 C 243.976562 55.292969 242.511719 51.664062 240.699219 48.246094 L 246.355469 40.308594 C 247.121094 39.210938 247 37.699219 246.039062 36.738281 L 228.359375 19.046875 C 227.398438 18.085938 225.902344 17.964844 224.804688 18.746094 L 217.078125 24.253906 C 213.574219 22.316406 209.855469 20.75 205.957031 19.585938 L 204.394531 10.285156 C 204.160156 8.96875 203.007812 7.980469 201.660156 7.980469 L 176.652344 7.980469 C 175.308594 7.980469 174.15625 8.96875 173.921875 10.285156 L 172.371094 19.585938 C 168.472656 20.75 164.753906 22.316406 161.238281 24.253906 L 153.523438 18.746094 C 152.425781 17.964844 150.914062 18.085938 149.957031 19.046875 L 132.277344 36.738281 C 131.328125 37.699219 131.191406 39.210938 131.976562 40.308594 L 137.628906 48.246094 C 135.816406 51.664062 134.335938 55.292969 133.238281 59.082031 L 123.519531 60.71875 C 122.203125 60.949219 121.210938 62.105469 121.210938 63.449219 L 121.210938 88.476562 C 121.210938 89.820312 122.203125 90.972656 123.519531 91.207031 " fill-opacity="1" fill-rule="nonzero"/></g><path fill="#e6731a" d="M 189.15625 95.699219 C 200.375 95.699219 209.460938 86.609375 209.460938 75.386719 C 209.460938 64.175781 200.375 55.070312 189.15625 55.070312 C 177.953125 55.070312 168.855469 64.175781 168.855469 75.386719 C 168.855469 86.609375 177.953125 95.699219 189.15625 95.699219 " fill-opacity="1" fill-rule="nonzero"/><g clip-path="url(#7657f7497b)"><path fill="#1f2f3d" d="M 266.382812 313.523438 C 266.339844 313.402344 266.285156 313.28125 266.21875 313.160156 C 262.46875 304.957031 255.171875 299.550781 244.246094 296.84375 C 235.917969 294.773438 227.492188 293.117188 219.273438 290.703125 C 218.328125 290.429688 217.550781 290.285156 216.882812 290.277344 C 216.847656 290.285156 216.808594 290.277344 216.773438 290.277344 C 216.160156 290.242188 215.675781 290.339844 215.292969 290.550781 C 215.238281 290.574219 215.183594 290.59375 215.140625 290.625 C 213.96875 291.21875 213.300781 292.546875 212.71875 294.519531 C 211.226562 299.597656 209.320312 304.539062 207.578125 309.542969 C 204.90625 317.226562 202.230469 324.925781 199.570312 332.621094 C 197.429688 325.550781 196.652344 318.519531 195.171875 311.667969 C 194.757812 308.90625 194.339844 306.140625 193.96875 303.367188 C 193.902344 301.085938 194.199219 298.894531 195.03125 296.84375 C 195.339844 296.371094 195.667969 295.910156 195.960938 295.484375 C 197.089844 293.839844 198.40625 292.316406 199.699219 290.800781 C 199.929688 290.539062 200.160156 290.265625 200.390625 289.988281 C 200.390625 289.988281 200.390625 289.988281 200.402344 289.980469 C 200.609375 289.726562 200.816406 289.472656 201.023438 289.222656 C 200.917969 289.125 200.796875 289.039062 200.664062 288.949219 C 198.460938 287.347656 193.824219 286.515625 189.167969 286.472656 C 184.511719 286.515625 179.863281 287.347656 177.652344 288.9375 C 177.519531 289.039062 177.398438 289.125 177.289062 289.222656 C 177.496094 289.472656 177.707031 289.726562 177.925781 289.980469 C 177.925781 289.988281 177.933594 289.988281 177.933594 289.988281 C 178.144531 290.253906 178.363281 290.503906 178.582031 290.757812 C 178.582031 290.757812 178.59375 290.757812 178.59375 290.78125 C 179.910156 292.304688 181.222656 293.828125 182.351562 295.484375 C 182.648438 295.921875 182.988281 296.394531 183.304688 296.875 C 184.136719 298.949219 184.414062 301.152344 184.347656 303.453125 C 183.960938 306.195312 183.558594 308.929688 183.140625 311.667969 C 181.660156 318.519531 180.894531 325.550781 178.757812 332.621094 C 176.082031 324.925781 173.410156 317.226562 170.734375 309.542969 C 169.003906 304.539062 167.085938 299.597656 165.597656 294.519531 C 165.015625 292.554688 164.371094 291.242188 163.207031 290.648438 C 163.207031 290.648438 163.195312 290.636719 163.1875 290.625 C 162.769531 290.375 162.242188 290.230469 161.542969 290.277344 L 161.429688 290.277344 C 160.761719 290.285156 159.984375 290.429688 159.042969 290.703125 C 150.835938 293.117188 142.398438 294.773438 134.070312 296.84375 C 123.144531 299.550781 115.855469 304.957031 112.09375 313.160156 C 112.03125 313.28125 111.976562 313.402344 111.933594 313.523438 C 110.023438 317.613281 109.070312 322.316406 109.070312 327.535156 C 109.070312 330.933594 109.070312 334.332031 109.058594 337.734375 L 109.058594 342.359375 C 109.058594 344.453125 109.058594 346.550781 109.070312 348.644531 C 109.070312 349.960938 109.070312 351.265625 109.082031 352.578125 C 109.082031 353.917969 109.082031 355.253906 109.09375 356.582031 C 109.09375 356.824219 109.105469 357.0625 109.113281 357.296875 C 109.136719 358.050781 109.179688 358.753906 109.269531 359.421875 C 109.300781 359.664062 109.332031 359.894531 109.367188 360.121094 C 109.464844 360.683594 109.574219 361.199219 109.71875 361.679688 C 109.992188 362.632812 110.375 363.433594 110.890625 364.125 C 111.03125 364.355469 111.21875 364.574219 111.4375 364.773438 C 111.601562 364.957031 111.800781 365.144531 112.007812 365.289062 C 112.0625 365.332031 112.105469 365.375 112.160156 365.40625 C 112.328125 365.539062 112.5 365.660156 112.6875 365.769531 C 112.839844 365.871094 112.992188 365.957031 113.160156 366.042969 C 113.488281 366.199219 113.835938 366.351562 114.210938 366.484375 C 115.023438 366.765625 115.929688 366.964844 116.949219 367.074219 C 117.75 367.175781 118.625 367.21875 119.582031 367.21875 C 140.421875 367.230469 161.269531 367.230469 182.109375 367.230469 L 196.214844 367.230469 C 217.058594 367.230469 237.902344 367.230469 258.746094 367.21875 C 259.6875 367.21875 260.566406 367.175781 261.363281 367.074219 C 261.847656 367.019531 262.304688 366.941406 262.734375 366.855469 C 262.984375 366.8125 263.238281 366.746094 263.46875 366.679688 C 263.6875 366.625 263.894531 366.558594 264.105469 366.484375 C 267.761719 365.242188 269.179688 362.226562 269.222656 356.582031 C 269.230469 355.332031 269.230469 354.082031 269.230469 352.832031 C 269.242188 351.601562 269.242188 350.375 269.242188 349.136719 C 269.253906 347.074219 269.253906 345.015625 269.253906 342.964844 L 269.253906 339.015625 C 269.242188 335.1875 269.242188 331.363281 269.242188 327.535156 C 269.242188 322.316406 268.289062 317.613281 266.382812 313.523438 " fill-opacity="1" fill-rule="nonzero"/></g><path fill="#4377c3" d="M 189.160156 183.421875 C 166.765625 183.421875 148.613281 202.8125 148.613281 226.734375 C 148.613281 250.652344 166.765625 270.046875 189.160156 270.046875 C 211.554688 270.046875 229.707031 250.652344 229.707031 226.734375 C 229.707031 202.8125 211.554688 183.421875 189.160156 183.421875 " fill-opacity="1" fill-rule="nonzero"/><g clip-path="url(#30f2f7913f)"><path fill="#1f2f3d" d="M 306.949219 198.503906 C 279.722656 198.503906 257.648438 220.589844 257.648438 247.835938 L 257.648438 252.484375 C 257.648438 259.761719 263.542969 265.65625 270.816406 265.65625 L 343.085938 265.65625 C 350.355469 265.65625 356.25 259.761719 356.25 252.484375 L 356.25 247.835938 C 356.25 220.589844 334.175781 198.503906 306.949219 198.503906 " fill-opacity="1" fill-rule="nonzero"/></g><path fill="#e6731a" d="M 306.949219 186.070312 C 322.507812 186.070312 335.121094 173.449219 335.121094 157.878906 C 335.121094 142.3125 322.507812 129.691406 306.949219 129.691406 C 291.390625 129.691406 278.777344 142.3125 278.777344 157.878906 C 278.777344 173.449219 291.390625 186.070312 306.949219 186.070312 " fill-opacity="1" fill-rule="nonzero"/><g clip-path="url(#a5e962be06)"><path fill="#1f2f3d" d="M 117.351562 252.484375 L 117.351562 247.835938 C 117.351562 220.589844 95.277344 198.503906 68.050781 198.503906 C 40.824219 198.503906 18.75 220.589844 18.75 247.835938 L 18.75 252.484375 C 18.75 259.761719 24.644531 265.65625 31.914062 265.65625 L 104.1875 265.65625 C 111.457031 265.65625 117.351562 259.761719 117.351562 252.484375 " fill-opacity="1" fill-rule="nonzero"/></g><path fill="#e6731a" d="M 68.050781 186.070312 C 83.609375 186.070312 96.222656 173.449219 96.222656 157.878906 C 96.222656 142.3125 83.609375 129.691406 68.050781 129.691406 C 52.492188 129.691406 39.878906 142.3125 39.878906 157.878906 C 39.878906 173.449219 52.492188 186.070312 68.050781 186.070312 " fill-opacity="1" fill-rule="nonzero"/></svg>