<svg xmlns="http://www.w3.org/2000/svg" xmlns:xlink="http://www.w3.org/1999/xlink" width="500" zoomAndPan="magnify" viewBox="0 0 375 374.999991" height="500" preserveAspectRatio="xMidYMid meet" version="1.0"><defs><clipPath id="453592fa42"><path d="M 79 305 L 249 305 L 249 337.875 L 79 337.875 Z M 79 305 " clip-rule="nonzero"/></clipPath><clipPath id="ce4a97eb1e"><path d="M 238 35.625 L 375 35.625 L 375 172 L 238 172 Z M 238 35.625 " clip-rule="nonzero"/></clipPath></defs><path fill="#1a2025" d="M 304.453125 280.90625 L 23.160156 280.90625 C 10.449219 280.90625 0.0703125 270.515625 0.0703125 257.789062 L 0.0703125 92.679688 C 0.0703125 79.953125 10.449219 69.5625 23.160156 69.5625 L 262.945312 69.5625 C 264.332031 69.5625 265.628906 70.082031 266.578125 71.035156 L 272.027344 76.492188 C 273.667969 78.222656 274.015625 80.820312 272.71875 82.8125 C 270.558594 86.449219 268.914062 90.34375 267.960938 94.414062 C 267.445312 96.75 265.367188 98.394531 263.035156 98.394531 L 249.890625 98.394531 C 249.457031 98.394531 249.113281 98.742188 249.113281 99.175781 L 249.113281 108.351562 C 249.113281 108.785156 249.457031 109.132812 249.890625 109.132812 L 263.035156 109.132812 C 265.367188 109.132812 267.445312 110.777344 267.960938 113.113281 C 268.914062 117.183594 270.558594 121.078125 272.71875 124.714844 C 274.015625 126.707031 273.667969 129.304688 272.027344 131.035156 L 262.773438 140.300781 C 262.601562 140.472656 262.601562 140.644531 262.601562 140.820312 C 262.601562 140.992188 262.601562 141.164062 262.773438 141.425781 L 269.347656 147.917969 C 269.691406 148.265625 270.039062 148.265625 270.46875 147.917969 L 279.722656 138.65625 C 281.367188 136.921875 283.960938 136.664062 286.035156 137.875 C 289.582031 140.125 293.472656 141.683594 297.621094 142.722656 C 299.871094 143.242188 301.515625 145.320312 301.515625 147.660156 L 301.515625 160.820312 C 301.515625 161.253906 301.859375 161.597656 302.292969 161.597656 L 311.542969 161.597656 C 311.976562 161.597656 312.324219 161.253906 312.324219 160.820312 L 312.324219 147.660156 C 312.324219 145.320312 313.964844 143.242188 316.300781 142.722656 C 317.769531 142.378906 319.242188 141.859375 320.710938 141.339844 C 322.265625 140.820312 323.996094 140.992188 325.378906 141.945312 C 326.765625 142.898438 327.542969 144.542969 327.542969 146.1875 L 327.542969 257.703125 C 327.542969 270.515625 317.164062 280.90625 304.453125 280.90625 Z M 304.453125 280.90625 " fill-opacity="1" fill-rule="evenodd"/><path fill="#2c353f" d="M 228.273438 309.824219 L 99.339844 309.824219 C 96.488281 309.824219 94.238281 307.570312 94.238281 304.714844 L 94.238281 275.710938 C 94.238281 272.941406 96.488281 270.601562 99.339844 270.601562 L 228.273438 270.601562 C 231.125 270.601562 233.375 272.941406 233.375 275.710938 L 233.375 304.714844 C 233.375 307.484375 231.125 309.824219 228.273438 309.824219 Z M 228.273438 309.824219 " fill-opacity="1" fill-rule="evenodd"/><path fill="#659ed8" d="M 23.160156 79.78125 C 16.070312 79.78125 10.363281 85.582031 10.363281 92.679688 L 10.363281 257.789062 C 10.363281 264.886719 16.070312 270.601562 23.160156 270.601562 L 304.453125 270.601562 C 311.542969 270.601562 317.339844 264.886719 317.339844 257.789062 L 317.339844 170.257812 C 315.609375 171.296875 313.621094 171.902344 311.457031 171.902344 L 302.292969 171.902344 C 296.152344 171.902344 291.222656 166.878906 291.222656 160.820312 L 291.222656 151.554688 C 288.800781 150.777344 286.46875 149.824219 284.21875 148.699219 L 277.648438 155.191406 C 273.496094 159.347656 266.234375 159.347656 262.082031 155.191406 L 255.511719 148.699219 C 253.433594 146.621094 252.3125 143.761719 252.3125 140.820312 C 252.3125 137.875 253.433594 135.105469 255.511719 133.027344 L 262.082031 126.445312 C 260.871094 124.195312 259.921875 121.859375 259.140625 119.433594 L 249.890625 119.433594 C 243.835938 119.433594 238.90625 114.5 238.90625 108.351562 L 238.90625 99.175781 C 238.90625 93.027344 243.835938 88.09375 249.890625 88.09375 L 259.140625 88.09375 C 259.921875 85.667969 260.871094 83.332031 262.082031 81.078125 L 260.871094 79.78125 Z M 23.160156 79.78125 " fill-opacity="1" fill-rule="evenodd"/><g clip-path="url(#453592fa42)"><path fill="#1a2025" d="M 228.703125 337.875 L 98.996094 337.875 C 87.925781 337.875 79.019531 328.871094 79.019531 317.875 L 79.019531 310.429688 C 79.019531 307.570312 81.269531 305.234375 84.121094 305.234375 L 243.492188 305.234375 C 246.34375 305.234375 248.59375 307.570312 248.59375 310.429688 L 248.59375 317.875 C 248.59375 328.871094 239.6875 337.875 228.703125 337.875 Z M 228.703125 337.875 " fill-opacity="1" fill-rule="evenodd"/></g><path fill="#f1cb86" d="M 156.671875 225.839844 L 46.765625 225.839844 C 38.292969 225.839844 31.375 218.914062 31.375 210.429688 L 31.375 111.988281 C 31.375 103.417969 38.292969 96.578125 46.765625 96.578125 L 156.671875 96.578125 C 165.148438 96.578125 172.066406 103.417969 172.066406 111.988281 L 172.066406 210.34375 C 172.066406 218.914062 165.148438 225.839844 156.671875 225.839844 Z M 156.671875 225.839844 " fill-opacity="1" fill-rule="evenodd"/><path fill="#ef5350" d="M 80.058594 96.578125 L 123.378906 96.578125 L 123.378906 168.699219 C 123.378906 170.777344 122.257812 172.507812 120.441406 173.375 C 118.539062 174.238281 116.464844 173.894531 114.90625 172.59375 L 101.675781 154.933594 L 88.53125 172.59375 C 87.582031 173.460938 86.371094 173.894531 85.160156 173.894531 C 84.46875 173.894531 83.691406 173.71875 83 173.375 C 81.183594 172.59375 80.058594 170.777344 80.058594 168.699219 Z M 80.058594 96.578125 " fill-opacity="1" fill-rule="evenodd"/><path fill="#f5f5f5" d="M 278.253906 224.28125 L 198.785156 224.28125 C 195.929688 224.28125 193.683594 222.03125 193.683594 219.175781 C 193.683594 216.316406 195.929688 213.980469 198.785156 213.980469 L 278.253906 213.980469 C 281.105469 213.980469 283.355469 216.316406 283.355469 219.175781 C 283.355469 222.03125 281.105469 224.28125 278.253906 224.28125 Z M 278.253906 224.28125 " fill-opacity="1" fill-rule="evenodd"/><path fill="#f5f5f5" d="M 278.253906 200.820312 L 198.785156 200.820312 C 195.929688 200.820312 193.683594 198.480469 193.683594 195.625 C 193.683594 192.855469 195.929688 190.515625 198.785156 190.515625 L 278.253906 190.515625 C 281.105469 190.515625 283.355469 192.855469 283.355469 195.625 C 283.355469 198.480469 281.105469 200.820312 278.253906 200.820312 Z M 278.253906 200.820312 " fill-opacity="1" fill-rule="evenodd"/><path fill="#f5f5f5" d="M 278.253906 177.269531 L 198.785156 177.269531 C 195.929688 177.269531 193.683594 175.019531 193.683594 172.160156 C 193.683594 169.304688 195.929688 167.054688 198.785156 167.054688 L 278.253906 167.054688 C 281.105469 167.054688 283.355469 169.304688 283.355469 172.160156 C 283.355469 175.019531 281.105469 177.269531 278.253906 177.269531 Z M 278.253906 177.269531 " fill-opacity="1" fill-rule="evenodd"/><path fill="#f5f5f5" d="M 235.277344 153.804688 L 198.785156 153.804688 C 195.929688 153.804688 193.683594 151.46875 193.683594 148.699219 C 193.683594 145.839844 195.929688 143.503906 198.785156 143.503906 L 235.277344 143.503906 C 238.128906 143.503906 240.378906 145.839844 240.378906 148.699219 C 240.378906 151.46875 238.042969 153.804688 235.277344 153.804688 Z M 235.277344 153.804688 " fill-opacity="1" fill-rule="evenodd"/><path fill="#f5f5f5" d="M 235.277344 130.34375 L 198.785156 130.34375 C 195.929688 130.34375 193.683594 128.003906 193.683594 125.148438 C 193.683594 122.292969 195.929688 120.039062 198.785156 120.039062 L 235.277344 120.039062 C 238.128906 120.039062 240.378906 122.292969 240.378906 125.148438 C 240.378906 128.003906 238.042969 130.34375 235.277344 130.34375 Z M 235.277344 130.34375 " fill-opacity="1" fill-rule="evenodd"/><path fill="#f5f5f5" d="M 224.121094 106.792969 L 198.785156 106.792969 C 195.929688 106.792969 193.683594 104.457031 193.683594 101.683594 C 193.683594 98.828125 195.929688 96.492188 198.785156 96.492188 L 224.121094 96.492188 C 226.886719 96.492188 229.222656 98.828125 229.222656 101.683594 C 229.222656 104.457031 226.886719 106.792969 224.121094 106.792969 Z M 224.121094 106.792969 " fill-opacity="1" fill-rule="evenodd"/><g clip-path="url(#ce4a97eb1e)"><path fill="#3b566a" d="M 311.457031 171.902344 L 302.292969 171.902344 C 296.152344 171.902344 291.222656 166.878906 291.222656 160.820312 L 291.222656 151.554688 C 288.800781 150.777344 286.46875 149.824219 284.21875 148.699219 L 277.648438 155.191406 C 273.410156 159.519531 266.320312 159.519531 262.082031 155.191406 L 255.511719 148.699219 C 253.433594 146.621094 252.3125 143.761719 252.3125 140.820312 C 252.3125 137.875 253.433594 135.105469 255.511719 133.027344 L 262.082031 126.445312 C 260.871094 124.195312 259.921875 121.859375 259.140625 119.433594 L 249.890625 119.433594 C 243.835938 119.433594 238.90625 114.5 238.90625 108.351562 L 238.90625 99.175781 C 238.90625 93.027344 243.835938 88.09375 249.890625 88.09375 L 259.140625 88.09375 C 259.921875 85.667969 260.871094 83.332031 262.082031 81.078125 L 255.511719 74.5 C 251.1875 70.171875 251.1875 63.15625 255.511719 58.828125 L 262.082031 52.335938 C 266.234375 48.179688 273.496094 48.179688 277.648438 52.335938 L 284.21875 58.828125 C 286.46875 57.703125 288.800781 56.75 291.222656 55.972656 L 291.222656 46.707031 C 291.222656 40.558594 296.152344 35.625 302.292969 35.625 L 311.457031 35.625 C 317.597656 35.625 322.527344 40.558594 322.527344 46.707031 L 322.527344 55.972656 C 324.949219 56.75 327.28125 57.703125 329.617188 58.828125 L 336.101562 52.335938 C 340.425781 48.007812 347.429688 48.007812 351.753906 52.335938 L 358.238281 58.828125 C 360.316406 60.90625 361.527344 63.675781 361.527344 66.707031 C 361.527344 69.652344 360.316406 72.421875 358.238281 74.5 L 351.753906 81.078125 C 352.878906 83.332031 353.828125 85.667969 354.695312 88.09375 L 363.859375 88.09375 C 370 88.09375 374.929688 93.027344 374.929688 99.175781 L 374.929688 108.351562 C 374.929688 114.5 370 119.433594 363.859375 119.433594 L 354.695312 119.433594 C 353.917969 121.859375 352.878906 124.195312 351.753906 126.445312 L 358.238281 133.027344 C 360.316406 135.105469 361.527344 137.875 361.527344 140.820312 C 361.527344 143.761719 360.316406 146.621094 358.238281 148.699219 L 351.753906 155.191406 C 347.605469 159.347656 340.253906 159.347656 336.101562 155.191406 L 329.617188 148.699219 C 327.28125 149.824219 324.949219 150.777344 322.527344 151.554688 L 322.527344 160.820312 C 322.527344 166.964844 317.597656 171.902344 311.457031 171.902344 Z M 311.457031 171.902344 " fill-opacity="1" fill-rule="evenodd"/></g><path fill="#1a2025" d="M 304.453125 280.90625 L 23.160156 280.90625 C 10.449219 280.90625 0.0703125 270.515625 0.0703125 257.789062 L 0.0703125 242.550781 L 327.542969 242.550781 L 327.542969 257.703125 C 327.542969 270.515625 317.164062 280.90625 304.453125 280.90625 Z M 304.453125 280.90625 " fill-opacity="1" fill-rule="evenodd"/><path fill="#273845" d="M 306.875 140.820312 C 286.46875 140.820312 269.863281 124.195312 269.863281 103.761719 C 269.863281 83.332031 286.46875 66.707031 306.875 66.707031 C 327.28125 66.707031 343.886719 83.332031 343.886719 103.761719 C 343.886719 124.195312 327.367188 140.820312 306.875 140.820312 Z M 306.875 140.820312 " fill-opacity="1" fill-rule="evenodd"/><path fill="#f5f5f5" d="M 306.875 130.171875 C 292.347656 130.171875 280.5 118.308594 280.5 103.761719 C 280.5 89.132812 292.347656 77.269531 306.875 77.269531 C 321.488281 77.269531 333.335938 89.21875 333.335938 103.761719 C 333.335938 118.394531 321.488281 130.171875 306.875 130.171875 Z M 306.875 130.171875 " fill-opacity="1" fill-rule="evenodd"/><path fill="#2c353f" d="M 146.296875 261.683594 C 146.296875 262.277344 146.238281 262.863281 146.125 263.441406 C 146.007812 264.019531 145.835938 264.585938 145.613281 265.128906 C 145.386719 265.675781 145.109375 266.195312 144.78125 266.6875 C 144.453125 267.179688 144.078125 267.632812 143.660156 268.050781 C 143.246094 268.46875 142.789062 268.84375 142.300781 269.171875 C 141.808594 269.5 141.289062 269.777344 140.746094 270.003906 C 140.199219 270.230469 139.636719 270.402344 139.058594 270.515625 C 138.476562 270.632812 137.894531 270.6875 137.304688 270.6875 C 136.710938 270.6875 136.128906 270.632812 135.546875 270.515625 C 134.96875 270.402344 134.40625 270.230469 133.859375 270.003906 C 133.316406 269.777344 132.796875 269.5 132.304688 269.171875 C 131.816406 268.84375 131.359375 268.46875 130.945312 268.050781 C 130.527344 267.632812 130.152344 267.179688 129.824219 266.6875 C 129.496094 266.195312 129.21875 265.675781 128.996094 265.128906 C 128.769531 264.585938 128.597656 264.019531 128.484375 263.441406 C 128.367188 262.863281 128.308594 262.277344 128.308594 261.683594 C 128.308594 261.09375 128.367188 260.507812 128.484375 259.929688 C 128.597656 259.347656 128.769531 258.785156 128.996094 258.238281 C 129.21875 257.691406 129.496094 257.171875 129.824219 256.683594 C 130.152344 256.191406 130.527344 255.734375 130.945312 255.316406 C 131.359375 254.898438 131.816406 254.527344 132.304688 254.199219 C 132.796875 253.871094 133.316406 253.59375 133.859375 253.367188 C 134.40625 253.140625 134.96875 252.96875 135.546875 252.851562 C 136.128906 252.738281 136.710938 252.679688 137.304688 252.679688 C 137.894531 252.679688 138.476562 252.738281 139.058594 252.851562 C 139.636719 252.96875 140.199219 253.140625 140.746094 253.367188 C 141.289062 253.59375 141.808594 253.871094 142.300781 254.199219 C 142.789062 254.527344 143.246094 254.898438 143.660156 255.316406 C 144.078125 255.734375 144.453125 256.191406 144.78125 256.683594 C 145.109375 257.171875 145.386719 257.691406 145.613281 258.238281 C 145.835938 258.785156 146.007812 259.347656 146.125 259.929688 C 146.238281 260.507812 146.296875 261.09375 146.296875 261.683594 Z M 146.296875 261.683594 " fill-opacity="1" fill-rule="nonzero"/><path fill="#4fba6f" d="M 142.230469 261.683594 C 142.230469 262.007812 142.199219 262.328125 142.136719 262.648438 C 142.074219 262.964844 141.980469 263.273438 141.855469 263.574219 C 141.734375 263.871094 141.582031 264.15625 141.402344 264.425781 C 141.222656 264.695312 141.015625 264.945312 140.789062 265.175781 C 140.558594 265.402344 140.308594 265.609375 140.042969 265.789062 C 139.773438 265.96875 139.488281 266.121094 139.1875 266.242188 C 138.890625 266.367188 138.582031 266.460938 138.265625 266.523438 C 137.945312 266.589844 137.625 266.621094 137.304688 266.621094 C 136.980469 266.621094 136.660156 266.589844 136.339844 266.523438 C 136.023438 266.460938 135.714844 266.367188 135.417969 266.242188 C 135.117188 266.121094 134.832031 265.96875 134.5625 265.789062 C 134.296875 265.609375 134.046875 265.402344 133.816406 265.175781 C 133.589844 264.945312 133.382812 264.695312 133.203125 264.425781 C 133.023438 264.15625 132.871094 263.871094 132.75 263.574219 C 132.625 263.273438 132.53125 262.964844 132.46875 262.648438 C 132.40625 262.328125 132.375 262.007812 132.375 261.683594 C 132.375 261.359375 132.40625 261.039062 132.46875 260.722656 C 132.53125 260.402344 132.625 260.09375 132.75 259.796875 C 132.871094 259.496094 133.023438 259.210938 133.203125 258.941406 C 133.382812 258.671875 133.589844 258.425781 133.816406 258.195312 C 134.046875 257.964844 134.296875 257.761719 134.5625 257.582031 C 134.832031 257.402344 135.117188 257.25 135.417969 257.125 C 135.714844 257 136.023438 256.90625 136.339844 256.84375 C 136.660156 256.78125 136.980469 256.75 137.304688 256.75 C 137.625 256.75 137.945312 256.78125 138.265625 256.84375 C 138.582031 256.90625 138.890625 257 139.1875 257.125 C 139.488281 257.25 139.773438 257.402344 140.042969 257.582031 C 140.308594 257.761719 140.558594 257.964844 140.789062 258.195312 C 141.015625 258.425781 141.222656 258.671875 141.402344 258.941406 C 141.582031 259.210938 141.734375 259.496094 141.855469 259.796875 C 141.980469 260.09375 142.074219 260.402344 142.136719 260.722656 C 142.199219 261.039062 142.230469 261.359375 142.230469 261.683594 Z M 142.230469 261.683594 " fill-opacity="1" fill-rule="nonzero"/><path fill="#2c353f" d="M 172.84375 261.683594 C 172.84375 262.277344 172.785156 262.863281 172.671875 263.441406 C 172.554688 264.019531 172.382812 264.585938 172.160156 265.128906 C 171.933594 265.675781 171.65625 266.195312 171.328125 266.6875 C 171 267.179688 170.625 267.632812 170.207031 268.050781 C 169.792969 268.46875 169.335938 268.84375 168.847656 269.171875 C 168.355469 269.5 167.835938 269.777344 167.292969 270.003906 C 166.746094 270.230469 166.183594 270.402344 165.605469 270.515625 C 165.023438 270.632812 164.441406 270.6875 163.851562 270.6875 C 163.257812 270.6875 162.675781 270.632812 162.09375 270.515625 C 161.515625 270.402344 160.953125 270.230469 160.410156 270.003906 C 159.863281 269.777344 159.34375 269.5 158.851562 269.171875 C 158.363281 268.84375 157.910156 268.46875 157.492188 268.050781 C 157.074219 267.632812 156.699219 267.179688 156.371094 266.6875 C 156.042969 266.195312 155.765625 265.675781 155.542969 265.128906 C 155.316406 264.585938 155.144531 264.019531 155.03125 263.441406 C 154.914062 262.863281 154.855469 262.277344 154.855469 261.683594 C 154.855469 261.09375 154.914062 260.507812 155.03125 259.929688 C 155.144531 259.347656 155.316406 258.785156 155.542969 258.238281 C 155.765625 257.691406 156.042969 257.171875 156.371094 256.683594 C 156.699219 256.191406 157.074219 255.734375 157.492188 255.316406 C 157.910156 254.898438 158.363281 254.527344 158.851562 254.199219 C 159.34375 253.871094 159.863281 253.59375 160.410156 253.367188 C 160.953125 253.140625 161.515625 252.96875 162.09375 252.851562 C 162.675781 252.738281 163.257812 252.679688 163.851562 252.679688 C 164.441406 252.679688 165.023438 252.738281 165.605469 252.851562 C 166.183594 252.96875 166.746094 253.140625 167.292969 253.367188 C 167.835938 253.59375 168.355469 253.871094 168.847656 254.199219 C 169.335938 254.527344 169.792969 254.898438 170.207031 255.316406 C 170.625 255.734375 171 256.191406 171.328125 256.683594 C 171.65625 257.171875 171.933594 257.691406 172.160156 258.238281 C 172.382812 258.785156 172.554688 259.347656 172.671875 259.929688 C 172.785156 260.507812 172.84375 261.09375 172.84375 261.683594 Z M 172.84375 261.683594 " fill-opacity="1" fill-rule="nonzero"/><path fill="#5c9cee" d="M 168.777344 261.683594 C 168.777344 262.007812 168.746094 262.328125 168.683594 262.648438 C 168.621094 262.964844 168.527344 263.273438 168.402344 263.574219 C 168.28125 263.871094 168.128906 264.15625 167.949219 264.425781 C 167.769531 264.695312 167.5625 264.945312 167.335938 265.175781 C 167.105469 265.402344 166.855469 265.609375 166.589844 265.789062 C 166.320312 265.96875 166.035156 266.121094 165.734375 266.242188 C 165.4375 266.367188 165.128906 266.460938 164.8125 266.523438 C 164.492188 266.589844 164.171875 266.621094 163.851562 266.621094 C 163.527344 266.621094 163.207031 266.589844 162.886719 266.523438 C 162.570312 266.460938 162.261719 266.367188 161.964844 266.242188 C 161.664062 266.121094 161.378906 265.96875 161.113281 265.789062 C 160.84375 265.609375 160.59375 265.402344 160.363281 265.175781 C 160.136719 264.945312 159.929688 264.695312 159.75 264.425781 C 159.570312 264.15625 159.417969 263.871094 159.296875 263.574219 C 159.171875 263.273438 159.078125 262.964844 159.015625 262.648438 C 158.953125 262.328125 158.921875 262.007812 158.921875 261.683594 C 158.921875 261.359375 158.953125 261.039062 159.015625 260.722656 C 159.078125 260.402344 159.171875 260.09375 159.296875 259.796875 C 159.417969 259.496094 159.570312 259.210938 159.75 258.941406 C 159.929688 258.671875 160.136719 258.425781 160.363281 258.195312 C 160.59375 257.964844 160.84375 257.761719 161.113281 257.582031 C 161.378906 257.402344 161.664062 257.25 161.964844 257.125 C 162.261719 257 162.570312 256.90625 162.886719 256.84375 C 163.207031 256.78125 163.527344 256.75 163.851562 256.75 C 164.171875 256.75 164.492188 256.78125 164.8125 256.84375 C 165.128906 256.90625 165.4375 257 165.734375 257.125 C 166.035156 257.25 166.320312 257.402344 166.589844 257.582031 C 166.855469 257.761719 167.105469 257.964844 167.335938 258.195312 C 167.5625 258.425781 167.769531 258.671875 167.949219 258.941406 C 168.128906 259.210938 168.28125 259.496094 168.402344 259.796875 C 168.527344 260.09375 168.621094 260.402344 168.683594 260.722656 C 168.746094 261.039062 168.777344 261.359375 168.777344 261.683594 Z M 168.777344 261.683594 " fill-opacity="1" fill-rule="nonzero"/><path fill="#2c353f" d="M 199.304688 261.683594 C 199.304688 262.277344 199.246094 262.863281 199.128906 263.441406 C 199.015625 264.019531 198.84375 264.585938 198.617188 265.128906 C 198.394531 265.675781 198.117188 266.195312 197.789062 266.6875 C 197.460938 267.179688 197.085938 267.632812 196.667969 268.050781 C 196.25 268.46875 195.796875 268.84375 195.304688 269.171875 C 194.816406 269.5 194.296875 269.777344 193.75 270.003906 C 193.207031 270.230469 192.644531 270.402344 192.066406 270.515625 C 191.484375 270.632812 190.902344 270.6875 190.308594 270.6875 C 189.71875 270.6875 189.136719 270.632812 188.554688 270.515625 C 187.976562 270.402344 187.414062 270.230469 186.867188 270.003906 C 186.324219 269.777344 185.804688 269.5 185.3125 269.171875 C 184.824219 268.84375 184.367188 268.46875 183.953125 268.050781 C 183.535156 267.632812 183.160156 267.179688 182.832031 266.6875 C 182.503906 266.195312 182.226562 265.675781 182 265.128906 C 181.777344 264.585938 181.605469 264.019531 181.488281 263.441406 C 181.375 262.863281 181.316406 262.277344 181.316406 261.683594 C 181.316406 261.09375 181.375 260.507812 181.488281 259.929688 C 181.605469 259.347656 181.777344 258.785156 182 258.238281 C 182.226562 257.691406 182.503906 257.171875 182.832031 256.683594 C 183.160156 256.191406 183.535156 255.734375 183.953125 255.316406 C 184.367188 254.898438 184.824219 254.527344 185.3125 254.199219 C 185.804688 253.871094 186.324219 253.59375 186.867188 253.367188 C 187.414062 253.140625 187.976562 252.96875 188.554688 252.851562 C 189.136719 252.738281 189.71875 252.679688 190.308594 252.679688 C 190.902344 252.679688 191.484375 252.738281 192.066406 252.851562 C 192.644531 252.96875 193.207031 253.140625 193.75 253.367188 C 194.296875 253.59375 194.816406 253.871094 195.304688 254.199219 C 195.796875 254.527344 196.25 254.898438 196.667969 255.316406 C 197.085938 255.734375 197.460938 256.191406 197.789062 256.683594 C 198.117188 257.171875 198.394531 257.691406 198.617188 258.238281 C 198.84375 258.785156 199.015625 259.347656 199.128906 259.929688 C 199.246094 260.507812 199.304688 261.09375 199.304688 261.683594 Z M 199.304688 261.683594 " fill-opacity="1" fill-rule="nonzero"/><path fill="#ef5350" d="M 195.238281 261.683594 C 195.238281 262.007812 195.207031 262.328125 195.144531 262.648438 C 195.082031 262.964844 194.988281 263.273438 194.863281 263.574219 C 194.738281 263.871094 194.589844 264.15625 194.410156 264.425781 C 194.230469 264.695312 194.023438 264.945312 193.796875 265.175781 C 193.566406 265.402344 193.316406 265.609375 193.046875 265.789062 C 192.78125 265.96875 192.496094 266.121094 192.195312 266.242188 C 191.898438 266.367188 191.589844 266.460938 191.273438 266.523438 C 190.953125 266.589844 190.632812 266.621094 190.308594 266.621094 C 189.988281 266.621094 189.667969 266.589844 189.347656 266.523438 C 189.03125 266.460938 188.722656 266.367188 188.425781 266.242188 C 188.125 266.121094 187.839844 265.96875 187.570312 265.789062 C 187.304688 265.609375 187.054688 265.402344 186.824219 265.175781 C 186.597656 264.945312 186.390625 264.695312 186.210938 264.425781 C 186.03125 264.15625 185.878906 263.871094 185.757812 263.574219 C 185.632812 263.273438 185.539062 262.964844 185.476562 262.648438 C 185.414062 262.328125 185.382812 262.007812 185.382812 261.683594 C 185.382812 261.359375 185.414062 261.039062 185.476562 260.722656 C 185.539062 260.402344 185.632812 260.09375 185.757812 259.796875 C 185.878906 259.496094 186.03125 259.210938 186.210938 258.941406 C 186.390625 258.671875 186.597656 258.425781 186.824219 258.195312 C 187.054688 257.964844 187.304688 257.761719 187.570312 257.582031 C 187.839844 257.402344 188.125 257.25 188.425781 257.125 C 188.722656 257 189.03125 256.90625 189.347656 256.84375 C 189.667969 256.78125 189.988281 256.75 190.308594 256.75 C 190.632812 256.75 190.953125 256.78125 191.273438 256.84375 C 191.589844 256.90625 191.898438 257 192.195312 257.125 C 192.496094 257.25 192.78125 257.402344 193.046875 257.582031 C 193.316406 257.761719 193.566406 257.964844 193.796875 258.195312 C 194.023438 258.425781 194.230469 258.671875 194.410156 258.941406 C 194.589844 259.210938 194.738281 259.496094 194.863281 259.796875 C 194.988281 260.09375 195.082031 260.402344 195.144531 260.722656 C 195.207031 261.039062 195.238281 261.359375 195.238281 261.683594 Z M 195.238281 261.683594 " fill-opacity="1" fill-rule="nonzero"/></svg>