<svg xmlns="http://www.w3.org/2000/svg" xmlns:xlink="http://www.w3.org/1999/xlink" width="500" zoomAndPan="magnify" viewBox="0 0 375 374.999991" height="500" preserveAspectRatio="xMidYMid meet" version="1.0"><defs><clipPath id="618b6e6b39"><path d="M 13.457031 2.71875 L 361.457031 2.71875 L 361.457031 374.71875 L 13.457031 374.71875 Z M 13.457031 2.71875 " clip-rule="nonzero"/></clipPath></defs><path fill="#19cfba" d="M 344.246094 315.214844 L 259.007812 315.214844 C 252.601562 315.214844 247.378906 309.996094 247.378906 303.59375 L 247.378906 267.347656 C 247.378906 237.527344 271.789062 213.125 301.625 213.125 C 331.464844 213.125 355.875 237.527344 355.875 267.347656 L 355.875 303.59375 C 355.875 309.996094 350.652344 315.214844 344.246094 315.214844 Z M 344.246094 315.214844 " fill-opacity="1" fill-rule="evenodd"/><path fill="#ffbf31" d="M 287.597656 277.742188 L 301.625 294.710938 L 315.65625 277.742188 L 301.625 213.125 Z M 287.597656 277.742188 " fill-opacity="1" fill-rule="evenodd"/><path fill="#f0b16e" d="M 73.378906 213.125 C 87.742188 213.125 99.386719 201.488281 99.386719 187.132812 C 99.386719 172.777344 87.742188 161.140625 73.378906 161.140625 C 59.015625 161.140625 47.375 172.777344 47.375 187.132812 C 47.375 201.488281 59.015625 213.125 73.378906 213.125 Z M 73.378906 213.125 " fill-opacity="1" fill-rule="evenodd"/><path fill="#60b7fe" d="M 116 315.214844 L 30.761719 315.214844 C 24.355469 315.214844 19.132812 309.996094 19.132812 303.59375 L 19.132812 267.347656 C 19.132812 237.527344 43.542969 213.125 73.378906 213.125 C 103.21875 213.125 127.628906 237.527344 127.628906 267.347656 L 127.628906 303.59375 C 127.628906 309.996094 122.40625 315.214844 116 315.214844 Z M 116 315.214844 " fill-opacity="1" fill-rule="evenodd"/><path fill="#ffbf31" d="M 59.351562 277.742188 L 73.378906 294.710938 L 87.410156 277.742188 L 73.378906 213.125 Z M 59.351562 277.742188 " fill-opacity="1" fill-rule="evenodd"/><path fill="#60b7fe" d="M 102.296875 30.054688 L 195.84375 30.054688 C 209.363281 30.054688 220.425781 39.765625 220.425781 51.636719 L 220.425781 92.398438 C 220.425781 104.269531 209.363281 113.980469 195.84375 113.980469 L 122.242188 113.980469 C 113.285156 113.980469 105.570312 116.832031 99.308594 122.457031 L 77.714844 141.855469 L 77.714844 51.636719 C 77.714844 39.765625 88.777344 30.054688 102.296875 30.054688 Z M 102.296875 30.054688 " fill-opacity="1" fill-rule="evenodd"/><path fill="#19cfba" d="M 276.671875 8.460938 L 183.125 8.460938 C 169.605469 8.460938 158.542969 18.171875 158.542969 30.042969 L 158.542969 70.804688 C 158.542969 82.675781 169.605469 92.386719 183.125 92.386719 L 256.726562 92.386719 C 265.683594 92.386719 275.5625 93.511719 279.660156 100.863281 L 301.253906 139.605469 L 301.253906 30.042969 C 301.25 18.171875 290.191406 8.460938 276.671875 8.460938 Z M 276.671875 8.460938 " fill-opacity="1" fill-rule="evenodd"/><path fill="#c89d8d" d="M 222.449219 128.699219 L 242.078125 128.699219 L 242.078125 250.480469 L 222.550781 250.480469 L 222.449219 250.386719 Z M 179.261719 155.492188 L 198.894531 155.492188 L 198.894531 238.078125 C 192.472656 236.636719 185.800781 236.425781 179.261719 237.472656 Z M 136.078125 182.285156 L 155.707031 182.285156 L 155.707031 247.726562 C 154.585938 248.601562 153.5 249.519531 152.457031 250.480469 L 136.078125 250.480469 Z M 136.078125 182.285156 " fill-opacity="1" fill-rule="evenodd"/><path fill="#ffbf31" d="M 209.71875 229.339844 C 216.300781 231.808594 222.359375 235.34375 227.691406 239.726562 L 248.25 235.359375 C 249.019531 235.195312 249.773438 235.53125 250.164062 236.210938 L 264.199219 260.507812 C 264.589844 261.183594 264.503906 262.003906 263.980469 262.589844 L 249.925781 278.191406 C 251.058594 285.066406 251.058594 292.066406 249.921875 298.941406 L 263.980469 314.546875 C 264.503906 315.128906 264.589844 315.949219 264.199219 316.628906 L 250.164062 340.925781 C 249.773438 341.605469 249.019531 341.941406 248.25 341.777344 L 227.699219 337.410156 C 222.367188 341.800781 216.300781 345.332031 209.71875 347.800781 L 203.230469 367.753906 C 202.988281 368.5 202.320312 368.984375 201.535156 368.984375 L 173.46875 368.984375 C 172.683594 368.984375 172.019531 368.5 171.773438 367.753906 L 165.289062 347.796875 C 158.707031 345.328125 152.644531 341.792969 147.316406 337.40625 L 126.757812 341.777344 C 125.988281 341.9375 125.234375 341.605469 124.84375 340.921875 L 110.808594 316.628906 C 110.417969 315.949219 110.503906 315.128906 111.027344 314.546875 L 125.082031 298.945312 C 123.949219 292.074219 123.949219 285.058594 125.082031 278.191406 L 111.027344 262.589844 C 110.5 262.003906 110.414062 261.183594 110.808594 260.503906 L 124.84375 236.210938 C 125.234375 235.53125 125.988281 235.195312 126.757812 235.359375 L 147.316406 239.726562 C 152.644531 235.339844 158.707031 231.808594 165.289062 229.339844 L 171.773438 209.378906 C 172.019531 208.632812 172.683594 208.148438 173.46875 208.148438 C 182.824219 208.148438 192.179688 208.148438 201.535156 208.148438 C 202.320312 208.148438 202.988281 208.632812 203.230469 209.378906 Z M 187.503906 248.117188 C 165.152344 248.117188 147.03125 266.226562 147.03125 288.566406 C 147.03125 310.910156 165.152344 329.019531 187.503906 329.019531 C 209.855469 329.019531 227.976562 310.910156 227.976562 288.566406 C 227.976562 266.226562 209.855469 248.117188 187.503906 248.117188 Z M 187.503906 248.117188 " fill-opacity="1" fill-rule="evenodd"/><path fill="#f0b16e" d="M 301.625 213.125 C 315.988281 213.125 327.632812 201.488281 327.632812 187.132812 C 327.632812 172.777344 315.992188 161.140625 301.625 161.140625 C 287.265625 161.140625 275.621094 172.777344 275.621094 187.132812 C 275.621094 201.488281 287.265625 213.125 301.625 213.125 Z M 301.625 213.125 " fill-opacity="1" fill-rule="evenodd"/><g clip-path="url(#618b6e6b39)"><path fill="#1e2f3f" d="M 206.230469 296.847656 C 206.445312 299.976562 204.566406 306.257812 197.109375 309.511719 C 195.832031 310.058594 194.507812 310.496094 193.140625 310.808594 C 193.140625 318.746094 181.867188 318.5 181.867188 310.972656 C 178.464844 310.433594 175.164062 309.429688 172.023438 307.960938 C 169.199219 306.648438 167.976562 303.296875 169.289062 300.484375 C 170.605469 297.660156 173.957031 296.433594 176.777344 297.75 C 181.058594 299.742188 187.878906 301.253906 192.582031 299.191406 C 194.347656 298.402344 194.800781 297.675781 194.929688 297.179688 C 194.800781 296.71875 194.34375 296.003906 192.542969 295.164062 C 188.148438 293.222656 185.984375 295.394531 178.15625 292.289062 C 178.09375 292.265625 178.035156 292.238281 177.972656 292.207031 C 170.714844 288.671875 168.777344 283.46875 168.964844 279.664062 C 169.242188 274.085938 173.160156 268.410156 181.867188 266.351562 C 181.867188 258.351562 193.140625 258.628906 193.140625 266.167969 C 196.699219 266.710938 199.957031 267.71875 203.007812 269.207031 C 205.808594 270.566406 206.972656 273.941406 205.609375 276.742188 C 204.246094 279.535156 200.875 280.699219 198.074219 279.339844 C 194.34375 277.523438 187.023438 275.847656 182.671875 277.914062 C 180.925781 278.742188 180.234375 279.371094 180.253906 279.941406 C 180.453125 280.765625 181.8125 281.546875 182.703125 281.984375 C 186.695312 283.796875 190.464844 281.914062 197.023438 284.832031 C 204.175781 288.007812 206.007812 293.152344 206.230469 296.847656 Z M 187.503906 323.382812 C 206.714844 323.382812 222.339844 307.761719 222.339844 288.5625 C 222.339844 269.367188 206.714844 253.75 187.503906 253.75 C 168.296875 253.75 152.667969 269.367188 152.667969 288.5625 C 152.667969 307.761719 168.296875 323.382812 187.503906 323.382812 Z M 187.503906 242.484375 C 162.078125 242.484375 141.394531 263.152344 141.394531 288.5625 C 141.394531 313.980469 162.078125 334.648438 187.503906 334.648438 C 212.929688 334.648438 233.609375 313.980469 233.609375 288.5625 C 233.613281 263.152344 212.929688 242.484375 187.503906 242.484375 Z M 83.351562 51.632812 C 83.351562 42.835938 91.851562 35.683594 102.300781 35.683594 L 152.910156 35.683594 L 152.910156 70.804688 C 152.910156 85.8125 166.464844 98.019531 183.128906 98.019531 L 213.566406 98.019531 C 210.859375 104.050781 203.9375 108.347656 195.84375 108.347656 L 122.246094 108.347656 C 111.851562 108.347656 102.871094 111.679688 95.542969 118.265625 L 83.351562 129.21875 Z M 164.179688 30.035156 L 164.179688 70.804688 C 164.179688 79.59375 172.679688 86.75 183.128906 86.75 L 256.726562 86.75 C 266.746094 86.75 278.96875 88.042969 284.585938 98.117188 L 295.617188 117.914062 L 295.617188 30.035156 C 295.617188 21.25 287.121094 14.089844 276.671875 14.089844 L 183.128906 14.089844 C 172.679688 14.089844 164.179688 21.25 164.179688 30.035156 Z M 75.421875 146.996094 C 77.4375 147.898438 79.824219 147.535156 81.484375 146.042969 L 103.078125 126.640625 C 108.273438 121.976562 114.71875 119.613281 122.246094 119.613281 L 195.84375 119.613281 C 210.363281 119.613281 222.519531 110.335938 225.40625 98.019531 L 256.726562 98.019531 C 266.890625 98.019531 272.613281 99.789062 274.738281 103.597656 L 296.328125 142.339844 C 299.128906 147.367188 306.890625 145.40625 306.890625 139.597656 L 306.890625 30.035156 C 306.890625 15.03125 293.335938 2.824219 276.675781 2.824219 L 183.128906 2.824219 C 168.601562 2.824219 156.445312 12.101562 153.5625 24.417969 L 102.296875 24.417969 C 85.636719 24.417969 72.082031 36.621094 72.082031 51.628906 L 72.082031 141.851562 C 72.082031 144.074219 73.390625 146.09375 75.421875 146.996094 Z M 350.238281 303.59375 C 350.238281 306.890625 347.550781 309.578125 344.25 309.578125 L 267.09375 309.578125 L 255.878906 297.132812 C 256.589844 291.414062 256.589844 285.710938 255.882812 279.992188 L 268.167969 266.351562 C 270.324219 263.957031 270.691406 260.480469 269.082031 257.6875 L 260.109375 242.160156 C 267.707031 229.691406 280.320312 221.378906 294.523438 219.28125 L 282.089844 276.542969 C 281.722656 278.234375 282.152344 279.992188 283.253906 281.332031 L 297.28125 298.296875 C 299.53125 301.019531 303.71875 301.019531 305.96875 298.296875 L 320 281.332031 C 321.101562 279.992188 321.53125 278.234375 321.164062 276.542969 L 308.734375 219.28125 C 332.179688 222.730469 350.238281 242.964844 350.238281 267.34375 Z M 246.683594 335.679688 L 257.917969 316.234375 L 245.734375 302.707031 C 244.589844 301.4375 244.082031 299.710938 244.363281 298.019531 C 245.398438 291.75 245.398438 285.375 244.363281 279.105469 C 244.085938 277.417969 244.589844 275.691406 245.738281 274.421875 L 257.917969 260.894531 L 246.683594 241.445312 L 228.863281 245.234375 C 227.183594 245.59375 225.433594 245.167969 224.109375 244.074219 C 219.183594 240.019531 213.679688 236.832031 207.742188 234.613281 C 206.132812 234.011719 204.890625 232.714844 204.359375 231.082031 L 198.738281 213.777344 L 176.269531 213.777344 L 170.648438 231.082031 C 170.117188 232.714844 168.871094 234.011719 167.265625 234.613281 C 161.328125 236.835938 155.824219 240.019531 150.898438 244.074219 C 149.574219 245.167969 147.820312 245.59375 146.144531 245.234375 L 128.324219 241.445312 L 117.089844 260.894531 L 129.273438 274.421875 C 130.417969 275.691406 130.921875 277.417969 130.644531 279.105469 C 129.613281 285.34375 129.613281 291.789062 130.644531 298.027344 C 130.921875 299.71875 130.417969 301.4375 129.273438 302.714844 L 117.089844 316.234375 L 128.324219 335.679688 L 146.144531 331.894531 C 147.824219 331.542969 149.574219 331.964844 150.898438 333.058594 C 155.824219 337.109375 161.332031 340.292969 167.265625 342.515625 C 168.871094 343.125 170.117188 344.421875 170.648438 346.054688 L 176.269531 363.351562 L 198.738281 363.351562 L 204.359375 346.054688 C 204.890625 344.421875 206.132812 343.125 207.738281 342.523438 C 213.683594 340.292969 219.191406 337.109375 224.113281 333.058594 C 225.441406 331.96875 227.191406 331.542969 228.871094 331.894531 Z M 24.769531 303.59375 L 24.769531 267.34375 C 24.769531 242.960938 42.828125 222.730469 66.277344 219.28125 L 53.84375 276.542969 C 53.476562 278.234375 53.90625 279.992188 55.007812 281.332031 L 69.035156 298.296875 C 71.285156 301.019531 75.472656 301.019531 77.722656 298.296875 L 91.753906 281.332031 C 92.855469 279.992188 93.285156 278.234375 92.917969 276.542969 L 80.484375 219.28125 C 94.6875 221.378906 107.296875 229.699219 114.894531 242.160156 L 105.929688 257.6875 C 104.316406 260.480469 104.683594 263.964844 106.839844 266.351562 L 119.128906 279.992188 C 118.421875 285.699219 118.421875 291.433594 119.128906 297.132812 L 107.914062 309.578125 L 30.761719 309.578125 C 27.457031 309.578125 24.769531 306.890625 24.769531 303.59375 Z M 73.378906 166.765625 C 84.613281 166.765625 93.753906 175.90625 93.753906 187.128906 C 93.753906 198.355469 84.613281 207.488281 73.378906 207.488281 C 62.148438 207.488281 53.011719 198.355469 53.011719 187.128906 C 53.011719 175.90625 62.148438 166.765625 73.378906 166.765625 Z M 73.378906 239.691406 L 65.441406 276.261719 L 73.378906 285.859375 L 81.320312 276.261719 Z M 141.714844 187.917969 L 150.074219 187.917969 L 150.074219 230.742188 C 148.648438 231.667969 147.253906 232.636719 145.898438 233.664062 L 141.714844 232.78125 Z M 184.898438 161.125 L 193.257812 161.125 L 193.257812 202.511719 L 184.898438 202.511719 Z M 228.085938 134.332031 L 236.445312 134.332031 L 236.445312 232.101562 L 229.109375 233.664062 C 228.773438 233.410156 228.425781 233.160156 228.085938 232.914062 Z M 301.625 166.765625 C 312.859375 166.765625 322 175.90625 322 187.128906 C 322 198.355469 312.859375 207.488281 301.625 207.488281 C 290.394531 207.488281 281.253906 198.355469 281.253906 187.128906 C 281.253906 175.90625 290.394531 166.765625 301.625 166.765625 Z M 301.625 239.691406 L 293.6875 276.261719 L 301.625 285.859375 L 309.566406 276.261719 Z M 322.199219 211.132812 C 328.96875 205.328125 333.269531 196.71875 333.269531 187.128906 C 333.269531 169.6875 319.074219 155.5 301.625 155.5 C 284.179688 155.5 269.984375 169.6875 269.984375 187.128906 C 269.984375 196.726562 274.289062 205.335938 281.066406 211.140625 C 270.214844 215.113281 260.664062 222.199219 253.632812 231.636719 C 252.054688 230.179688 249.902344 229.46875 247.714844 229.738281 L 247.714844 128.699219 C 247.714844 125.582031 245.191406 123.066406 242.078125 123.066406 L 222.453125 123.066406 C 219.339844 123.066406 216.816406 125.582031 216.816406 128.699219 L 216.816406 226.230469 C 215.972656 225.832031 215.125 225.449219 214.265625 225.078125 L 208.59375 207.632812 C 207.921875 205.574219 206.421875 203.972656 204.53125 203.140625 L 204.53125 155.488281 C 204.53125 152.375 202.007812 149.859375 198.894531 149.859375 L 179.265625 149.859375 C 176.152344 149.859375 173.628906 152.375 173.628906 155.488281 L 173.628906 202.507812 C 170.277344 202.507812 167.445312 204.484375 166.417969 207.640625 L 161.34375 223.242188 L 161.34375 182.28125 C 161.34375 179.164062 158.824219 176.648438 155.710938 176.648438 L 136.082031 176.648438 C 132.964844 176.648438 130.445312 179.164062 130.445312 182.28125 L 130.445312 230.382812 C 127.25 229.703125 124.386719 228.875 121.375 231.636719 C 114.34375 222.195312 104.792969 215.113281 93.945312 211.140625 C 100.71875 205.335938 105.023438 196.726562 105.023438 187.128906 C 105.023438 169.6875 90.832031 155.496094 73.382812 155.496094 C 55.933594 155.496094 41.738281 169.6875 41.738281 187.128906 C 41.738281 196.71875 46.039062 205.328125 52.808594 211.132812 C 29.890625 219.539062 13.496094 241.558594 13.496094 267.34375 L 13.496094 303.59375 C 13.496094 313.109375 21.242188 320.84375 30.761719 320.84375 L 106.738281 320.84375 L 119.964844 343.738281 C 121.578125 346.53125 124.777344 347.953125 127.929688 347.285156 L 145.898438 343.46875 C 150.488281 346.945312 155.460938 349.824219 160.742188 352.046875 L 166.417969 369.496094 C 167.414062 372.558594 170.25 374.617188 173.46875 374.617188 L 201.535156 374.617188 C 204.761719 374.617188 207.59375 372.558594 208.59375 369.496094 L 214.261719 352.054688 C 219.550781 349.824219 224.527344 346.945312 229.113281 343.46875 L 247.078125 347.285156 C 250.230469 347.953125 253.433594 346.53125 255.046875 343.738281 L 268.269531 320.84375 L 344.246094 320.84375 C 353.765625 320.84375 361.511719 313.109375 361.511719 303.59375 L 361.511719 267.34375 C 361.511719 241.558594 345.117188 219.539062 322.199219 211.132812 Z M 322.199219 211.132812 " fill-opacity="1" fill-rule="evenodd"/></g></svg>