<svg xmlns="http://www.w3.org/2000/svg" xmlns:xlink="http://www.w3.org/1999/xlink" width="400" zoomAndPan="magnify" viewBox="0 0 300 299.999988" height="400" preserveAspectRatio="xMidYMid meet" version="1.0"><defs><clipPath id="63289f50e5"><path d="M 0 51.195312 L 300 51.195312 L 300 226.695312 L 0 226.695312 Z M 0 51.195312 " clip-rule="nonzero"/></clipPath></defs><g clip-path="url(#63289f50e5)"><path fill="#c3c2c1" d="M 261.667969 222.824219 L 261.667969 206.949219 L 260.539062 206.386719 L 240.085938 194.59375 L 237.515625 193.148438 L 237.515625 66.234375 L 236.386719 65.671875 L 224.84375 58.769531 L 213.050781 52.121094 L 211.917969 51.242188 L 210.476562 52.121094 L 198.933594 58.769531 L 187.390625 65.671875 L 185.949219 66.234375 L 185.949219 152.746094 L 184.503906 151.871094 L 152.195312 133.113281 L 150.4375 132.234375 L 148.996094 133.113281 L 127.101562 145.785156 L 127.101562 92.144531 L 125.660156 91.582031 L 111.542969 83.238281 L 97.113281 75.144531 L 95.984375 74.265625 L 94.855469 75.144531 L 80.425781 83.238281 L 66.3125 91.582031 L 64.867188 92.144531 L 64.867188 190.765625 L 38.332031 206.074219 L 38.332031 222.824219 C 25.34375 223.703125 12.671875 224.832031 0 226.273438 L 300 226.273438 C 287.015625 224.832031 274.339844 223.703125 261.667969 222.824219 Z M 82.683594 210.714844 L 82.683594 219.9375 C 80.113281 219.9375 77.476562 220.25 74.59375 220.25 L 74.59375 201.242188 L 66.25 206.449219 L 66.25 220.878906 L 59.035156 221.191406 L 59.035156 210.527344 L 50.691406 215.421875 L 50.691406 221.757812 L 44.667969 222.320312 L 44.667969 209.898438 L 82.683594 188.003906 L 82.683594 210.777344 Z M 82.683594 171.503906 L 82.683594 180.414062 L 70.011719 187.941406 L 70.011719 95.34375 L 83 87.816406 L 93.097656 82.046875 L 93.097656 165.359375 L 84.191406 170.566406 L 82.746094 171.441406 Z M 150.4375 218.242188 L 138.332031 218.242188 L 138.332031 162.597656 L 124.464844 170.691406 L 124.464844 218.242188 L 113.488281 218.242188 L 113.488281 177.027344 L 99.9375 184.804688 L 99.9375 218.242188 L 88.707031 218.242188 L 88.707031 175.019531 L 119.574219 157.140625 L 150.4375 139.257812 Z M 176.347656 218.242188 L 162.796875 218.242188 L 162.796875 162.597656 L 176.347656 170.691406 Z M 201.128906 218.242188 L 187.578125 218.242188 L 187.578125 177.027344 L 201.128906 184.804688 Z M 211.792969 167.492188 L 191.027344 155.695312 L 191.027344 69.121094 L 201.378906 63.351562 L 211.730469 57.265625 L 211.730469 167.425781 Z M 234.878906 220.816406 C 231.996094 220.816406 229.109375 220.5 226.222656 220.25 L 226.222656 201.242188 L 234.878906 206.449219 L 234.878906 220.878906 Z M 250.4375 221.945312 C 247.554688 221.632812 244.667969 221.378906 241.78125 221.378906 L 241.78125 210.402344 L 250.4375 215.292969 Z M 250.4375 221.945312 " fill-opacity="1" fill-rule="evenodd"/></g></svg>