<svg xmlns="http://www.w3.org/2000/svg" xmlns:xlink="http://www.w3.org/1999/xlink" width="400" zoomAndPan="magnify" viewBox="0 0 300 299.999988" height="400" preserveAspectRatio="xMidYMid meet" version="1.0"><defs><clipPath id="64ddf1d87c"><path d="M 15 1.808594 L 285 1.808594 L 285 300 L 15 300 Z M 15 1.808594 " clip-rule="nonzero"/></clipPath></defs><path fill="#58595b" d="M 164.347656 237.972656 C 164.347656 238.515625 164.257812 239.050781 164.074219 239.582031 C 163.890625 240.113281 163.617188 240.628906 163.257812 241.128906 C 162.894531 241.628906 162.453125 242.105469 161.929688 242.554688 C 161.40625 243.003906 160.8125 243.421875 160.144531 243.804688 C 159.480469 244.1875 158.753906 244.527344 157.972656 244.828125 C 157.1875 245.128906 156.363281 245.382812 155.492188 245.589844 C 154.621094 245.796875 153.722656 245.953125 152.800781 246.058594 C 151.875 246.164062 150.941406 246.21875 150 246.21875 C 149.058594 246.21875 148.125 246.164062 147.199219 246.058594 C 146.277344 245.953125 145.378906 245.796875 144.507812 245.589844 C 143.636719 245.382812 142.8125 245.128906 142.027344 244.828125 C 141.246094 244.527344 140.519531 244.1875 139.855469 243.804688 C 139.1875 243.421875 138.59375 243.003906 138.070312 242.554688 C 137.546875 242.105469 137.105469 241.628906 136.742188 241.128906 C 136.382812 240.628906 136.109375 240.113281 135.925781 239.582031 C 135.742188 239.050781 135.652344 238.515625 135.652344 237.972656 C 135.652344 237.433594 135.742188 236.898438 135.925781 236.367188 C 136.109375 235.835938 136.382812 235.320312 136.742188 234.820312 C 137.105469 234.320312 137.546875 233.84375 138.070312 233.394531 C 138.59375 232.945312 139.1875 232.527344 139.855469 232.144531 C 140.519531 231.761719 141.246094 231.421875 142.027344 231.121094 C 142.8125 230.820312 143.636719 230.566406 144.507812 230.359375 C 145.378906 230.152344 146.277344 229.996094 147.199219 229.890625 C 148.125 229.785156 149.058594 229.730469 150 229.730469 C 150.941406 229.730469 151.875 229.785156 152.800781 229.890625 C 153.722656 229.996094 154.621094 230.152344 155.492188 230.359375 C 156.363281 230.566406 157.1875 230.820312 157.972656 231.121094 C 158.753906 231.421875 159.480469 231.761719 160.144531 232.144531 C 160.8125 232.527344 161.40625 232.945312 161.929688 233.394531 C 162.453125 233.84375 162.894531 234.320312 163.257812 234.820312 C 163.617188 235.320312 163.890625 235.835938 164.074219 236.367188 C 164.257812 236.898438 164.347656 237.433594 164.347656 237.972656 Z M 164.347656 237.972656 " fill-opacity="1" fill-rule="nonzero"/><g clip-path="url(#64ddf1d87c)"><path fill="#c3c2c1" d="M 284.992188 136.992188 C 284.992188 62.429688 224.554688 1.992188 150 1.992188 C 75.445312 1.992188 15 62.429688 15 136.992188 C 15 201.527344 60.269531 255.472656 120.820312 268.835938 L 123.035156 283.386719 C 123.035156 292.460938 135.101562 299.824219 149.988281 299.824219 C 164.871094 299.824219 176.941406 292.464844 176.941406 283.386719 L 179.179688 268.835938 C 239.707031 255.472656 284.992188 201.527344 284.992188 136.992188 Z M 284.992188 136.992188 " fill-opacity="1" fill-rule="nonzero"/></g><path fill="#58595b" d="M 176.523438 255.503906 L 172.695312 280.632812 C 172.695312 288.277344 162.539062 294.46875 150.007812 294.46875 C 137.472656 294.46875 127.316406 288.277344 127.316406 280.632812 L 123.488281 255.503906 C 123.324219 254.421875 123.40625 253.355469 123.730469 252.308594 C 124.058594 251.265625 124.597656 250.34375 125.351562 249.546875 L 134.4375 239.953125 C 134.832031 239.539062 135.265625 239.179688 135.746094 238.867188 C 135.695312 238.574219 135.671875 238.277344 135.667969 237.980469 L 135.667969 176.804688 C 138.222656 180.25 143.621094 182.574219 150.019531 182.574219 C 156.414062 182.574219 161.8125 180.25 164.359375 176.804688 L 164.359375 237.972656 C 164.359375 238.273438 164.332031 238.566406 164.285156 238.863281 C 164.765625 239.171875 165.203125 239.53125 165.597656 239.945312 L 174.675781 249.542969 C 175.429688 250.339844 175.964844 251.261719 176.289062 252.308594 C 176.613281 253.355469 176.691406 254.421875 176.523438 255.503906 Z M 53.351562 146.621094 C 53.117188 147.601562 52.75 148.53125 52.257812 149.414062 C 51.765625 150.292969 51.160156 151.089844 50.449219 151.804688 C 49.734375 152.515625 48.9375 153.121094 48.058594 153.613281 C 47.179688 154.109375 46.25 154.472656 45.269531 154.710938 L 37.84375 156.496094 L 45.269531 158.285156 C 46.25 158.523438 47.183594 158.886719 48.0625 159.382812 C 48.941406 159.878906 49.738281 160.480469 50.453125 161.195312 C 51.164062 161.910156 51.769531 162.710938 52.261719 163.589844 C 52.753906 164.472656 53.117188 165.402344 53.351562 166.386719 L 55.140625 173.8125 L 56.925781 166.386719 C 57.164062 165.402344 57.53125 164.472656 58.027344 163.589844 C 58.519531 162.710938 59.125 161.914062 59.839844 161.199219 C 60.558594 160.488281 61.355469 159.882812 62.238281 159.390625 C 63.117188 158.898438 64.050781 158.53125 65.03125 158.296875 L 72.453125 156.511719 L 65.03125 154.710938 C 64.050781 154.472656 63.121094 154.109375 62.242188 153.613281 C 61.363281 153.121094 60.566406 152.515625 59.851562 151.804688 C 59.140625 151.089844 58.535156 150.292969 58.042969 149.414062 C 57.546875 148.53125 57.183594 147.601562 56.945312 146.621094 L 55.15625 139.199219 Z M 85.433594 179.382812 C 85.179688 180.4375 84.851562 181.472656 84.457031 182.480469 C 84.058594 183.492188 83.59375 184.472656 83.0625 185.417969 C 82.53125 186.367188 81.9375 187.273438 81.28125 188.136719 C 80.625 189.003906 79.914062 189.820312 79.144531 190.589844 C 78.378906 191.355469 77.5625 192.066406 76.695312 192.722656 C 75.828125 193.378906 74.921875 193.972656 73.976562 194.503906 C 73.03125 195.035156 72.050781 195.5 71.039062 195.898438 C 70.027344 196.292969 68.996094 196.621094 67.941406 196.875 L 51.859375 200.757812 L 67.941406 204.644531 C 68.996094 204.898438 70.027344 205.222656 71.039062 205.621094 C 72.050781 206.019531 73.03125 206.484375 73.976562 207.015625 C 74.921875 207.546875 75.828125 208.140625 76.695312 208.792969 C 77.5625 209.449219 78.378906 210.164062 79.144531 210.929688 C 79.914062 211.699219 80.625 212.515625 81.28125 213.378906 C 81.9375 214.246094 82.53125 215.152344 83.0625 216.101562 C 83.59375 217.046875 84.058594 218.027344 84.457031 219.035156 C 84.851562 220.046875 85.179688 221.082031 85.433594 222.136719 L 89.316406 238.21875 L 93.199219 222.136719 C 93.457031 221.082031 93.78125 220.046875 94.179688 219.035156 C 94.574219 218.027344 95.039062 217.046875 95.570312 216.101562 C 96.101562 215.152344 96.695312 214.246094 97.351562 213.378906 C 98.007812 212.515625 98.71875 211.699219 99.488281 210.929688 C 100.257812 210.164062 101.074219 209.449219 101.9375 208.792969 C 102.804688 208.140625 103.710938 207.546875 104.65625 207.015625 C 105.605469 206.484375 106.582031 206.019531 107.59375 205.621094 C 108.605469 205.222656 109.636719 204.898438 110.695312 204.644531 L 126.777344 200.757812 L 110.695312 196.875 C 109.636719 196.621094 108.605469 196.292969 107.59375 195.898438 C 106.582031 195.5 105.605469 195.035156 104.65625 194.503906 C 103.710938 193.972656 102.804688 193.378906 101.9375 192.722656 C 101.074219 192.066406 100.257812 191.355469 99.488281 190.589844 C 98.71875 189.820312 98.007812 189.003906 97.351562 188.136719 C 96.695312 187.273438 96.101562 186.367188 95.570312 185.417969 C 95.039062 184.472656 94.574219 183.492188 94.179688 182.480469 C 93.78125 181.472656 93.457031 180.4375 93.199219 179.382812 L 89.316406 163.300781 Z M 189.300781 222.945312 C 189.078125 223.878906 188.730469 224.757812 188.261719 225.59375 C 187.796875 226.429688 187.222656 227.183594 186.546875 227.863281 C 185.871094 228.539062 185.117188 229.113281 184.28125 229.578125 C 183.445312 230.046875 182.5625 230.394531 181.632812 230.617188 L 174.59375 232.316406 L 181.632812 234.019531 C 182.5625 234.242188 183.445312 234.589844 184.28125 235.058594 C 185.113281 235.527344 185.871094 236.097656 186.546875 236.773438 C 187.222656 237.449219 187.792969 238.207031 188.261719 239.039062 C 188.730469 239.875 189.074219 240.753906 189.300781 241.683594 L 191.003906 248.726562 L 192.707031 241.683594 C 192.929688 240.753906 193.277344 239.875 193.746094 239.039062 C 194.214844 238.207031 194.785156 237.449219 195.460938 236.773438 C 196.136719 236.097656 196.894531 235.527344 197.726562 235.058594 C 198.5625 234.589844 199.441406 234.246094 200.371094 234.019531 L 207.390625 232.292969 L 200.347656 230.59375 C 199.417969 230.371094 198.535156 230.023438 197.703125 229.554688 C 196.867188 229.085938 196.113281 228.515625 195.4375 227.835938 C 194.761719 227.160156 194.1875 226.40625 193.722656 225.570312 C 193.253906 224.734375 192.90625 223.851562 192.683594 222.921875 L 190.980469 215.882812 Z M 214.972656 170.589844 C 214.746094 171.53125 214.453125 172.449219 214.101562 173.347656 C 213.75 174.25 213.335938 175.121094 212.863281 175.960938 C 212.390625 176.804688 211.863281 177.609375 211.277344 178.382812 C 210.695312 179.152344 210.0625 179.878906 209.378906 180.5625 C 208.695312 181.246094 207.96875 181.878906 207.199219 182.460938 C 206.429688 183.046875 205.621094 183.574219 204.777344 184.046875 C 203.9375 184.519531 203.066406 184.929688 202.164062 185.285156 C 201.265625 185.636719 200.347656 185.925781 199.40625 186.15625 L 185.113281 189.609375 L 199.40625 193.0625 C 200.347656 193.289062 201.265625 193.582031 202.164062 193.933594 C 203.066406 194.285156 203.9375 194.699219 204.777344 195.171875 C 205.621094 195.644531 206.429688 196.171875 207.199219 196.757812 C 207.96875 197.339844 208.695312 197.972656 209.378906 198.65625 C 210.0625 199.339844 210.695312 200.066406 211.277344 200.835938 C 211.863281 201.605469 212.390625 202.414062 212.863281 203.257812 C 213.335938 204.097656 213.75 204.96875 214.101562 205.871094 C 214.453125 206.769531 214.746094 207.6875 214.972656 208.628906 L 218.425781 222.921875 L 221.878906 208.628906 C 222.109375 207.6875 222.398438 206.769531 222.75 205.871094 C 223.105469 204.96875 223.515625 204.097656 223.988281 203.257812 C 224.460938 202.414062 224.988281 201.605469 225.574219 200.835938 C 226.15625 200.066406 226.789062 199.339844 227.472656 198.65625 C 228.15625 197.972656 228.882812 197.339844 229.652344 196.757812 C 230.425781 196.171875 231.230469 195.644531 232.074219 195.171875 C 232.917969 194.699219 233.789062 194.285156 234.6875 193.933594 C 235.585938 193.582031 236.503906 193.289062 237.445312 193.0625 L 251.738281 189.609375 L 237.445312 186.15625 C 236.503906 185.925781 235.585938 185.636719 234.683594 185.28125 C 233.785156 184.929688 232.910156 184.515625 232.066406 184.039062 C 231.222656 183.566406 230.417969 183.035156 229.648438 182.453125 C 228.875 181.867188 228.148438 181.230469 227.464844 180.546875 C 226.78125 179.863281 226.148438 179.132812 225.566406 178.363281 C 224.984375 177.589844 224.457031 176.78125 223.984375 175.9375 C 223.511719 175.09375 223.097656 174.21875 222.746094 173.316406 C 222.394531 172.417969 222.105469 171.496094 221.878906 170.554688 L 218.425781 156.257812 Z M 197.386719 163.289062 C 197.042969 163.289062 196.699219 163.320312 196.363281 163.390625 C 196.023438 163.457031 195.695312 163.554688 195.375 163.6875 C 195.058594 163.820312 194.753906 163.984375 194.464844 164.175781 C 194.179688 164.367188 193.914062 164.585938 193.667969 164.828125 C 193.425781 165.074219 193.207031 165.339844 193.015625 165.625 C 192.824219 165.914062 192.660156 166.214844 192.53125 166.535156 C 192.398438 166.855469 192.296875 167.183594 192.230469 167.523438 C 192.164062 167.859375 192.128906 168.203125 192.128906 168.546875 C 192.128906 168.894531 192.164062 169.234375 192.230469 169.574219 C 192.296875 169.914062 192.398438 170.242188 192.53125 170.558594 C 192.660156 170.878906 192.824219 171.183594 193.015625 171.46875 C 193.207031 171.757812 193.425781 172.023438 193.667969 172.265625 C 193.914062 172.511719 194.179688 172.730469 194.464844 172.921875 C 194.753906 173.113281 195.058594 173.273438 195.375 173.40625 C 195.695312 173.539062 196.023438 173.636719 196.363281 173.707031 C 196.699219 173.773438 197.042969 173.808594 197.386719 173.808594 C 197.734375 173.808594 198.074219 173.773438 198.414062 173.707031 C 198.753906 173.636719 199.082031 173.539062 199.402344 173.40625 C 199.71875 173.273438 200.023438 173.113281 200.308594 172.921875 C 200.597656 172.730469 200.863281 172.511719 201.105469 172.265625 C 201.351562 172.023438 201.570312 171.757812 201.761719 171.46875 C 201.953125 171.183594 202.117188 170.878906 202.246094 170.558594 C 202.378906 170.242188 202.480469 169.914062 202.546875 169.574219 C 202.613281 169.234375 202.648438 168.894531 202.648438 168.546875 C 202.648438 168.203125 202.613281 167.859375 202.546875 167.523438 C 202.480469 167.183594 202.378906 166.855469 202.246094 166.535156 C 202.117188 166.214844 201.953125 165.914062 201.761719 165.625 C 201.570312 165.339844 201.351562 165.074219 201.109375 164.828125 C 200.863281 164.585938 200.597656 164.367188 200.308594 164.175781 C 200.023438 163.984375 199.71875 163.820312 199.402344 163.6875 C 199.082031 163.554688 198.753906 163.457031 198.414062 163.390625 C 198.074219 163.320312 197.734375 163.289062 197.386719 163.289062 Z M 239.464844 205.363281 C 239.117188 205.363281 238.777344 205.398438 238.4375 205.464844 C 238.097656 205.53125 237.769531 205.632812 237.453125 205.765625 C 237.132812 205.894531 236.828125 206.058594 236.542969 206.25 C 236.253906 206.441406 235.988281 206.660156 235.746094 206.902344 C 235.5 207.148438 235.28125 207.414062 235.089844 207.699219 C 234.898438 207.988281 234.738281 208.292969 234.605469 208.609375 C 234.472656 208.929688 234.371094 209.257812 234.304688 209.597656 C 234.238281 209.9375 234.203125 210.277344 234.203125 210.625 C 234.203125 210.96875 234.238281 211.308594 234.304688 211.648438 C 234.371094 211.988281 234.472656 212.316406 234.605469 212.636719 C 234.738281 212.953125 234.898438 213.257812 235.089844 213.546875 C 235.28125 213.832031 235.5 214.097656 235.746094 214.34375 C 235.988281 214.585938 236.253906 214.804688 236.542969 214.996094 C 236.828125 215.1875 237.132812 215.351562 237.453125 215.480469 C 237.769531 215.613281 238.097656 215.714844 238.4375 215.78125 C 238.777344 215.847656 239.117188 215.882812 239.464844 215.882812 C 239.808594 215.882812 240.152344 215.847656 240.488281 215.78125 C 240.828125 215.714844 241.15625 215.613281 241.476562 215.480469 C 241.796875 215.351562 242.097656 215.1875 242.386719 214.996094 C 242.671875 214.804688 242.9375 214.585938 243.183594 214.34375 C 243.425781 214.097656 243.644531 213.832031 243.835938 213.546875 C 244.027344 213.257812 244.191406 212.953125 244.324219 212.636719 C 244.457031 212.316406 244.554688 211.988281 244.621094 211.648438 C 244.691406 211.308594 244.722656 210.96875 244.722656 210.625 C 244.722656 210.277344 244.691406 209.9375 244.621094 209.597656 C 244.554688 209.257812 244.457031 208.929688 244.324219 208.609375 C 244.191406 208.292969 244.027344 207.988281 243.835938 207.699219 C 243.644531 207.414062 243.425781 207.148438 243.183594 206.902344 C 242.9375 206.660156 242.671875 206.441406 242.386719 206.25 C 242.097656 206.058594 241.796875 205.894531 241.476562 205.765625 C 241.15625 205.632812 240.828125 205.53125 240.488281 205.464844 C 240.152344 205.398438 239.808594 205.363281 239.464844 205.363281 Z M 113.230469 222.898438 C 112.886719 222.898438 112.542969 222.933594 112.207031 223 C 111.867188 223.066406 111.539062 223.167969 111.21875 223.300781 C 110.898438 223.429688 110.597656 223.59375 110.308594 223.785156 C 110.023438 223.976562 109.757812 224.195312 109.511719 224.441406 C 109.269531 224.683594 109.050781 224.949219 108.859375 225.238281 C 108.667969 225.523438 108.503906 225.828125 108.371094 226.144531 C 108.242188 226.464844 108.140625 226.792969 108.074219 227.132812 C 108.007812 227.472656 107.972656 227.8125 107.972656 228.160156 C 107.972656 228.503906 108.007812 228.847656 108.074219 229.183594 C 108.140625 229.523438 108.242188 229.851562 108.371094 230.171875 C 108.503906 230.488281 108.667969 230.792969 108.859375 231.082031 C 109.050781 231.367188 109.269531 231.632812 109.511719 231.878906 C 109.757812 232.121094 110.023438 232.339844 110.308594 232.53125 C 110.597656 232.722656 110.898438 232.886719 111.21875 233.015625 C 111.539062 233.148438 111.867188 233.25 112.207031 233.316406 C 112.542969 233.382812 112.886719 233.417969 113.230469 233.417969 C 113.578125 233.417969 113.917969 233.382812 114.257812 233.316406 C 114.597656 233.25 114.925781 233.148438 115.246094 233.015625 C 115.5625 232.886719 115.867188 232.722656 116.152344 232.53125 C 116.441406 232.339844 116.707031 232.121094 116.949219 231.878906 C 117.195312 231.632812 117.414062 231.367188 117.605469 231.082031 C 117.796875 230.792969 117.957031 230.488281 118.089844 230.171875 C 118.222656 229.851562 118.324219 229.523438 118.390625 229.183594 C 118.457031 228.847656 118.492188 228.503906 118.492188 228.160156 C 118.492188 227.8125 118.457031 227.472656 118.390625 227.132812 C 118.324219 226.792969 118.222656 226.464844 118.089844 226.144531 C 117.957031 225.828125 117.796875 225.523438 117.605469 225.238281 C 117.414062 224.949219 117.195312 224.683594 116.949219 224.441406 C 116.707031 224.195312 116.441406 223.976562 116.152344 223.785156 C 115.867188 223.59375 115.5625 223.429688 115.246094 223.300781 C 114.925781 223.167969 114.597656 223.066406 114.257812 223 C 113.917969 222.933594 113.578125 222.898438 113.230469 222.898438 Z M 71.15625 166.796875 C 70.8125 166.796875 70.46875 166.832031 70.128906 166.898438 C 69.792969 166.964844 69.460938 167.066406 69.144531 167.195312 C 68.824219 167.328125 68.519531 167.492188 68.234375 167.683594 C 67.945312 167.875 67.679688 168.09375 67.4375 168.335938 C 67.191406 168.582031 66.976562 168.847656 66.78125 169.132812 C 66.589844 169.421875 66.429688 169.722656 66.296875 170.042969 C 66.164062 170.363281 66.066406 170.691406 65.996094 171.03125 C 65.929688 171.367188 65.898438 171.710938 65.898438 172.054688 C 65.898438 172.402344 65.929688 172.742188 65.996094 173.082031 C 66.066406 173.421875 66.164062 173.75 66.296875 174.070312 C 66.429688 174.386719 66.589844 174.691406 66.78125 174.976562 C 66.976562 175.265625 67.191406 175.53125 67.4375 175.773438 C 67.679688 176.019531 67.945312 176.238281 68.234375 176.429688 C 68.519531 176.621094 68.824219 176.78125 69.144531 176.914062 C 69.460938 177.046875 69.792969 177.148438 70.128906 177.214844 C 70.46875 177.28125 70.8125 177.316406 71.15625 177.316406 C 71.5 177.316406 71.84375 177.28125 72.183594 177.214844 C 72.519531 177.148438 72.851562 177.046875 73.167969 176.914062 C 73.488281 176.78125 73.792969 176.621094 74.078125 176.429688 C 74.367188 176.238281 74.632812 176.019531 74.875 175.773438 C 75.121094 175.53125 75.335938 175.265625 75.527344 174.976562 C 75.722656 174.691406 75.882812 174.386719 76.015625 174.070312 C 76.148438 173.75 76.246094 173.421875 76.316406 173.082031 C 76.382812 172.742188 76.414062 172.402344 76.414062 172.054688 C 76.414062 171.710938 76.382812 171.367188 76.316406 171.03125 C 76.246094 170.691406 76.148438 170.363281 76.015625 170.042969 C 75.882812 169.722656 75.722656 169.421875 75.527344 169.132812 C 75.335938 168.847656 75.121094 168.582031 74.875 168.335938 C 74.632812 168.09375 74.367188 167.875 74.078125 167.683594 C 73.792969 167.492188 73.488281 167.328125 73.167969 167.195312 C 72.851562 167.066406 72.519531 166.964844 72.183594 166.898438 C 71.84375 166.832031 71.5 166.796875 71.15625 166.796875 Z M 268.566406 173.457031 C 268.566406 173.019531 268.523438 172.585938 268.4375 172.15625 C 268.351562 171.726562 268.226562 171.308594 268.058594 170.90625 C 267.890625 170.5 267.6875 170.117188 267.441406 169.753906 C 267.199219 169.386719 266.921875 169.050781 266.613281 168.742188 C 266.304688 168.433594 265.96875 168.15625 265.601562 167.914062 C 265.238281 167.671875 264.855469 167.464844 264.449219 167.296875 C 264.046875 167.128906 263.628906 167.003906 263.199219 166.917969 C 262.769531 166.832031 262.335938 166.789062 261.898438 166.789062 C 261.460938 166.789062 261.027344 166.832031 260.597656 166.917969 C 260.167969 167.003906 259.753906 167.132812 259.347656 167.296875 C 258.945312 167.464844 258.558594 167.671875 258.195312 167.914062 C 257.832031 168.160156 257.496094 168.433594 257.1875 168.746094 C 256.875 169.054688 256.601562 169.390625 256.359375 169.753906 C 256.113281 170.121094 255.910156 170.503906 255.742188 170.90625 C 255.574219 171.3125 255.449219 171.730469 255.363281 172.160156 C 255.277344 172.589844 255.234375 173.023438 255.234375 173.460938 C 255.238281 173.898438 255.28125 174.332031 255.363281 174.761719 C 255.449219 175.1875 255.578125 175.605469 255.746094 176.011719 C 255.914062 176.414062 256.117188 176.796875 256.363281 177.164062 C 256.605469 177.527344 256.882812 177.863281 257.191406 178.171875 C 257.5 178.480469 257.839844 178.757812 258.203125 179 C 258.566406 179.242188 258.953125 179.449219 259.355469 179.617188 C 259.761719 179.78125 260.175781 179.910156 260.605469 179.992188 C 261.035156 180.078125 261.46875 180.121094 261.90625 180.121094 C 262.34375 180.121094 262.777344 180.078125 263.207031 179.992188 C 263.636719 179.90625 264.050781 179.78125 264.457031 179.613281 C 264.859375 179.445312 265.242188 179.238281 265.605469 178.996094 C 265.972656 178.753906 266.308594 178.476562 266.617188 178.167969 C 266.925781 177.855469 267.203125 177.519531 267.445312 177.15625 C 267.6875 176.792969 267.890625 176.410156 268.058594 176.003906 C 268.226562 175.601562 268.351562 175.183594 268.4375 174.753906 C 268.523438 174.328125 268.566406 173.894531 268.566406 173.457031 Z M 265.761719 173.457031 C 265.761719 173.96875 265.664062 174.460938 265.46875 174.933594 C 265.273438 175.40625 264.996094 175.824219 264.632812 176.1875 C 264.273438 176.550781 263.855469 176.828125 263.382812 177.027344 C 262.90625 177.222656 262.414062 177.320312 261.902344 177.320312 C 261.390625 177.320312 260.898438 177.222656 260.425781 177.027344 C 259.953125 176.832031 259.535156 176.554688 259.171875 176.191406 C 258.808594 175.828125 258.53125 175.410156 258.335938 174.9375 C 258.140625 174.464844 258.042969 173.972656 258.042969 173.460938 C 258.042969 172.949219 258.140625 172.453125 258.335938 171.980469 C 258.53125 171.507812 258.8125 171.089844 259.175781 170.730469 C 259.539062 170.367188 259.957031 170.089844 260.429688 169.894531 C 260.902344 169.699219 261.394531 169.601562 261.90625 169.601562 C 262.417969 169.601562 262.910156 169.699219 263.382812 169.898438 C 263.851562 170.09375 264.269531 170.371094 264.628906 170.730469 C 264.992188 171.09375 265.269531 171.511719 265.464844 171.980469 C 265.660156 172.453125 265.761719 172.945312 265.761719 173.457031 Z M 184.414062 208.519531 C 184.414062 208.082031 184.371094 207.648438 184.289062 207.21875 C 184.203125 206.789062 184.074219 206.375 183.910156 205.96875 C 183.742188 205.566406 183.535156 205.179688 183.292969 204.816406 C 183.050781 204.453125 182.773438 204.117188 182.464844 203.808594 C 182.152344 203.5 181.816406 203.222656 181.453125 202.980469 C 181.089844 202.734375 180.707031 202.53125 180.300781 202.363281 C 179.898438 202.195312 179.480469 202.070312 179.050781 201.984375 C 178.621094 201.898438 178.1875 201.855469 177.75 201.855469 C 177.3125 201.855469 176.878906 201.898438 176.449219 201.984375 C 176.019531 202.070312 175.605469 202.195312 175.199219 202.363281 C 174.796875 202.53125 174.410156 202.734375 174.046875 202.980469 C 173.683594 203.222656 173.347656 203.5 173.039062 203.808594 C 172.726562 204.117188 172.453125 204.453125 172.207031 204.816406 C 171.964844 205.179688 171.761719 205.566406 171.59375 205.96875 C 171.425781 206.375 171.296875 206.789062 171.214844 207.21875 C 171.128906 207.648438 171.085938 208.082031 171.085938 208.519531 C 171.085938 208.957031 171.128906 209.390625 171.214844 209.820312 C 171.296875 210.25 171.425781 210.667969 171.59375 211.070312 C 171.761719 211.476562 171.964844 211.859375 172.207031 212.222656 C 172.453125 212.585938 172.726562 212.925781 173.039062 213.234375 C 173.347656 213.542969 173.683594 213.820312 174.046875 214.0625 C 174.410156 214.304688 174.796875 214.511719 175.199219 214.679688 C 175.605469 214.84375 176.019531 214.972656 176.449219 215.058594 C 176.878906 215.144531 177.3125 215.1875 177.75 215.1875 C 178.1875 215.1875 178.621094 215.144531 179.050781 215.058594 C 179.480469 214.972656 179.898438 214.84375 180.300781 214.679688 C 180.707031 214.511719 181.089844 214.304688 181.453125 214.0625 C 181.816406 213.820312 182.152344 213.542969 182.464844 213.234375 C 182.773438 212.925781 183.050781 212.585938 183.292969 212.222656 C 183.535156 211.859375 183.742188 211.476562 183.910156 211.070312 C 184.074219 210.667969 184.203125 210.25 184.289062 209.820312 C 184.371094 209.390625 184.414062 208.957031 184.414062 208.519531 Z M 181.609375 208.519531 C 181.609375 209.03125 181.515625 209.523438 181.320312 210 C 181.125 210.472656 180.84375 210.890625 180.484375 211.253906 C 180.121094 211.613281 179.703125 211.894531 179.230469 212.089844 C 178.757812 212.285156 178.265625 212.386719 177.753906 212.386719 C 177.242188 212.386719 176.75 212.289062 176.277344 212.09375 C 175.804688 211.898438 175.386719 211.621094 175.023438 211.257812 C 174.660156 210.894531 174.382812 210.480469 174.1875 210.003906 C 173.988281 209.53125 173.890625 209.039062 173.890625 208.527344 C 173.890625 208.015625 173.988281 207.523438 174.183594 207.050781 C 174.378906 206.578125 174.660156 206.160156 175.019531 205.796875 C 175.382812 205.4375 175.800781 205.15625 176.273438 204.960938 C 176.746094 204.765625 177.238281 204.667969 177.75 204.667969 C 178.261719 204.667969 178.753906 204.765625 179.226562 204.960938 C 179.699219 205.15625 180.113281 205.4375 180.476562 205.796875 C 180.835938 206.15625 181.117188 206.574219 181.3125 207.046875 C 181.507812 207.519531 181.609375 208.007812 181.609375 208.519531 Z M 181.609375 208.519531 " fill-opacity="1" fill-rule="nonzero"/><path fill="#c3c2c1" d="M 148.511719 246.6875 L 148.511719 264.070312 L 151.488281 264.070312 L 151.488281 246.6875 C 151 246.71875 150.5 246.734375 150 246.734375 C 149.5 246.734375 149.015625 246.71875 148.511719 246.6875 Z M 148.511719 246.6875 " fill-opacity="1" fill-rule="nonzero"/><path fill="#58595b" d="M 162.765625 172.246094 C 162.765625 176.136719 156.921875 179.394531 150 179.394531 C 143.078125 179.394531 137.230469 176.113281 137.230469 172.246094 C 137.230469 168.378906 143.078125 165.097656 150 165.097656 C 156.921875 165.097656 162.765625 168.355469 162.765625 172.246094 Z M 258.953125 116.789062 L 263.074219 115.171875 L 182.765625 39.398438 L 106.488281 41.605469 L 96.851562 20.53125 C 87.683594 24.734375 79.125 29.945312 71.179688 36.160156 C 63.238281 42.375 56.121094 49.429688 49.839844 57.320312 C 49.246094 58.058594 48.667969 58.800781 48.097656 59.554688 L 84.558594 132.480469 C 86.953125 137.269531 90.09375 141.503906 93.988281 145.179688 L 99.347656 150.214844 L 127.550781 176.828125 C 127.550781 176.828125 135.675781 162.816406 120.402344 148.023438 C 118.511719 146.109375 116.332031 144.617188 113.867188 143.546875 C 111.398438 142.476562 108.820312 141.90625 106.132812 141.832031 C 110.800781 134.132812 114.796875 121.628906 106.496094 106.496094 C 106.496094 106.496094 128.597656 117.703125 155.277344 100.757812 C 171.566406 90.414062 176.558594 75.59375 177.976562 65.617188 L 180.667969 67.867188 C 179.300781 77.832031 174.375 92.820312 157.933594 103.253906 C 157.050781 103.8125 156.167969 104.339844 155.285156 104.832031 C 160.679688 115.953125 170.28125 134.214844 183.128906 137.0625 C 178.054688 139.164062 173.257812 146.097656 169.703125 154.152344 C 162.246094 171.066406 175.0625 181.28125 175.0625 181.28125 L 197.261719 136.007812 L 178.40625 99.269531 L 219.503906 141.910156 C 226.609375 150.25 237.128906 160.023438 247.839844 157.671875 L 252.078125 156.742188 L 188.835938 74.730469 L 229.578125 108.8125 C 238.0625 116.078125 248.546875 120.863281 258.953125 116.789062 Z M 164.34375 176.804688 C 161.792969 180.25 156.390625 182.574219 150 182.574219 C 143.609375 182.574219 138.207031 180.25 135.652344 176.804688 L 135.652344 237.972656 C 135.652344 242.496094 141.285156 246.222656 148.511719 246.675781 C 149 246.707031 149.492188 246.722656 150 246.722656 C 150.507812 246.722656 151 246.722656 151.488281 246.675781 C 158.707031 246.222656 164.34375 242.507812 164.34375 237.972656 Z M 146.632812 287.894531 L 153.339844 287.894531 L 151.554688 264.070312 L 148.421875 264.070312 Z M 146.632812 287.894531 " fill-opacity="1" fill-rule="nonzero"/><path fill="#58595b" d="M 182.765625 39.398438 L 178.75 61.113281 L 225.019531 71.882812 C 236.992188 74.105469 248.316406 68.640625 250.53125 56.671875 Z M 182.765625 39.398438 " fill-opacity="1" fill-rule="nonzero"/></svg>