<svg xmlns="http://www.w3.org/2000/svg" xmlns:xlink="http://www.w3.org/1999/xlink" width="400" zoomAndPan="magnify" viewBox="0 0 300 299.999988" height="400" preserveAspectRatio="xMidYMid meet" version="1.0"><defs><clipPath id="5f0b921054"><path d="M 0.03125 0 L 286.773438 0 L 286.773438 299.992188 L 0.03125 299.992188 Z M 0.03125 0 " clip-rule="nonzero"/></clipPath></defs><g clip-path="url(#5f0b921054)"><path fill="#c3c2c1" d="M 67.488281 255.460938 C 13.15625 201.132812 13.15625 113.042969 67.488281 58.707031 C 121.824219 4.375 209.910156 4.375 264.242188 58.707031 C 273.179688 67.644531 280.640625 77.492188 286.640625 87.949219 C 279.398438 71.996094 269.21875 57.050781 256.097656 43.929688 C 197.519531 -14.648438 102.542969 -14.648438 43.964844 43.929688 C -14.613281 102.507812 -14.613281 197.484375 43.964844 256.058594 C 84.792969 296.886719 143.289062 309.257812 194.828125 293.179688 C 150.3125 302.609375 102.066406 290.039062 67.488281 255.460938 " fill-opacity="1" fill-rule="nonzero"/></g><path fill="#c3c2c1" d="M 220.011719 113.523438 C 220.179688 111.449219 221.859375 109.765625 223.933594 109.601562 C 226.570312 109.390625 228.765625 111.585938 228.554688 114.222656 C 228.390625 116.296875 226.710938 117.976562 224.632812 118.144531 C 221.996094 118.351562 219.804688 116.160156 220.011719 113.523438 Z M 222.546875 162.699219 L 220.59375 162.699219 L 220.59375 193.136719 C 209.738281 191.777344 196.964844 191.433594 190.710938 191.347656 L 166.535156 106.746094 L 217.011719 119.167969 C 217.804688 120.265625 218.855469 121.175781 220.050781 121.824219 L 220.050781 127.304688 L 215.273438 127.304688 L 215.273438 154.121094 L 222.546875 154.121094 Z M 180.753906 190.378906 L 137.546875 190.378906 L 137.546875 186.46875 L 180.753906 186.46875 Z M 174.386719 168.054688 L 177.140625 177.699219 L 147.164062 178.460938 Z M 147.917969 153.515625 L 171.433594 158.1875 L 171.863281 159.617188 L 143.332031 170.351562 Z M 150.574219 143.183594 L 165.542969 138.207031 L 168.464844 148.15625 L 150.574219 144.636719 Z M 159.082031 116.015625 L 162.53125 129.027344 L 154.488281 131.933594 Z M 290 139.011719 C 283.070312 92.398438 250.722656 55.851562 209.113281 41.347656 C 242.886719 56.800781 268.414062 88.492188 274.285156 127.96875 C 278.15625 154.003906 272.855469 179.292969 260.820312 200.550781 L 231.019531 162.699219 L 226.128906 162.699219 L 226.128906 154.121094 L 233.402344 154.121094 L 233.402344 127.304688 L 228.625 127.304688 L 228.625 121.824219 C 231.667969 120.167969 233.671875 116.796875 233.300781 113 C 232.863281 108.488281 229.074219 104.964844 224.542969 104.847656 C 222.054688 104.78125 219.8125 105.722656 218.140625 107.296875 L 116.59375 82.511719 L 116.59375 56.015625 C 116.59375 56.015625 63.410156 66.105469 75.234375 129.226562 L 78.164062 129.554688 L 78.164062 176.808594 L 84.355469 176.808594 L 84.355469 128.96875 L 112.121094 93.351562 L 153.140625 103.453125 L 127.789062 190.585938 L 127.703125 190.59375 C 127.703125 190.59375 127.703125 190.59375 100.609375 190.59375 C 96.65625 190.59375 93.039062 190.679688 89.457031 190.894531 L 89.457031 186.578125 L 84.894531 186.578125 L 84.894531 184.515625 L 91.300781 184.515625 L 91.300781 179.199219 L 71.328125 179.199219 L 71.328125 184.515625 L 77.625 184.515625 L 77.625 186.578125 L 73.066406 186.578125 L 73.066406 192.648438 C 67.636719 193.519531 63.15625 194.496094 60.25 195.238281 C 55.082031 184.839844 51.433594 173.464844 49.636719 161.359375 C 48.121094 151.15625 48.011719 141.070312 49.160156 131.300781 C 46.15625 145.28125 45.566406 160.027344 47.792969 175.007812 C 57.734375 241.894531 120.011719 288.054688 186.894531 278.113281 C 253.777344 268.175781 299.9375 205.894531 290 139.011719 " fill-opacity="1" fill-rule="nonzero"/></svg>