<svg xmlns="http://www.w3.org/2000/svg" xmlns:xlink="http://www.w3.org/1999/xlink" width="400" zoomAndPan="magnify" viewBox="0 0 300 299.999988" height="400" preserveAspectRatio="xMidYMid meet" version="1.0"><defs><clipPath id="34f519c2c4"><path d="M 13.3125 93 L 35 93 L 35 115 L 13.3125 115 Z M 13.3125 93 " clip-rule="nonzero"/></clipPath></defs><path fill="#c3c2c1" d="M 115.921875 51.667969 L 32.398438 180.398438 L 49.882812 241.753906 L 142.414062 96.199219 Z M 115.921875 51.667969 " fill-opacity="1" fill-rule="nonzero"/><path fill="#c3c2c1" d="M 85.578125 198.667969 L 55.035156 246.71875 L 236.785156 246.71875 L 265.257812 198.667969 Z M 85.578125 198.667969 " fill-opacity="1" fill-rule="nonzero"/><path fill="#c3c2c1" d="M 128.972656 278.765625 C 123.171875 278.765625 118.457031 283.484375 118.457031 289.28125 C 118.457031 295.078125 123.171875 299.796875 128.972656 299.796875 C 134.769531 299.796875 139.484375 295.078125 139.484375 289.28125 C 139.484375 283.484375 134.769531 278.765625 128.972656 278.765625 Z M 128.972656 278.765625 " fill-opacity="1" fill-rule="nonzero"/><path fill="#c3c2c1" d="M 265.140625 191.660156 L 177.136719 48.535156 L 122.214844 48.535156 L 207.359375 191.660156 Z M 265.140625 191.660156 " fill-opacity="1" fill-rule="nonzero"/><g clip-path="url(#34f519c2c4)"><path fill="#c3c2c1" d="M 23.828125 93.011719 C 18.027344 93.011719 13.3125 97.730469 13.3125 103.527344 C 13.3125 109.324219 18.027344 114.039062 23.828125 114.039062 C 29.625 114.039062 34.339844 109.324219 34.339844 103.527344 C 34.339844 97.730469 29.625 93.011719 23.828125 93.011719 Z M 23.828125 93.011719 " fill-opacity="1" fill-rule="nonzero"/></g><path fill="#c3c2c1" d="M 283.183594 54.457031 C 283.183594 46.730469 276.894531 40.441406 269.164062 40.441406 C 261.433594 40.441406 255.144531 46.730469 255.144531 54.457031 C 255.144531 62.1875 261.433594 68.476562 269.164062 68.476562 C 276.894531 68.476562 283.183594 62.1875 283.183594 54.457031 Z M 283.183594 54.457031 " fill-opacity="1" fill-rule="nonzero"/><path fill="#c3c2c1" d="M 221.847656 26.421875 C 224.75 26.421875 227.105469 24.066406 227.105469 21.164062 C 227.105469 18.261719 224.75 15.90625 221.847656 15.90625 C 218.945312 15.90625 216.589844 18.261719 216.589844 21.164062 C 216.589844 24.066406 218.945312 26.421875 221.847656 26.421875 Z M 221.847656 26.421875 " fill-opacity="1" fill-rule="nonzero"/><path fill="#c3c2c1" d="M 85.160156 10.648438 C 88.0625 10.648438 90.417969 8.296875 90.417969 5.390625 C 90.417969 2.488281 88.0625 0.132812 85.160156 0.132812 C 82.257812 0.132812 79.902344 2.488281 79.902344 5.390625 C 79.902344 8.296875 82.257812 10.648438 85.160156 10.648438 Z M 85.160156 10.648438 " fill-opacity="1" fill-rule="nonzero"/><path fill="#c3c2c1" d="M 25.578125 47.449219 C 28.484375 47.449219 30.835938 45.09375 30.835938 42.191406 C 30.835938 39.289062 28.484375 36.933594 25.578125 36.933594 C 22.675781 36.933594 20.320312 39.289062 20.320312 42.191406 C 20.320312 45.09375 22.675781 47.449219 25.578125 47.449219 Z M 25.578125 47.449219 " fill-opacity="1" fill-rule="nonzero"/><path fill="#c3c2c1" d="M 281.429688 128.058594 C 284.332031 128.058594 286.6875 125.707031 286.6875 122.800781 C 286.6875 119.898438 284.332031 117.546875 281.429688 117.546875 C 278.527344 117.546875 276.171875 119.898438 276.171875 122.800781 C 276.171875 125.707031 278.527344 128.058594 281.429688 128.058594 Z M 281.429688 128.058594 " fill-opacity="1" fill-rule="nonzero"/><path fill="#c3c2c1" d="M 281.429688 275.261719 C 284.332031 275.261719 286.6875 272.90625 286.6875 270.003906 C 286.6875 267.101562 284.332031 264.746094 281.429688 264.746094 C 278.527344 264.746094 276.171875 267.101562 276.171875 270.003906 C 276.171875 272.90625 278.527344 275.261719 281.429688 275.261719 Z M 281.429688 275.261719 " fill-opacity="1" fill-rule="nonzero"/><path fill="#c3c2c1" d="M 22.074219 282.269531 C 24.976562 282.269531 27.332031 279.917969 27.332031 277.015625 C 27.332031 274.109375 24.976562 271.757812 22.074219 271.757812 C 19.171875 271.757812 16.816406 274.109375 16.816406 277.015625 C 16.816406 279.917969 19.171875 282.269531 22.074219 282.269531 Z M 22.074219 282.269531 " fill-opacity="1" fill-rule="nonzero"/></svg>