<svg xmlns="http://www.w3.org/2000/svg" xmlns:xlink="http://www.w3.org/1999/xlink" width="400" zoomAndPan="magnify" viewBox="0 0 300 299.999988" height="400" preserveAspectRatio="xMidYMid meet" version="1.0"><defs><clipPath id="7e884177e9"><path d="M 116 245 L 181 245 L 181 284.359375 L 116 284.359375 Z M 116 245 " clip-rule="nonzero"/></clipPath></defs><path fill="#ffffff" d="M 194.515625 134.109375 C 195.691406 137.691406 196.453125 141.445312 196.816406 145.335938 C 196.953125 146.875 197.023438 148.449219 197.023438 150.023438 C 197.023438 151.582031 196.953125 153.121094 196.816406 154.644531 C 196.46875 158.550781 195.691406 162.339844 194.515625 165.957031 C 192.214844 165.210938 189.949219 164.398438 187.71875 163.464844 C 179.449219 160.089844 171.785156 155.542969 164.9375 150.023438 C 171.785156 144.523438 179.449219 139.972656 187.71875 136.582031 C 189.949219 135.667969 192.214844 134.835938 194.515625 134.109375 " fill-opacity="1" fill-rule="evenodd"/><path fill="#ffffff" d="M 270.992188 143.382812 C 272.097656 144.054688 273.203125 144.78125 274.292969 145.507812 L 274.605469 145.285156 L 274.621094 145.285156 L 274.933594 145.078125 L 274.96875 145.042969 C 275.28125 144.851562 275.574219 144.644531 275.886719 144.4375 L 275.953125 144.402344 L 276.195312 144.246094 L 276.335938 144.175781 C 276.714844 143.917969 277.132812 143.675781 277.511719 143.417969 L 277.683594 143.328125 L 277.925781 143.175781 L 277.996094 143.121094 L 278.273438 142.949219 L 278.617188 142.757812 L 278.878906 142.601562 L 278.980469 142.535156 L 279.257812 142.378906 L 279.363281 142.308594 C 279.640625 142.152344 279.917969 141.980469 280.210938 141.824219 L 280.382812 141.722656 L 280.574219 141.601562 L 280.746094 141.511719 L 281.007812 141.375 L 281.039062 141.339844 C 281.371094 141.167969 281.679688 140.996094 282.007812 140.820312 L 282.113281 140.769531 L 282.355469 140.632812 L 282.546875 140.527344 L 282.753906 140.421875 L 283.097656 140.234375 L 283.117188 140.234375 L 283.324219 140.113281 L 283.515625 140.027344 L 283.738281 139.90625 L 283.929688 139.820312 L 284.152344 139.699219 L 284.515625 139.507812 L 284.691406 139.421875 L 285.089844 139.230469 L 285.539062 139.003906 C 285.660156 138.9375 285.796875 138.867188 285.9375 138.816406 L 285.953125 138.796875 L 285.96875 138.796875 L 286.386719 138.589844 L 286.453125 138.574219 C 286.59375 138.503906 286.714844 138.433594 286.851562 138.367188 L 286.90625 138.367188 L 287.234375 138.191406 L 287.492188 138.089844 L 287.941406 137.863281 L 288.203125 137.761719 L 288.375 137.671875 L 288.632812 137.570312 L 288.824219 137.484375 L 289.1875 137.308594 L 289.621094 137.136719 L 289.828125 137.050781 L 290.070312 136.945312 L 290.261719 136.859375 L 290.277344 136.859375 L 290.660156 136.703125 L 290.675781 136.6875 C 290.832031 136.636719 290.96875 136.566406 291.109375 136.515625 L 291.230469 136.460938 L 291.574219 136.324219 L 291.679688 136.289062 C 291.835938 136.21875 291.972656 136.167969 292.128906 136.097656 L 292.144531 136.097656 C 292.285156 136.046875 292.441406 135.976562 292.578125 135.925781 L 292.683594 135.890625 L 293.027344 135.753906 L 293.148438 135.71875 C 293.289062 135.667969 293.425781 135.613281 293.5625 135.546875 L 293.597656 135.546875 C 293.753906 135.492188 293.910156 135.425781 294.066406 135.371094 L 294.082031 135.355469 L 294.480469 135.21875 L 294.621094 135.164062 L 294.964844 135.042969 L 295.105469 134.992188 L 295.519531 134.855469 L 295.554688 134.835938 L 295.605469 134.835938 C 295.726562 134.785156 295.882812 134.734375 296.019531 134.679688 L 296.074219 134.664062 L 296.558594 134.492188 C 296.609375 134.472656 296.644531 134.472656 296.695312 134.4375 C 295.46875 139.4375 294.828125 144.660156 294.828125 150.023438 C 294.828125 155.402344 295.46875 160.609375 296.695312 165.609375 C 296.316406 165.472656 295.933594 165.351562 295.570312 165.230469 L 295.554688 165.210938 C 295.226562 165.109375 294.914062 164.988281 294.601562 164.882812 L 294.53125 164.867188 L 294.152344 164.710938 L 294.03125 164.675781 C 293.5625 164.503906 293.097656 164.328125 292.613281 164.140625 C 292.300781 164.019531 292.007812 163.898438 291.695312 163.777344 L 291.558594 163.722656 L 291.230469 163.585938 L 291.109375 163.535156 L 290.78125 163.394531 L 290.675781 163.359375 L 290.660156 163.359375 C 290.519531 163.292969 290.382812 163.238281 290.242188 163.1875 L 290.085938 163.117188 L 289.792969 162.996094 L 289.65625 162.929688 C 289.207031 162.738281 288.773438 162.546875 288.324219 162.359375 L 288.238281 162.324219 L 287.890625 162.167969 L 287.804688 162.117188 L 287.371094 161.90625 L 287.355469 161.90625 C 287.214844 161.855469 287.078125 161.785156 286.9375 161.71875 L 286.785156 161.648438 C 286.507812 161.511719 286.230469 161.390625 285.953125 161.25 L 285.9375 161.25 C 285.660156 161.113281 285.382812 160.972656 285.121094 160.851562 L 284.96875 160.765625 L 284.605469 160.574219 L 284.550781 160.558594 C 284.101562 160.332031 283.636719 160.109375 283.203125 159.867188 L 283.167969 159.847656 C 282.875 159.695312 282.582031 159.539062 282.269531 159.382812 C 281.664062 159.054688 281.058594 158.726562 280.46875 158.378906 L 280.453125 158.378906 C 280.191406 158.222656 279.917969 158.066406 279.640625 157.910156 L 279.464844 157.808594 L 279.136719 157.617188 L 279.121094 157.601562 C 278.394531 157.1875 277.683594 156.753906 276.992188 156.304688 L 276.941406 156.269531 L 276.921875 156.269531 L 276.871094 156.234375 C 276.613281 156.0625 276.335938 155.90625 276.074219 155.734375 L 276.058594 155.714844 C 275.921875 155.628906 275.765625 155.523438 275.625 155.4375 L 275.589844 155.421875 C 275.210938 155.160156 274.8125 154.902344 274.433594 154.644531 L 274.292969 154.539062 C 273.238281 155.265625 272.167969 155.957031 271.078125 156.632812 C 268.34375 158.308594 265.542969 159.847656 262.636719 161.25 C 260.214844 162.410156 257.722656 163.480469 255.179688 164.433594 C 251.945312 165.644531 248.640625 166.699219 245.25 167.53125 C 238.019531 169.363281 230.460938 170.332031 222.675781 170.332031 C 214.773438 170.332031 207.074219 169.328125 199.757812 167.460938 C 201.054688 163.359375 201.917969 159.070312 202.265625 154.644531 C 202.402344 153.121094 202.457031 151.582031 202.457031 150.023438 C 202.457031 148.449219 202.386719 146.875 202.265625 145.335938 C 201.902344 140.925781 201.054688 136.671875 199.757812 132.605469 C 207.074219 130.71875 214.773438 129.734375 222.675781 129.734375 C 230.425781 129.734375 237.953125 130.683594 245.148438 132.484375 C 248.570312 133.332031 251.929688 134.386719 255.179688 135.613281 C 257.671875 136.550781 260.09375 137.585938 262.480469 138.730469 C 265.402344 140.128906 268.238281 141.6875 270.992188 143.382812 " fill-opacity="1" fill-rule="evenodd"/><path fill="#c3c2c1" d="M 80.851562 263.238281 C 80.988281 263.050781 81.09375 262.839844 81.195312 262.652344 L 81.179688 255.765625 L 81.179688 233.003906 L 81.195312 217.433594 L 81.179688 217.433594 L 81.179688 217.417969 L 80.988281 217.417969 L 80.988281 217.296875 L 37.640625 217.296875 C 35.0625 217.296875 32.933594 219.25 32.691406 221.742188 C 32.675781 221.914062 32.660156 222.085938 32.660156 222.261719 C 32.660156 222.882812 32.78125 223.507812 33.003906 224.078125 C 33.265625 224.699219 33.628906 225.289062 34.128906 225.773438 C 34.664062 226.324219 35.339844 226.722656 36.050781 226.964844 C 36.550781 227.121094 37.085938 227.226562 37.640625 227.226562 C 37.847656 227.226562 38.089844 227.191406 38.316406 227.15625 C 38.4375 227.140625 38.539062 227.140625 38.644531 227.121094 L 71.25 227.121094 L 71.25 260.644531 C 71.25 261.976562 71.769531 263.222656 72.703125 264.15625 C 73.636719 265.089844 74.882812 265.609375 76.214844 265.609375 C 78.015625 265.609375 79.917969 264.675781 80.851562 263.238281 " fill-opacity="1" fill-rule="nonzero"/><path fill="#c3c2c1" d="M 65.335938 82.820312 L 80.921875 82.820312 L 80.921875 82.632812 L 81.042969 82.632812 L 81.042969 39.28125 C 81.042969 36.53125 78.828125 34.300781 76.078125 34.300781 C 75.746094 34.300781 75.417969 34.335938 75.109375 34.40625 C 74.535156 34.507812 74.019531 34.734375 73.515625 35.027344 C 73.1875 35.234375 72.859375 35.476562 72.566406 35.753906 C 72.480469 35.839844 72.410156 35.925781 72.339844 36.011719 C 71.820312 36.601562 71.476562 37.277344 71.285156 38.003906 C 71.179688 38.417969 71.113281 38.832031 71.113281 39.28125 C 71.113281 39.457031 71.128906 39.664062 71.164062 39.851562 C 71.179688 39.992188 71.199219 40.128906 71.234375 40.285156 L 71.214844 51.304688 L 71.214844 72.890625 L 37.691406 72.890625 C 36.863281 72.890625 36.066406 73.082031 35.375 73.464844 C 34.925781 73.6875 34.527344 73.980469 34.179688 74.34375 C 33.230469 75.28125 32.726562 76.523438 32.726562 77.855469 C 32.726562 78.550781 32.867188 79.257812 33.125 79.914062 C 33.609375 81.195312 34.527344 82.320312 35.703125 82.820312 L 65.335938 82.820312 " fill-opacity="1" fill-rule="nonzero"/><path fill="#c3c2c1" d="M 215.84375 36.738281 C 215.722656 36.929688 215.601562 37.121094 215.515625 37.328125 L 215.515625 82.5625 L 215.707031 82.5625 L 215.707031 82.683594 L 259.070312 82.683594 C 261.648438 82.683594 263.761719 80.726562 264.019531 78.21875 C 264.035156 78.066406 264.035156 77.890625 264.035156 77.71875 C 264.035156 77.097656 263.914062 76.472656 263.691406 75.902344 C 263.449219 75.28125 263.066406 74.691406 262.582031 74.207031 C 262.03125 73.652344 261.371094 73.253906 260.644531 73.011719 C 260.144531 72.839844 259.609375 72.753906 259.070312 72.753906 C 258.847656 72.753906 258.621094 72.769531 258.378906 72.824219 C 258.277344 72.824219 258.171875 72.839844 258.050781 72.859375 L 225.445312 72.859375 L 225.445312 49.988281 L 225.460938 39.335938 C 225.460938 38.003906 224.941406 36.757812 223.992188 35.824219 C 223.058594 34.871094 221.8125 34.371094 220.480469 34.371094 C 218.679688 34.371094 216.796875 35.304688 215.84375 36.738281 " fill-opacity="1" fill-rule="nonzero"/><path fill="#c3c2c1" d="M 175.539062 15.617188 C 174.398438 15.617188 173.34375 16 172.476562 16.691406 C 172.324219 16.8125 172.167969 16.933594 172.027344 17.070312 C 171.941406 17.175781 171.839844 17.28125 171.75 17.402344 C 171.699219 17.453125 171.648438 17.523438 171.597656 17.589844 C 171.527344 17.695312 171.457031 17.78125 171.386719 17.886719 L 148.332031 40.941406 L 131.722656 24.335938 L 124.632812 17.210938 C 123.679688 16.277344 122.433594 15.757812 121.101562 15.757812 C 120.132812 15.757812 119.21875 16.050781 118.421875 16.554688 C 118.386719 16.570312 118.371094 16.585938 118.351562 16.585938 C 118.335938 16.621094 118.300781 16.640625 118.285156 16.65625 C 118.042969 16.8125 117.816406 17.003906 117.59375 17.210938 C 117.59375 17.226562 117.574219 17.246094 117.558594 17.261719 C 116.140625 18.699219 115.480469 21.066406 116.191406 22.847656 L 125.914062 32.554688 L 138.625 45.265625 L 148.15625 54.816406 L 148.15625 54.796875 L 148.296875 54.675781 L 148.382812 54.765625 L 170.679688 32.46875 L 179.050781 24.113281 C 179.898438 23.265625 180.367188 22.175781 180.488281 21.066406 C 180.609375 19.648438 180.140625 18.179688 179.050781 17.070312 C 178.84375 16.882812 178.621094 16.691406 178.378906 16.535156 C 177.5625 15.949219 176.5625 15.617188 175.539062 15.617188 " fill-opacity="1" fill-rule="nonzero"/><path fill="#c3c2c1" d="M 91.871094 199.445312 L 55.386719 199.445312 C 54.367188 199.445312 53.398438 199.757812 52.621094 200.308594 C 52.34375 200.484375 52.101562 200.691406 51.875 200.914062 C 50.976562 201.8125 50.421875 203.042969 50.421875 204.410156 C 50.421875 205.742188 50.941406 206.96875 51.875 207.9375 C 52.222656 208.285156 52.621094 208.578125 53.054688 208.804688 C 53.503906 209.046875 53.988281 209.21875 54.488281 209.304688 C 54.765625 209.355469 55.078125 209.390625 55.371094 209.390625 L 55.386719 209.390625 C 55.71875 209.375 56.046875 209.355469 56.390625 209.269531 L 89.015625 209.269531 L 89.015625 242.742188 C 89.015625 242.742188 89.015625 242.863281 89.015625 242.949219 L 89.015625 244.660156 L 89.03125 244.679688 C 89.152344 245.007812 89.308594 245.320312 89.5 245.613281 C 89.691406 245.890625 89.898438 246.167969 90.15625 246.425781 C 91.089844 247.359375 92.648438 247.863281 93.960938 247.863281 C 94.136719 247.863281 94.308594 247.84375 94.480469 247.828125 C 94.777344 247.808594 95.050781 247.742188 95.328125 247.652344 C 95.398438 247.652344 95.484375 247.621094 95.570312 247.585938 C 96.296875 247.34375 96.957031 246.925781 97.492188 246.390625 C 97.714844 246.183594 97.925781 245.925781 98.097656 245.664062 C 98.167969 245.5625 98.234375 245.457031 98.289062 245.351562 C 98.390625 245.144531 98.496094 244.9375 98.597656 244.714844 C 98.617188 244.714844 98.597656 244.714844 98.597656 244.714844 C 98.824219 244.144531 98.945312 243.539062 98.945312 242.898438 L 98.945312 206.433594 L 116.242188 189.136719 L 137.015625 177.320312 L 137.035156 177.320312 L 143.382812 183.6875 L 143.382812 224.90625 L 117.59375 250.699219 C 117.472656 250.820312 117.367188 250.941406 117.246094 251.078125 C 117.019531 251.375 116.8125 251.683594 116.65625 251.996094 C 116.605469 252.117188 116.554688 252.222656 116.503906 252.34375 C 116.382812 252.636719 116.292969 252.949219 116.226562 253.257812 C 116.105469 253.882812 116.105469 254.519531 116.226562 255.160156 C 116.277344 255.4375 116.363281 255.699219 116.449219 255.957031 C 116.484375 256.042969 116.519531 256.128906 116.570312 256.214844 C 116.675781 256.457031 116.796875 256.699219 116.953125 256.925781 C 117.140625 257.203125 117.351562 257.460938 117.59375 257.703125 L 117.59375 257.722656 C 117.851562 257.980469 118.144531 258.207031 118.4375 258.394531 C 118.558594 258.464844 118.664062 258.535156 118.769531 258.585938 C 118.769531 258.585938 118.769531 258.605469 118.769531 258.605469 C 119.0625 258.742188 119.355469 258.863281 119.667969 258.96875 C 119.890625 259.035156 120.132812 259.089844 120.375 259.121094 C 120.601562 259.175781 120.859375 259.175781 121.101562 259.175781 C 121.484375 259.175781 121.847656 259.140625 122.191406 259.054688 C 122.191406 259.054688 122.191406 259.070312 122.210938 259.054688 C 122.433594 259 122.660156 258.933594 122.886719 258.847656 C 123.230469 258.707031 123.558594 258.550781 123.855469 258.34375 C 123.992188 258.257812 124.128906 258.152344 124.25 258.050781 C 124.390625 257.945312 124.511719 257.84375 124.632812 257.722656 C 124.667969 257.6875 124.71875 257.636719 124.753906 257.582031 C 124.925781 257.394531 125.097656 257.167969 125.253906 256.925781 L 148.3125 233.867188 L 171.976562 257.53125 L 171.976562 257.546875 L 171.992188 257.546875 C 172.011719 257.546875 172.011719 257.566406 172.011719 257.566406 C 172.027344 257.582031 172.027344 257.601562 172.046875 257.601562 C 172.0625 257.617188 172.0625 257.617188 172.082031 257.636719 C 172.097656 257.652344 172.113281 257.667969 172.113281 257.667969 C 172.132812 257.6875 172.132812 257.703125 172.148438 257.703125 C 172.167969 257.722656 172.183594 257.722656 172.183594 257.738281 C 172.183594 257.738281 172.203125 257.757812 172.203125 257.757812 L 173.324219 258.878906 L 173.34375 258.878906 L 173.359375 258.898438 C 173.429688 258.933594 173.515625 258.96875 173.601562 258.984375 C 173.757812 259.035156 173.914062 259.105469 174.085938 259.140625 C 174.171875 259.175781 174.261719 259.191406 174.347656 259.210938 C 174.675781 259.277344 175.039062 259.332031 175.402344 259.332031 C 176.214844 259.332031 177.097656 259.035156 177.875 258.585938 C 178.324219 258.308594 178.757812 257.980469 179.101562 257.636719 C 181.039062 255.699219 181.039062 252.550781 179.101562 250.613281 L 153.3125 224.820312 L 153.3125 183.6875 L 159.660156 177.320312 L 180.503906 189.167969 L 197.75 206.433594 L 197.785156 206.449219 L 197.800781 206.46875 L 197.800781 242.949219 C 197.800781 243.121094 197.820312 243.277344 197.835938 243.449219 C 197.835938 243.449219 197.835938 243.46875 197.835938 243.46875 C 197.90625 244.125 198.097656 244.746094 198.40625 245.300781 C 198.40625 245.320312 198.40625 245.320312 198.40625 245.320312 C 198.648438 245.734375 198.925781 246.132812 199.273438 246.460938 C 199.394531 246.5625 199.496094 246.667969 199.617188 246.773438 C 199.757812 246.875 199.878906 246.980469 200.015625 247.066406 C 200.136719 247.152344 200.277344 247.238281 200.414062 247.308594 C 200.96875 247.621094 201.589844 247.808594 202.230469 247.878906 C 202.421875 247.914062 202.59375 247.914062 202.785156 247.914062 C 202.957031 247.914062 203.148438 247.914062 203.320312 247.878906 C 203.511719 247.863281 203.683594 247.84375 203.875 247.792969 C 204.011719 247.757812 204.132812 247.742188 204.253906 247.6875 C 204.582031 247.601562 204.894531 247.464844 205.171875 247.289062 C 205.585938 247.082031 205.949219 246.804688 206.296875 246.460938 C 206.519531 246.21875 206.726562 245.976562 206.917969 245.699219 C 207.058594 245.472656 207.195312 245.25 207.300781 244.988281 C 207.402344 244.800781 207.472656 244.609375 207.523438 244.402344 C 207.628906 244.089844 207.695312 243.761719 207.730469 243.433594 C 207.75 243.277344 207.75 243.105469 207.75 242.933594 C 207.75 242.722656 207.730469 242.480469 207.695312 242.222656 C 207.679688 242.136719 207.664062 242.03125 207.628906 241.945312 L 207.628906 209.339844 L 241.117188 209.339844 C 241.117188 209.339844 241.375 209.339844 241.429688 209.339844 L 243.003906 209.320312 L 243.019531 209.320312 L 243.035156 209.304688 C 243.367188 209.183594 243.675781 209.027344 243.972656 208.835938 C 244.246094 208.648438 244.523438 208.441406 244.785156 208.179688 C 245.285156 207.660156 245.667969 206.988281 245.910156 206.261719 C 245.976562 206 246.046875 205.757812 246.097656 205.5 C 246.117188 205.445312 246.117188 205.378906 246.132812 205.324219 C 246.183594 204.996094 246.21875 204.667969 246.21875 204.355469 C 246.21875 203.335938 245.910156 202.386719 245.371094 201.589844 C 245.199219 201.328125 244.992188 201.070312 244.75 200.847656 C 244.644531 200.742188 244.523438 200.636719 244.402344 200.535156 C 244.160156 200.328125 243.902344 200.152344 243.625 200 L 243.609375 200 C 243.332031 199.84375 243.035156 199.722656 242.726562 199.617188 C 242.257812 199.480469 241.757812 199.394531 241.253906 199.394531 L 204.773438 199.394531 L 148.347656 150.023438 L 91.921875 199.394531 L 91.871094 199.445312 " fill-opacity="1" fill-rule="nonzero"/><path fill="#c3c2c1" d="M 240.304688 90.710938 L 207.679688 90.710938 L 207.679688 57.21875 C 207.679688 57.21875 207.679688 56.976562 207.679688 56.910156 L 207.679688 55.300781 C 207.558594 54.972656 207.402344 54.660156 207.195312 54.382812 C 207.023438 54.089844 206.796875 53.8125 206.539062 53.554688 C 206.070312 53.085938 205.449219 52.722656 204.773438 52.5 C 204.480469 52.378906 204.167969 52.289062 203.839844 52.238281 C 203.789062 52.222656 203.734375 52.203125 203.683594 52.203125 C 203.355469 52.152344 203.027344 52.117188 202.714844 52.117188 C 202.386719 52.117188 202.039062 52.152344 201.730469 52.222656 C 201.402344 52.289062 201.089844 52.394531 200.796875 52.515625 C 200.191406 52.757812 199.671875 53.121094 199.222656 53.570312 C 198.875 53.917969 198.582031 54.296875 198.355469 54.710938 C 197.976562 55.421875 197.75 56.234375 197.75 57.082031 L 197.75 93.5625 L 180.488281 110.828125 L 159.695312 122.640625 L 159.679688 122.640625 L 153.3125 116.292969 L 153.3125 75.070312 L 179.101562 49.28125 C 181.039062 47.34375 181.039062 44.195312 179.101562 42.257812 C 179.050781 42.1875 178.980469 42.136719 178.914062 42.085938 C 178.359375 41.582031 177.738281 41.238281 177.046875 41.03125 C 176.890625 40.976562 176.734375 40.925781 176.578125 40.910156 C 176.40625 40.875 176.230469 40.839844 176.058594 40.820312 C 175.902344 40.804688 175.746094 40.804688 175.59375 40.804688 C 175.28125 40.804688 174.96875 40.820312 174.675781 40.890625 C 174.484375 40.925781 174.277344 40.976562 174.085938 41.03125 C 173.808594 41.132812 173.535156 41.238281 173.257812 41.394531 C 172.824219 41.601562 172.445312 41.894531 172.082031 42.242188 C 172.011719 42.308594 171.976562 42.363281 171.925781 42.429688 C 171.75 42.621094 171.613281 42.8125 171.441406 43.054688 L 148.382812 66.113281 L 124.71875 42.449219 C 124.71875 42.449219 124.667969 42.394531 124.613281 42.34375 C 124.597656 42.328125 124.597656 42.308594 124.582031 42.292969 C 124.5625 42.273438 124.546875 42.273438 124.546875 42.257812 C 124.527344 42.242188 124.527344 42.242188 124.511719 42.222656 C 124.511719 42.222656 124.511719 42.222656 124.492188 42.207031 L 123.371094 41.097656 L 123.351562 41.097656 L 123.351562 41.082031 C 123.300781 41.0625 123.265625 41.046875 123.214844 41.03125 C 123.144531 40.996094 123.074219 40.976562 123.007812 40.960938 C 122.46875 40.753906 121.898438 40.648438 121.3125 40.648438 C 120.980469 40.648438 120.636719 40.699219 120.308594 40.789062 C 120.046875 40.839844 119.804688 40.925781 119.546875 41.03125 C 119.132812 41.203125 118.75 41.425781 118.386719 41.6875 C 118.179688 41.824219 117.972656 41.980469 117.800781 42.171875 C 117.730469 42.207031 117.660156 42.273438 117.59375 42.34375 C 117.472656 42.464844 117.367188 42.585938 117.246094 42.726562 C 117.019531 43.019531 116.8125 43.332031 116.65625 43.640625 C 116.605469 43.746094 116.554688 43.867188 116.503906 43.96875 C 116.449219 44.125 116.398438 44.28125 116.347656 44.4375 C 116.3125 44.59375 116.261719 44.75 116.226562 44.902344 C 116.105469 45.527344 116.105469 46.167969 116.226562 46.789062 C 116.292969 47.101562 116.382812 47.414062 116.503906 47.722656 C 116.554688 47.828125 116.605469 47.929688 116.65625 48.050781 C 116.8125 48.382812 117.019531 48.691406 117.246094 48.988281 C 117.367188 49.109375 117.472656 49.246094 117.59375 49.351562 L 117.59375 49.367188 L 143.382812 75.140625 L 143.382812 116.292969 L 137.035156 122.640625 L 116.207031 110.828125 L 116.191406 110.808594 L 98.945312 93.546875 L 98.894531 93.496094 L 98.894531 57.03125 C 98.894531 55.664062 98.339844 54.417969 97.441406 53.519531 C 97.320312 53.414062 97.199219 53.292969 97.078125 53.207031 C 96.472656 52.707031 95.726562 52.34375 94.929688 52.167969 C 94.601562 52.101562 94.273438 52.066406 93.929688 52.066406 C 93.753906 52.066406 93.582031 52.066406 93.410156 52.082031 C 93.234375 52.101562 93.082031 52.136719 92.925781 52.167969 C 92.613281 52.222656 92.300781 52.324219 92.007812 52.445312 C 91.574219 52.621094 91.160156 52.878906 90.78125 53.191406 C 90.640625 53.292969 90.539062 53.398438 90.417969 53.519531 C 90.054688 53.863281 89.757812 54.261719 89.535156 54.695312 C 89.308594 55.109375 89.152344 55.578125 89.050781 56.0625 C 89.015625 56.21875 89 56.371094 88.980469 56.527344 C 88.964844 56.703125 88.945312 56.875 88.945312 57.03125 C 88.964844 57.253906 88.980469 57.496094 89.015625 57.757812 C 89.015625 57.84375 89.050781 57.945312 89.066406 58.050781 L 89.066406 90.640625 L 55.578125 90.640625 C 55.578125 90.640625 55.335938 90.640625 55.265625 90.640625 L 53.691406 90.65625 L 53.675781 90.65625 C 53.347656 90.777344 53.035156 90.953125 52.742188 91.140625 C 52.449219 91.332031 52.171875 91.558594 51.910156 91.800781 C 51.566406 92.144531 51.269531 92.59375 51.0625 93.078125 C 50.90625 93.390625 50.785156 93.738281 50.699219 94.066406 C 50.597656 94.429688 50.527344 94.773438 50.511719 95.121094 C 50.492188 95.277344 50.492188 95.449219 50.492188 95.621094 C 50.492188 98.355469 52.707031 100.585938 55.457031 100.585938 L 91.921875 100.585938 L 148.347656 149.953125 L 204.773438 100.585938 L 204.824219 100.535156 L 241.308594 100.515625 C 244.058594 100.515625 246.273438 98.304688 246.273438 95.554688 C 246.273438 95.050781 246.203125 94.566406 246.0625 94.117188 C 245.839844 93.339844 245.40625 92.628906 244.820312 92.042969 C 244.472656 91.695312 244.074219 91.402344 243.660156 91.175781 C 243.367188 91.019531 243.070312 90.898438 242.761719 90.8125 C 242.640625 90.777344 242.519531 90.726562 242.398438 90.710938 C 242.050781 90.621094 241.671875 90.589844 241.308594 90.589844 C 241.066406 90.589844 240.824219 90.605469 240.5625 90.65625 C 240.476562 90.65625 240.390625 90.675781 240.304688 90.710938 " fill-opacity="1" fill-rule="nonzero"/><g clip-path="url(#7e884177e9)"><path fill="#c3c2c1" d="M 158.085938 254.710938 L 148.539062 245.164062 L 148.398438 245.300781 L 148.3125 245.214844 L 117.660156 275.867188 C 116.8125 276.714844 116.328125 277.789062 116.226562 278.910156 C 116.085938 280.328125 116.570312 281.800781 117.660156 282.890625 C 117.851562 283.097656 118.074219 283.289062 118.316406 283.445312 C 119.148438 284.03125 120.132812 284.359375 121.171875 284.359375 C 122.296875 284.359375 123.351562 283.980469 124.234375 283.289062 C 124.390625 283.167969 124.527344 283.027344 124.667969 282.890625 C 124.769531 282.804688 124.855469 282.699219 124.945312 282.578125 C 124.996094 282.507812 125.046875 282.457031 125.097656 282.386719 C 125.167969 282.285156 125.238281 282.199219 125.308594 282.09375 L 133.109375 274.308594 L 148.363281 259.035156 L 172.082031 282.75 C 173.015625 283.6875 174.261719 284.203125 175.59375 284.203125 C 176.5625 284.203125 177.496094 283.929688 178.289062 283.410156 C 178.308594 283.410156 178.324219 283.390625 178.34375 283.375 C 178.378906 283.355469 178.394531 283.339844 178.429688 283.324219 C 178.671875 283.148438 178.894531 282.976562 179.101562 282.769531 C 179.121094 282.75 179.121094 282.734375 179.136719 282.71875 C 180.554688 281.265625 181.214844 278.910156 180.523438 277.128906 L 170.800781 267.425781 L 159.558594 256.199219 L 158.085938 254.710938 " fill-opacity="1" fill-rule="nonzero"/></g><path fill="#c3c2c1" d="M 231.378906 217.15625 L 215.792969 217.15625 L 215.773438 217.347656 L 215.652344 217.347656 L 215.652344 260.695312 C 215.652344 263.445312 217.886719 265.679688 220.617188 265.679688 C 220.949219 265.679688 221.277344 265.644531 221.585938 265.574219 C 222.15625 265.472656 222.695312 265.246094 223.179688 264.953125 C 223.523438 264.746094 223.835938 264.503906 224.128906 264.226562 C 224.214844 264.140625 224.285156 264.050781 224.371094 263.964844 C 224.875 263.378906 225.238281 262.703125 225.425781 261.960938 C 225.53125 261.5625 225.582031 261.128906 225.582031 260.695312 C 225.582031 260.523438 225.566406 260.316406 225.53125 260.125 C 225.515625 259.988281 225.496094 259.847656 225.480469 259.695312 L 225.480469 227.085938 L 259.019531 227.085938 C 259.832031 227.085938 260.628906 226.898438 261.339844 226.515625 C 261.769531 226.292969 262.167969 225.996094 262.515625 225.632812 C 263.464844 224.699219 263.984375 223.453125 263.984375 222.121094 C 263.96875 221.429688 263.828125 220.738281 263.585938 220.082031 C 263.085938 218.785156 262.167969 217.660156 261.007812 217.15625 L 231.378906 217.15625 " fill-opacity="1" fill-rule="nonzero"/><path fill="#ffffff" d="M 102.179688 165.9375 C 101.003906 162.359375 100.242188 158.605469 99.894531 154.710938 C 99.742188 153.171875 99.671875 151.597656 99.671875 150.023438 C 99.671875 148.46875 99.742188 146.929688 99.878906 145.40625 C 100.226562 141.496094 101.003906 137.707031 102.179688 134.09375 C 104.480469 134.835938 106.746094 135.667969 108.976562 136.582031 C 117.246094 139.957031 124.910156 144.507812 131.757812 150.023438 C 124.910156 155.523438 117.246094 160.074219 108.976562 163.464844 C 106.746094 164.382812 104.480469 165.210938 102.179688 165.9375 " fill-opacity="1" fill-rule="evenodd"/><path fill="#ffffff" d="M 25.703125 156.667969 C 24.597656 155.992188 23.492188 155.28125 22.402344 154.539062 L 22.089844 154.765625 L 22.070312 154.765625 L 21.761719 154.972656 L 21.726562 155.007812 C 21.414062 155.195312 21.121094 155.402344 20.808594 155.613281 L 20.742188 155.644531 L 20.480469 155.800781 L 20.359375 155.871094 C 19.980469 156.128906 19.5625 156.371094 19.183594 156.632812 L 19.011719 156.734375 L 18.769531 156.875 L 18.699219 156.925781 L 18.421875 157.097656 L 18.078125 157.308594 L 17.816406 157.445312 L 17.714844 157.515625 L 17.4375 157.6875 L 17.332031 157.738281 C 17.054688 157.894531 16.777344 158.066406 16.503906 158.222656 L 16.3125 158.328125 L 16.105469 158.449219 L 15.949219 158.535156 L 15.6875 158.671875 L 15.65625 158.707031 C 15.324219 158.878906 15.015625 159.054688 14.6875 159.226562 L 14.582031 159.296875 L 14.339844 159.417969 L 14.148438 159.519531 L 13.941406 159.625 L 13.597656 159.816406 L 13.578125 159.832031 L 13.371094 159.9375 L 13.179688 160.023438 L 12.957031 160.144531 L 12.765625 160.246094 L 12.542969 160.367188 L 12.179688 160.542969 L 11.988281 160.628906 L 11.15625 161.042969 C 11.019531 161.113281 10.898438 161.179688 10.757812 161.234375 L 10.726562 161.269531 L 10.308594 161.457031 L 10.242188 161.476562 C 10.101562 161.542969 9.980469 161.613281 9.84375 161.683594 L 9.789062 161.699219 L 9.460938 161.855469 L 9.203125 161.960938 L 8.753906 162.183594 L 8.492188 162.289062 L 8.320312 162.375 L 8.0625 162.480469 L 7.871094 162.566406 L 7.507812 162.738281 L 7.074219 162.910156 L 6.867188 162.996094 L 6.625 163.101562 L 6.433594 163.1875 L 6.417969 163.1875 L 6.035156 163.359375 L 6.019531 163.359375 C 5.863281 163.414062 5.726562 163.480469 5.570312 163.535156 L 5.464844 163.585938 L 5.121094 163.722656 L 5.015625 163.777344 C 4.859375 163.828125 4.722656 163.878906 4.566406 163.949219 L 4.550781 163.949219 C 4.410156 164 4.253906 164.070312 4.117188 164.121094 L 4.011719 164.15625 L 3.667969 164.296875 L 3.546875 164.347656 C 3.40625 164.398438 3.269531 164.433594 3.132812 164.503906 L 3.097656 164.503906 C 2.941406 164.554688 2.785156 164.625 2.628906 164.675781 L 2.613281 164.691406 L 2.214844 164.832031 L 2.058594 164.882812 L 1.730469 165.003906 L 1.589844 165.054688 L 1.175781 165.195312 L 1.105469 165.230469 C 0.96875 165.28125 0.8125 165.332031 0.675781 165.367188 L 0.621094 165.402344 L 0.136719 165.558594 C 0.0859375 165.574219 0.0507812 165.574219 0 165.609375 C 1.226562 160.609375 1.867188 155.386719 1.867188 150.023438 C 1.867188 144.660156 1.226562 139.4375 0 134.4375 C 0.378906 134.578125 0.761719 134.699219 1.125 134.820312 L 1.140625 134.835938 C 1.46875 134.941406 1.78125 135.0625 2.09375 135.183594 L 2.164062 135.199219 L 2.542969 135.339844 L 2.664062 135.371094 C 3.132812 135.546875 3.597656 135.71875 4.082031 135.910156 C 4.394531 136.03125 4.6875 136.152344 5 136.273438 L 5.136719 136.324219 L 5.464844 136.460938 L 5.585938 136.515625 L 5.914062 136.652344 L 6.019531 136.6875 L 6.035156 136.703125 C 6.175781 136.757812 6.3125 136.808594 6.453125 136.859375 L 6.609375 136.929688 L 6.902344 137.050781 L 7.039062 137.121094 C 7.472656 137.308594 7.921875 137.5 8.371094 137.707031 L 8.804688 137.882812 L 8.890625 137.933594 L 9.324219 138.140625 L 9.339844 138.140625 C 9.480469 138.210938 9.617188 138.261719 9.757812 138.332031 L 9.910156 138.398438 C 10.1875 138.539062 10.464844 138.675781 10.742188 138.796875 L 10.757812 138.796875 C 11.035156 138.9375 11.3125 139.074219 11.574219 139.214844 L 11.726562 139.28125 L 12.089844 139.472656 L 12.144531 139.488281 C 12.59375 139.714844 13.058594 139.941406 13.507812 140.179688 L 13.527344 140.199219 C 13.820312 140.355469 14.113281 140.511719 14.425781 140.683594 C 15.03125 140.996094 15.636719 141.324219 16.226562 141.667969 L 16.242188 141.667969 C 16.503906 141.824219 16.777344 141.980469 17.054688 142.152344 L 17.230469 142.238281 L 17.539062 142.429688 L 17.59375 142.449219 C 18.300781 142.863281 19.011719 143.296875 19.703125 143.746094 L 19.753906 143.78125 L 19.773438 143.78125 L 19.824219 143.8125 C 20.101562 143.988281 20.359375 144.160156 20.621094 144.316406 L 20.652344 144.351562 C 20.773438 144.417969 20.929688 144.523438 21.070312 144.609375 L 21.085938 144.628906 C 21.484375 144.886719 21.882812 145.144531 22.261719 145.40625 L 22.402344 145.507812 C 23.457031 144.800781 24.546875 144.089844 25.617188 143.417969 C 28.351562 141.753906 31.152344 140.199219 34.058594 138.796875 C 36.480469 137.640625 38.972656 136.566406 41.515625 135.613281 C 44.75 134.402344 48.054688 133.347656 51.445312 132.519531 C 58.675781 130.703125 66.234375 129.714844 74.019531 129.714844 C 81.921875 129.714844 89.621094 130.71875 96.9375 132.585938 C 95.640625 136.6875 94.777344 140.976562 94.429688 145.40625 C 94.292969 146.929688 94.238281 148.46875 94.238281 150.023438 C 94.238281 151.597656 94.308594 153.171875 94.429688 154.710938 C 94.792969 159.121094 95.640625 163.378906 96.9375 167.441406 C 89.621094 169.328125 81.921875 170.332031 74.019531 170.332031 C 66.269531 170.332031 58.742188 169.378906 51.546875 167.5625 C 48.121094 166.714844 44.765625 165.660156 41.515625 164.433594 C 39.023438 163.5 36.601562 162.460938 34.234375 161.320312 C 31.292969 159.917969 28.457031 158.363281 25.703125 156.667969 " fill-opacity="1" fill-rule="evenodd"/></svg>