<svg xmlns="http://www.w3.org/2000/svg" xmlns:xlink="http://www.w3.org/1999/xlink" width="400" zoomAndPan="magnify" viewBox="0 0 300 299.999988" height="400" preserveAspectRatio="xMidYMid meet" version="1.0"><defs><clipPath id="1c5efe4edf"><path d="M 3.6875 98 L 181 98 L 181 232 L 3.6875 232 Z M 3.6875 98 " clip-rule="nonzero"/></clipPath><clipPath id="844caee899"><path d="M 189 64.175781 L 299 64.175781 L 299 191 L 189 191 Z M 189 64.175781 " clip-rule="nonzero"/></clipPath></defs><path fill="#ffffff" d="M 381.816406 177.324219 C 321.273438 156.203125 280.003906 162.011719 251.933594 178.027344 C 188.046875 213.84375 179.246094 299.378906 179.246094 299.378906 C 205.910156 248.691406 255.890625 203.722656 311.507812 201.789062 C 311.507812 201.789062 244.628906 225.019531 204.0625 285.472656 C 303.058594 329.738281 316.789062 184.890625 381.816406 177.324219 " fill-opacity="1" fill-rule="evenodd"/><g clip-path="url(#1c5efe4edf)"><path fill="#c3c2c1" d="M 3.6875 106.835938 C 60.273438 91.523438 97.496094 99.535156 122.046875 115.902344 C 177.925781 152.683594 180.390625 231.265625 180.390625 231.265625 C 159.359375 183.394531 116.679688 139.132812 66.167969 133.675781 C 66.167969 133.675781 125.65625 159.195312 158.65625 216.921875 C 65.550781 250.890625 62.382812 117.925781 3.6875 106.835938 " fill-opacity="1" fill-rule="evenodd"/></g><g clip-path="url(#844caee899)"><path fill="#58595b" d="M 298.921875 64.863281 C 254.21875 64.246094 228.085938 77.09375 213.039062 93.902344 C 178.628906 131.652344 191.652344 190.257812 191.652344 190.257812 C 198.164062 150.835938 221.398438 110.09375 257.742188 96.542969 C 257.742188 96.542969 218.582031 126.636719 205.03125 175.5625 C 280.355469 183.132812 257.566406 84.132812 298.921875 64.863281 " fill-opacity="1" fill-rule="evenodd"/></g></svg>