<svg xmlns="http://www.w3.org/2000/svg" xmlns:xlink="http://www.w3.org/1999/xlink" width="400" zoomAndPan="magnify" viewBox="0 0 300 299.999988" height="400" preserveAspectRatio="xMidYMid meet" version="1.0"><path fill="#c3c2c1" d="M 135.035156 223.003906 L 136.316406 219.617188 C 136.71875 218.59375 137.21875 217.417969 137.75 216.507812 C 138.03125 216.023438 138.261719 215.511719 138.574219 215 L 141.375 210.921875 L 148.742188 203.242188 C 150.203125 201.96875 151.816406 200.871094 153.328125 199.652344 C 155.492188 197.917969 162.199219 193.800781 164.523438 192.425781 C 165.519531 191.835938 166.5 191.429688 167.480469 190.839844 L 178.957031 183.765625 C 179.527344 183.414062 179.808594 183.179688 180.347656 182.820312 C 183.417969 180.78125 186.949219 178.484375 189.667969 176.054688 C 190.121094 175.648438 190.476562 175.34375 190.9375 174.984375 C 192.214844 173.988281 193.214844 172.683594 194.515625 171.6875 L 197.976562 168.144531 C 200.25 165.25 202.253906 162.664062 204.359375 159.628906 C 208.289062 153.972656 204.578125 161.894531 203.824219 163.214844 C 201.773438 166.792969 199.378906 170.027344 196.457031 172.941406 L 196.242188 173.15625 L 195.765625 173.589844 C 193.734375 175.578125 191.808594 177.441406 189.597656 179.226562 L 188.300781 180.265625 C 187.027344 181.347656 185.613281 182.25 184.28125 183.253906 C 181.402344 185.421875 173.351562 190.433594 169.875 192.199219 L 165.335938 194.792969 C 163.40625 195.964844 161.285156 196.957031 159.40625 198.207031 C 158.9375 198.519531 158.449219 198.804688 157.980469 199.117188 C 157.511719 199.425781 157.078125 199.738281 156.582031 200.050781 C 155.140625 200.953125 153.625 201.863281 152.273438 202.878906 L 147.183594 207.128906 C 146.917969 207.34375 146.777344 207.449219 146.5625 207.675781 C 146.480469 207.761719 146.371094 207.886719 146.253906 208.015625 C 143.996094 210.484375 143.863281 210.480469 141.652344 213.40625 C 139.410156 216.375 137.390625 220.785156 136.328125 224.429688 C 134.808594 230.324219 135.027344 232.917969 134.894531 238.800781 C 134.753906 245.035156 133.601562 234.527344 133.570312 233.628906 C 133.449219 229.875 133.902344 226.769531 134.976562 223.179688 Z M 73.804688 259.414062 C 73.070312 257.367188 70.144531 258.019531 70.355469 260.304688 C 70.570312 262.679688 74.277344 262.023438 73.804688 259.414062 Z M 49.871094 70.039062 C 49.644531 72.785156 51.605469 69.484375 51.925781 68.691406 C 52.121094 68.203125 53.1875 65.210938 52.226562 64.953125 C 51.257812 64.695312 50.332031 67.824219 50.191406 68.398438 C 50.050781 68.964844 49.957031 69.464844 49.871094 70.039062 Z M 75 272.933594 C 76.984375 272.984375 78.191406 271.097656 76.828125 269.449219 C 75.613281 267.980469 72.339844 268.929688 73.230469 271.539062 C 73.519531 272.390625 74.136719 272.800781 75 272.933594 Z M 260.144531 80.644531 C 259.378906 80.40625 258.660156 81.21875 258.78125 82.117188 C 258.988281 83.027344 261.011719 87.363281 261.695312 87.988281 C 262.28125 88.527344 262.699219 88.300781 262.605469 87.5 C 262.441406 86.109375 261.34375 81.285156 260.144531 80.644531 Z M 109.074219 265.8125 C 105.859375 266.3125 106.601562 270.691406 109.746094 270.535156 C 112.3125 270.410156 112.992188 265.789062 109.074219 265.8125 Z M 25.644531 86.632812 C 25.644531 89.984375 30.253906 89.789062 30.523438 86.589844 C 30.710938 84.386719 27.929688 83.40625 26.328125 84.847656 C 25.976562 85.160156 25.644531 86.007812 25.644531 86.632812 Z M 166.046875 128.664062 C 167.609375 127.058594 167.988281 125.125 164.984375 126.644531 C 163.179688 127.585938 162.136719 128.066406 160.21875 128.761719 C 154.789062 130.730469 161.453125 130.65625 163.097656 130.253906 C 164.203125 129.980469 164.90625 129.566406 165.796875 128.878906 Z M 255.34375 48.753906 C 255.324219 47.007812 253.890625 46.058594 252.273438 46.195312 C 248.648438 46.503906 249.328125 52.152344 252.917969 51.53125 C 254.359375 51.28125 255.15625 50.140625 255.34375 48.753906 Z M 45.886719 57.699219 C 45.886719 58.914062 46.425781 59.96875 47.351562 60.515625 C 48.148438 60.878906 51.371094 62.457031 52.03125 62.332031 C 52.914062 62.164062 52.679688 60.855469 52.613281 60.21875 C 52.421875 58.558594 51.707031 57.363281 50.453125 56.285156 L 50.269531 56.128906 C 49.640625 55.738281 49.070312 55.59375 48.339844 55.503906 L 48.089844 55.492188 C 46.976562 55.492188 45.886719 56.585938 45.886719 57.699219 Z M 157.507812 138.507812 C 157.914062 137.585938 157.105469 137.429688 156.320312 137.34375 C 154.863281 137.175781 153.550781 137.449219 152.003906 137.277344 C 150.761719 137.140625 146.605469 136.238281 145.78125 136.609375 C 144.371094 137.234375 148.144531 139.570312 148.675781 139.839844 C 151.625 141.328125 155.371094 141.375 157.507812 138.507812 Z M 66.261719 265.402344 C 68.449219 262.214844 64.589844 258.597656 61.492188 260.558594 C 58.742188 262.300781 59.839844 267.066406 63.550781 266.878906 C 64.695312 266.816406 65.554688 266.277344 66.261719 265.402344 Z M 205.140625 261.464844 C 207.328125 257.25 201.132812 254.121094 198.851562 257.855469 C 197.128906 260.675781 199.554688 263.949219 202.722656 263.261719 C 203.832031 263.019531 204.53125 262.386719 205.140625 261.464844 Z M 58.5625 79.050781 C 58.40625 80.601562 59.480469 80.414062 60.601562 80.0625 C 64.773438 78.730469 66.851562 77.425781 69.015625 73.507812 C 70.160156 71.433594 69.464844 71.261719 67.441406 71.5625 C 65.488281 71.894531 63.53125 72.78125 61.972656 73.996094 C 61.425781 74.445312 60.96875 74.90625 60.496094 75.433594 C 59.546875 76.507812 58.863281 77.640625 58.5625 79.050781 Z M 65.859375 255.101562 C 65.390625 255.972656 65.894531 256.421875 66.746094 256.625 C 68.316406 256.914062 71.320312 255.65625 73.132812 255.359375 C 77.644531 254.621094 81.558594 254.84375 86.046875 255.558594 L 86.277344 255.597656 C 86.816406 255.683594 89.777344 256.074219 89.601562 255.015625 C 89.429688 253.972656 84.863281 253.058594 83.820312 252.898438 C 81.542969 252.539062 79.035156 252.375 76.730469 252.523438 L 76.574219 252.535156 C 74.40625 252.714844 67.128906 253.433594 65.859375 255.101562 Z M 242.917969 86.519531 C 240.65625 85.703125 240.203125 86.425781 240.785156 88.605469 C 242.265625 93.761719 246.542969 95.664062 251.398438 96.765625 C 254.191406 97.398438 253.015625 95.765625 252.054688 94.261719 C 249.476562 90.207031 247.492188 88.207031 242.917969 86.519531 Z M 63.78125 155.402344 C 63.703125 157.421875 64.542969 157.039062 66.101562 156.40625 C 70.117188 154.707031 73.101562 152.054688 73.007812 147.402344 C 72.996094 146.714844 72.960938 143.996094 71.929688 144.058594 C 71.191406 144.105469 68.164062 146.082031 67.492188 146.652344 C 66.582031 147.421875 65.976562 148.207031 65.371094 149.226562 C 64.269531 151.140625 63.882812 153.222656 63.78125 155.402344 Z M 258.246094 77.730469 C 258.824219 80.945312 260.007812 78.652344 261.515625 77.324219 C 263.71875 75.378906 268.765625 70.890625 266.835938 67.566406 C 265.726562 65.65625 262.917969 66.015625 261.359375 67.070312 C 259.625 68.242188 258.835938 70.191406 258.308594 72.136719 C 257.800781 74.078125 257.914062 75.773438 258.246094 77.730469 Z M 44.226562 207.292969 C 46.238281 206.511719 48.789062 204.785156 50.558594 203.546875 C 52.035156 202.511719 51.894531 202.113281 49.972656 201.894531 C 43.203125 201.179688 39.242188 201.464844 34.011719 206.246094 C 31.964844 208.117188 33.40625 208.195312 35.394531 208.378906 C 38.28125 208.640625 40.738281 208.453125 43.507812 207.558594 C 43.75 207.472656 43.988281 207.382812 44.226562 207.292969 Z M 67.5 32.347656 L 67.253906 32.621094 C 67.097656 32.792969 67.035156 32.855469 66.871094 33.019531 C 65.992188 34.109375 65.09375 35.199219 64.222656 36.292969 C 63.804688 36.882812 60.484375 41.824219 62.222656 41.976562 C 63.433594 42.085938 65.15625 39.171875 65.886719 38.269531 C 66.652344 37.320312 67.484375 36.390625 68.273438 35.457031 L 68.945312 34.703125 C 69.980469 33.679688 72.609375 30.929688 74.050781 30.933594 C 75.304688 30.9375 75.25 31.425781 76.875 31.046875 C 78.457031 30.617188 79.203125 29.371094 79.476562 27.839844 C 79.621094 26.667969 79.277344 25.703125 78.484375 24.839844 C 76.554688 23.226562 73.949219 23.199219 72.445312 25.355469 C 71.324219 26.964844 72.398438 27.921875 71.421875 28.949219 C 70.542969 29.871094 69.046875 30.925781 68.019531 31.859375 C 67.84375 32.019531 67.671875 32.183594 67.5 32.347656 Z M 239.886719 39.171875 C 237.648438 36.128906 239.984375 36.296875 239.070312 33.785156 C 237.707031 30.035156 231.238281 30.921875 231.542969 35.761719 C 231.679688 37.964844 233.335938 38.699219 235.199219 39.140625 C 237.597656 39.707031 237.808594 40.59375 239.117188 42.609375 C 241.902344 46.972656 243.371094 50.398438 245.175781 55.199219 C 246.296875 58.191406 247.417969 56.894531 247.101562 54.488281 C 246.722656 51.882812 245.5 48.648438 244.375 46.261719 C 243.078125 43.597656 241.628906 41.546875 239.886719 39.171875 Z M 57.136719 212.613281 C 55.988281 212.640625 47.460938 212.910156 49.738281 215.476562 C 51.09375 217 54.339844 219.050781 56.304688 219.660156 C 60.644531 220.75 64.195312 220.003906 68.542969 219.839844 C 74.78125 219.605469 70.476562 217.855469 67.785156 216.390625 C 63.964844 214.316406 62.652344 213.25 58.152344 212.664062 C 57.871094 212.636719 57.605469 212.625 57.320312 212.617188 Z M 57.300781 123.347656 C 53.140625 124.820312 50.246094 127.523438 47.386719 130.773438 C 46.003906 132.367188 46.792969 132.53125 48.648438 132.441406 C 56.132812 131.941406 61.707031 130.792969 66.75 124.753906 C 68.542969 122.605469 67.414062 122.613281 65.253906 122.5 C 63.886719 122.429688 62.613281 122.425781 61.25 122.527344 L 61.066406 122.542969 C 59.757812 122.683594 58.5625 122.976562 57.300781 123.347656 Z M 141.632812 107.648438 C 145.265625 107.542969 148.773438 106.160156 151.648438 103.949219 C 154.808594 101.527344 149.53125 103.085938 148.515625 103.238281 C 144.863281 103.789062 140.613281 102.761719 137.300781 101.226562 L 137.03125 101.09375 C 136.601562 100.878906 136.269531 100.703125 135.839844 100.472656 C 133.105469 98.828125 131.667969 97.378906 129.238281 95.519531 C 122.949219 90.699219 128.621094 99.851562 129.867188 101.417969 C 130.320312 101.988281 130.800781 102.53125 131.289062 103.078125 C 132.519531 104.300781 132.828125 104.625 134.261719 105.550781 C 136.359375 106.898438 139.109375 107.648438 141.632812 107.648438 Z M 94.320312 240.859375 C 96.84375 239.476562 97.824219 239.777344 100.507812 239.207031 C 103.324219 238.609375 100.210938 237.707031 99.207031 237.320312 C 95.550781 235.925781 92.929688 235.332031 89.027344 235.035156 C 82.925781 234.753906 77.742188 236.609375 73.644531 241.253906 C 72.722656 242.300781 71.683594 243.777344 73.546875 244.5 C 75.675781 245.328125 80.210938 245.980469 82.503906 245.738281 C 86.835938 245.285156 90.59375 242.914062 94.320312 240.859375 Z M 66.648438 63.152344 C 67.230469 62.921875 68.589844 62.007812 68.589844 61.074219 C 68.589844 59.828125 68.609375 59.011719 67.042969 58.078125 C 65.324219 57.082031 64.542969 57.117188 62.589844 57.1875 C 61.054688 57.347656 61.035156 57.5 59.691406 57.898438 C 56.527344 58.835938 60.242188 55.703125 60.890625 55.261719 C 61.574219 54.84375 62.175781 54.695312 62.960938 54.582031 C 63.570312 54.570312 64.203125 54.621094 64.816406 54.65625 C 65.242188 54.675781 65.667969 54.699219 66.097656 54.710938 L 67.035156 54.714844 C 69.972656 54.671875 74.1875 53.128906 75.59375 50.378906 C 76.644531 48.328125 75.394531 46.207031 73.066406 46.019531 C 70.828125 45.898438 70.125 46.441406 68.273438 47.351562 C 66.011719 48.464844 67.265625 46.179688 65.859375 45.355469 L 65.585938 45.21875 L 65.273438 45.125 C 62.285156 44.941406 60.246094 47.304688 60.699219 50.199219 C 60.929688 51.789062 60.835938 52.742188 59.402344 53.703125 C 58.214844 54.496094 58.164062 53.675781 58.207031 52.683594 C 58.230469 52.292969 58.28125 51.898438 58.3125 51.507812 C 58.445312 49.320312 58.289062 47.820312 57.488281 45.769531 L 57.394531 45.542969 C 55.585938 41.933594 51.757812 42.371094 50.835938 45.785156 C 49.957031 50.8125 52.113281 52.417969 54.585938 56.222656 C 55.640625 58.367188 55.5625 58.503906 54.535156 60.601562 C 53.710938 62.433594 53.289062 63.824219 55.671875 61.96875 C 56.066406 61.621094 56.253906 61.457031 56.746094 61.242188 C 57.800781 60.941406 59.121094 61.644531 60.0625 62.078125 L 60.253906 62.160156 L 60.480469 62.25 C 62.171875 62.839844 64.90625 63.75 66.648438 63.152344 Z M 250.617188 62.5 C 250.773438 66.078125 251.128906 66.21875 252.097656 69.457031 C 253.578125 74.402344 248.363281 66.972656 247.761719 66.265625 C 246.105469 64.3125 244.757812 62.976562 242.472656 61.75 C 241.644531 61.378906 240.921875 61.1875 240.03125 61.015625 C 238.773438 60.824219 237.769531 60.9375 236.761719 61.75 C 234.546875 63.789062 236.15625 69.015625 241.78125 70.167969 C 243.390625 70.375 248.96875 70.480469 249.664062 72.078125 C 250.15625 73.199219 246.738281 73.070312 246.019531 73.238281 C 244.671875 73.546875 244.027344 74.179688 243.113281 75.160156 C 242.757812 75.644531 242.613281 76.003906 242.429688 76.566406 C 241.679688 79.289062 244.355469 80.742188 246.851562 80.351562 C 249.210938 79.734375 249.476562 79.203125 251.464844 78.347656 C 254.457031 77.128906 254.253906 77.886719 256.328125 79.472656 C 258.40625 81.058594 257.3125 78.621094 256.742188 77.71875 C 255.386719 75.566406 254.636719 75.230469 255.574219 72.527344 L 255.90625 71.636719 C 256.378906 70.5 257.019531 69.347656 257.554688 68.226562 C 258.40625 66.175781 258.855469 63.96875 258.628906 61.742188 C 258.273438 59.113281 256.441406 57.09375 253.636719 57.640625 C 252.660156 57.832031 252.210938 58.371094 251.652344 59.125 C 250.875 60.261719 250.65625 61.128906 250.617188 62.5 Z M 220.480469 287.898438 C 228.285156 291.152344 236.46875 290.800781 244.40625 288.273438 C 246.246094 287.671875 247.933594 286.855469 249.664062 286 C 251.480469 285.101562 253.261719 283.816406 254.898438 282.667969 C 257.609375 280.675781 260.613281 277.722656 262.539062 274.957031 C 265.097656 271.28125 267.046875 266.871094 267.859375 262.457031 C 267.914062 262.148438 267.960938 261.839844 268.007812 261.53125 C 269.238281 251.824219 265.210938 241.9375 256.632812 236.878906 C 252.5 234.46875 246.988281 232.390625 242.164062 232.347656 C 237.949219 232.308594 245.820312 235.234375 246.417969 235.53125 C 253.308594 238.941406 258.320312 247.113281 259.058594 254.660156 C 259.660156 262.160156 257.9375 267.703125 253.457031 273.734375 C 246.941406 282.25 236.671875 286.363281 226.070312 285.042969 C 219.464844 284.054688 215.476562 282.054688 210.746094 277.359375 C 209.261719 275.886719 204.839844 271.644531 207.867188 277.109375 C 210.570312 281.984375 215.460938 285.660156 220.480469 287.898438 Z M 280.238281 180.941406 C 281.355469 183.53125 281.199219 184.09375 279.5 186.316406 C 278.367188 187.746094 275.863281 190.460938 273.9375 190.460938 C 273.136719 190.160156 274.144531 187.386719 274.300781 186.671875 C 274.878906 184.046875 275.007812 181.308594 274.585938 178.652344 C 274.308594 177.480469 273.648438 175.304688 272.113281 176.78125 C 271.527344 177.347656 271.328125 178.097656 271.246094 178.878906 C 271.347656 182.4375 272.121094 183.738281 271.347656 187.65625 C 270.085938 194.070312 265.792969 198.355469 260.445312 201.714844 C 257.652344 203.371094 259.40625 200.808594 260.125 199.730469 C 261.585938 197.53125 262.574219 196.464844 263.574219 193.910156 C 264.558594 191.074219 265.171875 186.46875 263.457031 183.828125 C 262.378906 182.171875 261.292969 183.933594 260.535156 184.960938 C 259.085938 186.917969 258.140625 188.921875 257.390625 191.230469 C 255.855469 196.214844 257.871094 199.578125 255.652344 203.246094 C 251.207031 209.378906 247.019531 209.773438 241.085938 213.300781 C 237.472656 215.449219 243.449219 214.019531 244.347656 213.867188 C 250.621094 212.792969 250.429688 213.726562 256.40625 215.007812 C 261.75 216.054688 266.941406 215.59375 271.199219 211.863281 C 273.800781 209.582031 271.050781 209.445312 268.988281 209.125 C 262.683594 208.160156 261.628906 208.535156 255.566406 210.0625 C 250.15625 211.421875 254.207031 208.941406 256.03125 207.488281 C 259.421875 204.878906 261.433594 203.214844 265.804688 203.445312 C 272.035156 203.847656 276.425781 204.820312 281.628906 200.398438 C 283.535156 198.78125 282.828125 198.625 280.691406 198.074219 C 277.621094 197.28125 275.308594 197.207031 272.253906 198.121094 C 271.867188 198.242188 271.484375 198.367188 271.097656 198.492188 C 267.25 199.671875 269.0625 197.984375 270.648438 196.367188 C 276.691406 190.621094 279.15625 192.421875 286.488281 193.410156 C 290.359375 193.929688 293.695312 193.355469 297.042969 191.308594 C 297.933594 190.734375 299.8125 188.699219 299.917969 187.441406 C 299.410156 187.101562 298.625 186.558594 298.007812 187.078125 C 296.320312 188.5 294.464844 189.804688 292.257812 190.289062 C 290.425781 190.601562 284.457031 190.785156 282.984375 189.863281 C 281.527344 188.953125 286.296875 188.167969 286.585938 188.132812 C 287.910156 187.964844 289.285156 187.941406 290.625 187.839844 C 291.054688 187.800781 291.421875 187.746094 291.84375 187.667969 C 293.9375 187.242188 295.75 186.230469 297.363281 184.886719 L 298.492188 183.679688 C 299.453125 182.363281 298.855469 181.6875 297.582031 180.957031 C 293.625 179.191406 289.40625 181.234375 286.441406 183.925781 C 285.597656 184.695312 281.644531 188.183594 283.625 184.386719 C 286.433594 179.191406 292.097656 176.542969 293.648438 170.375 C 293.917969 169.222656 293.921875 168.296875 293.601562 167.160156 C 293.351562 166.5625 292.84375 166.292969 292.261719 166.292969 C 290.8125 166.675781 290.707031 168.632812 290.335938 169.835938 C 289.710938 171.847656 287.648438 176.738281 285.695312 177.621094 C 284.90625 177.761719 285.015625 177.058594 285.082031 176.40625 C 285.257812 174.757812 285.582031 173.945312 285.460938 172.128906 C 285.398438 171.128906 284.640625 166.371094 283.339844 166.585938 C 282.210938 166.773438 279.953125 169.707031 279.402344 170.8125 C 277.730469 174.1875 278.878906 177.691406 280.238281 180.941406 Z M 95.257812 271.300781 C 94.199219 270.992188 93.34375 270.480469 92.4375 269.871094 L 92.257812 269.71875 C 90.3125 267.808594 90.601562 265.21875 92.492188 263.367188 C 97.292969 260.378906 99.746094 263.660156 103.925781 265.558594 C 104.867188 265.984375 106.574219 266.375 106.660156 264.859375 C 106.722656 263.71875 105.300781 262.441406 104.589844 261.640625 C 102.449219 259.035156 98.871094 254.535156 101.714844 251.242188 C 102.957031 249.800781 105.308594 249.171875 107.101562 249.921875 C 111.320312 251.691406 110.304688 257.933594 110.144531 261.542969 L 110.136719 261.753906 C 110.125 262.5 110.121094 264.632812 111.351562 264.359375 C 112.222656 264.167969 112.867188 261.992188 113.1875 261.21875 C 114.214844 258.882812 117.136719 252.445312 120.484375 254.835938 L 120.6875 254.984375 C 122.722656 256.554688 121.507812 259.675781 120.222656 261.320312 C 119.652344 262.023438 119.027344 262.5625 118.320312 263.117188 C 117.355469 263.753906 113.710938 265.960938 113.453125 266.914062 C 112.949219 268.785156 116.476562 267.765625 117.269531 267.519531 C 119.164062 266.929688 121.011719 266.074219 122.839844 265.300781 C 125.242188 264.34375 126.949219 263.824219 129.179688 265.511719 C 131.070312 267.585938 131.65625 270.296875 129.375 272.320312 C 125.085938 275.859375 119.816406 272.058594 115.800781 270.136719 C 112.359375 269.070312 112.867188 270.480469 114.511719 272.660156 C 116.1875 274.886719 121.035156 277.664062 120.234375 282.179688 C 119.765625 284.816406 115.917969 286.808594 112.722656 282.039062 C 110.886719 279.300781 111.703125 275.800781 110.402344 273.023438 L 110.199219 272.726562 C 109.566406 272.1875 109.296875 272.636719 109.007812 273.3125 C 107.363281 277.769531 108.769531 284.261719 103.128906 286.402344 C 99.699219 287.703125 97.207031 285.222656 97.285156 281.804688 L 97.296875 281.4375 C 97.320312 280.964844 97.382812 280.609375 97.480469 280.152344 C 98.316406 276.664062 100.976562 274.65625 103.832031 272.816406 C 104.425781 272.441406 107.070312 270.726562 105.5625 270.003906 L 105.179688 269.871094 C 103.714844 269.492188 100.664062 270.925781 99.117188 271.359375 C 97.714844 271.671875 96.652344 271.625 95.257812 271.300781 Z M 86.691406 262.480469 C 84.8125 265.675781 85.195312 269.171875 87.425781 272.09375 C 89.394531 274.355469 89.539062 274.277344 92.246094 275.351562 C 95.347656 276.582031 93.234375 278.003906 92.664062 280.613281 C 91.695312 285.03125 93.820312 289.003906 97.914062 290.804688 C 102.28125 292.28125 104.5625 291.546875 107.679688 288.234375 C 108.492188 287.371094 109.820312 285.75 111.113281 286.628906 C 111.953125 287.195312 112.519531 287.828125 113.457031 288.394531 C 113.835938 288.570312 114.234375 288.71875 114.625 288.867188 L 114.859375 288.945312 C 116.652344 289.519531 118.132812 289.292969 119.914062 288.585938 C 123.777344 286.765625 124.851562 283.125 123.644531 279.199219 C 123.230469 277.851562 123.433594 277.867188 124.832031 277.984375 C 130.035156 278.121094 134.582031 276.371094 135.664062 270.738281 C 135.777344 270.132812 135.789062 269.554688 135.796875 268.945312 L 135.796875 268.65625 C 135.46875 263.953125 132.855469 261.378906 128.359375 260.359375 C 125.636719 259.710938 126.910156 259.441406 127.402344 256.960938 C 127.789062 254.996094 127.230469 253.648438 126.269531 251.976562 C 124.46875 249.433594 121.5 248.6875 118.539062 249.226562 C 116.855469 249.53125 115.316406 251.074219 114.269531 251.222656 C 113.371094 251.347656 113.1875 250.0625 112.910156 249.371094 C 110.914062 244.363281 104.105469 243.398438 99.828125 246.097656 C 96.835938 247.980469 95.429688 250.644531 95.742188 254.183594 C 95.820312 254.9375 96.390625 256.546875 96.074219 257.089844 C 95.730469 257.683594 94.09375 257.691406 93.382812 257.832031 C 90.394531 258.433594 88.363281 259.976562 86.691406 262.480469 Z M 277.796875 88.992188 C 281.773438 83.554688 277.808594 93.964844 277.449219 95.046875 C 275.742188 100.285156 274.5625 105.34375 273.195312 110.652344 C 271.167969 118.53125 271.636719 105.5625 271.730469 104.371094 C 272.226562 98.183594 274.203125 93.980469 277.796875 88.992188 Z M 261.601562 116.839844 C 260.785156 116.152344 259.976562 115.589844 259.074219 115.023438 C 256.859375 113.789062 253.003906 112.058594 250.441406 112.414062 C 248.515625 112.757812 249.703125 115.242188 250.1875 116.402344 C 251.191406 118.792969 252.519531 121.03125 254.214844 122.992188 C 259.601562 128.492188 261.023438 128.714844 268.117188 131.050781 C 271.535156 132.179688 271.367188 133.519531 271.441406 136.851562 C 271.503906 139.714844 271.464844 142.589844 271.375 145.453125 C 271.304688 147.660156 271.140625 151.960938 270.382812 153.976562 C 269.660156 155.59375 268.984375 150.875 268.882812 150.507812 C 267.679688 146.324219 264.191406 142.308594 260.0625 140.824219 C 257.207031 139.796875 257.738281 142.390625 257.957031 144.367188 C 258.308594 147.539062 258.828125 148.992188 260.304688 151.804688 C 261.714844 153.761719 263.121094 156.128906 264.988281 157.652344 C 266.132812 158.585938 268.335938 160.101562 269.132812 161.234375 C 270.007812 162.644531 268.976562 164.5 268.488281 165.976562 C 267.054688 170.8125 265.914062 176.703125 270.175781 168.070312 C 272.28125 163.8125 271.964844 164.90625 276.453125 163.609375 C 279.246094 162.800781 281.496094 161.835938 283.996094 160.34375 C 286.136719 159.011719 287.855469 157.515625 289.410156 155.527344 C 290.351562 154.300781 291.203125 152.929688 291.820312 151.316406 C 292.164062 150.421875 292.316406 149.792969 292.550781 148.804688 C 292.613281 148.523438 293.503906 145.535156 292.78125 145.535156 C 288.828125 145.535156 285.953125 147.039062 282.976562 148.832031 C 282.296875 149.242188 281.773438 149.773438 281.203125 150.300781 C 279.730469 151.671875 278.789062 152.832031 277.621094 154.507812 C 276.960938 155.472656 274.179688 160.175781 273.46875 160.4375 C 272.78125 160.292969 273.042969 158.777344 273.101562 158.277344 C 273.351562 156.253906 273.847656 154.082031 274.140625 152 C 274.441406 149.753906 274.578125 147.898438 274.609375 145.632812 C 274.648438 142.464844 275.863281 142.542969 278.457031 141.296875 C 281.398438 139.878906 284.074219 137.898438 286.59375 135.84375 C 286.851562 135.625 286.910156 135.628906 287.171875 135.382812 C 291.855469 130.960938 294.863281 125.878906 294.867188 119.273438 C 294.867188 117.449219 294.242188 117.820312 292.695312 118.433594 C 287.445312 120.515625 283.816406 122.359375 280.726562 127.359375 C 278.871094 130.359375 278.019531 133.277344 276.652344 136.414062 C 274.296875 141.816406 274.46875 135.679688 274.34375 133.578125 C 274.175781 130.683594 273.875 127.851562 273.511719 124.980469 C 272.828125 118.898438 274.085938 119.207031 277.824219 115.035156 L 278.109375 114.703125 C 278.648438 114.046875 279.179688 113.402344 279.699219 112.730469 C 281.425781 110.378906 282.679688 107.804688 283.960938 105.183594 C 285.523438 101.984375 286.683594 95.648438 286.683594 92.082031 L 286.683594 88.835938 C 286.683594 87.320312 286.414062 86.070312 286.300781 84.683594 C 286.117188 82.964844 284.78125 75.171875 283.691406 74.265625 C 282.832031 73.554688 280.667969 75.363281 279.957031 75.898438 C 277.257812 77.925781 274.703125 80.453125 272.773438 83.230469 C 265.460938 94.578125 265.324219 102.800781 268.488281 115.582031 C 268.570312 115.914062 272.289062 130.316406 269.625 127.664062 L 269.257812 127.242188 C 267.371094 124.816406 266.292969 121.964844 264.214844 119.417969 C 263.476562 118.535156 262.734375 117.816406 261.867188 117.0625 Z M 16.296875 158.046875 C 16.027344 157.785156 9.496094 151.085938 12.609375 152.394531 C 14.167969 153.050781 16.0625 154.359375 17.546875 155.261719 C 17.734375 155.371094 17.921875 155.480469 18.105469 155.59375 L 18.484375 155.8125 L 21.605469 158.136719 L 26.457031 162.757812 C 28.296875 164.996094 31.46875 169.527344 32.570312 172.140625 C 33.5625 174.503906 30.300781 171.074219 30.015625 170.800781 C 28.40625 169.289062 26.8125 167.761719 25.179688 166.277344 C 24.746094 165.882812 24.308594 165.496094 23.875 165.105469 C 23.449219 164.730469 23.117188 164.480469 22.671875 164.058594 C 20.542969 162.058594 18.402344 160.074219 16.296875 158.046875 Z M 25.328125 109.339844 C 24.800781 108.667969 23.847656 106.945312 23.414062 106.175781 C 23.296875 105.96875 20.703125 101.582031 22.40625 102.363281 C 23.628906 102.921875 24.449219 103.679688 25.878906 104.238281 C 27.695312 104.933594 30.152344 105.519531 31.742188 106.449219 C 36.414062 109.839844 38.421875 113.140625 38.628906 118.96875 C 38.585938 121.640625 37.515625 120.179688 36.285156 119.097656 L 36.097656 118.9375 C 34.9375 118.035156 33.710938 117.207031 32.496094 116.382812 C 31.4375 115.664062 30.027344 114.433594 29.054688 113.5625 C 27.910156 112.542969 26.304688 110.574219 25.328125 109.339844 Z M 57.378906 97.445312 C 59.597656 96.433594 59.039062 97.109375 57.996094 98.6875 C 56.410156 101.101562 54.824219 103.507812 53.253906 105.9375 C 52.894531 106.480469 52.574219 106.859375 52.222656 107.371094 C 51.175781 108.890625 49.695312 111.097656 48.570312 112.414062 C 48.351562 112.671875 48.242188 112.738281 48.015625 113.023438 C 46.535156 114.777344 45.121094 116.4375 43.683594 118.234375 C 42.355469 119.792969 42.183594 119.109375 42.410156 117.496094 C 42.988281 113.644531 43.578125 108.765625 45.707031 105.457031 C 48.367188 101.316406 53.089844 99.402344 57.378906 97.445312 Z M 32.441406 75.945312 L 34.132812 78.40625 C 34.355469 78.703125 34.507812 78.824219 34.730469 79.105469 C 39.601562 85.121094 41.152344 86.675781 41.234375 94.742188 C 41.25 96.195312 41.253906 99.78125 39.496094 96.667969 C 39.09375 95.953125 38.652344 95.234375 38.261719 94.535156 C 37.820312 93.742188 37.738281 93.195312 37.597656 92.304688 C 37.445312 91.011719 37.175781 90.414062 35.949219 89.867188 C 33.738281 89 31.574219 91.058594 32.226562 93.324219 C 33.125 95.253906 35.097656 95.242188 36.539062 97.21875 C 38.027344 99.46875 40.347656 104.0625 40.285156 106.757812 C 40.207031 108.363281 39.605469 110.09375 38.316406 107.859375 C 37.570312 106.5625 37.308594 105.964844 36.285156 104.789062 C 35.148438 103.480469 33.882812 102.480469 32.464844 101.5 C 32.175781 101.308594 31.882812 101.117188 31.589844 100.929688 L 28.847656 99.390625 C 26.941406 98.375 24.535156 96.738281 23.015625 95.230469 C 20.40625 92.453125 20.046875 91.023438 18.425781 87.773438 C 17.15625 85.230469 16.945312 86.945312 16.457031 88.707031 C 15.167969 93.386719 13.867188 97.242188 13.839844 102.226562 L 13.839844 102.460938 C 13.839844 108.488281 15.726562 113.171875 19.328125 117.472656 C 20.207031 118.519531 21.292969 119.40625 22.363281 120.277344 C 27.1875 123.851562 30.429688 124.140625 36.089844 125.113281 C 38.535156 125.53125 37.9375 126.429688 37.652344 128.496094 C 37.300781 131.054688 37.019531 133.703125 36.792969 136.273438 C 36.667969 137.882812 36.679688 139.238281 36.648438 140.832031 C 36.585938 143.972656 35.480469 141.316406 34.757812 140.171875 C 33.566406 138.285156 31.734375 136.0625 30.164062 134.464844 C 29.648438 133.988281 22.949219 128.410156 24.121094 131.902344 L 24.21875 132.195312 C 25.171875 134.757812 28.359375 137.761719 30.199219 139.871094 C 32.898438 143.074219 34.785156 146.015625 36.328125 149.921875 C 37.800781 153.78125 38.152344 158.5 39.222656 162.574219 C 41.964844 172.417969 45.003906 180.148438 50.085938 189.035156 C 53.117188 194.332031 48.011719 188.804688 46.890625 187.734375 C 46.183594 187.078125 45.550781 186.296875 44.882812 185.589844 C 43.605469 184.308594 42.167969 182.4375 41.042969 180.992188 C 37.472656 176.40625 37.460938 174.644531 36.003906 169.210938 C 35.660156 167.9375 35.316406 166.667969 34.972656 165.398438 C 34.371094 163.628906 33.378906 161.5 32.417969 159.910156 C 30.667969 157.011719 29.175781 155.140625 27.035156 152.578125 C 26.558594 152.007812 25.945312 151.570312 25.417969 151.082031 L 24.425781 150.128906 C 24.261719 149.984375 24.339844 150.054688 24.214844 149.949219 C 24.023438 149.789062 23.929688 149.703125 23.730469 149.527344 C 23.429688 149.265625 23.179688 149.113281 22.847656 148.851562 C 20.730469 147.195312 18.433594 145.746094 16.046875 144.492188 C 13.925781 143.378906 11.511719 142.609375 9.21875 141.851562 L 6.71875 141.109375 C 5.808594 140.882812 1.632812 140.027344 0.984375 140.382812 C 0.078125 140.878906 0.828125 143.433594 0.996094 144.3125 C 1.386719 146.371094 1.785156 148.214844 2.40625 150.21875 C 3.054688 152.257812 3.640625 154.132812 4.542969 156 C 4.738281 156.398438 4.839844 156.722656 5.015625 157.082031 C 6.203125 159.496094 8.242188 162.988281 9.980469 164.835938 C 10.53125 165.421875 10.984375 165.945312 11.484375 166.570312 C 12.816406 168.195312 14.976562 170.214844 16.6875 171.449219 C 17.800781 172.25 18.675781 172.929688 19.867188 173.671875 C 24.773438 176.644531 27.574219 177.609375 33.191406 178.613281 C 35.234375 178.976562 35.753906 180.179688 36.949219 181.683594 C 38.210938 183.277344 39.511719 184.851562 40.792969 186.433594 C 42.640625 188.429688 44.160156 190.050781 46.238281 191.832031 C 49.121094 194.53125 46.433594 193.488281 44.691406 192.792969 L 44.28125 192.628906 C 43.695312 192.390625 43.113281 192.140625 42.542969 191.875 C 41.152344 191.226562 39.8125 190.5 38.492188 189.726562 L 38.296875 189.609375 C 37.554688 189.167969 36.925781 188.765625 36.15625 188.347656 C 35.914062 188.214844 35.707031 188.089844 35.484375 187.984375 C 35.191406 187.84375 35.066406 187.808594 34.769531 187.660156 C 34.503906 187.527344 34.328125 187.410156 34.097656 187.292969 C 33.835938 187.15625 33.671875 187.097656 33.40625 186.945312 C 32.460938 186.402344 31.445312 186.121094 30.355469 185.714844 C 29.34375 185.335938 28.136719 185.042969 26.996094 184.792969 C 22.625 183.980469 17.976562 184.207031 13.820312 185.871094 C 11.09375 186.960938 12.28125 187.589844 14.019531 189.101562 C 16.464844 191.21875 18.175781 192.800781 21.105469 194.316406 C 21.996094 194.753906 22.890625 195.300781 23.8125 195.632812 C 28.808594 197.417969 31.847656 197.691406 37.324219 197.691406 C 38.507812 197.691406 39.757812 197.605469 40.734375 197.46875 C 42.511719 197.226562 51.121094 195.992188 52.277344 196.5 C 53.464844 197.085938 55.617188 199.375 56.679688 200.519531 L 56.867188 200.71875 L 61.421875 205.636719 C 62.773438 206.984375 64.789062 209.21875 66.164062 210.367188 C 69.234375 212.957031 71.78125 215.40625 75.074219 217.824219 C 77.632812 219.703125 80.257812 221.394531 82.992188 223.003906 C 85.707031 224.546875 83.621094 224.3125 81.910156 224.296875 C 76.265625 224.292969 73.578125 225.511719 68.3125 226.527344 C 65.367188 227.09375 63.652344 226.925781 60.792969 226.007812 C 59.179688 225.4375 57.660156 224.859375 56.011719 224.371094 L 55.707031 224.28125 L 55.578125 224.242188 L 55.359375 224.179688 C 52.324219 223.421875 48.066406 223.554688 45.597656 225.699219 C 43.273438 227.71875 46.65625 228.925781 48.25 229.484375 C 52.179688 230.851562 53.128906 229.910156 56.878906 229.195312 L 57.164062 229.144531 C 57.65625 229.074219 60.882812 228.757812 59.929688 230.035156 C 59.441406 230.691406 56.546875 232.292969 55.675781 232.792969 C 51.730469 234.941406 49.34375 235.59375 45.238281 233.636719 C 41.023438 231.558594 36.367188 228.484375 31.511719 230.492188 C 27.757812 232.042969 29.113281 234.746094 32.25 236.039062 C 35.34375 237.3125 37.726562 236.375 40.839844 236.507812 C 43.570312 236.621094 39 238.328125 38.507812 238.589844 C 36.160156 239.828125 34.015625 241.652344 33.59375 244.421875 C 33.324219 246.175781 34.597656 247.40625 36.230469 247.667969 C 39.097656 248.128906 42.484375 246.453125 44.457031 244.460938 C 46.5 242.398438 48.996094 238.75 51.503906 237.5625 C 51.957031 237.347656 52.285156 237.253906 52.785156 237.210938 C 54.359375 237.222656 51.605469 240.28125 51.25 240.8125 C 49.082031 244.074219 47.15625 249.6875 49.5 253.289062 C 50.667969 255.078125 52.605469 254.542969 53.90625 253.265625 C 56.394531 250.824219 55.9375 247.554688 55.515625 244.46875 C 55.011719 240.800781 55.515625 238.707031 58.003906 235.832031 C 59.007812 234.699219 60.285156 233.386719 61.449219 232.417969 L 61.570312 232.316406 C 62.984375 231.15625 64.535156 230.164062 66.351562 229.796875 C 67.988281 229.570312 67.6875 230.320312 66.957031 231.351562 C 65.410156 233.472656 64.871094 233.925781 65.261719 236.738281 C 65.804688 240.667969 67.773438 235.707031 68.335938 234.679688 C 69.4375 232.667969 70.667969 231.269531 72.425781 229.808594 C 72.929688 229.410156 73.160156 229.242188 73.738281 228.917969 C 78.027344 226.753906 83.933594 226.574219 88.546875 227.683594 C 95.601562 229.820312 102.019531 233.046875 109.304688 234.472656 C 109.605469 234.53125 119.09375 236.429688 116.75 234.152344 C 115.777344 233.203125 112.160156 232.269531 110.640625 231.679688 C 105.46875 229.667969 102.941406 227.964844 101.257812 222.523438 C 101.136719 222.132812 101.023438 221.738281 100.910156 221.347656 C 99.898438 217.828125 99.707031 215.8125 97.6875 212.539062 C 97.542969 212.320312 97.398438 212.113281 97.246094 211.898438 C 96.339844 210.636719 94.277344 208.605469 92.941406 207.917969 C 91.605469 207.230469 91.742188 208.898438 91.714844 209.8125 C 91.601562 215.042969 92.878906 219.085938 96.402344 223.023438 C 97.992188 224.617188 104.875 229.894531 97.417969 226.554688 C 96.40625 226.101562 95.4375 225.613281 94.441406 225.132812 C 93.691406 224.78125 92.960938 224.421875 92.226562 224.039062 L 92.035156 223.9375 C 91.054688 223.398438 90.097656 222.921875 89.21875 222.339844 C 84.007812 218.933594 81.738281 217.625 79.984375 211.230469 C 79.082031 207.933594 78.769531 205.207031 77.34375 201.972656 C 75.695312 198.480469 73.421875 196.0625 70.425781 193.667969 C 69.90625 193.257812 67.597656 191.308594 66.984375 192.144531 C 66.230469 193.171875 67.332031 197.683594 67.726562 198.910156 C 67.925781 199.539062 68.148438 200.128906 68.40625 200.734375 C 70.601562 205.578125 73.011719 208.070312 76.496094 211.90625 C 76.617188 212.035156 79.253906 215.199219 78.035156 214.8125 C 76.753906 214.277344 71.710938 209.601562 70.375 208.363281 L 69.964844 207.992188 C 69.9375 207.964844 69.859375 207.890625 69.832031 207.863281 C 68.070312 206.265625 65.488281 203.917969 64.058594 202.074219 C 63.6875 201.597656 63.054688 200.992188 62.621094 200.484375 C 61.992188 199.746094 61.390625 198.984375 60.789062 198.226562 L 57.980469 194.546875 C 57.613281 194.101562 57.390625 193.738281 57.070312 193.253906 C 54.386719 189.117188 51.964844 185.078125 49.867188 180.605469 C 48.835938 178.460938 47.535156 176.527344 48.253906 174.082031 C 48.914062 171.832031 50.644531 169.023438 52.019531 167.109375 C 53.265625 165.449219 54.234375 163.609375 55.300781 161.828125 C 56.25 160.246094 57.292969 157.441406 57.621094 155.582031 C 58.394531 150.84375 58.144531 145.671875 55.8125 141.375 C 54.648438 139.234375 53.941406 140.664062 53.011719 142.078125 C 52.167969 143.367188 51.261719 144.621094 50.398438 145.898438 C 49.761719 146.835938 49.121094 148.027344 48.609375 149.039062 C 46.566406 153.117188 45.625 157.425781 45.625 162.789062 C 45.640625 164.757812 45.914062 166.710938 45.910156 168.617188 C 45.90625 173.199219 44.105469 166.164062 43.902344 165.460938 C 43.761719 164.964844 43.621094 164.46875 43.484375 163.976562 C 43.003906 162.265625 42.578125 160.554688 42.199219 158.824219 C 40.859375 152.613281 40.332031 148.269531 40.308594 141.898438 C 40.308594 141.25 40.308594 140.605469 40.308594 139.957031 C 40.320312 135.898438 40.867188 131.835938 41.386719 127.816406 C 41.488281 127.03125 41.785156 124.574219 42.148438 123.949219 C 42.894531 122.914062 45.433594 122.1875 46.769531 121.554688 C 48.3125 120.820312 49.804688 120.152344 51.277344 119.269531 C 54.824219 117.121094 57.960938 114.652344 60.707031 111.574219 C 62.273438 109.816406 63.605469 107.765625 64.660156 105.664062 C 67.859375 98.730469 68.570312 92.203125 68.078125 84.652344 C 67.882812 81.835938 67.195312 82.632812 65.714844 84.21875 C 63.957031 86.132812 61.957031 87.746094 59.683594 89.011719 C 57.042969 90.339844 54.523438 91.691406 52.039062 93.300781 C 50.050781 94.703125 49.292969 95.183594 47.589844 96.996094 C 45.535156 99.128906 45.496094 98.710938 46.257812 96.085938 C 47.742188 90.96875 49.730469 86.257812 52.046875 81.46875 C 52.539062 80.457031 55.917969 73.773438 55.613281 73.230469 C 55.1875 72.472656 51.460938 76.875 50.980469 77.496094 C 49.929688 78.851562 49.027344 80.230469 48.210938 81.738281 C 47.957031 82.222656 47.71875 82.710938 47.480469 83.207031 C 46.597656 85.089844 45.792969 86.867188 45.089844 88.828125 C 44.292969 91.046875 43.957031 92.136719 43.535156 89 C 43.144531 85.863281 42.703125 82.742188 42.308594 79.613281 C 42.132812 78.234375 41.992188 76.847656 41.875 75.464844 C 41.589844 72.039062 40.785156 68.730469 39.640625 65.632812 C 38.578125 62.828125 37.378906 60.730469 36.0625 58.101562 C 35.679688 57.300781 34.464844 54.058594 33.835938 53.75 C 33.121094 53.398438 32.65625 54.851562 32.464844 55.320312 C 30.136719 61.070312 29.128906 67.222656 31.160156 73.230469 C 31.492188 74.21875 31.878906 75.066406 32.441406 75.945312 Z M 177.988281 149.535156 C 175.902344 150.804688 180.378906 145.355469 180.535156 145.132812 C 184.316406 139.15625 184.675781 136.503906 186.800781 130.082031 C 189.613281 121.589844 187.34375 133.101562 186.816406 134.828125 C 185.328125 139.703125 182.429688 145.96875 178.417969 149.238281 Z M 247.375 176.542969 C 247.375 170.808594 246.632812 166.050781 245.761719 161.15625 C 244.753906 155.511719 243.105469 149.882812 241.289062 144.480469 L 239.644531 139.769531 C 238.25 135.652344 236.363281 132.101562 234.679688 128.15625 C 232.296875 122.570312 235.914062 127.78125 236.910156 129.292969 C 237.75 130.5625 238.585938 131.835938 239.433594 133.101562 C 241.160156 135.964844 242.347656 138.078125 243.871094 141.125 C 246.652344 146.6875 248.105469 150.609375 249.855469 156.546875 C 251.035156 160.5625 251.855469 166.242188 251.910156 170.578125 C 251.917969 171.316406 252.046875 171.476562 252.046875 172.257812 C 252.050781 173.859375 251.800781 176.148438 251.785156 177.320312 L 251.210938 182.066406 C 250.421875 185.90625 250.257812 186.9375 248.929688 190.554688 C 247.980469 192.910156 242.761719 203.277344 240.722656 203.898438 C 239.433594 204.289062 242.910156 198.078125 243.140625 197.5625 C 243.929688 195.796875 244.53125 194.015625 245.097656 192.171875 C 246.679688 186.902344 247.257812 182.027344 247.375 176.542969 Z M 228.300781 159.9375 C 228.300781 156.667969 227.949219 153.214844 227.910156 150.464844 C 227.890625 149.089844 227.597656 147.300781 227.417969 146.03125 C 226.417969 139.050781 225.730469 136.527344 223.835938 129.890625 C 223.457031 128.558594 223.070312 127.4375 222.640625 126.152344 C 221.277344 122.054688 220.535156 120.84375 219.109375 117.363281 C 218.847656 116.722656 218.570312 116.269531 218.3125 115.691406 C 217.699219 114.316406 217.226562 113.613281 216.621094 112.453125 C 214.980469 109.445312 213.164062 106.734375 211.453125 103.816406 C 208.453125 98.558594 212.234375 102.09375 214.011719 103.746094 C 214.75 104.433594 215.480469 105.160156 216.234375 105.824219 C 216.421875 105.988281 216.605469 106.148438 216.789062 106.316406 L 218.222656 107.871094 C 218.496094 108.195312 218.601562 108.289062 218.867188 108.652344 C 220.777344 111.21875 220.855469 111.527344 222.4375 114.164062 L 223.507812 116.078125 C 227.617188 123.480469 230.332031 131.417969 233.183594 139.355469 L 236.472656 150.984375 C 236.855469 152.570312 237.230469 154.214844 237.515625 155.910156 C 238.550781 162.113281 238.96875 167.582031 237.996094 173.910156 C 237.289062 178.3125 236.355469 181.351562 234.398438 185.363281 C 232.953125 188.273438 231.394531 190.460938 229.414062 192.964844 L 224.570312 198.109375 C 224.269531 198.375 224.160156 198.398438 223.855469 198.695312 L 221.089844 200.988281 C 218.589844 202.949219 218.707031 202.855469 216.03125 204.621094 L 212.90625 206.554688 C 212.285156 206.925781 211.863281 207.117188 211.21875 207.464844 L 209.671875 208.382812 C 208.582031 209.03125 207.566406 209.617188 206.417969 210.1875 C 205.542969 210.625 203.925781 211.648438 203.132812 211.832031 C 203.292969 211.230469 205.347656 209.988281 205.816406 209.585938 C 208.355469 207.414062 210.972656 205.058594 213.285156 202.65625 L 220.460938 192.964844 C 221.957031 190.417969 223.179688 187.476562 224.28125 184.71875 C 224.703125 183.664062 225.152344 182.289062 225.492188 181.128906 C 227.488281 174.375 228.300781 167.035156 228.300781 159.9375 Z M 154.660156 72.285156 C 157.046875 70.695312 160.425781 68.089844 162.488281 66.101562 C 163.738281 64.589844 169.449219 57.46875 170.476562 56.832031 C 170.128906 58.71875 167.792969 62.289062 166.632812 63.925781 C 165.140625 65.902344 163.421875 67.691406 161.648438 69.410156 L 159.460938 71.246094 C 151.863281 77.125 146.722656 78.996094 137.6875 81.757812 C 137.667969 81.765625 133.546875 83.101562 134.191406 82.425781 L 134.304688 82.335938 C 135.414062 81.539062 140 79.996094 141.875 79.175781 C 146.363281 77.210938 150.554688 74.957031 154.660156 72.285156 Z M 114.777344 80.011719 C 120.324219 77.789062 125.878906 75.839844 131.589844 74.078125 C 132.371094 73.839844 133.152344 73.59375 133.929688 73.347656 L 139.53125 71.554688 C 143.199219 70.585938 149.023438 67.957031 152.488281 66.089844 C 155.839844 64.285156 155.535156 64.183594 158.058594 62.445312 C 158.503906 62.140625 158.679688 61.992188 159.09375 61.667969 C 162.054688 58.691406 164.226562 56.789062 166.65625 53.253906 C 168.347656 50.792969 172.484375 44.832031 168.703125 52.421875 C 167.308594 55.222656 165.71875 57.417969 163.71875 59.804688 C 163.261719 60.328125 162.988281 60.671875 162.492188 61.171875 L 156.90625 66.484375 C 155.660156 67.542969 154.277344 68.445312 152.960938 69.414062 L 151.417969 70.46875 C 149.507812 71.789062 147.4375 72.785156 145.453125 73.972656 C 144.820312 74.351562 144.277344 74.496094 143.636719 74.882812 C 136.992188 78.542969 129.792969 80.414062 122.664062 82.839844 C 120.050781 83.742188 117.453125 84.703125 114.960938 85.910156 C 114.757812 86.007812 114.5625 86.109375 114.359375 86.214844 C 111.550781 87.664062 109.402344 88.488281 106.683594 90.296875 C 102.644531 93.019531 99.300781 95.566406 95.855469 99.039062 C 95.65625 99.253906 95.460938 99.46875 95.261719 99.679688 C 95.023438 99.988281 94.875 100.085938 94.648438 100.363281 L 91.761719 104.226562 C 91.542969 104.554688 91.394531 104.761719 91.1875 105.078125 C 90.992188 105.386719 90.917969 105.574219 90.722656 105.90625 C 88.972656 108.867188 87.558594 112.117188 86.804688 115.484375 L 86.011719 120.140625 C 85.597656 124.441406 86.109375 126.355469 86.765625 130.476562 C 87.640625 135.980469 84.566406 128.691406 84.195312 127.625 C 81.601562 120.121094 81.566406 112.382812 83.753906 104.777344 C 84.941406 101.023438 86.109375 98.792969 88.121094 95.449219 L 88.433594 94.929688 C 94.128906 86.4375 100.171875 80.238281 109.320312 75.480469 C 114.144531 73.035156 121.609375 70.703125 126.9375 69.71875 C 132.246094 68.734375 119.050781 73.75 118.828125 73.847656 C 116.957031 74.699219 115.171875 75.632812 113.390625 76.660156 L 113.132812 76.808594 C 110.121094 78.605469 107.011719 80.769531 104.46875 83.191406 C 102.460938 85.132812 91.90625 95.054688 101.761719 87.695312 C 103.695312 86.246094 105.582031 84.945312 107.65625 83.695312 C 109.015625 82.917969 110.269531 82.140625 111.683594 81.445312 C 112.707031 80.945312 113.738281 80.480469 114.777344 80.011719 Z M 114.957031 59.386719 C 117.085938 59.292969 118.929688 59.261719 121.0625 59.027344 C 121.367188 58.996094 121.667969 58.96875 121.96875 58.941406 C 122.796875 58.875 123.59375 58.800781 124.417969 58.695312 C 129.71875 57.960938 133.1875 57.324219 138.324219 55.660156 C 143.261719 54.058594 147.226562 52.398438 151.570312 49.472656 C 152.683594 48.714844 153.089844 48.53125 154.308594 47.539062 C 155.140625 46.871094 155.71875 46.445312 156.550781 45.695312 C 157.75 44.609375 159.296875 43.335938 160.367188 42.15625 L 160.480469 42.03125 L 164.121094 37.5 C 164.363281 37.105469 164.351562 37.152344 164.617188 36.828125 C 165.660156 35.535156 166.523438 34.027344 167.398438 32.605469 C 168.007812 31.617188 168.574219 30.683594 169.097656 29.632812 C 172.226562 22.511719 173.160156 21.683594 171.140625 30.109375 C 170.882812 31.167969 170.601562 32.21875 170.292969 33.265625 L 170.257812 33.386719 L 170.226562 33.488281 L 168.925781 36.855469 C 166.898438 41.003906 165.011719 43.550781 162.09375 47.078125 L 161.707031 47.542969 C 160.898438 48.507812 159.59375 49.535156 158.664062 50.46875 L 157.40625 51.546875 C 157.058594 51.820312 157.019531 51.878906 156.714844 52.152344 L 154.773438 53.710938 C 153.507812 54.847656 150.675781 56.585938 149.039062 57.449219 C 145.742188 59.179688 142.527344 60.59375 138.9375 61.621094 C 137.777344 61.945312 136.464844 62.300781 135.25 62.605469 C 127.957031 64.175781 122.199219 64.726562 114.765625 64.933594 C 101.429688 65.523438 89.179688 68.375 82.335938 81.015625 C 80.628906 84.21875 80.289062 84.183594 80.414062 80.421875 C 80.679688 73.652344 82.917969 66.757812 89.203125 63.316406 C 95.921875 59.636719 107.328125 59.710938 114.957031 59.386719 Z M 136.699219 9.84375 C 132.796875 10.273438 128.378906 11.078125 124.527344 11.890625 C 121.25 12.582031 118.214844 13.382812 114.984375 14.230469 C 108.605469 15.90625 118.351562 11.8125 119.125 11.511719 C 124.644531 9.429688 130.359375 7.953125 136.277344 7.742188 C 137.132812 7.710938 138.039062 7.554688 138.949219 7.519531 C 140.765625 7.476562 153.042969 7.515625 151.9375 8.164062 C 151.289062 8.542969 145.59375 8.960938 144.40625 9.058594 C 143.671875 9.128906 142.941406 9.195312 142.210938 9.265625 C 140.371094 9.453125 138.535156 9.644531 136.699219 9.84375 Z M 208.839844 36.941406 C 208.574219 36.59375 208.410156 36.457031 208.09375 36.132812 C 207.765625 35.800781 207.695312 35.636719 207.363281 35.304688 C 207.03125 34.972656 206.914062 34.960938 206.601562 34.640625 C 206.484375 34.519531 206.539062 34.566406 206.421875 34.429688 C 206.398438 34.402344 206.328125 34.316406 206.304688 34.289062 L 203.632812 31.640625 C 202.566406 30.792969 201.621094 29.46875 200.554688 28.617188 C 199.925781 28.117188 199.582031 27.746094 199.015625 27.175781 L 188.761719 17.710938 C 188.003906 16.972656 178.53125 7.84375 180.199219 7.910156 C 180.871094 7.9375 185.957031 10.304688 187.011719 10.761719 C 187.480469 10.960938 187.941406 11.164062 188.40625 11.367188 C 190.589844 12.363281 192.628906 13.429688 194.691406 14.660156 C 198.074219 16.6875 200.457031 18.273438 203.5 20.816406 L 203.742188 21.023438 C 204.058594 21.285156 204.222656 21.527344 204.539062 21.78125 C 206.101562 23.03125 207.050781 24.003906 208.382812 25.460938 C 215.972656 34.171875 221.765625 45.132812 222.902344 56.761719 C 223.488281 62.746094 220.222656 53.84375 219.878906 52.988281 C 218.195312 48.769531 214.742188 44.117188 211.878906 40.585938 C 211.523438 40.148438 211.160156 39.71875 210.796875 39.285156 C 210.125 38.507812 209.476562 37.75 208.839844 36.941406 Z M 89.378906 37.480469 C 89.484375 37.285156 89.589844 37.09375 89.695312 36.898438 C 91.042969 34.496094 92.5 32.167969 94.308594 30.09375 L 96.0625 28.085938 C 97.324219 26.839844 98.511719 25.5 99.910156 24.410156 C 109.183594 17.578125 119.035156 15.074219 130.179688 13.15625 C 133.671875 12.566406 137.324219 12.195312 140.847656 11.789062 C 147.734375 11.03125 154.671875 10.234375 161.574219 9.65625 C 170.847656 8.878906 152.976562 13.117188 151.949219 13.375 C 151.027344 13.605469 150.105469 13.828125 149.179688 14.050781 C 145.792969 14.84375 142.472656 15.71875 139.042969 16.3125 C 134.792969 17.019531 130.664062 18.292969 126.480469 19.324219 C 124.445312 19.824219 121.148438 20.691406 119.1875 21.5 L 110.996094 24.597656 C 107.851562 25.882812 104.765625 27.53125 101.988281 29.46875 L 97.164062 33.210938 C 96.800781 33.53125 96.621094 33.617188 96.257812 33.988281 C 95.671875 34.578125 95.042969 35.132812 94.507812 35.742188 L 93.730469 36.652344 C 93.214844 37.375 86.402344 46.945312 91.527344 42.710938 C 92.25 42.113281 92.957031 41.464844 93.695312 40.894531 C 94.523438 40.277344 95.371094 39.683594 96.210938 39.085938 C 97.367188 38.253906 98.484375 37.507812 99.726562 36.8125 L 108.402344 32.511719 C 112.515625 30.863281 115.910156 29.953125 120.179688 28.898438 C 123.089844 28.179688 125.75 27.539062 128.703125 26.96875 C 130.441406 26.636719 132.179688 26.316406 133.921875 26.007812 C 136.476562 25.546875 139.125 24.976562 141.671875 24.4375 C 142.53125 24.253906 149.328125 22.390625 149.546875 22.855469 C 149.710938 23.757812 137.265625 29.101562 135.699219 29.679688 C 128.082031 32.429688 120.535156 34.855469 112.832031 37.335938 C 109.953125 38.265625 107.125 39.246094 104.320312 40.382812 C 104.171875 40.445312 104.027344 40.511719 103.878906 40.574219 L 99.121094 42.691406 C 96.582031 44.050781 93.179688 45.863281 90.929688 47.554688 C 88.070312 49.703125 91.855469 48.671875 93.015625 48.367188 C 93.546875 48.21875 94.082031 48.054688 94.617188 47.917969 C 94.980469 47.832031 95.332031 47.761719 95.695312 47.691406 C 97.578125 47.371094 99.488281 47.191406 101.386719 46.964844 L 101.605469 46.9375 C 102.085938 46.875 102.566406 46.8125 103.046875 46.746094 C 107.644531 46.113281 112.875 45.933594 117.96875 45.191406 C 123.671875 44.347656 130.152344 42.855469 135.554688 40.851562 L 142.339844 38.035156 C 145.867188 36.472656 151.726562 32.453125 154.554688 29.8125 C 157.640625 26.925781 151.230469 30.265625 150.613281 30.542969 C 149.042969 31.246094 147.453125 31.898438 145.871094 32.578125 C 144.601562 33.125 143.328125 33.675781 142.058594 34.222656 L 141.859375 34.308594 C 141.023438 34.648438 140.230469 34.878906 139.375 35.203125 C 136.015625 36.476562 130.78125 37.496094 127.105469 38.109375 C 126.648438 38.1875 126.035156 38.257812 125.640625 38.332031 C 122.546875 38.882812 119.074219 39.460938 115.964844 39.753906 C 110.738281 40.25 118.609375 38.183594 119.296875 37.957031 C 121.304688 37.300781 123.304688 36.597656 125.304688 35.917969 C 125.679688 35.792969 125.882812 35.742188 126.292969 35.613281 L 136.785156 31.960938 C 143.726562 29.585938 150.359375 26.8125 156.9375 23.558594 C 159.167969 22.441406 161.367188 21.261719 163.5625 20.074219 C 165.5625 18.992188 167.339844 17.945312 169.253906 16.71875 C 172.960938 14.558594 171.164062 17.027344 169.925781 18.757812 C 169.035156 20.003906 168.117188 21.230469 167.210938 22.464844 L 167.082031 22.636719 L 166.949219 22.816406 C 166.570312 23.292969 166.257812 23.726562 165.878906 24.207031 C 163.6875 26.597656 161.496094 29.058594 159.28125 31.414062 C 157.589844 33.132812 154.8125 35.367188 152.863281 36.855469 C 150.949219 38.320312 149.050781 39.707031 147.078125 41.085938 C 145.8125 41.890625 144.59375 42.792969 143.238281 43.472656 L 141.675781 44.378906 C 137.863281 46.472656 133.859375 48.105469 129.726562 49.449219 C 127.863281 50.058594 126.269531 50.664062 124.308594 51.167969 C 123.507812 51.375 122.714844 51.554688 121.902344 51.71875 L 113.539062 53.21875 C 112.769531 53.332031 112.042969 53.332031 111.296875 53.441406 C 109.644531 53.671875 107.835938 53.800781 106.152344 53.976562 C 104.109375 54.195312 102.101562 54.230469 100.058594 54.527344 C 97.988281 54.890625 95.820312 55.230469 93.769531 55.636719 C 86.398438 57.203125 79.976562 61.859375 77.691406 69.242188 C 75.441406 76.519531 76.136719 83.363281 78.546875 90.484375 C 79.847656 94.292969 80.800781 92.011719 82.457031 89.878906 C 84.265625 87.804688 87.386719 84.335938 89.859375 83.234375 C 91.09375 82.929688 86.601562 87.273438 86.316406 87.589844 C 76.9375 98.292969 73.683594 109.816406 77.46875 123.683594 C 79.960938 131.585938 84.144531 138.054688 91.480469 142.199219 C 94.785156 144.070312 93.453125 145.539062 91.941406 148.304688 C 91.226562 149.617188 90.488281 150.933594 89.714844 152.214844 C 88.652344 153.964844 87.539062 155.585938 86.269531 157.1875 C 85.128906 158.617188 84.015625 160.078125 82.894531 161.523438 C 82.523438 161.945312 82.148438 162.207031 81.804688 162.640625 L 78.414062 165.996094 C 78.148438 166.214844 78.101562 166.203125 77.832031 166.453125 C 76.6875 167.527344 74.804688 169.160156 73.492188 170.027344 C 73.199219 170.222656 73.160156 170.265625 72.902344 170.476562 C 71.863281 171.328125 70.613281 172.039062 69.5 172.78125 L 66.730469 174.421875 C 66.179688 174.71875 65.832031 174.910156 65.304688 175.199219 C 63.433594 176.101562 61.671875 176.929688 59.765625 177.75 C 58.5 178.292969 57.585938 179.21875 58.273438 180.671875 C 59.128906 182.472656 62.445312 180.804688 63.761719 180.285156 C 64.871094 179.847656 65.960938 179.351562 67.054688 178.875 C 67.523438 178.671875 67.996094 178.464844 68.464844 178.261719 L 68.664062 178.175781 C 70.4375 177.445312 72.082031 176.300781 73.675781 175.269531 C 74.972656 174.429688 76.351562 173.625 77.5625 172.667969 L 80.285156 170.59375 C 80.582031 170.351562 80.828125 170.148438 81.136719 169.886719 C 81.453125 169.621094 81.617188 169.382812 81.933594 169.128906 C 83.0625 168.230469 84.320312 167.175781 85.21875 166.050781 C 87.097656 163.78125 89.050781 161.492188 90.894531 159.199219 C 91.523438 158.417969 92.523438 156.734375 93.089844 155.816406 C 96.671875 150.003906 98.140625 145.75 100.132812 139.324219 C 101.261719 135.09375 101.769531 131.480469 102.308594 127.167969 C 103.117188 120.636719 105.230469 126.273438 106.542969 128.773438 C 108.671875 132.8125 111.796875 137.007812 114.941406 140.3125 C 115.351562 140.726562 115.503906 141.007812 115.910156 141.417969 C 118.429688 143.921875 119.855469 145.671875 122.898438 148.054688 C 125.957031 150.445312 128.328125 152.238281 131.753906 154.140625 C 134.117188 155.449219 133.621094 156.394531 133.542969 158.941406 C 133.5 165.921875 134.144531 168.5 136.6875 174.933594 C 137.015625 175.960938 137.726562 179.421875 139.253906 179.074219 C 140.234375 178.851562 142.085938 177.289062 143.011719 176.65625 C 146.605469 174.3125 150.851562 172.230469 154.640625 170.105469 C 157.382812 168.570312 160.125 167.03125 162.867188 165.496094 L 163.132812 165.347656 C 174.574219 158.714844 184.792969 149.53125 188.917969 136.59375 C 189.984375 133.253906 191.691406 127.902344 190.671875 135.824219 C 190.535156 136.890625 190.332031 138.015625 190.125 139.074219 C 189.386719 142.464844 188.300781 145.292969 186.699219 148.367188 C 184.433594 152.613281 181.503906 156.054688 178.019531 159.34375 C 178 159.359375 177.96875 159.386719 177.953125 159.40625 C 177.933594 159.421875 177.902344 159.449219 177.882812 159.46875 C 176.347656 160.886719 174.730469 162.355469 173.03125 163.566406 C 170.835938 165.132812 168.652344 166.765625 166.328125 168.152344 C 164.449219 169.269531 161.972656 170.84375 160.058594 171.742188 C 158.144531 172.671875 156.414062 173.902344 154.515625 174.917969 C 152.617188 175.933594 150.820312 177.121094 148.949219 178.21875 C 142.320312 182.132812 134.953125 188.195312 130.320312 194.371094 C 122.777344 204.507812 119.691406 216.5 122.105469 228.96875 C 123.078125 233.898438 124.894531 238.300781 127.460938 242.605469 C 130.660156 247.921875 127.277344 237.511719 127.089844 236.671875 C 124.316406 223.800781 127.089844 208.535156 135.164062 198.007812 C 136.898438 195.746094 138.785156 193.761719 140.898438 191.851562 C 142.535156 190.382812 144.226562 188.964844 145.878906 187.511719 L 146.152344 187.273438 C 147.496094 186.089844 149.839844 184.808594 151.417969 183.859375 L 166.75 176.746094 C 167.441406 176.457031 168.007812 176.167969 168.621094 175.894531 C 169.292969 175.597656 169.933594 175.371094 170.609375 175.03125 L 174.375 173.214844 C 177.359375 171.828125 180.464844 170.003906 183.003906 167.960938 C 184.300781 166.917969 185.703125 166.003906 186.945312 164.898438 L 190.515625 161.460938 C 192.152344 159.824219 193.667969 158.027344 195.085938 156.171875 C 196.5 154.316406 197.820312 152.363281 198.988281 150.339844 C 204.917969 139.597656 206.421875 129.207031 204.835938 117.121094 C 204.601562 115.234375 204.363281 111.421875 205.789062 115.886719 C 206.492188 118.101562 206.921875 120.570312 207.316406 122.863281 C 207.636719 124.949219 207.792969 126.949219 207.800781 129.058594 C 207.800781 131.660156 207.808594 134.707031 207.453125 137.140625 C 206.71875 142 205.308594 146.578125 203.199219 151.023438 C 201.945312 153.664062 200.199219 156.183594 198.550781 158.597656 C 198.269531 158.941406 198.179688 159.085938 197.945312 159.417969 C 197 160.746094 195.890625 162.042969 194.726562 163.210938 L 193.433594 164.636719 C 192.757812 165.3125 192.148438 166.035156 191.398438 166.625 L 189.933594 168.011719 C 188.808594 169.152344 185.347656 172.0625 184.007812 173.117188 L 168.179688 183.625 C 165.933594 185.09375 163.585938 186.378906 161.28125 187.757812 C 160.648438 188.136719 160.21875 188.414062 159.617188 188.816406 C 159.027344 189.210938 158.535156 189.492188 157.957031 189.878906 L 154.609375 192.113281 C 154.335938 192.304688 154.171875 192.449219 153.859375 192.65625 C 153.527344 192.878906 153.324219 192.996094 153.019531 193.25 C 152.515625 193.671875 152.003906 194.003906 151.441406 194.394531 L 146.695312 198.078125 C 143.796875 200.3125 140.148438 204.625 138.128906 207.417969 C 137.925781 207.703125 137.796875 207.964844 137.558594 208.273438 L 136.367188 209.941406 C 132.53125 216.269531 130.460938 221.484375 130.046875 228.980469 C 129.621094 236.640625 131.550781 243.617188 135.03125 250.390625 C 135.273438 250.851562 135.519531 251.3125 135.757812 251.777344 C 136.125 252.484375 136.503906 253.160156 136.914062 253.847656 C 139.238281 257.679688 142.238281 261.578125 145.796875 264.34375 C 148.476562 266.425781 146.714844 263.269531 146.207031 262.101562 C 143.421875 255.695312 142.964844 248.644531 142.832031 241.757812 C 142.820312 241.121094 142.832031 240.507812 142.855469 239.871094 C 143.183594 232.226562 144.941406 224.417969 149.183594 217.957031 C 150.453125 216.347656 151.722656 214.742188 152.988281 213.136719 C 155.527344 209.921875 156.292969 208.832031 159.664062 206.097656 C 161.171875 204.871094 162.902344 203.503906 164.511719 202.425781 C 166.207031 201.285156 167.902344 200.148438 169.601562 199.007812 C 170.449219 198.441406 171.296875 197.871094 172.144531 197.300781 L 172.910156 196.789062 C 173.300781 196.554688 173.375 196.46875 173.757812 196.207031 C 174.097656 195.976562 174.292969 195.894531 174.640625 195.667969 L 181.542969 191.28125 C 182.726562 190.492188 183.703125 189.796875 184.816406 188.976562 L 193.605469 182.066406 C 193.625 182.046875 193.652344 182.023438 193.671875 182.003906 L 194.925781 180.921875 C 195.195312 180.675781 195.378906 180.46875 195.640625 180.207031 L 197.125 178.839844 C 199.945312 176.402344 202.738281 172.839844 205.054688 169.878906 C 206.894531 167.417969 208.230469 164.640625 210 162.289062 C 213.472656 157.660156 208.828125 168.871094 208.535156 169.480469 C 206.410156 173.9375 203.9375 177.109375 200.765625 180.835938 C 200.4375 181.214844 200.109375 181.597656 199.785156 181.984375 L 199.589844 182.210938 C 198.230469 183.839844 196.402344 185.34375 194.863281 186.828125 L 191.035156 190.007812 C 190.164062 190.773438 189.28125 191.28125 188.382812 192.023438 C 184.910156 194.875 178.453125 198.90625 174.609375 201.730469 C 172.363281 203.382812 170.058594 204.925781 167.933594 206.730469 C 165.667969 208.648438 163.554688 210.242188 161.625 212.53125 C 160.710938 213.613281 159.75 214.496094 158.808594 215.65625 C 154.070312 221.5 150.402344 228.261719 148.683594 235.613281 C 148.613281 235.90625 148.5625 236.183594 148.507812 236.480469 C 147.945312 240.101562 146.960938 248.941406 148.40625 252.152344 C 149.335938 254.214844 149.726562 248.632812 149.792969 248.246094 C 150.265625 245.570312 151.175781 242.757812 152.105469 240.207031 C 152.519531 239.15625 152.859375 238.265625 153.273438 237.222656 C 156.914062 228.316406 160.304688 225.277344 166.046875 217.992188 C 166.949219 216.851562 168.695312 215.320312 169.820312 214.328125 C 170.9375 213.34375 171.914062 212.289062 173.089844 211.371094 C 173.378906 211.144531 173.398438 211.117188 173.652344 210.894531 C 174.945312 209.765625 176.210938 208.621094 177.628906 207.605469 L 179.984375 205.808594 C 183.15625 203.4375 186.5 201.277344 189.640625 198.859375 L 194.367188 195.28125 C 195.136719 194.675781 195.988281 194.144531 196.679688 193.441406 C 197.050781 193.0625 197.390625 192.804688 197.796875 192.484375 C 201.058594 189.855469 203.882812 187.105469 206.496094 183.832031 C 210.445312 178.882812 207.453125 184.777344 206.34375 186.492188 C 205.449219 187.863281 204.449219 189.1875 203.449219 190.480469 C 202.316406 191.9375 200.285156 194.019531 198.882812 195.257812 C 198.5625 195.535156 198.421875 195.585938 198.101562 195.902344 L 195.574219 198.046875 C 194.410156 199.007812 193.308594 199.871094 192.027344 200.726562 L 188.417969 203.214844 C 186.011719 204.953125 183.414062 206.390625 181.039062 208.164062 L 177.496094 210.714844 C 177.167969 210.960938 177.074219 211.125 176.742188 211.386719 C 174.992188 212.761719 173.292969 214.148438 171.808594 215.800781 C 171.792969 215.820312 171.765625 215.847656 171.746094 215.867188 L 170.972656 216.648438 C 170.953125 216.667969 170.925781 216.691406 170.90625 216.710938 C 170.761719 216.84375 170.847656 216.773438 170.703125 216.898438 C 170.527344 217.054688 170.476562 217.0625 170.273438 217.25 C 169.132812 218.355469 167.53125 220.394531 166.515625 221.699219 C 166.214844 222.167969 160.125 232.527344 162.234375 230.796875 C 163.238281 229.96875 165.640625 226.046875 166.820312 224.621094 C 168.335938 222.789062 169.996094 221.113281 171.699219 219.453125 C 172.105469 219.0625 172.386719 218.910156 172.804688 218.480469 L 174.382812 217.078125 C 176.210938 215.65625 177.335938 214.535156 179.519531 213 L 183.179688 210.5625 C 186.859375 208.089844 190.671875 205.789062 194.335938 203.292969 C 194.78125 202.988281 195.085938 202.714844 195.535156 202.417969 L 201.214844 197.851562 C 202.765625 196.417969 204.402344 194.925781 205.765625 193.316406 C 209.617188 188.703125 212.914062 183.382812 214.765625 177.636719 C 215.570312 175.070312 216.253906 172.320312 216.773438 169.679688 C 218.191406 162.109375 218.390625 154.769531 217.632812 147.101562 C 217.1875 142.609375 216.242188 138.265625 215.335938 133.847656 C 214.40625 129.316406 213.1875 125.066406 211.746094 120.703125 C 209.757812 115.5 207.378906 110.335938 205.484375 105.140625 C 203.089844 98.566406 210.503906 112.265625 210.65625 112.546875 L 210.683594 112.597656 C 210.929688 113.039062 211.179688 113.480469 211.421875 113.925781 L 211.457031 113.992188 C 212.867188 116.835938 214.03125 119.773438 215.160156 122.734375 C 216.761719 126.945312 217.441406 129.804688 218.714844 134.101562 C 219.042969 135.207031 219.382812 136.507812 219.640625 137.714844 C 220.5 141.707031 221.214844 145.363281 221.566406 149.546875 C 221.765625 151.921875 222.402344 158.261719 222.019531 160.789062 L 221.671875 165.761719 C 221.222656 170.539062 220.183594 176.875 218.476562 181.378906 C 217.3125 184.453125 216.992188 185.683594 215.371094 188.910156 C 215.039062 189.566406 214.789062 190.070312 214.464844 190.726562 C 213.207031 193.261719 208.652344 199.753906 206.734375 201.683594 L 205.4375 203.109375 C 203.980469 204.546875 202.707031 206.160156 201.128906 207.496094 L 197.324219 210.957031 C 192.574219 215.339844 186.742188 218.941406 181.519531 222.816406 C 180.058594 223.902344 178.695312 224.792969 177.238281 225.960938 C 175.734375 227.167969 174.140625 228.40625 172.671875 229.625 C 171.515625 230.582031 169.894531 232.242188 168.816406 233.335938 C 165.304688 236.890625 162.480469 240.214844 160.003906 244.585938 C 159.535156 245.410156 158.988281 246.675781 158.566406 247.558594 C 158.066406 248.617188 157.640625 249.59375 157.273438 250.710938 C 156.214844 254.074219 155.65625 255.96875 155.320312 259.539062 C 154.714844 268.191406 156.0625 274.90625 160.328125 282.492188 L 160.488281 282.757812 C 162.785156 286.617188 165.859375 289.949219 169.527344 292.53125 C 172.828125 294.699219 175.597656 295.753906 179.578125 295.441406 C 187.699219 294.8125 181.011719 297.488281 177.882812 298.035156 C 175.769531 298.40625 173.667969 298.441406 171.535156 298.234375 C 171.015625 298.179688 170.507812 298.109375 169.996094 298.03125 C 167.980469 297.609375 165.855469 297.09375 163.910156 296.332031 C 162.03125 295.597656 160.433594 294.792969 158.671875 293.914062 C 156.613281 292.886719 153.402344 290.664062 151.519531 289.390625 C 151.128906 289.128906 150.847656 288.894531 150.476562 288.617188 C 150.078125 288.324219 149.722656 288.140625 149.328125 287.820312 C 148.574219 287.207031 147.914062 286.710938 147.171875 286.082031 L 145.007812 284.355469 C 144.296875 283.808594 143.621094 283.066406 142.933594 282.539062 C 141.84375 281.613281 135.398438 275.101562 134.429688 275.804688 C 133.3125 276.609375 137.78125 282.640625 138.476562 283.554688 C 139.46875 284.839844 140.492188 286.054688 141.605469 287.242188 C 142.015625 287.652344 142.199219 287.976562 142.640625 288.410156 C 143.019531 288.789062 143.300781 289.070312 143.679688 289.449219 C 145.089844 290.863281 146.71875 292.257812 148.292969 293.527344 C 156.972656 300.476562 169.324219 305.730469 180.558594 303.015625 C 185.089844 301.921875 188.164062 300.90625 191.664062 297.652344 C 193.363281 296.046875 194.371094 294.582031 195.421875 292.507812 L 195.566406 292.230469 C 198.21875 286.953125 197.542969 280.800781 194.367188 275.992188 C 193.222656 274.257812 191.304688 272.660156 189.484375 271.667969 C 184.832031 269.492188 177.238281 269.382812 175.492188 275.289062 C 175 276.957031 175.1875 278.726562 177.324219 277.398438 C 179.125 276.277344 179.992188 275.253906 182.398438 275.5625 C 183.253906 275.671875 183.96875 275.933594 184.753906 276.265625 C 186.726562 277.273438 188.601562 279.523438 188.601562 282.023438 C 188.601562 283.074219 188.601562 284.035156 188.25 285.042969 C 185.363281 290.332031 181.347656 291.347656 175.714844 289.875 C 173.058594 289.179688 170.890625 287.167969 169.039062 285.234375 C 164.070312 278.996094 163.90625 271.277344 167.988281 264.53125 C 168.40625 263.902344 168.839844 263.324219 169.308594 262.730469 C 169.710938 262.238281 170.03125 261.859375 170.417969 261.375 L 174.273438 257.703125 C 176.726562 255.878906 179.230469 254.207031 181.984375 252.828125 C 182.277344 252.683594 182.527344 252.574219 182.851562 252.398438 C 183.242188 252.1875 183.300781 252.101562 183.6875 251.9375 C 186.625 250.695312 189.5625 249.417969 192.605469 248.402344 L 194.601562 247.804688 C 201.722656 245.621094 209.050781 244.546875 216.496094 244.527344 C 222.261719 244.527344 228.875 245.234375 233.886719 248.023438 C 235.152344 248.726562 235.921875 249.167969 237.035156 250.066406 C 238.105469 250.929688 238.726562 251.65625 239.617188 252.671875 C 240.441406 253.601562 241.042969 254.8125 241.539062 255.941406 C 242.875 258.988281 242.890625 262.574219 241.703125 265.710938 C 240.9375 267.722656 239.632812 269.570312 238.195312 271.027344 C 234.316406 274.949219 227.003906 276.992188 222.019531 274.03125 C 219.171875 272.308594 217.382812 270.109375 217.460938 266.621094 C 217.539062 263.175781 219.765625 260.878906 222.996094 259.992188 C 225.40625 259.390625 227.570312 260.53125 228.554688 260.335938 C 229.722656 260.101562 226.699219 258.039062 226.289062 257.832031 C 219.851562 254.777344 212.644531 260.046875 212.578125 267.09375 C 212.738281 274.75 219.023438 279.699219 226.238281 280.488281 C 232.53125 281.113281 239.484375 278.820312 244.460938 274.984375 C 246.761719 273.183594 248.605469 271.148438 250.238281 268.730469 C 251.59375 266.699219 252.628906 263.703125 253.136719 261.316406 C 254.050781 256.441406 253.011719 251.113281 250.519531 246.851562 C 246.65625 240.25 239.941406 236.457031 232.550781 235.132812 C 231.4375 234.949219 230.324219 234.8125 229.199219 234.695312 L 228.941406 234.675781 C 226.285156 234.472656 223.21875 234.324219 220.570312 234.722656 C 219.191406 234.898438 218.03125 234.851562 216.609375 235.101562 C 212.578125 235.816406 208.894531 236.457031 204.910156 237.496094 C 194.585938 240.191406 206.867188 235.421875 209.019531 234.703125 C 211.640625 233.820312 214.28125 233.019531 216.9375 232.253906 C 217.460938 232.105469 217.761719 232.058594 218.261719 231.890625 C 220.003906 231.316406 221.71875 231.09375 223.574219 230.71875 C 235.027344 228.527344 244.664062 227.441406 256.074219 230.792969 C 261.851562 232.640625 266.015625 235.117188 270.132812 239.59375 C 270.996094 240.535156 272.664062 242.347656 271.75 239.578125 C 270.996094 237.3125 268.921875 234.304688 267.347656 232.496094 C 264.359375 229.1875 261.996094 227.449219 258.015625 225.453125 C 254.4375 223.726562 249.449219 222.710938 245.484375 222.597656 C 244.835938 222.582031 244.160156 222.457031 243.425781 222.433594 C 237.800781 222.257812 230.34375 223.167969 224.910156 224.660156 L 221.730469 225.5 C 219.5625 226.132812 217.585938 226.605469 215.503906 227.320312 C 214.46875 227.671875 213.519531 228.011719 212.488281 228.324219 C 204.527344 231.113281 196.078125 234.484375 188.804688 238.761719 C 188.324219 239.058594 187.988281 239.257812 187.507812 239.542969 L 184.964844 241.023438 C 183.058594 242.292969 180.796875 243.605469 179.03125 245.074219 C 173.539062 249.550781 169.210938 253.199219 165.394531 259.316406 L 165.214844 259.617188 C 165.019531 259.957031 164.835938 260.285156 164.65625 260.632812 L 164.554688 260.828125 C 163.371094 263.332031 162.953125 264.859375 162.195312 267.464844 C 160.4375 273.503906 161.105469 261.25 161.140625 260.644531 C 162.058594 251.691406 165.144531 246.589844 170.769531 239.835938 C 171.765625 238.640625 173.839844 236.605469 175.039062 235.601562 C 177.195312 233.804688 179.355469 232.003906 181.519531 230.214844 C 182.351562 229.519531 184.375 228.328125 185.390625 227.671875 C 186.515625 226.945312 187.644531 226.21875 188.769531 225.492188 C 189.347656 225.140625 189.851562 224.875 190.410156 224.539062 L 195.292969 221.765625 C 197.441406 220.492188 199.746094 219.347656 201.964844 218.191406 C 202.277344 218.027344 202.378906 217.9375 202.703125 217.757812 L 208.492188 214.601562 C 210.476562 213.621094 212.304688 212.4375 214.246094 211.398438 C 216.140625 210.390625 217.925781 209.214844 219.730469 208.0625 L 225.820312 203.898438 C 228.390625 201.902344 231.390625 199.261719 233.59375 196.875 C 236.769531 193.4375 238.210938 190.839844 240.320312 186.734375 C 243.476562 180.566406 242.273438 185.78125 241.484375 188.722656 C 239.082031 196.648438 234.441406 201.875 228.117188 206.976562 L 222.644531 210.84375 C 220.304688 212.410156 217.882812 213.789062 215.453125 215.199219 L 209.386719 218.476562 C 209.066406 218.648438 208.949219 218.699219 208.605469 218.863281 L 198.714844 224.019531 C 197.703125 224.617188 196.625 225.003906 195.613281 225.589844 C 191.71875 227.851562 187.519531 229.742188 183.875 232.40625 C 183.390625 232.761719 182.953125 232.972656 182.429688 233.292969 C 179.75 234.960938 177.011719 237.261719 174.65625 239.371094 C 172.558594 241.246094 166.453125 248.144531 166.074219 250.730469 C 165.917969 252.394531 169.625 247.324219 169.777344 247.148438 C 171.019531 245.734375 172.476562 244.445312 173.914062 243.230469 L 174.144531 243.042969 C 177.421875 240.496094 178.546875 239.644531 182.0625 237.339844 L 185.429688 235.257812 C 186.035156 234.894531 186.515625 234.535156 187.109375 234.210938 C 189.425781 232.953125 193.3125 230.925781 195.625 229.882812 L 209.25 223.65625 C 211.839844 222.625 214.378906 221.421875 217.027344 220.539062 C 219.402344 219.75 227.261719 217.003906 229.078125 216.113281 C 238.5 211.507812 242.605469 208.988281 248.828125 200.3125 C 254.707031 191.492188 257.621094 182.15625 257.621094 170.832031 C 257.621094 167.878906 257.355469 165.050781 257.085938 162.289062 C 256.785156 159.21875 255.511719 153.929688 254.558594 151.0625 L 250.792969 140.949219 C 249.3125 137.863281 247.871094 134.8125 246.117188 131.871094 C 245.800781 131.339844 245.535156 130.957031 245.253906 130.398438 C 244.972656 129.847656 244.699219 129.394531 244.390625 128.925781 C 244.101562 128.496094 243.828125 128.054688 243.535156 127.574219 C 243.328125 127.234375 243.273438 127.15625 243.074219 126.871094 C 241.839844 125.265625 240.601562 123.660156 239.367188 122.058594 C 237.882812 120.132812 236.402344 118.210938 234.917969 116.285156 L 234.546875 115.804688 C 232.621094 113.394531 229.945312 111.050781 227.621094 108.980469 C 220.332031 102.609375 211.992188 99.785156 203.792969 95.042969 C 203.175781 94.683594 202.570312 94.320312 201.964844 93.945312 C 199.488281 92.410156 196.828125 90.761719 194.3125 89.304688 C 191.820312 87.859375 191.265625 88.605469 188.613281 89.160156 C 183.015625 90.328125 179.660156 91.203125 174.742188 94.3125 C 166.496094 100.679688 163.070312 110.207031 166.328125 120.257812 C 167.828125 124.875 167.46875 117.015625 167.480469 116.230469 C 167.808594 111.035156 169.25 105.835938 172.097656 101.445312 C 172.8125 100.386719 173.554688 99.46875 174.425781 98.53125 L 175.679688 97.457031 C 175.996094 97.210938 176.035156 97.15625 176.3125 96.921875 C 179.953125 94.265625 184.917969 92.804688 189.40625 92.800781 C 192.160156 92.800781 190.488281 94.375 189.535156 95.722656 C 187.445312 98.671875 186.601562 100.625 185.339844 103.976562 C 185.277344 104.140625 185.214844 104.304688 185.152344 104.46875 C 184.53125 106.082031 182.742188 106.296875 181.179688 106.554688 C 177.46875 107.125 176.542969 106.328125 173.191406 105.410156 C 169.402344 104.375 172.707031 108.242188 173.734375 109.011719 C 178.410156 112.507812 182.238281 110.148438 182.925781 110.425781 C 183.554688 110.847656 180.804688 116.8125 180.445312 117.65625 C 179.511719 119.9375 178.363281 122.195312 177.109375 124.3125 L 172.199219 131.855469 C 169.949219 134.839844 166.546875 138.460938 163.917969 141.089844 C 162.289062 142.734375 161.105469 144.03125 159.3125 145.558594 C 158.261719 146.449219 157.359375 147.472656 156.277344 148.371094 L 152.367188 151.984375 C 150.347656 153.484375 148.910156 154.097656 146.304688 154.097656 C 144.183594 154.097656 142.523438 153.601562 140.726562 153.058594 C 140.269531 152.921875 140.152344 152.816406 139.703125 152.652344 C 136.625 151.523438 133.789062 149.566406 131.0625 147.75 C 130.550781 147.410156 130.0625 147.066406 129.570312 146.703125 L 127.230469 145.015625 C 125.683594 143.910156 124.292969 142.460938 122.800781 141.273438 C 122.40625 140.960938 122.429688 140.816406 122.128906 140.519531 L 120.730469 139.195312 C 119.769531 138.398438 119.027344 137.328125 118.183594 136.417969 C 116.058594 133.644531 113.589844 130.617188 111.652344 127.753906 C 107.988281 122.140625 105.390625 115.691406 103.257812 109.359375 C 102.285156 106.472656 102.667969 105.910156 104.875 103.957031 C 106.359375 102.644531 108.128906 101.355469 109.789062 100.269531 C 110.46875 99.839844 111.15625 99.421875 111.847656 99.011719 L 115.339844 97.183594 C 115.535156 97.09375 115.613281 97.074219 115.792969 96.988281 C 124.164062 93.164062 132.953125 90.804688 141.570312 87.660156 C 146.476562 85.808594 147.394531 87.6875 151.75 89.308594 C 152.066406 89.421875 160.597656 92.660156 158.011719 90.066406 C 156.675781 88.816406 150.625 85.464844 150.363281 84.554688 C 150.019531 83.363281 152.269531 82.765625 153.105469 82.390625 C 154.007812 81.9375 154.882812 81.410156 155.753906 80.898438 C 156.101562 80.675781 156.34375 80.480469 156.664062 80.257812 L 157.671875 79.574219 C 158.355469 79.097656 158.910156 78.671875 159.539062 78.199219 L 161.355469 76.769531 C 162.636719 75.78125 164.472656 74.074219 165.605469 72.847656 C 165.929688 72.496094 166.023438 72.304688 166.382812 71.9375 C 166.722656 71.597656 166.785156 71.425781 167.09375 71.09375 C 168.40625 69.683594 169.566406 68.082031 170.644531 66.46875 C 171.9375 64.46875 172.667969 63 173.664062 60.859375 C 175.648438 56.578125 176.257812 59.507812 177.503906 62.214844 C 179.015625 65.496094 180.597656 67.988281 182.609375 70.957031 C 184.117188 73.1875 185.898438 75.289062 187.722656 77.261719 C 188.050781 77.613281 188.351562 77.882812 188.699219 78.230469 C 191.414062 80.945312 195.714844 84.769531 199.03125 86.96875 C 201.34375 88.507812 203.5625 90.046875 205.945312 91.472656 C 206.761719 91.960938 207.542969 92.398438 208.328125 92.851562 C 211.671875 94.710938 215.148438 96.222656 218.570312 97.917969 C 219.410156 98.34375 220.246094 98.691406 221.121094 99.128906 C 222.066406 99.601562 222.796875 99.917969 223.796875 100.347656 C 225.570312 101.105469 227.175781 102.035156 228.90625 102.890625 C 229.371094 103.121094 229.65625 103.300781 230.101562 103.511719 C 234.382812 105.9375 236.457031 106.964844 239.910156 110.640625 C 243.714844 114.699219 240.234375 108.277344 239.523438 107.164062 C 236.863281 103.015625 233.101562 99.863281 228.921875 97.328125 C 226.179688 95.679688 223.269531 94.246094 220.414062 92.800781 C 219.933594 92.558594 219.457031 92.3125 218.980469 92.0625 C 218.453125 91.785156 218.019531 91.597656 217.515625 91.320312 L 213.078125 89.140625 C 212.5625 88.882812 212.191406 88.707031 211.71875 88.421875 C 211.261719 88.148438 210.796875 87.871094 210.3125 87.625 C 208.382812 86.652344 206.585938 85.472656 204.792969 84.320312 C 201.523438 82.222656 197.625 79.539062 194.859375 76.742188 L 191.609375 73.503906 C 191.496094 73.390625 191.433594 73.34375 191.339844 73.253906 C 191.320312 73.234375 191.292969 73.210938 191.273438 73.191406 C 191.253906 73.171875 191.226562 73.144531 191.210938 73.125 L 189.507812 71.191406 C 187.261719 68.285156 184.980469 65.398438 183.28125 62.113281 C 181.339844 58.441406 179.8125 54.574219 178.65625 50.585938 C 176.621094 43.328125 176.390625 38.230469 177.054688 30.769531 C 177.625 24.339844 178.492188 32.105469 178.769531 33.765625 C 179.636719 38.933594 180.859375 43.476562 182.214844 48.515625 C 183.066406 51.703125 184.960938 55.5625 186.542969 58.460938 C 187.300781 59.851562 188.113281 61.324219 189.007812 62.613281 C 189.90625 63.90625 190.695312 65.304688 191.742188 66.492188 C 192.933594 67.847656 193.980469 69.355469 195.246094 70.644531 L 197.144531 72.511719 C 197.570312 72.851562 197.714844 72.972656 198.105469 73.367188 C 200.265625 75.5625 203.019531 77.410156 205.597656 79.105469 C 205.984375 79.359375 206.265625 79.59375 206.660156 79.859375 C 208.582031 81.175781 210.746094 82.253906 212.816406 83.304688 L 220.460938 86.949219 C 223.773438 88.371094 226.542969 89.949219 229.71875 91.535156 C 235.382812 94.371094 231.214844 90.324219 229.5625 88.589844 C 227.78125 86.714844 226.078125 85.28125 224.046875 83.695312 C 221.394531 81.640625 218.644531 79.699219 215.921875 77.734375 L 204.910156 68.894531 C 204.542969 68.589844 204.421875 68.53125 204.070312 68.175781 C 200.570312 64.636719 198.488281 62.578125 195.496094 58.589844 L 193.402344 55.753906 C 193.140625 55.390625 192.976562 55.195312 192.710938 54.757812 C 192.46875 54.347656 192.332031 54.214844 192.09375 53.816406 C 190.082031 50.332031 187.765625 45.941406 186.191406 42.277344 C 184.027344 37.105469 185.691406 38.519531 188.15625 41.625 C 189.972656 43.941406 191.398438 45.394531 193.539062 47.402344 C 194.277344 48.09375 195.019531 48.78125 195.757812 49.46875 L 195.976562 49.675781 C 196.25 49.894531 196.347656 49.96875 196.617188 50.203125 L 205.914062 57.644531 C 210.847656 61.433594 214.128906 64.390625 218.136719 69.179688 C 222.117188 73.839844 219.902344 69.332031 218.824219 67.121094 C 217.660156 64.757812 216.359375 62.773438 214.882812 60.605469 C 213.886719 59.132812 212.933594 57.941406 211.726562 56.628906 C 211.433594 56.3125 211.390625 56.167969 211.082031 55.847656 L 207.789062 52.394531 C 206.570312 51.121094 205.289062 49.839844 203.949219 48.710938 C 202.496094 47.273438 201.042969 45.835938 199.589844 44.402344 C 197.269531 42.105469 194.933594 39.8125 192.621094 37.507812 C 189.902344 34.632812 187.335938 30.875 185.292969 27.480469 L 185.160156 27.261719 C 184.125 25.519531 183.171875 23.753906 182.253906 21.941406 C 179.953125 17.355469 185.050781 23.710938 185.582031 24.3125 C 186.148438 24.953125 186.640625 25.5 187.222656 26.140625 L 187.398438 26.335938 L 200.890625 38.792969 C 201.5625 39.4375 202.378906 40.019531 203 40.707031 L 209.71875 47.613281 C 215.523438 54.222656 218.757812 59.773438 221.789062 68.023438 C 222.3125 69.703125 222.734375 71.390625 223.125 73.105469 C 223.394531 74.316406 223.636719 75.53125 223.875 76.75 C 224.882812 82.011719 225.8125 76.902344 226.269531 74.992188 C 228.710938 62.820312 227.988281 54.496094 224.308594 42.699219 C 223.90625 41.53125 223.472656 40.386719 223.019531 39.238281 L 221.664062 36.183594 C 220.542969 33.761719 219.210938 31.398438 217.714844 29.234375 C 217.398438 28.773438 217.148438 28.5 216.832031 28.042969 C 215.632812 26.296875 213.484375 23.453125 211.988281 21.988281 C 211.792969 21.796875 211.648438 21.671875 211.472656 21.464844 C 209.941406 19.648438 207.164062 16.925781 205.234375 15.582031 C 203.101562 14.09375 200.851562 12.472656 198.679688 11.070312 C 190.902344 6.273438 182.71875 3.917969 173.832031 2.164062 C 172.996094 2.003906 172.1875 1.882812 171.347656 1.78125 L 167.492188 1.226562 C 164.535156 0.742188 161.316406 0.628906 158.304688 0.34375 C 154.660156 0 150.265625 0.0429688 146.59375 0.125 C 144.203125 0.179688 142.167969 0.289062 139.796875 0.554688 C 137.140625 0.855469 134.550781 1.007812 131.914062 1.53125 C 129.1875 2.089844 126.335938 2.582031 123.683594 3.421875 C 114.105469 6.46875 108.476562 8.78125 100.34375 14.875 C 100.082031 15.074219 99.816406 15.273438 99.550781 15.46875 L 99.394531 15.589844 C 98.695312 16.136719 98.25 16.625 97.578125 17.144531 C 97.011719 17.585938 96.449219 18.226562 95.933594 18.746094 C 94.53125 20.148438 93.085938 21.550781 91.90625 23.152344 C 88.707031 27.488281 85.886719 32.136719 84.574219 37.484375 C 83.757812 40.929688 83.308594 45.007812 83.769531 48.527344 C 84.328125 52.753906 85.335938 47.875 85.664062 46.683594 C 86.578125 43.457031 87.875 40.472656 89.378906 37.480469 Z M 89.378906 37.480469 " fill-opacity="1" fill-rule="evenodd"/></svg>