<svg xmlns="http://www.w3.org/2000/svg" xmlns:xlink="http://www.w3.org/1999/xlink" width="400" zoomAndPan="magnify" viewBox="0 0 300 299.999988" height="400" preserveAspectRatio="xMidYMid meet" version="1.0"><path fill="#c3c2c1" d="M 264.371094 86.355469 L 264.371094 34.144531 C 264.371094 30.3125 261.261719 27.203125 257.429688 27.203125 L 231.332031 27.203125 C 227.496094 27.203125 224.390625 30.3125 224.390625 34.144531 L 224.390625 56.191406 L 150 0.0703125 L 0.0078125 113.230469 L 19.773438 113.230469 L 150 14.894531 L 280.226562 113.230469 L 299.992188 113.230469 L 264.371094 86.355469 " fill-opacity="1" fill-rule="nonzero"/><path fill="#c3c2c1" d="M 151.613281 147.542969 C 153.109375 147.542969 154.3125 145.992188 154.3125 144.074219 C 154.3125 142.15625 153.109375 140.605469 151.613281 140.605469 C 150.121094 140.605469 148.914062 142.15625 148.914062 144.074219 C 148.914062 145.992188 150.121094 147.542969 151.613281 147.542969 " fill-opacity="1" fill-rule="nonzero"/><path fill="#c3c2c1" d="M 134.4375 147.542969 C 135.929688 147.542969 137.136719 145.992188 137.136719 144.074219 C 137.136719 142.15625 135.929688 140.605469 134.4375 140.605469 C 132.945312 140.605469 131.738281 142.15625 131.738281 144.074219 C 131.738281 145.992188 132.945312 147.542969 134.4375 147.542969 " fill-opacity="1" fill-rule="nonzero"/><path fill="#c3c2c1" d="M 159.332031 157.363281 C 160.820312 157.363281 162.03125 155.8125 162.03125 153.894531 C 162.03125 151.980469 160.820312 150.425781 159.332031 150.425781 C 157.839844 150.425781 156.628906 151.980469 156.628906 153.894531 C 156.628906 155.8125 157.839844 157.363281 159.332031 157.363281 " fill-opacity="1" fill-rule="nonzero"/><path fill="#c3c2c1" d="M 159.332031 138.785156 C 160.820312 138.785156 162.03125 137.230469 162.03125 135.3125 C 162.03125 133.398438 160.820312 131.84375 159.332031 131.84375 C 157.839844 131.84375 156.628906 133.398438 156.628906 135.3125 C 156.628906 137.230469 157.839844 138.785156 159.332031 138.785156 " fill-opacity="1" fill-rule="nonzero"/><path fill="#c3c2c1" d="M 166.855469 147.542969 C 168.34375 147.542969 169.554688 145.992188 169.554688 144.074219 C 169.554688 142.15625 168.34375 140.605469 166.855469 140.605469 C 165.363281 140.605469 164.152344 142.15625 164.152344 144.074219 C 164.152344 145.992188 165.363281 147.542969 166.855469 147.542969 " fill-opacity="1" fill-rule="nonzero"/><path fill="#c3c2c1" d="M 126.914062 138.785156 C 128.40625 138.785156 129.613281 137.230469 129.613281 135.3125 C 129.613281 133.398438 128.40625 131.84375 126.914062 131.84375 C 125.421875 131.84375 124.214844 133.398438 124.214844 135.3125 C 124.214844 137.230469 125.421875 138.785156 126.914062 138.785156 " fill-opacity="1" fill-rule="nonzero"/><path fill="#c3c2c1" d="M 159.332031 141.539062 C 158.242188 141.539062 157.359375 142.671875 157.359375 144.074219 C 157.359375 145.472656 158.242188 146.609375 159.332031 146.609375 C 160.417969 146.609375 161.304688 145.472656 161.304688 144.074219 C 161.304688 142.671875 160.417969 141.539062 159.332031 141.539062 " fill-opacity="1" fill-rule="nonzero"/><path fill="#c3c2c1" d="M 126.914062 141.539062 C 125.824219 141.539062 124.941406 142.671875 124.941406 144.074219 C 124.941406 145.472656 125.824219 146.609375 126.914062 146.609375 C 128.003906 146.609375 128.886719 145.472656 128.886719 144.074219 C 128.886719 142.671875 128.003906 141.539062 126.914062 141.539062 " fill-opacity="1" fill-rule="nonzero"/><path fill="#c3c2c1" d="M 121.898438 144.074219 C 121.898438 142.15625 120.691406 140.605469 119.199219 140.605469 C 117.707031 140.605469 116.5 142.15625 116.5 144.074219 C 116.5 145.992188 117.707031 147.542969 119.199219 147.542969 C 120.691406 147.542969 121.898438 145.992188 121.898438 144.074219 " fill-opacity="1" fill-rule="nonzero"/><path fill="#c3c2c1" d="M 248.109375 120.285156 C 248.109375 122.367188 246.421875 124.050781 244.34375 124.050781 L 228.152344 124.050781 C 226.074219 124.050781 224.390625 122.367188 224.390625 120.285156 L 224.390625 113.722656 C 224.390625 111.640625 226.074219 109.957031 228.152344 109.957031 L 244.34375 109.957031 C 246.421875 109.957031 248.109375 111.640625 248.109375 113.722656 Z M 248.109375 148.453125 C 248.109375 150.53125 246.421875 152.21875 244.34375 152.21875 L 228.152344 152.21875 C 226.074219 152.21875 224.390625 150.53125 224.390625 148.453125 L 224.390625 141.886719 C 224.390625 139.808594 226.074219 138.121094 228.152344 138.121094 L 244.34375 138.121094 C 246.421875 138.121094 248.109375 139.808594 248.109375 141.886719 Z M 248.109375 176.617188 C 248.109375 178.695312 246.421875 180.382812 244.34375 180.382812 L 228.152344 180.382812 C 226.074219 180.382812 224.390625 178.695312 224.390625 176.617188 L 224.390625 170.050781 C 224.390625 167.972656 226.074219 166.289062 228.152344 166.289062 L 244.34375 166.289062 C 246.421875 166.289062 248.109375 167.972656 248.109375 170.050781 Z M 248.109375 204.785156 C 248.109375 206.863281 246.421875 208.546875 244.34375 208.546875 L 228.152344 208.546875 C 226.074219 208.546875 224.390625 206.863281 224.390625 204.785156 L 224.390625 198.214844 C 224.390625 196.140625 226.074219 194.453125 228.152344 194.453125 L 244.34375 194.453125 C 246.421875 194.453125 248.109375 196.140625 248.109375 198.214844 Z M 248.109375 232.949219 C 248.109375 235.027344 246.421875 236.714844 244.34375 236.714844 L 228.152344 236.714844 C 226.074219 236.714844 224.390625 235.027344 224.390625 232.949219 L 224.390625 226.382812 C 224.390625 224.304688 226.074219 222.621094 228.152344 222.621094 L 244.34375 222.621094 C 246.421875 222.621094 248.109375 224.304688 248.109375 226.382812 Z M 248.109375 261.117188 C 248.109375 263.195312 246.421875 264.878906 244.34375 264.878906 L 228.152344 264.878906 C 226.074219 264.878906 224.390625 263.195312 224.390625 261.117188 L 224.390625 254.550781 C 224.390625 252.46875 226.074219 250.785156 228.152344 250.785156 L 244.34375 250.785156 C 246.421875 250.785156 248.109375 252.46875 248.109375 254.550781 Z M 248.109375 289.28125 C 248.109375 291.359375 246.421875 293.046875 244.34375 293.046875 L 228.152344 293.046875 C 226.074219 293.046875 224.390625 291.359375 224.390625 289.28125 L 224.390625 282.714844 C 224.390625 280.636719 226.074219 278.953125 228.152344 278.953125 L 244.34375 278.953125 C 246.421875 278.953125 248.109375 280.636719 248.109375 282.714844 Z M 195.195312 198.453125 L 194.847656 198.375 C 194.59375 198.316406 194.347656 198.214844 194.113281 198.074219 L 179.496094 189.171875 C 179.476562 189.160156 179.460938 189.148438 179.445312 189.140625 C 179.214844 188.992188 178.96875 189.261719 178.96875 189.660156 L 178.96875 192.457031 C 178.96875 192.773438 178.816406 193.023438 178.625 193.023438 L 172.890625 193.023438 C 171.582031 193.023438 170.515625 194.398438 170.515625 196.082031 C 170.515625 197.761719 169.441406 199.136719 168.132812 199.136719 L 114.90625 199.136719 C 113.660156 199.136719 112.644531 197.832031 112.644531 196.230469 L 112.644531 192.886719 C 112.644531 191.285156 111.632812 189.988281 110.386719 189.988281 L 104.707031 189.988281 C 102.898438 189.988281 101.429688 188.101562 101.429688 185.773438 L 101.429688 175.417969 C 101.429688 173.089844 102.898438 171.203125 104.707031 171.203125 L 110.386719 171.203125 C 111.632812 171.203125 112.644531 169.902344 112.644531 168.304688 L 112.644531 164.878906 C 112.644531 163.28125 113.660156 161.972656 114.90625 161.972656 L 168.132812 161.972656 C 169.441406 161.972656 170.515625 163.351562 170.515625 165.03125 L 170.515625 165.640625 C 170.515625 167.320312 171.585938 168.699219 172.890625 168.699219 L 178.625 168.699219 C 178.816406 168.699219 178.96875 168.949219 178.96875 169.261719 L 178.96875 172.71875 C 178.96875 173.121094 179.21875 173.398438 179.445312 173.25 L 194.402344 163.613281 C 194.660156 163.449219 194.9375 163.335938 195.21875 163.273438 C 196.972656 162.898438 198.570312 164.636719 198.570312 166.917969 L 198.574219 194.8125 C 198.574219 197.109375 196.957031 198.851562 195.195312 198.453125 Z M 163.886719 260.070312 L 163.71875 260.070312 C 162.839844 260.070312 162.046875 259.398438 161.699219 258.359375 L 145.394531 208.976562 L 144.203125 208.976562 L 145.542969 257.160156 C 145.585938 258.75 144.59375 260.070312 143.351562 260.070312 L 143.15625 260.070312 C 141.96875 260.070312 141 258.859375 140.964844 257.339844 L 139.851562 208.976562 L 138.53125 208.976562 L 124.242188 258.238281 C 123.921875 259.34375 123.105469 260.070312 122.1875 260.070312 C 120.660156 260.070312 119.601562 258.113281 120.136719 256.273438 L 133.902344 208.976562 C 130.753906 208.976562 128.203125 205.699219 128.203125 201.65625 L 128.203125 200.09375 L 156.925781 200.09375 L 156.925781 201.65625 C 156.925781 205.699219 154.375 208.976562 151.230469 208.976562 L 150.117188 208.976562 L 165.902344 256.144531 C 166.523438 258.003906 165.460938 260.070312 163.886719 260.070312 Z M 75.609375 120.285156 C 75.609375 122.367188 73.925781 124.050781 71.847656 124.050781 L 55.65625 124.050781 C 53.578125 124.050781 51.890625 122.367188 51.890625 120.285156 L 51.890625 113.722656 C 51.890625 111.640625 53.578125 109.957031 55.65625 109.957031 L 71.847656 109.957031 C 73.925781 109.957031 75.609375 111.640625 75.609375 113.722656 Z M 75.609375 148.453125 C 75.609375 150.53125 73.925781 152.21875 71.847656 152.21875 L 55.65625 152.21875 C 53.578125 152.21875 51.890625 150.53125 51.890625 148.453125 L 51.890625 141.886719 C 51.890625 139.808594 53.578125 138.121094 55.65625 138.121094 L 71.847656 138.121094 C 73.925781 138.121094 75.609375 139.808594 75.609375 141.886719 Z M 75.609375 176.617188 C 75.609375 178.695312 73.925781 180.382812 71.847656 180.382812 L 55.65625 180.382812 C 53.578125 180.382812 51.890625 178.695312 51.890625 176.617188 L 51.890625 170.050781 C 51.890625 167.972656 53.578125 166.289062 55.65625 166.289062 L 71.847656 166.289062 C 73.925781 166.289062 75.609375 167.972656 75.609375 170.050781 Z M 75.609375 204.785156 C 75.609375 206.863281 73.925781 208.546875 71.847656 208.546875 L 55.65625 208.546875 C 53.578125 208.546875 51.890625 206.863281 51.890625 204.785156 L 51.890625 198.214844 C 51.890625 196.140625 53.578125 194.453125 55.65625 194.453125 L 71.847656 194.453125 C 73.925781 194.453125 75.609375 196.140625 75.609375 198.214844 Z M 75.609375 232.949219 C 75.609375 235.027344 73.925781 236.714844 71.847656 236.714844 L 55.65625 236.714844 C 53.578125 236.714844 51.890625 235.027344 51.890625 232.949219 L 51.890625 226.382812 C 51.890625 224.304688 53.578125 222.621094 55.65625 222.621094 L 71.847656 222.621094 C 73.925781 222.621094 75.609375 224.304688 75.609375 226.382812 Z M 75.609375 261.117188 C 75.609375 263.195312 73.925781 264.878906 71.847656 264.878906 L 55.65625 264.878906 C 53.578125 264.878906 51.890625 263.195312 51.890625 261.117188 L 51.890625 254.550781 C 51.890625 252.46875 53.578125 250.785156 55.65625 250.785156 L 71.847656 250.785156 C 73.925781 250.785156 75.609375 252.46875 75.609375 254.550781 Z M 75.609375 289.28125 C 75.609375 291.359375 73.925781 293.046875 71.847656 293.046875 L 55.65625 293.046875 C 53.578125 293.046875 51.890625 291.359375 51.890625 289.28125 L 51.890625 282.714844 C 51.890625 280.636719 53.578125 278.953125 55.65625 278.953125 L 71.847656 278.953125 C 73.925781 278.953125 75.609375 280.636719 75.609375 282.714844 Z M 126.914062 128.835938 C 133.464844 128.835938 138.777344 135.65625 138.777344 144.074219 C 138.777344 146.304688 138.398438 148.421875 137.730469 150.332031 C 140.082031 147.34375 143.789062 142.660156 149.625 135.3125 C 149.625 135.3125 149.621094 135.324219 149.617188 135.332031 C 151.761719 131.40625 155.308594 128.835938 159.332031 128.835938 C 165.882812 128.835938 171.191406 135.65625 171.191406 144.074219 C 171.191406 152.488281 165.882812 159.3125 159.332031 159.3125 C 152.78125 159.3125 147.46875 152.488281 147.46875 144.074219 C 147.46875 142.101562 147.761719 140.222656 148.292969 138.488281 C 146.128906 143.257812 141.457031 152.015625 135.226562 154.941406 C 133.085938 157.644531 130.152344 159.3125 126.914062 159.3125 C 120.363281 159.3125 115.050781 152.488281 115.050781 144.074219 C 115.050781 135.65625 120.363281 128.835938 126.914062 128.835938 Z M 150 27.203125 L 44.789062 105.105469 L 44.609375 296.554688 L 255.390625 296.554688 L 255.210938 105.105469 L 150 27.203125 " fill-opacity="1" fill-rule="nonzero"/><path fill="#c3c2c1" d="M 126.914062 157.363281 C 128.40625 157.363281 129.613281 155.8125 129.613281 153.894531 C 129.613281 151.980469 128.40625 150.425781 126.914062 150.425781 C 125.421875 150.425781 124.214844 151.980469 124.214844 153.894531 C 124.214844 155.8125 125.421875 157.363281 126.914062 157.363281 " fill-opacity="1" fill-rule="nonzero"/></svg>