<svg xmlns="http://www.w3.org/2000/svg" xmlns:xlink="http://www.w3.org/1999/xlink" width="400" zoomAndPan="magnify" viewBox="0 0 300 299.999988" height="400" preserveAspectRatio="xMidYMid meet" version="1.0"><path fill="#c3c2c1" d="M 235.179688 215.757812 C 235.179688 218.332031 237.285156 220.4375 239.859375 220.4375 C 239.859375 220.4375 239.859375 220.4375 240.09375 220.4375 C 246.179688 220.4375 252.261719 213.652344 255.539062 207.800781 C 259.046875 201.480469 261.855469 192.355469 257.410156 187.441406 C 255.539062 185.570312 252.730469 185.335938 250.859375 187.207031 C 248.984375 188.84375 248.75 191.652344 250.390625 193.527344 C 250.625 194.460938 250.390625 197.972656 247.582031 203.121094 C 244.773438 208.269531 241.261719 210.84375 240.328125 211.078125 C 237.519531 211.078125 235.179688 213.183594 235.179688 215.757812 Z M 235.179688 215.757812 " fill-opacity="1" fill-rule="nonzero"/><path fill="#c3c2c1" d="M 16.613281 41.652344 L 28.316406 41.652344 L 28.316406 73.246094 C 28.316406 75.820312 30.421875 77.925781 32.996094 77.925781 C 35.570312 77.925781 37.675781 75.820312 37.675781 73.246094 L 37.675781 36.972656 C 37.675781 34.398438 35.570312 32.292969 32.996094 32.292969 L 26.441406 32.292969 L 42.355469 12.636719 L 58.269531 32.292969 L 51.714844 32.292969 C 49.140625 32.292969 47.035156 34.398438 47.035156 36.972656 L 47.035156 73.011719 C 47.035156 75.585938 49.140625 77.691406 51.714844 77.691406 C 54.289062 77.691406 56.394531 75.585938 56.394531 73.011719 L 56.394531 41.652344 L 68.097656 41.652344 C 69.96875 41.652344 71.605469 40.71875 72.308594 39.078125 C 73.011719 37.441406 72.777344 35.570312 71.605469 34.164062 L 45.867188 2.339844 C 43.992188 0.234375 40.25 0.234375 38.613281 2.339844 L 12.871094 34.164062 C 11.699219 35.570312 11.464844 37.441406 12.167969 39.078125 C 13.105469 40.71875 14.742188 41.652344 16.613281 41.652344 Z M 16.613281 41.652344 " fill-opacity="1" fill-rule="nonzero"/><path fill="#c3c2c1" d="M 54.523438 99.21875 C 52.183594 100.15625 51.015625 102.964844 52.183594 105.304688 C 52.886719 106.941406 54.757812 108.113281 56.394531 108.113281 C 57.097656 108.113281 57.566406 107.878906 58.269531 107.644531 C 61.078125 106.472656 125.429688 77.457031 172.699219 7.722656 C 173.867188 5.851562 173.636719 3.511719 172.230469 1.871094 C 170.59375 0.234375 168.253906 0 166.378906 1.171875 C 166.378906 1.171875 158.660156 5.851562 145.789062 5.148438 C 143.214844 5.148438 141.109375 7.019531 140.875 9.59375 C 140.640625 12.167969 142.746094 14.273438 145.320312 14.507812 C 149.765625 14.742188 153.511719 14.507812 157.019531 13.804688 C 112.089844 73.246094 55.226562 98.984375 54.523438 99.21875 Z M 54.523438 99.21875 " fill-opacity="1" fill-rule="nonzero"/><path fill="#c3c2c1" d="M 274.726562 48.207031 C 278.9375 49.375 281.511719 50.3125 282.683594 52.417969 C 283.621094 54.054688 283.621094 56.164062 282.683594 57.566406 C 281.046875 60.140625 277.300781 60.609375 274.023438 59.90625 C 272.855469 59.671875 271.683594 58.96875 270.75 58.269531 C 268.875 56.628906 265.835938 56.863281 264.195312 58.96875 C 262.558594 60.84375 262.792969 63.882812 264.898438 65.523438 C 267.003906 67.394531 269.578125 68.566406 271.917969 69.03125 L 271.917969 73.011719 C 271.917969 75.585938 274.023438 77.691406 276.597656 77.691406 C 279.171875 77.691406 281.277344 75.585938 281.277344 73.011719 L 281.277344 68.796875 C 285.023438 67.863281 288.535156 65.992188 290.640625 62.246094 C 293.449219 57.800781 293.449219 51.949219 290.640625 47.503906 C 287.597656 42.121094 281.746094 40.484375 277.300781 39.078125 C 272.386719 37.675781 270.046875 36.738281 269.34375 34.164062 C 268.644531 31.589844 270.75 29.953125 272.152344 29.25 C 274.960938 28.082031 278.472656 28.550781 281.277344 30.421875 C 283.386719 31.824219 286.425781 31.355469 287.832031 29.25 C 289.234375 27.144531 288.765625 24.101562 286.660156 22.699219 C 285.492188 21.761719 284.085938 21.0625 282.683594 20.59375 L 282.683594 16.847656 C 282.683594 14.273438 280.578125 12.167969 278.003906 12.167969 C 275.429688 12.167969 273.324219 14.273438 273.324219 16.847656 L 273.324219 19.421875 C 271.683594 19.65625 270.046875 20.125 268.410156 20.828125 C 261.855469 23.867188 258.582031 30.65625 260.453125 36.972656 C 262.792969 44.460938 269.8125 46.566406 274.726562 48.207031 Z M 274.726562 48.207031 " fill-opacity="1" fill-rule="nonzero"/><path fill="#c3c2c1" d="M 114.898438 80.03125 C 112.324219 80.03125 110.21875 82.136719 110.21875 84.710938 L 110.21875 136.195312 L 142.980469 136.195312 L 142.980469 84.710938 C 142.980469 82.136719 140.875 80.03125 138.300781 80.03125 Z M 114.898438 80.03125 " fill-opacity="1" fill-rule="nonzero"/><path fill="#c3c2c1" d="M 157.019531 47.269531 L 157.019531 136.195312 L 189.78125 136.195312 L 189.78125 47.269531 C 189.78125 44.695312 187.675781 42.589844 185.101562 42.589844 L 161.699219 42.589844 C 159.125 42.589844 157.019531 44.695312 157.019531 47.269531 Z M 157.019531 47.269531 " fill-opacity="1" fill-rule="nonzero"/><path fill="#c3c2c1" d="M 68.097656 112.792969 C 65.523438 112.792969 63.417969 114.898438 63.417969 117.472656 L 63.417969 136.195312 L 96.179688 136.195312 L 96.179688 117.472656 C 96.179688 114.898438 94.070312 112.792969 91.496094 112.792969 Z M 68.097656 112.792969 " fill-opacity="1" fill-rule="nonzero"/><path fill="#c3c2c1" d="M 295.085938 145.554688 L 291.808594 145.554688 C 292.277344 144.148438 292.746094 142.511719 292.746094 140.875 C 292.746094 134.320312 288.300781 128.9375 282.449219 127.300781 C 283.152344 125.664062 283.386719 124.023438 283.386719 122.152344 C 283.386719 114.429688 277.066406 108.113281 269.34375 108.113281 L 245.945312 108.113281 C 238.222656 108.113281 231.902344 114.429688 231.902344 122.152344 C 231.902344 128.707031 236.347656 134.085938 242.199219 135.726562 C 241.496094 137.363281 241.261719 139 241.261719 140.875 C 241.261719 142.277344 241.496094 143.914062 241.964844 145.085938 C 241.496094 145.085938 233.773438 145.554688 232.371094 145.554688 C 232.136719 144.148438 231.902344 142.511719 231.902344 140.875 C 226.285156 136.660156 222.542969 129.875 222.542969 122.152344 C 222.542969 109.28125 233.074219 98.75 245.945312 98.75 L 263.730469 98.75 C 259.515625 91.03125 253.898438 84.476562 248.984375 79.5625 L 255.070312 60.375 C 255.773438 58.503906 255.070312 56.394531 253.433594 55.226562 C 251.792969 54.054688 249.6875 53.820312 248.050781 54.992188 C 248.050781 54.992188 241.03125 59.203125 237.988281 55.695312 C 237.050781 54.757812 235.882812 54.289062 234.476562 54.289062 L 233.773438 54.289062 C 232.605469 54.289062 231.203125 54.757812 230.265625 55.695312 C 227.222656 58.96875 220.203125 54.992188 220.203125 54.992188 C 218.566406 54.054688 216.457031 54.054688 214.820312 55.226562 C 213.183594 56.394531 212.714844 58.503906 213.183594 60.375 L 219.265625 79.5625 C 209.90625 88.691406 197.972656 104.132812 198.90625 122.386719 C 199.375 131.511719 203.589844 139.703125 209.90625 145.554688 L 4.914062 145.554688 C 2.339844 145.554688 0.234375 147.660156 0.234375 150.234375 C 0.234375 232.839844 67.394531 300 150 300 C 232.605469 300 299.765625 232.839844 299.765625 150.234375 C 299.765625 147.660156 297.660156 145.554688 295.085938 145.554688 Z M 234.242188 64.585938 C 237.050781 66.226562 240.328125 66.691406 243.371094 66.226562 L 240.5625 75.351562 L 228.160156 75.351562 L 225.351562 66.226562 C 228.160156 66.691406 231.433594 66.226562 234.242188 64.585938 Z M 283.386719 140.875 C 283.386719 143.449219 281.277344 145.554688 278.707031 145.554688 L 255.304688 145.554688 C 252.730469 145.554688 250.625 143.449219 250.625 140.875 C 250.625 138.300781 252.730469 136.195312 255.304688 136.195312 L 278.707031 136.195312 C 281.277344 136.195312 283.386719 138.300781 283.386719 140.875 Z M 241.261719 122.152344 C 241.261719 119.578125 243.371094 117.472656 245.945312 117.472656 L 269.34375 117.472656 C 271.917969 117.472656 274.023438 119.578125 274.023438 122.152344 C 274.023438 124.726562 271.917969 126.832031 269.34375 126.832031 L 245.945312 126.832031 C 243.371094 126.832031 241.261719 124.726562 241.261719 122.152344 Z M 150 290.640625 C 110.21875 290.640625 74.414062 274.023438 48.675781 247.347656 C 50.3125 246.644531 51.714844 245.476562 52.652344 244.539062 C 58.269531 238.691406 57.097656 229.09375 56.394531 225.117188 C 55.929688 222.074219 56.394531 219.265625 57.332031 215.757812 L 57.332031 215.289062 C 57.800781 213.417969 58.503906 211.308594 59.203125 209.4375 C 60.609375 205.460938 62.246094 200.78125 62.011719 195.867188 C 61.308594 186.039062 54.289062 180.1875 48.441406 175.039062 C 43.058594 170.359375 38.613281 166.613281 37.910156 160.765625 C 37.675781 158.890625 37.441406 157.019531 37.441406 155.148438 L 101.09375 155.148438 C 102.730469 164.273438 108.113281 170.828125 116.769531 174.804688 L 118.175781 175.507812 C 124.257812 178.316406 130.109375 181.125 137.832031 180.421875 C 138.066406 180.421875 138.300781 180.421875 138.300781 180.421875 C 141.109375 179.953125 149.765625 179.25 153.746094 182.996094 C 156.085938 185.101562 156.785156 188.144531 156.316406 192.824219 C 155.851562 197.035156 157.488281 200.3125 158.890625 202.886719 C 159.359375 204.054688 160.0625 204.992188 160.296875 205.929688 C 161.234375 208.96875 161.464844 212.480469 161.464844 216.226562 C 161.464844 219.5 161.699219 223.011719 162.402344 226.519531 C 164.273438 234.945312 167.550781 241.730469 172.230469 246.410156 C 175.039062 249.21875 178.550781 250.625 182.292969 250.625 C 186.269531 250.625 190.71875 248.984375 195.164062 245.945312 C 200.3125 242.199219 206.394531 237.519531 210.84375 231.902344 C 213.652344 228.394531 216.457031 224.882812 217.628906 220.203125 C 218.566406 216.457031 218.796875 212.480469 219.265625 208.96875 C 219.734375 204.523438 219.96875 200.546875 221.371094 196.800781 C 223.011719 192.589844 225.820312 188.613281 229.09375 184.632812 C 230.734375 182.761719 232.136719 180.65625 233.542969 178.550781 C 234.007812 177.847656 234.710938 177.144531 235.414062 176.210938 C 237.988281 172.933594 241.261719 168.953125 240.796875 164.039062 C 240.328125 161.234375 238.921875 158.890625 236.117188 156.785156 C 234.945312 156.085938 234.007812 155.382812 232.839844 154.914062 L 290.40625 154.914062 C 287.832031 230.265625 225.820312 290.640625 150 290.640625 Z M 150 290.640625 " fill-opacity="1" fill-rule="nonzero"/></svg>