<svg xmlns="http://www.w3.org/2000/svg" xmlns:xlink="http://www.w3.org/1999/xlink" width="400" zoomAndPan="magnify" viewBox="0 0 300 299.999988" height="400" preserveAspectRatio="xMidYMid meet" version="1.0"><defs><clipPath id="25a6fdc25f"><path d="M 2.25 3 L 216 3 L 216 257 L 2.25 257 Z M 2.25 3 " clip-rule="nonzero"/></clipPath><clipPath id="0af8cf4c8a"><path d="M 79 208 L 297.75 208 L 297.75 300 L 79 300 Z M 79 208 " clip-rule="nonzero"/></clipPath></defs><g clip-path="url(#25a6fdc25f)"><path fill="#c3c2c1" d="M 214.792969 98.210938 C 210.757812 94.171875 206.273438 90.585938 200.894531 89.6875 C 193.269531 88.34375 186.546875 89.6875 180.714844 93.726562 C 179.820312 91.035156 178.472656 88.34375 177.578125 85.207031 C 182.957031 82.964844 187.441406 80.273438 190.132812 76.683594 C 193.71875 73.097656 195.511719 68.613281 195.960938 63.234375 C 195.960938 61.886719 195.960938 60.542969 195.960938 59.199219 C 195.511719 50.679688 190.132812 42.160156 183.855469 40.8125 C 183.855469 42.605469 184.75 44.847656 185.199219 46.640625 C 185.648438 49.78125 185.199219 52.921875 185.199219 56.058594 C 182.957031 63.234375 177.128906 67.71875 168.160156 67.269531 C 162.78125 67.269531 157.847656 65.027344 153.363281 61.886719 C 148.878906 58.75 143.5 56.957031 137.667969 57.851562 C 135.425781 57.851562 133.632812 57.851562 131.390625 56.957031 C 127.355469 55.160156 123.769531 54.714844 119.285156 55.160156 C 117.042969 55.160156 114.800781 55.160156 112.558594 54.265625 C 108.523438 53.367188 105.382812 52.921875 101.347656 55.160156 C 100.449219 55.160156 99.554688 55.160156 98.65625 55.160156 C 94.171875 52.921875 89.242188 51.125 85.207031 48.882812 C 84.757812 48.882812 84.308594 48.4375 83.410156 47.988281 C 76.683594 43.503906 72.648438 37.675781 70.855469 30.949219 C 68.613281 21.980469 71.753906 12.113281 79.824219 4.042969 C 79.824219 4.042969 79.824219 4.042969 80.273438 3.148438 C 64.578125 4.042969 49.332031 19.289062 47.988281 35.878906 C 47.988281 39.46875 47.988281 43.503906 48.882812 47.539062 C 49.78125 51.574219 51.574219 55.160156 53.367188 58.75 C 54.265625 60.09375 55.160156 61.441406 56.058594 62.335938 C 56.957031 63.234375 57.402344 64.128906 58.300781 65.027344 C 62.785156 69.960938 69.0625 73.546875 76.238281 74.445312 C 82.964844 75.339844 89.242188 78.480469 93.726562 83.410156 C 99.105469 89.242188 101.347656 95.96875 101.347656 103.140625 C 98.65625 99.105469 95.96875 94.171875 92.828125 90.585938 C 86.550781 82.964844 78.480469 78.03125 68.164062 78.03125 C 57.402344 78.03125 47.988281 81.617188 40.363281 89.6875 C 48.4375 95.96875 56.507812 102.246094 64.578125 108.074219 C 49.332031 116.144531 33.191406 124.664062 17.046875 133.183594 C 17.046875 133.183594 17.046875 133.183594 16.597656 133.183594 C 16.597656 130.941406 17.046875 129.148438 17.496094 127.355469 C 19.289062 117.042969 22.429688 107.175781 26.464844 98.210938 C 28.707031 93.726562 30.949219 89.242188 33.636719 84.757812 C 37.226562 78.925781 41.261719 73.097656 45.746094 67.71875 C 45.296875 66.820312 44.398438 65.921875 43.953125 65.027344 C 43.503906 64.128906 42.605469 63.234375 42.160156 62.335938 C 42.160156 62.335938 41.710938 61.441406 41.261719 60.992188 C 40.363281 60.09375 39.917969 59.199219 39.019531 57.851562 C 37.675781 59.199219 36.328125 60.992188 34.984375 62.335938 C 34.085938 63.234375 33.636719 64.128906 32.742188 65.027344 C 13.460938 89.6875 2.25 120.628906 2.25 154.261719 C 2.25 187.890625 4.492188 182.507812 8.078125 195.511719 C 9.425781 199.550781 10.769531 203.585938 12.113281 207.171875 C 12.113281 207.621094 12.113281 208.070312 13.011719 208.964844 C 14.355469 212.554688 16.152344 216.589844 18.394531 220.175781 C 21.53125 226.003906 25.117188 231.835938 28.707031 237.214844 C 30.050781 239.457031 31.84375 241.25 33.191406 243.492188 C 33.191406 243.941406 34.085938 244.390625 34.535156 244.839844 C 37.675781 248.875 41.261719 252.910156 44.847656 256.496094 C 44.847656 251.5625 45.296875 246.632812 46.195312 242.148438 C 48.4375 229.59375 52.921875 218.382812 59.644531 208.070312 C 62.335938 204.03125 65.027344 200.445312 68.164062 196.859375 C 76.238281 187.890625 86.101562 180.265625 96.863281 175.335938 C 91.484375 173.09375 87 169.953125 83.859375 165.46875 C 82.066406 163.226562 80.722656 160.539062 79.824219 157.398438 C 77.582031 150.222656 78.03125 143.050781 79.824219 135.875 C 81.167969 130.046875 83.859375 125.113281 87 120.179688 C 87 121.078125 87 121.972656 86.550781 122.421875 C 80.722656 136.773438 84.308594 151.121094 94.621094 160.984375 C 97.3125 163.675781 100.449219 165.46875 104.039062 167.265625 C 106.28125 168.160156 108.523438 169.058594 110.765625 169.953125 C 117.492188 172.195312 124.214844 173.09375 131.390625 173.09375 C 140.359375 173.09375 149.777344 172.195312 158.296875 168.609375 C 159.191406 168.609375 160.539062 168.609375 160.984375 168.609375 C 160.984375 168.609375 161.882812 168.609375 162.332031 169.503906 C 165.917969 171.300781 169.953125 173.542969 173.988281 174.886719 C 174.886719 174.886719 175.785156 175.335938 177.128906 175.785156 C 177.578125 175.785156 178.027344 175.785156 178.472656 175.785156 C 186.546875 176.679688 196.410156 173.09375 199.996094 165.46875 C 199.996094 165.023438 201.34375 164.574219 201.789062 164.574219 C 206.273438 164.574219 209.414062 162.332031 210.3125 157.847656 C 211.207031 154.707031 211.207031 151.121094 210.757812 147.535156 C 210.757812 146.1875 210.3125 144.394531 209.863281 143.050781 C 209.414062 140.808594 208.515625 138.566406 208.070312 135.875 C 207.171875 131.390625 205.378906 128.253906 201.789062 126.011719 C 197.753906 123.320312 193.71875 120.179688 189.683594 117.042969 C 187.890625 115.695312 186.546875 113.902344 184.75 112.109375 C 198.652344 114.351562 206.722656 105.832031 215.242188 97.761719 Z M 46.195312 198.203125 C 42.15625 204.929688 38.570312 212.105469 35.433594 219.277344 C 35.433594 213.449219 38.570312 205.378906 43.503906 197.308594 C 43.503906 197.308594 43.953125 196.410156 44.398438 195.960938 C 47.988281 190.582031 51.574219 185.648438 56.058594 181.164062 C 58.300781 178.921875 60.542969 176.679688 63.234375 175.335938 C 62.335938 176.230469 61.441406 177.578125 60.542969 178.472656 C 55.609375 184.304688 51.125 190.582031 47.089844 197.308594 C 47.089844 197.308594 47.089844 197.753906 46.640625 198.203125 Z M 56.058594 88.34375 C 60.542969 84.308594 69.960938 84.308594 75.339844 88.34375 C 69.0625 86.550781 62.335938 86.550781 56.058594 88.34375 Z M 99.105469 69.511719 C 98.210938 72.203125 96.414062 73.546875 93.726562 73.097656 C 87.445312 71.753906 82.066406 69.0625 77.582031 65.476562 C 74.890625 63.234375 72.648438 60.542969 70.855469 57.851562 C 70.40625 56.957031 69.511719 56.058594 69.0625 54.714844 C 67.269531 51.574219 65.921875 47.988281 65.027344 44.398438 C 65.027344 43.503906 65.027344 42.605469 64.578125 41.710938 C 66.371094 46.195312 69.0625 50.230469 71.753906 53.367188 C 73.546875 55.160156 74.890625 56.957031 76.683594 58.300781 C 81.617188 62.335938 86.550781 65.027344 91.929688 66.371094 C 92.828125 66.371094 93.277344 66.371094 94.171875 66.820312 C 94.171875 66.820312 93.726562 66.820312 93.277344 66.371094 C 90.136719 64.128906 87.445312 61.886719 85.207031 59.199219 C 84.308594 57.851562 83.410156 56.507812 82.515625 55.160156 C 85.652344 56.957031 89.242188 58.75 92.378906 60.09375 C 93.726562 60.542969 95.070312 61.441406 96.414062 62.335938 C 98.210938 63.234375 99.105469 65.027344 99.554688 66.820312 C 99.554688 67.71875 99.554688 69.0625 99.554688 69.960938 Z M 103.589844 157.847656 C 93.277344 151.121094 89.6875 137.667969 95.519531 124.664062 C 94.171875 138.117188 98.210938 148.878906 107.175781 156.5 C 109.417969 158.742188 112.558594 160.539062 115.695312 161.882812 C 110.765625 161.433594 106.730469 159.640625 103.140625 157.398438 Z M 176.679688 168.609375 C 182.507812 166.367188 186.992188 162.78125 193.269531 163.675781 C 193.269531 169.058594 182.957031 171.746094 176.679688 168.609375 Z M 193.269531 127.355469 C 188.339844 127.804688 183.40625 128.253906 178.027344 129.148438 C 182.0625 131.839844 186.097656 132.738281 190.132812 133.183594 C 193.71875 133.632812 197.753906 133.183594 201.34375 133.183594 C 203.136719 133.183594 204.480469 133.632812 205.828125 135.425781 C 207.171875 136.773438 205.828125 137.667969 204.929688 139.015625 C 204.480469 139.910156 203.585938 140.808594 203.585938 141.703125 C 203.585938 142.601562 203.585938 143.050781 203.585938 143.945312 C 203.585938 146.1875 202.6875 148.429688 202.6875 150.671875 C 204.03125 149.328125 204.929688 148.878906 205.828125 147.980469 L 206.273438 147.980469 C 206.273438 150.671875 206.273438 153.8125 205.828125 156.5 C 205.828125 156.5 205.828125 156.5 205.828125 156.949219 C 205.828125 156.949219 205.828125 157.847656 205.378906 157.847656 C 205.378906 157.847656 204.929688 157.847656 204.480469 157.847656 C 204.480469 157.847656 203.585938 157.847656 203.136719 157.847656 C 197.308594 154.707031 191.027344 155.605469 185.199219 157.847656 C 182.957031 158.742188 180.714844 159.640625 178.472656 160.539062 C 177.578125 160.539062 176.679688 161.433594 175.335938 161.433594 C 167.710938 163.675781 162.78125 160.089844 161.882812 152.464844 C 161.882812 149.777344 161.882812 147.085938 161.882812 144.394531 C 162.332031 142.152344 163.226562 139.460938 164.574219 137.21875 C 169.503906 128.253906 169.058594 124.664062 161.882812 117.492188 C 160.539062 115.695312 158.742188 114.351562 156.949219 112.558594 C 151.570312 107.175781 147.535156 100.898438 145.292969 93.726562 C 142.601562 85.207031 137.21875 78.480469 129.148438 74.445312 C 121.972656 70.855469 114.800781 70.40625 107.175781 74.890625 C 107.175781 74.890625 106.730469 74.890625 106.28125 74.890625 C 108.523438 71.753906 109.417969 68.613281 108.972656 65.027344 C 108.972656 64.128906 108.972656 63.234375 108.972656 62.335938 C 108.972656 61.441406 108.972656 60.542969 108.523438 59.644531 C 108.972656 59.644531 109.417969 59.644531 109.867188 59.644531 C 112.558594 60.992188 115.695312 61.886719 118.835938 60.992188 C 124.214844 60.09375 129.597656 60.992188 134.53125 63.683594 C 134.976562 63.683594 135.875 64.128906 135.875 64.128906 C 137.21875 63.683594 138.117188 62.785156 139.460938 62.785156 C 146.1875 62.785156 152.019531 65.027344 156.5 68.613281 C 159.191406 70.855469 161.433594 73.097656 163.226562 76.238281 C 165.023438 78.925781 166.367188 82.066406 169.503906 83.859375 C 172.195312 85.207031 173.09375 88.34375 172.195312 91.484375 C 170.851562 97.761719 173.09375 103.589844 176.679688 108.972656 C 181.164062 115.25 186.546875 120.179688 193.269531 124.664062 Z M 193.269531 127.355469 " fill-opacity="1" fill-rule="nonzero"/></g><path fill="#c3c2c1" d="M 219.277344 46.640625 C 258.738281 75.339844 276.226562 114.800781 273.535156 163.226562 L 286.089844 163.226562 C 291.472656 121.078125 271.742188 66.371094 223.761719 33.191406 C 176.230469 0.457031 120.179688 5.390625 85.652344 22.429688 C 87.445312 26.015625 89.6875 30.050781 91.484375 33.191406 C 136.773438 14.804688 179.820312 17.496094 219.277344 46.195312 Z M 219.277344 46.640625 " fill-opacity="1" fill-rule="nonzero"/><path fill="#c3c2c1" d="M 131.839844 249.769531 C 130.496094 251.5625 129.148438 252.910156 127.355469 254.703125 C 127.804688 242.148438 132.738281 229.59375 141.703125 219.277344 C 162.78125 195.511719 199.101562 193.269531 222.867188 214.347656 C 224.660156 215.691406 226.453125 217.484375 227.796875 219.277344 C 203.136719 203.136719 161.433594 215.691406 131.390625 249.320312 Z M 131.839844 249.769531 " fill-opacity="1" fill-rule="nonzero"/><g clip-path="url(#0af8cf4c8a)"><path fill="#c3c2c1" d="M 277.570312 217.035156 C 269.949219 219.277344 262.773438 221.96875 256.496094 226.453125 C 253.359375 228.695312 250.21875 230.9375 247.527344 233.179688 C 247.078125 233.179688 246.632812 234.078125 246.183594 234.523438 C 243.492188 237.214844 240.800781 239.90625 238.113281 243.042969 C 238.113281 243.042969 238.113281 243.042969 237.664062 243.492188 C 235.421875 246.183594 233.179688 249.320312 230.9375 252.460938 C 232.28125 248.875 233.628906 245.285156 235.421875 242.148438 C 235.421875 241.25 236.316406 240.800781 236.765625 239.90625 C 238.558594 236.765625 240.800781 233.628906 243.042969 230.9375 C 243.492188 230.488281 243.941406 229.59375 244.390625 229.144531 C 245.734375 227.351562 247.078125 226.003906 248.875 224.660156 C 246.632812 225.554688 244.390625 226.003906 242.597656 227.351562 C 242.597656 227.351562 241.699219 227.351562 241.25 228.246094 C 241.25 228.246094 240.355469 228.246094 240.355469 228.695312 C 238.113281 230.039062 235.871094 231.386719 233.628906 232.730469 C 231.386719 234.523438 229.144531 236.316406 226.902344 238.113281 C 226.003906 239.007812 224.660156 239.90625 223.761719 240.800781 C 215.691406 248.875 208.964844 258.289062 203.585938 269.050781 C 201.789062 272.640625 199.996094 274.882812 196.410156 275.777344 C 192.375 277.125 188.339844 278.917969 183.855469 280.710938 C 189.234375 264.566406 198.203125 252.011719 209.414062 240.800781 C 191.476562 242.597656 175.335938 250.667969 163.226562 263.222656 C 151.121094 275.777344 152.019531 276.226562 147.085938 283.847656 C 147.085938 284.296875 146.1875 285.195312 145.738281 285.644531 C 152.019531 265.464844 165.46875 250.21875 181.164062 236.765625 C 153.8125 243.941406 134.082031 260.980469 117.9375 283.402344 C 116.144531 277.125 115.25 270.84375 115.25 264.121094 C 115.25 242.148438 124.664062 222.417969 139.460938 208.964844 C 139.460938 208.964844 139.460938 208.964844 139.910156 208.070312 C 108.074219 220.175781 84.308594 248.875 79.375 283.402344 C 92.828125 290.574219 108.074219 295.957031 123.769531 298.199219 C 126.457031 298.199219 129.148438 299.09375 132.289062 299.09375 C 135.875 299.09375 139.460938 299.542969 143.050781 299.542969 L 147.980469 299.542969 C 165.917969 299.542969 183.40625 295.957031 200.445312 288.78125 C 210.757812 284.296875 220.175781 278.917969 228.695312 272.640625 C 233.179688 269.5 236.765625 265.914062 240.800781 262.324219 C 245.285156 258.289062 249.320312 253.804688 253.359375 248.875 C 253.804688 247.976562 254.253906 247.527344 255.152344 247.078125 C 255.152344 247.078125 255.152344 246.632812 256.046875 246.183594 C 258.289062 243.492188 260.082031 241.25 262.324219 239.007812 C 264.566406 236.316406 267.257812 234.078125 269.949219 231.835938 C 277.570312 225.109375 286.539062 220.175781 295.957031 216.140625 C 295.957031 216.140625 296.851562 216.140625 297.75 215.242188 C 290.574219 215.242188 283.847656 216.140625 278.019531 217.933594 Z M 117.042969 226.003906 C 111.660156 238.113281 108.523438 251.117188 104.933594 263.671875 C 104.039062 249.769531 108.972656 237.214844 117.042969 226.003906 Z M 117.042969 226.003906 " fill-opacity="1" fill-rule="nonzero"/></g><path fill="#c3c2c1" d="M 171.746094 191.027344 C 170.402344 191.027344 169.058594 191.027344 167.710938 191.476562 C 166.816406 191.476562 165.46875 191.476562 164.574219 191.476562 C 115.25 191.476562 73.546875 226.003906 62.785156 272.191406 C 60.542969 270.398438 58.300781 269.050781 56.058594 267.257812 C 56.058594 258.738281 57.402344 250.667969 59.644531 242.597656 C 59.644531 242.597656 59.644531 241.699219 59.644531 241.25 C 59.644531 240.800781 59.644531 239.90625 60.09375 239.457031 C 60.09375 239.007812 60.09375 238.558594 60.542969 238.113281 C 60.542969 238.113281 60.542969 237.664062 60.542969 237.214844 C 60.542969 237.214844 60.542969 236.316406 60.992188 235.871094 C 60.992188 235.871094 60.992188 235.421875 60.992188 234.972656 C 63.234375 229.144531 65.921875 223.316406 69.511719 218.382812 C 75.789062 208.964844 83.859375 200.894531 95.070312 195.066406 C 90.585938 201.789062 86.101562 208.515625 82.066406 215.242188 C 107.625 191.476562 136.324219 181.164062 170.851562 190.132812 C 170.851562 190.132812 170.851562 190.582031 170.851562 191.027344 Z M 171.746094 191.027344 " fill-opacity="1" fill-rule="nonzero"/><path fill="#ffffff" d="M 190.132812 148.878906 C 182.507812 148.878906 178.921875 146.1875 176.679688 134.082031 C 180.714844 135.425781 184.304688 136.773438 187.890625 138.566406 C 191.476562 139.910156 193.71875 142.601562 193.71875 145.738281 C 193.71875 148.429688 192.824219 148.878906 190.132812 148.878906 Z M 190.132812 148.878906 " fill-opacity="1" fill-rule="nonzero"/><path fill="#c3c2c1" d="M 193.71875 145.738281 C 193.71875 148.429688 192.824219 148.878906 190.132812 148.878906 C 182.507812 148.878906 178.921875 146.1875 176.679688 134.082031 C 180.714844 135.425781 184.304688 136.773438 187.890625 138.566406 C 191.476562 139.910156 193.71875 142.601562 193.71875 145.738281 Z M 193.71875 145.738281 " fill-opacity="1" fill-rule="nonzero"/></svg>