<svg xmlns="http://www.w3.org/2000/svg" xmlns:xlink="http://www.w3.org/1999/xlink" width="500" zoomAndPan="magnify" viewBox="0 0 375 374.999991" height="500" preserveAspectRatio="xMidYMid meet" version="1.0"><defs><clipPath id="47d77b1f92"><path d="M 0 16.40625 L 375 16.40625 L 375 358.40625 L 0 358.40625 Z M 0 16.40625 " clip-rule="nonzero"/></clipPath></defs><path fill="#60b7fe" d="M 173.53125 53.8125 C 240.65625 53.8125 295.070312 108.199219 295.070312 175.285156 C 295.070312 242.371094 240.65625 296.757812 173.53125 296.757812 C 106.410156 296.757812 51.992188 242.371094 51.992188 175.285156 C 51.992188 108.199219 106.410156 53.8125 173.53125 53.8125 Z M 173.53125 118.542969 C 142.175781 118.542969 116.757812 143.945312 116.757812 175.285156 C 116.757812 206.625 142.175781 232.027344 173.53125 232.027344 C 204.886719 232.027344 230.304688 206.625 230.304688 175.285156 C 230.304688 143.945312 204.886719 118.542969 173.53125 118.542969 Z M 173.53125 118.542969 " fill-opacity="1" fill-rule="evenodd"/><path fill="#fa6e85" d="M 173.53125 32.710938 C 252.316406 32.710938 316.183594 96.542969 316.183594 175.285156 C 316.183594 254.027344 252.316406 317.863281 173.53125 317.863281 L 173.53125 232.027344 C 204.886719 232.027344 230.304688 206.625 230.304688 175.285156 C 230.304688 143.949219 204.886719 118.542969 173.53125 118.542969 Z M 173.53125 32.710938 " fill-opacity="1" fill-rule="evenodd"/><path fill="#19cfba" d="M 289.332031 59.546875 C 318.96875 89.167969 337.300781 130.085938 337.300781 175.285156 C 337.300781 265.683594 263.976562 338.964844 173.53125 338.964844 C 128.308594 338.964844 87.363281 320.644531 57.726562 291.023438 L 133.386719 215.410156 C 143.660156 225.675781 157.851562 232.027344 173.53125 232.027344 C 204.886719 232.027344 230.304688 206.625 230.304688 175.285156 C 230.304688 159.617188 223.949219 145.429688 213.675781 135.164062 Z M 289.332031 59.546875 " fill-opacity="1" fill-rule="evenodd"/><path fill="#ffbf31" d="M 198.164062 109.621094 C 205.460938 112.359375 212.179688 116.273438 218.089844 121.136719 L 240.882812 116.296875 C 241.734375 116.113281 242.570312 116.484375 243.003906 117.238281 L 258.566406 144.171875 C 259 144.925781 258.90625 145.835938 258.320312 146.484375 L 242.738281 163.78125 C 244 171.402344 243.996094 179.164062 242.738281 186.785156 L 258.324219 204.085938 C 258.90625 204.730469 259 205.640625 258.566406 206.394531 L 243.007812 233.328125 C 242.570312 234.082031 241.734375 234.453125 240.882812 234.273438 L 218.097656 229.433594 C 212.183594 234.296875 205.464844 238.214844 198.164062 240.953125 L 190.96875 263.074219 C 190.703125 263.902344 189.960938 264.441406 189.089844 264.441406 L 157.972656 264.441406 C 157.101562 264.441406 156.363281 263.902344 156.09375 263.074219 L 148.898438 240.945312 C 141.601562 238.210938 134.882812 234.292969 128.976562 229.429688 L 106.179688 234.273438 C 105.328125 234.453125 104.492188 234.082031 104.058594 233.328125 L 88.5 206.394531 C 88.0625 205.640625 88.160156 204.730469 88.742188 204.085938 L 104.324219 186.789062 C 103.066406 179.175781 103.066406 171.390625 104.324219 163.777344 L 88.742188 146.480469 C 88.160156 145.835938 88.0625 144.925781 88.5 144.171875 L 104.058594 117.238281 C 104.492188 116.484375 105.328125 116.113281 106.179688 116.292969 L 128.976562 121.136719 C 134.886719 116.273438 141.601562 112.355469 148.898438 109.621094 L 156.09375 87.492188 C 156.363281 86.664062 157.101562 86.128906 157.972656 86.128906 C 168.34375 86.128906 178.71875 86.128906 189.089844 86.128906 C 189.960938 86.128906 190.699219 86.664062 190.96875 87.492188 Z M 173.53125 127.863281 C 147.328125 127.863281 126.085938 149.097656 126.085938 175.285156 C 126.085938 201.476562 147.328125 222.707031 173.53125 222.707031 C 199.734375 222.707031 220.976562 201.476562 220.976562 175.285156 C 220.976562 149.09375 199.734375 127.863281 173.53125 127.863281 Z M 173.53125 127.863281 " fill-opacity="1" fill-rule="evenodd"/><path fill="#fa6e85" d="M 328.613281 36.929688 C 328.613281 37.902344 328.519531 38.863281 328.328125 39.8125 C 328.140625 40.765625 327.859375 41.6875 327.488281 42.585938 C 327.117188 43.480469 326.660156 44.332031 326.121094 45.140625 C 325.582031 45.945312 324.96875 46.691406 324.28125 47.378906 C 323.597656 48.0625 322.851562 48.675781 322.042969 49.214844 C 321.234375 49.753906 320.382812 50.207031 319.488281 50.578125 C 318.589844 50.953125 317.667969 51.230469 316.714844 51.421875 C 315.761719 51.609375 314.800781 51.703125 313.832031 51.703125 C 312.859375 51.703125 311.898438 51.609375 310.945312 51.421875 C 309.996094 51.230469 309.070312 50.953125 308.175781 50.578125 C 307.277344 50.207031 306.425781 49.753906 305.617188 49.214844 C 304.8125 48.675781 304.066406 48.0625 303.378906 47.378906 C 302.691406 46.691406 302.078125 45.945312 301.539062 45.140625 C 301 44.332031 300.546875 43.480469 300.175781 42.585938 C 299.804688 41.6875 299.523438 40.765625 299.332031 39.8125 C 299.144531 38.863281 299.050781 37.902344 299.050781 36.929688 C 299.050781 35.960938 299.144531 35 299.332031 34.050781 C 299.523438 33.097656 299.804688 32.175781 300.175781 31.277344 C 300.546875 30.382812 301 29.53125 301.539062 28.722656 C 302.078125 27.917969 302.691406 27.171875 303.378906 26.484375 C 304.066406 25.800781 304.8125 25.1875 305.617188 24.648438 C 306.425781 24.109375 307.277344 23.652344 308.175781 23.28125 C 309.070312 22.910156 309.996094 22.632812 310.945312 22.441406 C 311.898438 22.253906 312.859375 22.15625 313.832031 22.15625 C 314.800781 22.15625 315.761719 22.253906 316.714844 22.441406 C 317.667969 22.632812 318.589844 22.910156 319.488281 23.28125 C 320.382812 23.652344 321.234375 24.109375 322.042969 24.648438 C 322.851562 25.1875 323.597656 25.800781 324.28125 26.484375 C 324.96875 27.171875 325.582031 27.917969 326.121094 28.722656 C 326.660156 29.53125 327.117188 30.382812 327.488281 31.277344 C 327.859375 32.175781 328.140625 33.097656 328.328125 34.050781 C 328.519531 35 328.613281 35.960938 328.613281 36.929688 Z M 328.613281 36.929688 " fill-opacity="1" fill-rule="nonzero"/><path fill="#60b7fe" d="M 35.253906 55.003906 C 35.253906 55.972656 35.160156 56.933594 34.96875 57.886719 C 34.78125 58.835938 34.5 59.761719 34.128906 60.65625 C 33.757812 61.554688 33.300781 62.40625 32.761719 63.210938 C 32.222656 64.019531 31.613281 64.765625 30.925781 65.449219 C 30.238281 66.136719 29.492188 66.75 28.683594 67.289062 C 27.878906 67.828125 27.027344 68.28125 26.128906 68.652344 C 25.234375 69.023438 24.308594 69.304688 23.355469 69.492188 C 22.40625 69.683594 21.445312 69.777344 20.472656 69.777344 C 19.503906 69.777344 18.542969 69.683594 17.589844 69.492188 C 16.636719 69.304688 15.714844 69.023438 14.816406 68.652344 C 13.917969 68.28125 13.066406 67.828125 12.261719 67.289062 C 11.453125 66.75 10.707031 66.136719 10.019531 65.449219 C 9.335938 64.765625 8.722656 64.019531 8.183594 63.210938 C 7.644531 62.40625 7.1875 61.554688 6.816406 60.65625 C 6.445312 59.761719 6.164062 58.835938 5.976562 57.886719 C 5.785156 56.933594 5.691406 55.972656 5.691406 55.003906 C 5.691406 54.035156 5.785156 53.074219 5.976562 52.121094 C 6.164062 51.171875 6.445312 50.246094 6.816406 49.351562 C 7.1875 48.453125 7.644531 47.601562 8.183594 46.796875 C 8.722656 45.988281 9.335938 45.242188 10.019531 44.558594 C 10.707031 43.871094 11.453125 43.257812 12.261719 42.71875 C 13.066406 42.179688 13.917969 41.726562 14.816406 41.355469 C 15.714844 40.984375 16.636719 40.703125 17.589844 40.515625 C 18.542969 40.324219 19.503906 40.230469 20.472656 40.230469 C 21.445312 40.230469 22.40625 40.324219 23.355469 40.515625 C 24.308594 40.703125 25.234375 40.984375 26.128906 41.355469 C 27.027344 41.726562 27.878906 42.179688 28.683594 42.71875 C 29.492188 43.257812 30.238281 43.871094 30.925781 44.558594 C 31.613281 45.242188 32.222656 45.988281 32.761719 46.796875 C 33.300781 47.601562 33.757812 48.453125 34.128906 49.351562 C 34.5 50.246094 34.78125 51.171875 34.96875 52.121094 C 35.160156 53.074219 35.253906 54.035156 35.253906 55.003906 Z M 35.253906 55.003906 " fill-opacity="1" fill-rule="nonzero"/><path fill="#19cfba" d="M 369.304688 337.894531 C 369.304688 338.863281 369.210938 339.824219 369.019531 340.777344 C 368.832031 341.726562 368.550781 342.652344 368.179688 343.546875 C 367.808594 344.445312 367.351562 345.292969 366.8125 346.101562 C 366.273438 346.90625 365.660156 347.652344 364.976562 348.339844 C 364.289062 349.027344 363.542969 349.636719 362.734375 350.175781 C 361.929688 350.714844 361.078125 351.171875 360.179688 351.542969 C 359.285156 351.914062 358.359375 352.195312 357.40625 352.382812 C 356.457031 352.574219 355.492188 352.667969 354.523438 352.667969 C 353.554688 352.667969 352.589844 352.574219 351.640625 352.382812 C 350.6875 352.195312 349.761719 351.914062 348.867188 351.542969 C 347.96875 351.171875 347.117188 350.714844 346.3125 350.175781 C 345.503906 349.636719 344.757812 349.027344 344.070312 348.339844 C 343.386719 347.652344 342.773438 346.90625 342.234375 346.101562 C 341.695312 345.292969 341.238281 344.445312 340.867188 343.546875 C 340.496094 342.652344 340.214844 341.726562 340.027344 340.777344 C 339.835938 339.824219 339.742188 338.863281 339.742188 337.894531 C 339.742188 336.921875 339.835938 335.964844 340.027344 335.011719 C 340.214844 334.058594 340.496094 333.136719 340.867188 332.242188 C 341.238281 331.34375 341.695312 330.492188 342.234375 329.6875 C 342.773438 328.878906 343.386719 328.132812 344.070312 327.449219 C 344.757812 326.761719 345.503906 326.148438 346.3125 325.609375 C 347.117188 325.070312 347.96875 324.617188 348.867188 324.246094 C 349.761719 323.875 350.6875 323.59375 351.640625 323.40625 C 352.589844 323.214844 353.554688 323.121094 354.523438 323.121094 C 355.492188 323.121094 356.457031 323.214844 357.40625 323.40625 C 358.359375 323.59375 359.285156 323.875 360.179688 324.246094 C 361.078125 324.617188 361.929688 325.070312 362.734375 325.609375 C 363.542969 326.148438 364.289062 326.761719 364.976562 327.449219 C 365.660156 328.132812 366.273438 328.878906 366.8125 329.6875 C 367.351562 330.492188 367.808594 331.34375 368.179688 332.242188 C 368.550781 333.136719 368.832031 334.058594 369.019531 335.011719 C 369.210938 335.964844 369.304688 336.921875 369.304688 337.894531 Z M 369.304688 337.894531 " fill-opacity="1" fill-rule="nonzero"/><g clip-path="url(#47d77b1f92)"><path fill="#1e2f3f" d="M 354.527344 346.984375 C 349.503906 346.984375 345.429688 342.90625 345.429688 337.890625 C 345.429688 332.871094 349.503906 328.792969 354.527344 328.792969 C 359.542969 328.792969 363.625 332.871094 363.625 337.890625 C 363.625 342.90625 359.542969 346.984375 354.527344 346.984375 Z M 173.53125 333.285156 C 133.207031 333.285156 95.183594 318.289062 65.832031 290.953125 L 119.589844 237.226562 L 127.539062 235.539062 C 132.714844 239.488281 138.335938 242.738281 144.324219 245.234375 L 150.695312 264.832031 C 151.722656 267.996094 154.648438 270.113281 157.96875 270.113281 L 189.089844 270.113281 C 192.417969 270.113281 195.347656 267.996094 196.378906 264.832031 L 202.742188 245.246094 C 208.734375 242.75 214.363281 239.492188 219.539062 235.539062 L 239.710938 239.824219 C 242.960938 240.515625 246.269531 239.046875 247.929688 236.164062 L 263.488281 209.234375 C 265.160156 206.351562 264.773438 202.757812 262.550781 200.289062 L 248.75 184.964844 C 249.578125 178.421875 249.578125 172.140625 248.75 165.597656 L 262.550781 150.277344 C 264.773438 147.804688 265.148438 144.207031 263.488281 141.332031 L 247.929688 114.390625 C 247.253906 113.234375 246.320312 112.3125 245.226562 111.660156 L 289.269531 67.640625 C 316.621094 96.972656 331.617188 134.980469 331.617188 175.28125 C 331.617188 227.921875 305.722656 274.628906 265.996094 303.359375 L 247.191406 282.195312 C 245.109375 279.84375 241.519531 279.632812 239.175781 281.714844 C 236.824219 283.796875 236.609375 287.386719 238.695312 289.734375 L 256.464844 309.738281 C 232.339844 324.660156 203.929688 333.285156 173.53125 333.285156 Z M 57.675781 175.28125 C 57.675781 204.304688 68.292969 231.707031 87.691406 253.046875 L 101.839844 238.90625 C 100.75 238.25 99.808594 237.328125 99.136719 236.164062 L 83.582031 209.230469 C 81.917969 206.351562 82.296875 202.757812 84.523438 200.277344 L 98.316406 184.96875 C 97.5 178.53125 97.5 172.042969 98.316406 165.597656 L 84.523438 150.277344 C 82.296875 147.804688 81.917969 144.207031 83.582031 141.332031 L 99.136719 114.402344 C 100.800781 111.515625 104.105469 110.046875 107.363281 110.738281 L 127.539062 115.019531 C 132.714844 111.066406 138.335938 107.820312 144.324219 105.320312 L 150.695312 85.734375 C 151.722656 82.574219 154.648438 80.441406 157.96875 80.441406 L 167.851562 80.441406 L 167.851562 59.632812 C 147.746094 60.609375 128.96875 66.730469 112.808594 76.710938 L 123.816406 89.097656 C 125.898438 91.441406 125.6875 95.03125 123.339844 97.117188 C 121 99.191406 117.402344 98.988281 115.316406 96.636719 L 103.378906 83.199219 C 75.621094 104.367188 57.675781 137.761719 57.675781 175.28125 Z M 237.136719 164.703125 C 236.851562 163 237.359375 161.257812 238.519531 159.976562 L 252.300781 144.675781 L 239.4375 122.402344 L 219.269531 126.6875 C 217.578125 127.050781 215.820312 126.621094 214.480469 125.515625 C 208.96875 120.984375 202.808594 117.421875 196.171875 114.9375 C 194.550781 114.324219 193.296875 113.011719 192.765625 111.375 L 186.40625 91.800781 L 160.671875 91.800781 L 154.304688 111.375 C 153.769531 113.015625 152.519531 114.324219 150.898438 114.9375 C 144.261719 117.421875 138.097656 120.984375 132.585938 125.515625 C 131.253906 126.621094 129.488281 127.050781 127.796875 126.6875 L 107.636719 122.402344 L 94.765625 144.675781 L 108.550781 159.976562 C 109.703125 161.257812 110.207031 163 109.929688 164.703125 C 108.773438 171.75 108.773438 178.816406 109.929688 185.863281 C 110.207031 187.566406 109.703125 189.304688 108.550781 190.589844 L 94.765625 205.878906 L 107.636719 228.15625 L 127.796875 223.878906 C 129.488281 223.515625 131.253906 223.945312 132.585938 225.046875 C 138.097656 229.582031 144.25 233.140625 150.898438 235.628906 C 152.519531 236.238281 153.769531 237.542969 154.304688 239.1875 L 160.671875 258.761719 L 186.40625 258.761719 L 192.757812 239.195312 C 193.296875 237.550781 194.550781 236.242188 196.171875 235.628906 C 202.820312 233.140625 208.984375 229.582031 214.484375 225.046875 C 215.824219 223.945312 217.582031 223.515625 219.28125 223.878906 L 239.4375 228.15625 L 252.300781 205.878906 L 238.519531 190.578125 C 237.359375 189.300781 236.851562 187.5625 237.136719 185.859375 C 238.296875 178.828125 238.292969 171.726562 237.136719 164.703125 Z M 229.097656 50.074219 C 213.511719 43.164062 196.65625 39.203125 179.214844 38.5 L 179.214844 80.441406 L 189.089844 80.441406 C 192.417969 80.441406 195.34375 82.574219 196.371094 85.734375 L 202.742188 105.320312 C 208.726562 107.820312 214.355469 111.078125 219.519531 115.019531 L 227.484375 113.328125 L 266.28125 74.554688 C 258.109375 67.019531 249.167969 60.574219 239.644531 55.316406 L 218.988281 78.566406 C 217.871094 79.832031 216.304688 80.472656 214.742188 80.472656 C 209.886719 80.472656 207.226562 74.703125 210.492188 71.023438 Z M 20.472656 64.09375 C 15.457031 64.09375 11.375 60.015625 11.375 54.996094 C 11.375 49.984375 15.457031 45.90625 20.472656 45.90625 C 25.496094 45.90625 29.566406 49.980469 29.566406 54.996094 C 29.566406 60.015625 25.496094 64.09375 20.472656 64.09375 Z M 313.835938 27.832031 C 318.847656 27.832031 322.929688 31.910156 322.929688 36.925781 C 322.929688 41.945312 318.847656 46.023438 313.835938 46.023438 C 308.816406 46.023438 304.734375 41.945312 304.734375 36.925781 C 304.734375 31.914062 308.816406 27.832031 313.835938 27.832031 Z M 354.527344 317.433594 C 345.214844 317.433594 337.335938 323.6875 334.867188 332.210938 L 291.625 332.210938 L 273.640625 311.960938 C 357.332031 250.46875 367.019531 129.488281 293.347656 55.527344 C 291.132812 53.304688 287.53125 53.308594 285.316406 55.527344 L 274.316406 66.519531 C 266.007812 58.8125 256.96875 52.160156 247.347656 46.625 L 250.925781 42.601562 L 294.171875 42.601562 C 296.644531 51.125 304.523438 57.382812 313.832031 57.382812 C 325.109375 57.382812 334.292969 48.203125 334.292969 36.925781 C 334.292969 25.652344 325.109375 16.476562 313.832031 16.476562 C 304.523438 16.476562 296.644531 22.726562 294.171875 31.25 L 248.375 31.25 C 246.746094 31.25 245.199219 31.941406 244.121094 33.15625 L 236.988281 41.195312 C 217.40625 31.921875 195.847656 27.027344 173.53125 27.027344 C 170.398438 27.027344 167.851562 29.574219 167.851562 32.707031 L 167.851562 48.265625 C 144.859375 49.28125 123.429688 56.421875 105.167969 68.097656 L 90.183594 51.238281 C 89.105469 50.015625 87.558594 49.320312 85.933594 49.320312 L 40.132812 49.320312 C 37.660156 40.804688 29.785156 34.550781 20.472656 34.550781 C 9.195312 34.550781 0.0078125 43.726562 0.0078125 54.996094 C 0.0078125 66.277344 9.195312 75.453125 20.472656 75.453125 C 29.785156 75.453125 37.664062 69.203125 40.132812 60.675781 L 83.375 60.675781 L 95.820312 74.683594 C 37.175781 120.050781 29.136719 205.984375 79.652344 261.085938 L 53.710938 287.007812 C 51.492188 289.226562 51.492188 292.824219 53.710938 295.039062 C 85.714844 327.023438 128.265625 344.636719 173.53125 344.636719 C 206.136719 344.636719 237.328125 335.5 264.183594 318.433594 L 284.820312 341.664062 C 285.890625 342.875 287.4375 343.570312 289.066406 343.570312 L 334.867188 343.570312 C 337.335938 352.085938 345.214844 358.339844 354.523438 358.339844 C 365.808594 358.339844 374.988281 349.164062 374.988281 337.894531 C 374.992188 326.609375 365.808594 317.433594 354.527344 317.433594 Z M 194.574219 184.796875 C 194.324219 180.804688 192.363281 175.300781 184.441406 171.757812 C 177.839844 168.785156 171.871094 170.359375 167.472656 168.425781 C 165.378906 167.445312 164.246094 166.433594 164.085938 165.414062 C 164.167969 164.726562 164.585938 163.589844 167.351562 162.445312 C 172.902344 159.914062 181.59375 161.78125 186.386719 164.054688 C 189.226562 165.390625 192.613281 164.1875 193.960938 161.355469 C 195.3125 158.523438 194.09375 155.140625 191.265625 153.789062 C 187.5625 152.035156 183.582031 150.878906 179.214844 150.289062 L 179.214844 149.484375 C 179.214844 146.351562 176.667969 143.808594 173.53125 143.808594 C 170.398438 143.808594 167.851562 146.351562 167.851562 149.484375 L 167.851562 150.445312 C 158.117188 152.453125 152.988281 158.519531 152.714844 165.121094 C 152.542969 169.1875 154.6875 175.027344 162.796875 178.78125 C 169.25 181.765625 175.269531 180.171875 179.863281 182.15625 C 182.523438 183.367188 183.066406 184.496094 183.191406 185.148438 C 183.0625 185.875 182.535156 186.996094 179.90625 188.136719 C 174.105469 190.613281 165.894531 188.917969 160.507812 186.46875 C 157.652344 185.175781 154.285156 186.4375 152.988281 189.296875 C 151.695312 192.152344 152.957031 195.519531 155.8125 196.816406 C 159.644531 198.554688 163.675781 199.710938 167.851562 200.289062 L 167.851562 201.074219 C 167.851562 204.210938 170.398438 206.753906 173.53125 206.753906 C 176.667969 206.753906 179.214844 204.210938 179.214844 201.074219 L 179.214844 200.152344 C 188.492188 198.308594 194.117188 192.652344 194.574219 185.5625 C 194.589844 185.304688 194.589844 185.054688 194.574219 184.796875 Z M 173.53125 217.027344 C 196.5625 217.027344 215.300781 198.296875 215.300781 175.28125 C 215.300781 152.261719 196.5625 133.539062 173.53125 133.539062 C 150.503906 133.539062 131.765625 152.261719 131.765625 175.28125 C 131.765625 198.296875 150.503906 217.027344 173.53125 217.027344 Z M 173.53125 122.179688 C 144.238281 122.179688 120.410156 146 120.410156 175.28125 C 120.410156 204.554688 144.238281 228.382812 173.53125 228.382812 C 202.828125 228.382812 226.667969 204.554688 226.667969 175.28125 C 226.667969 146 202.828125 122.179688 173.53125 122.179688 Z M 173.53125 122.179688 " fill-opacity="1" fill-rule="evenodd"/></g></svg>