<svg xmlns="http://www.w3.org/2000/svg" xmlns:xlink="http://www.w3.org/1999/xlink" width="400" zoomAndPan="magnify" viewBox="0 0 300 299.999988" height="400" preserveAspectRatio="xMidYMid meet" version="1.0"><defs><clipPath id="3f09819958"><path d="M 49 18.1875 L 255 18.1875 L 255 41 L 49 41 Z M 49 18.1875 " clip-rule="nonzero"/></clipPath><clipPath id="53d4177b9c"><path d="M 49 40 L 255 40 L 255 246 L 49 246 Z M 49 40 " clip-rule="nonzero"/></clipPath><clipPath id="796b096492"><path d="M 49.675781 40.246094 L 254.21875 40.246094 L 254.21875 225.917969 C 254.21875 228.433594 253.726562 230.925781 252.761719 233.25 C 251.800781 235.574219 250.394531 237.6875 248.613281 239.46875 C 246.839844 241.246094 244.730469 242.660156 242.40625 243.621094 C 240.085938 244.585938 237.59375 245.082031 235.082031 245.082031 L 68.8125 245.082031 C 66.296875 245.082031 63.808594 244.585938 61.488281 243.621094 C 59.167969 242.660156 57.058594 241.246094 55.28125 239.46875 C 53.503906 237.6875 52.09375 235.574219 51.132812 233.25 C 50.171875 230.925781 49.675781 228.433594 49.675781 225.917969 Z M 49.675781 40.246094 " clip-rule="nonzero"/></clipPath><linearGradient x1="2460.587625" gradientTransform="matrix(0.0671998, 0, 0, 0.0672954, 0.0435473, 18.187499)" y1="50.043378" x2="3016.20166" gradientUnits="userSpaceOnUse" y2="3495.165959" id="474fd72d16"><stop stop-opacity="1" stop-color="rgb(85.400391%, 90.440369%, 100%)" offset="0"/><stop stop-opacity="1" stop-color="rgb(85.289001%, 90.367126%, 100%)" offset="0.015625"/><stop stop-opacity="1" stop-color="rgb(85.066223%, 90.220642%, 100%)" offset="0.03125"/><stop stop-opacity="1" stop-color="rgb(84.841919%, 90.075684%, 100%)" offset="0.046875"/><stop stop-opacity="1" stop-color="rgb(84.619141%, 89.929199%, 100%)" offset="0.0625"/><stop stop-opacity="1" stop-color="rgb(84.394836%, 89.782715%, 100%)" offset="0.078125"/><stop stop-opacity="1" stop-color="rgb(84.172058%, 89.63623%, 100%)" offset="0.09375"/><stop stop-opacity="1" stop-color="rgb(83.947754%, 89.489746%, 100%)" offset="0.109375"/><stop stop-opacity="1" stop-color="rgb(83.724976%, 89.343262%, 100%)" offset="0.125"/><stop stop-opacity="1" stop-color="rgb(83.500671%, 89.196777%, 100%)" offset="0.138877"/><stop stop-opacity="1" stop-color="rgb(83.389282%, 89.123535%, 100%)" offset="0.140625"/><stop stop-opacity="1" stop-color="rgb(83.277893%, 89.050293%, 100%)" offset="0.15625"/><stop stop-opacity="1" stop-color="rgb(83.055115%, 88.903809%, 100%)" offset="0.171875"/><stop stop-opacity="1" stop-color="rgb(82.830811%, 88.75885%, 100%)" offset="0.1875"/><stop stop-opacity="1" stop-color="rgb(82.608032%, 88.612366%, 100%)" offset="0.203125"/><stop stop-opacity="1" stop-color="rgb(82.383728%, 88.465881%, 100%)" offset="0.21875"/><stop stop-opacity="1" stop-color="rgb(82.16095%, 88.319397%, 100%)" offset="0.234375"/><stop stop-opacity="1" stop-color="rgb(81.936646%, 88.172913%, 100%)" offset="0.25"/><stop stop-opacity="1" stop-color="rgb(81.713867%, 88.026428%, 100%)" offset="0.265625"/><stop stop-opacity="1" stop-color="rgb(81.489563%, 87.879944%, 100%)" offset="0.28125"/><stop stop-opacity="1" stop-color="rgb(81.266785%, 87.733459%, 100%)" offset="0.296875"/><stop stop-opacity="1" stop-color="rgb(81.04248%, 87.586975%, 100%)" offset="0.3125"/><stop stop-opacity="1" stop-color="rgb(80.819702%, 87.442017%, 100%)" offset="0.328125"/><stop stop-opacity="1" stop-color="rgb(80.596924%, 87.295532%, 100%)" offset="0.34375"/><stop stop-opacity="1" stop-color="rgb(80.37262%, 87.149048%, 100%)" offset="0.359375"/><stop stop-opacity="1" stop-color="rgb(80.149841%, 87.002563%, 100%)" offset="0.375"/><stop stop-opacity="1" stop-color="rgb(79.925537%, 86.856079%, 100%)" offset="0.390625"/><stop stop-opacity="1" stop-color="rgb(79.702759%, 86.709595%, 100%)" offset="0.40625"/><stop stop-opacity="1" stop-color="rgb(79.478455%, 86.56311%, 100%)" offset="0.421875"/><stop stop-opacity="1" stop-color="rgb(79.255676%, 86.416626%, 100%)" offset="0.4375"/><stop stop-opacity="1" stop-color="rgb(79.031372%, 86.270142%, 100%)" offset="0.453125"/><stop stop-opacity="1" stop-color="rgb(78.808594%, 86.125183%, 100%)" offset="0.46875"/><stop stop-opacity="1" stop-color="rgb(78.58429%, 85.978699%, 100%)" offset="0.484375"/><stop stop-opacity="1" stop-color="rgb(78.361511%, 85.832214%, 100%)" offset="0.5"/><stop stop-opacity="1" stop-color="rgb(78.138733%, 85.68573%, 100%)" offset="0.515625"/><stop stop-opacity="1" stop-color="rgb(77.914429%, 85.539246%, 100%)" offset="0.53125"/><stop stop-opacity="1" stop-color="rgb(77.69165%, 85.392761%, 100%)" offset="0.546875"/><stop stop-opacity="1" stop-color="rgb(77.467346%, 85.246277%, 100%)" offset="0.5625"/><stop stop-opacity="1" stop-color="rgb(77.244568%, 85.099792%, 100%)" offset="0.578125"/><stop stop-opacity="1" stop-color="rgb(77.020264%, 84.953308%, 100%)" offset="0.59375"/><stop stop-opacity="1" stop-color="rgb(76.797485%, 84.80835%, 100%)" offset="0.609375"/><stop stop-opacity="1" stop-color="rgb(76.573181%, 84.661865%, 100%)" offset="0.625"/><stop stop-opacity="1" stop-color="rgb(76.350403%, 84.515381%, 100%)" offset="0.640625"/><stop stop-opacity="1" stop-color="rgb(76.127625%, 84.368896%, 100%)" offset="0.65625"/><stop stop-opacity="1" stop-color="rgb(75.90332%, 84.222412%, 100%)" offset="0.671875"/><stop stop-opacity="1" stop-color="rgb(75.680542%, 84.075928%, 100%)" offset="0.6875"/><stop stop-opacity="1" stop-color="rgb(75.456238%, 83.929443%, 100%)" offset="0.703125"/><stop stop-opacity="1" stop-color="rgb(75.233459%, 83.782959%, 100%)" offset="0.71875"/><stop stop-opacity="1" stop-color="rgb(75.009155%, 83.636475%, 100%)" offset="0.734375"/><stop stop-opacity="1" stop-color="rgb(74.786377%, 83.491516%, 100%)" offset="0.75"/><stop stop-opacity="1" stop-color="rgb(74.562073%, 83.345032%, 100%)" offset="0.765625"/><stop stop-opacity="1" stop-color="rgb(74.339294%, 83.198547%, 100%)" offset="0.78125"/><stop stop-opacity="1" stop-color="rgb(74.11499%, 83.052063%, 100%)" offset="0.796875"/><stop stop-opacity="1" stop-color="rgb(73.892212%, 82.905579%, 100%)" offset="0.8125"/><stop stop-opacity="1" stop-color="rgb(73.669434%, 82.759094%, 100%)" offset="0.828125"/><stop stop-opacity="1" stop-color="rgb(73.445129%, 82.61261%, 100%)" offset="0.84375"/><stop stop-opacity="1" stop-color="rgb(73.222351%, 82.466125%, 100%)" offset="0.859375"/><stop stop-opacity="1" stop-color="rgb(72.998047%, 82.319641%, 100%)" offset="0.861123"/><stop stop-opacity="1" stop-color="rgb(72.886658%, 82.247925%, 100%)" offset="0.875"/><stop stop-opacity="1" stop-color="rgb(72.775269%, 82.174683%, 100%)" offset="0.890625"/><stop stop-opacity="1" stop-color="rgb(72.550964%, 82.028198%, 100%)" offset="0.90625"/><stop stop-opacity="1" stop-color="rgb(72.328186%, 81.881714%, 100%)" offset="0.921875"/><stop stop-opacity="1" stop-color="rgb(72.103882%, 81.735229%, 100%)" offset="0.9375"/><stop stop-opacity="1" stop-color="rgb(71.881104%, 81.588745%, 100%)" offset="0.953125"/><stop stop-opacity="1" stop-color="rgb(71.658325%, 81.442261%, 100%)" offset="0.96875"/><stop stop-opacity="1" stop-color="rgb(71.434021%, 81.295776%, 100%)" offset="0.984375"/><stop stop-opacity="1" stop-color="rgb(71.211243%, 81.149292%, 100%)" offset="1"/></linearGradient><clipPath id="7881f842b6"><path d="M 146 160 L 220 160 L 220 210 L 146 210 Z M 146 160 " clip-rule="nonzero"/></clipPath><clipPath id="cf2d3b407f"><path d="M 210.339844 209.511719 L 156.046875 209.511719 C 154.996094 209.511719 153.980469 209.128906 153.195312 208.433594 C 152.40625 207.738281 151.898438 206.777344 151.769531 205.734375 L 146.757812 165.683594 C 146.683594 165.074219 146.734375 164.457031 146.917969 163.875 C 147.097656 163.289062 147.398438 162.75 147.804688 162.289062 C 148.207031 161.832031 148.703125 161.464844 149.261719 161.210938 C 149.820312 160.960938 150.421875 160.832031 151.035156 160.832031 L 215.347656 160.832031 C 215.960938 160.832031 216.5625 160.960938 217.121094 161.210938 C 217.679688 161.464844 218.175781 161.832031 218.582031 162.289062 C 218.984375 162.75 219.285156 163.289062 219.46875 163.875 C 219.648438 164.457031 219.699219 165.074219 219.625 165.683594 L 214.613281 205.734375 C 214.484375 206.777344 213.976562 207.738281 213.1875 208.433594 C 212.402344 209.128906 211.386719 209.511719 210.339844 209.511719 Z M 210.339844 209.511719 " clip-rule="nonzero"/></clipPath><linearGradient x1="2695.840312" gradientTransform="matrix(0.0671998, 0, 0, 0.0672954, 0.0435473, 18.187499)" y1="2082.523463" x2="2753.496998" gradientUnits="userSpaceOnUse" y2="2880.305916" id="8861f886e5"><stop stop-opacity="1" stop-color="rgb(100%, 100%, 100%)" offset="0"/><stop stop-opacity="1" stop-color="rgb(100%, 100%, 100%)" offset="0.03125"/><stop stop-opacity="1" stop-color="rgb(99.972534%, 99.981689%, 100%)" offset="0.046875"/><stop stop-opacity="1" stop-color="rgb(99.775696%, 99.85199%, 100%)" offset="0.0625"/><stop stop-opacity="1" stop-color="rgb(99.436951%, 99.630737%, 100%)" offset="0.078125"/><stop stop-opacity="1" stop-color="rgb(99.09668%, 99.407959%, 100%)" offset="0.09375"/><stop stop-opacity="1" stop-color="rgb(98.757935%, 99.186707%, 100%)" offset="0.0979228"/><stop stop-opacity="1" stop-color="rgb(98.588562%, 99.075317%, 100%)" offset="0.109375"/><stop stop-opacity="1" stop-color="rgb(98.419189%, 98.963928%, 100%)" offset="0.125"/><stop stop-opacity="1" stop-color="rgb(98.080444%, 98.742676%, 100%)" offset="0.140625"/><stop stop-opacity="1" stop-color="rgb(97.740173%, 98.519897%, 100%)" offset="0.15625"/><stop stop-opacity="1" stop-color="rgb(97.401428%, 98.298645%, 100%)" offset="0.171875"/><stop stop-opacity="1" stop-color="rgb(97.062683%, 98.075867%, 100%)" offset="0.1875"/><stop stop-opacity="1" stop-color="rgb(96.723938%, 97.854614%, 100%)" offset="0.203125"/><stop stop-opacity="1" stop-color="rgb(96.383667%, 97.631836%, 100%)" offset="0.21875"/><stop stop-opacity="1" stop-color="rgb(96.044922%, 97.410583%, 100%)" offset="0.234375"/><stop stop-opacity="1" stop-color="rgb(95.706177%, 97.187805%, 100%)" offset="0.25"/><stop stop-opacity="1" stop-color="rgb(95.367432%, 96.966553%, 100%)" offset="0.265625"/><stop stop-opacity="1" stop-color="rgb(95.027161%, 96.743774%, 100%)" offset="0.28125"/><stop stop-opacity="1" stop-color="rgb(94.688416%, 96.522522%, 100%)" offset="0.296875"/><stop stop-opacity="1" stop-color="rgb(94.34967%, 96.299744%, 100%)" offset="0.3125"/><stop stop-opacity="1" stop-color="rgb(94.010925%, 96.076965%, 100%)" offset="0.328125"/><stop stop-opacity="1" stop-color="rgb(93.670654%, 95.855713%, 100%)" offset="0.34375"/><stop stop-opacity="1" stop-color="rgb(93.331909%, 95.632935%, 100%)" offset="0.359375"/><stop stop-opacity="1" stop-color="rgb(92.993164%, 95.411682%, 100%)" offset="0.375"/><stop stop-opacity="1" stop-color="rgb(92.654419%, 95.188904%, 100%)" offset="0.390625"/><stop stop-opacity="1" stop-color="rgb(92.314148%, 94.967651%, 100%)" offset="0.40625"/><stop stop-opacity="1" stop-color="rgb(91.975403%, 94.744873%, 100%)" offset="0.421875"/><stop stop-opacity="1" stop-color="rgb(91.636658%, 94.523621%, 100%)" offset="0.4375"/><stop stop-opacity="1" stop-color="rgb(91.297913%, 94.300842%, 100%)" offset="0.453125"/><stop stop-opacity="1" stop-color="rgb(90.957642%, 94.07959%, 100%)" offset="0.46875"/><stop stop-opacity="1" stop-color="rgb(90.618896%, 93.856812%, 100%)" offset="0.484375"/><stop stop-opacity="1" stop-color="rgb(90.280151%, 93.635559%, 100%)" offset="0.5"/><stop stop-opacity="1" stop-color="rgb(89.941406%, 93.412781%, 100%)" offset="0.515625"/><stop stop-opacity="1" stop-color="rgb(89.601135%, 93.191528%, 100%)" offset="0.53125"/><stop stop-opacity="1" stop-color="rgb(89.26239%, 92.96875%, 100%)" offset="0.546875"/><stop stop-opacity="1" stop-color="rgb(88.923645%, 92.747498%, 100%)" offset="0.5625"/><stop stop-opacity="1" stop-color="rgb(88.5849%, 92.524719%, 100%)" offset="0.578125"/><stop stop-opacity="1" stop-color="rgb(88.244629%, 92.303467%, 100%)" offset="0.59375"/><stop stop-opacity="1" stop-color="rgb(87.905884%, 92.080688%, 100%)" offset="0.609375"/><stop stop-opacity="1" stop-color="rgb(87.567139%, 91.859436%, 100%)" offset="0.625"/><stop stop-opacity="1" stop-color="rgb(87.228394%, 91.636658%, 100%)" offset="0.640625"/><stop stop-opacity="1" stop-color="rgb(86.888123%, 91.413879%, 100%)" offset="0.65625"/><stop stop-opacity="1" stop-color="rgb(86.549377%, 91.192627%, 100%)" offset="0.671875"/><stop stop-opacity="1" stop-color="rgb(86.210632%, 90.969849%, 100%)" offset="0.6875"/><stop stop-opacity="1" stop-color="rgb(85.871887%, 90.748596%, 100%)" offset="0.703125"/><stop stop-opacity="1" stop-color="rgb(85.531616%, 90.525818%, 100%)" offset="0.71875"/><stop stop-opacity="1" stop-color="rgb(85.192871%, 90.304565%, 100%)" offset="0.734375"/><stop stop-opacity="1" stop-color="rgb(84.854126%, 90.081787%, 100%)" offset="0.75"/><stop stop-opacity="1" stop-color="rgb(84.513855%, 89.860535%, 100%)" offset="0.765625"/><stop stop-opacity="1" stop-color="rgb(84.17511%, 89.637756%, 100%)" offset="0.78125"/><stop stop-opacity="1" stop-color="rgb(83.836365%, 89.416504%, 100%)" offset="0.796875"/><stop stop-opacity="1" stop-color="rgb(83.49762%, 89.193726%, 100%)" offset="0.8125"/><stop stop-opacity="1" stop-color="rgb(83.157349%, 88.972473%, 100%)" offset="0.828125"/><stop stop-opacity="1" stop-color="rgb(82.818604%, 88.749695%, 100%)" offset="0.84375"/><stop stop-opacity="1" stop-color="rgb(82.479858%, 88.528442%, 100%)" offset="0.859375"/><stop stop-opacity="1" stop-color="rgb(82.141113%, 88.305664%, 100%)" offset="0.875"/><stop stop-opacity="1" stop-color="rgb(81.800842%, 88.084412%, 100%)" offset="0.890625"/><stop stop-opacity="1" stop-color="rgb(81.462097%, 87.861633%, 100%)" offset="0.902077"/><stop stop-opacity="1" stop-color="rgb(81.292725%, 87.75177%, 100%)" offset="0.90625"/><stop stop-opacity="1" stop-color="rgb(81.123352%, 87.640381%, 100%)" offset="0.921875"/><stop stop-opacity="1" stop-color="rgb(80.784607%, 87.417603%, 100%)" offset="0.9375"/><stop stop-opacity="1" stop-color="rgb(80.444336%, 87.19635%, 100%)" offset="0.953125"/><stop stop-opacity="1" stop-color="rgb(80.105591%, 86.973572%, 100%)" offset="0.96875"/><stop stop-opacity="1" stop-color="rgb(79.766846%, 86.750793%, 100%)" offset="0.984375"/><stop stop-opacity="1" stop-color="rgb(79.428101%, 86.529541%, 100%)" offset="1"/></linearGradient><clipPath id="e96c96bc14"><path d="M 0.078125 18.1875 L 63 18.1875 L 63 92 L 0.078125 92 Z M 0.078125 18.1875 " clip-rule="nonzero"/></clipPath><clipPath id="7377d339f8"><path d="M 0.078125 23 L 70 23 L 70 103 L 0.078125 103 Z M 0.078125 23 " clip-rule="nonzero"/></clipPath><clipPath id="2a9065dd38"><path d="M 177 150 L 293 150 L 293 282.160156 L 177 282.160156 Z M 177 150 " clip-rule="nonzero"/></clipPath><clipPath id="cda87fe6a6"><path d="M 207 130 L 299.933594 130 L 299.933594 239 L 207 239 Z M 207 130 " clip-rule="nonzero"/></clipPath><clipPath id="20c5c9a3ac"><path d="M 198 144 L 299.933594 144 L 299.933594 255 L 198 255 Z M 198 144 " clip-rule="nonzero"/></clipPath><clipPath id="718334b459"><path d="M 0.078125 231 L 45 231 L 45 257 L 0.078125 257 Z M 0.078125 231 " clip-rule="nonzero"/></clipPath><clipPath id="f83c47f145"><path d="M 143 170 L 299.933594 170 L 299.933594 282.160156 L 143 282.160156 Z M 143 170 " clip-rule="nonzero"/></clipPath><clipPath id="f484b7c686"><path d="M 75 214 L 137 214 L 137 265 L 75 265 Z M 75 214 " clip-rule="nonzero"/></clipPath><clipPath id="b25836dfc7"><path d="M 80.316406 214.398438 C 88.511719 216.742188 107.6875 220.929688 132.816406 218.039062 C 133.21875 217.984375 133.628906 218.015625 134.019531 218.132812 C 134.410156 218.25 134.773438 218.453125 135.078125 218.722656 C 135.382812 218.992188 135.625 219.328125 135.789062 219.703125 C 135.949219 220.074219 136.03125 220.480469 136.019531 220.890625 L 136.019531 259.726562 C 136.003906 260.582031 135.683594 261.40625 135.117188 262.046875 C 134.554688 262.691406 133.78125 263.117188 132.933594 263.246094 C 123.988281 264.46875 97.421875 267.089844 77.625 258.53125 C 77.117188 258.308594 76.691406 257.9375 76.394531 257.46875 C 76.097656 257 75.945312 256.453125 75.957031 255.902344 L 75.957031 217.832031 C 75.957031 215.582031 78.222656 213.800781 80.316406 214.398438 Z M 80.316406 214.398438 " clip-rule="nonzero"/></clipPath><linearGradient x1="1550.379658" gradientTransform="matrix(0.0671998, 0, 0, 0.0672954, 0.0435473, 18.187499)" y1="2868.58584" x2="1628.914191" gradientUnits="userSpaceOnUse" y2="3734.4684" id="f120317b01"><stop stop-opacity="1" stop-color="rgb(100%, 100%, 100%)" offset="0"/><stop stop-opacity="1" stop-color="rgb(99.859619%, 99.908447%, 100%)" offset="0.0625"/><stop stop-opacity="1" stop-color="rgb(99.542236%, 99.699402%, 100%)" offset="0.078125"/><stop stop-opacity="1" stop-color="rgb(99.185181%, 99.465942%, 100%)" offset="0.0928925"/><stop stop-opacity="1" stop-color="rgb(99.006653%, 99.34845%, 100%)" offset="0.09375"/><stop stop-opacity="1" stop-color="rgb(98.828125%, 99.230957%, 100%)" offset="0.109375"/><stop stop-opacity="1" stop-color="rgb(98.469543%, 98.997498%, 100%)" offset="0.125"/><stop stop-opacity="1" stop-color="rgb(98.112488%, 98.764038%, 100%)" offset="0.140625"/><stop stop-opacity="1" stop-color="rgb(97.755432%, 98.530579%, 100%)" offset="0.15625"/><stop stop-opacity="1" stop-color="rgb(97.398376%, 98.295593%, 100%)" offset="0.171875"/><stop stop-opacity="1" stop-color="rgb(97.041321%, 98.062134%, 100%)" offset="0.1875"/><stop stop-opacity="1" stop-color="rgb(96.684265%, 97.828674%, 100%)" offset="0.203125"/><stop stop-opacity="1" stop-color="rgb(96.327209%, 97.595215%, 100%)" offset="0.21875"/><stop stop-opacity="1" stop-color="rgb(95.970154%, 97.360229%, 100%)" offset="0.234375"/><stop stop-opacity="1" stop-color="rgb(95.613098%, 97.12677%, 100%)" offset="0.25"/><stop stop-opacity="1" stop-color="rgb(95.256042%, 96.893311%, 100%)" offset="0.265625"/><stop stop-opacity="1" stop-color="rgb(94.898987%, 96.658325%, 100%)" offset="0.28125"/><stop stop-opacity="1" stop-color="rgb(94.541931%, 96.424866%, 100%)" offset="0.296875"/><stop stop-opacity="1" stop-color="rgb(94.184875%, 96.191406%, 100%)" offset="0.3125"/><stop stop-opacity="1" stop-color="rgb(93.82782%, 95.957947%, 100%)" offset="0.328125"/><stop stop-opacity="1" stop-color="rgb(93.470764%, 95.722961%, 100%)" offset="0.34375"/><stop stop-opacity="1" stop-color="rgb(93.112183%, 95.489502%, 100%)" offset="0.359375"/><stop stop-opacity="1" stop-color="rgb(92.755127%, 95.256042%, 100%)" offset="0.375"/><stop stop-opacity="1" stop-color="rgb(92.398071%, 95.022583%, 100%)" offset="0.390625"/><stop stop-opacity="1" stop-color="rgb(92.041016%, 94.787598%, 100%)" offset="0.40625"/><stop stop-opacity="1" stop-color="rgb(91.68396%, 94.554138%, 100%)" offset="0.421875"/><stop stop-opacity="1" stop-color="rgb(91.326904%, 94.320679%, 100%)" offset="0.4375"/><stop stop-opacity="1" stop-color="rgb(90.969849%, 94.087219%, 100%)" offset="0.453125"/><stop stop-opacity="1" stop-color="rgb(90.612793%, 93.852234%, 100%)" offset="0.46875"/><stop stop-opacity="1" stop-color="rgb(90.255737%, 93.618774%, 100%)" offset="0.484375"/><stop stop-opacity="1" stop-color="rgb(89.898682%, 93.385315%, 100%)" offset="0.5"/><stop stop-opacity="1" stop-color="rgb(89.541626%, 93.151855%, 100%)" offset="0.515625"/><stop stop-opacity="1" stop-color="rgb(89.18457%, 92.91687%, 100%)" offset="0.53125"/><stop stop-opacity="1" stop-color="rgb(88.827515%, 92.683411%, 100%)" offset="0.546875"/><stop stop-opacity="1" stop-color="rgb(88.470459%, 92.449951%, 100%)" offset="0.5625"/><stop stop-opacity="1" stop-color="rgb(88.111877%, 92.216492%, 100%)" offset="0.578125"/><stop stop-opacity="1" stop-color="rgb(87.754822%, 91.981506%, 100%)" offset="0.59375"/><stop stop-opacity="1" stop-color="rgb(87.397766%, 91.748047%, 100%)" offset="0.609375"/><stop stop-opacity="1" stop-color="rgb(87.04071%, 91.514587%, 100%)" offset="0.625"/><stop stop-opacity="1" stop-color="rgb(86.683655%, 91.281128%, 100%)" offset="0.640625"/><stop stop-opacity="1" stop-color="rgb(86.326599%, 91.046143%, 100%)" offset="0.65625"/><stop stop-opacity="1" stop-color="rgb(85.969543%, 90.812683%, 100%)" offset="0.671875"/><stop stop-opacity="1" stop-color="rgb(85.612488%, 90.579224%, 100%)" offset="0.6875"/><stop stop-opacity="1" stop-color="rgb(85.255432%, 90.344238%, 100%)" offset="0.703125"/><stop stop-opacity="1" stop-color="rgb(84.898376%, 90.110779%, 100%)" offset="0.71875"/><stop stop-opacity="1" stop-color="rgb(84.541321%, 89.877319%, 100%)" offset="0.734375"/><stop stop-opacity="1" stop-color="rgb(84.184265%, 89.64386%, 100%)" offset="0.75"/><stop stop-opacity="1" stop-color="rgb(83.827209%, 89.408875%, 100%)" offset="0.765625"/><stop stop-opacity="1" stop-color="rgb(83.470154%, 89.175415%, 100%)" offset="0.78125"/><stop stop-opacity="1" stop-color="rgb(83.113098%, 88.941956%, 100%)" offset="0.796875"/><stop stop-opacity="1" stop-color="rgb(82.754517%, 88.708496%, 100%)" offset="0.8125"/><stop stop-opacity="1" stop-color="rgb(82.397461%, 88.473511%, 100%)" offset="0.828125"/><stop stop-opacity="1" stop-color="rgb(82.040405%, 88.240051%, 100%)" offset="0.84375"/><stop stop-opacity="1" stop-color="rgb(81.68335%, 88.006592%, 100%)" offset="0.859375"/><stop stop-opacity="1" stop-color="rgb(81.326294%, 87.773132%, 100%)" offset="0.875"/><stop stop-opacity="1" stop-color="rgb(80.969238%, 87.538147%, 100%)" offset="0.890625"/><stop stop-opacity="1" stop-color="rgb(80.612183%, 87.304688%, 100%)" offset="0.90625"/><stop stop-opacity="1" stop-color="rgb(80.255127%, 87.071228%, 100%)" offset="0.907108"/><stop stop-opacity="1" stop-color="rgb(80.076599%, 86.955261%, 100%)" offset="0.921875"/><stop stop-opacity="1" stop-color="rgb(79.898071%, 86.837769%, 100%)" offset="0.9375"/><stop stop-opacity="1" stop-color="rgb(79.541016%, 86.602783%, 100%)" offset="0.953125"/><stop stop-opacity="1" stop-color="rgb(79.18396%, 86.369324%, 100%)" offset="0.96875"/><stop stop-opacity="1" stop-color="rgb(78.826904%, 86.135864%, 100%)" offset="0.984375"/><stop stop-opacity="1" stop-color="rgb(78.469849%, 85.902405%, 100%)" offset="1"/></linearGradient><clipPath id="caac05eeb4"><path d="M 217 23 L 299.933594 23 L 299.933594 122 L 217 122 Z M 217 23 " clip-rule="nonzero"/></clipPath><clipPath id="a77e5123e2"><path d="M 295.277344 24.386719 C 284.566406 32.261719 264.972656 52.121094 222.210938 58.71875 C 218.9375 59.226562 217.710938 61.558594 217.710938 64.136719 L 217.710938 118.429688 C 217.730469 119.183594 218.007812 119.90625 218.496094 120.480469 C 218.984375 121.050781 219.65625 121.441406 220.398438 121.574219 C 231.183594 123.394531 272.71875 112.78125 297.558594 91.417969 C 299.933594 89.378906 299.933594 85.957031 299.933594 85.246094 L 299.933594 27.097656 C 299.933594 24.683594 297.109375 23.039062 295.277344 24.386719 Z M 295.277344 24.386719 " clip-rule="nonzero"/></clipPath><linearGradient x1="4019.741763" gradientTransform="matrix(0.0671998, 0, 0, 0.0672954, 0.0435473, 18.187499)" y1="-77.555443" x2="4338.875828" gradientUnits="userSpaceOnUse" y2="1587.06934" id="208d0e0dad"><stop stop-opacity="1" stop-color="rgb(85.510254%, 90.512085%, 100%)" offset="0"/><stop stop-opacity="1" stop-color="rgb(85.395813%, 90.437317%, 100%)" offset="0.015625"/><stop stop-opacity="1" stop-color="rgb(85.166931%, 90.287781%, 100%)" offset="0.03125"/><stop stop-opacity="1" stop-color="rgb(84.938049%, 90.138245%, 100%)" offset="0.046875"/><stop stop-opacity="1" stop-color="rgb(84.710693%, 89.988708%, 100%)" offset="0.0625"/><stop stop-opacity="1" stop-color="rgb(84.481812%, 89.839172%, 100%)" offset="0.078125"/><stop stop-opacity="1" stop-color="rgb(84.25293%, 89.689636%, 100%)" offset="0.09375"/><stop stop-opacity="1" stop-color="rgb(84.025574%, 89.5401%, 100%)" offset="0.109375"/><stop stop-opacity="1" stop-color="rgb(83.796692%, 89.390564%, 100%)" offset="0.125"/><stop stop-opacity="1" stop-color="rgb(83.569336%, 89.241028%, 100%)" offset="0.135919"/><stop stop-opacity="1" stop-color="rgb(83.454895%, 89.16626%, 100%)" offset="0.140625"/><stop stop-opacity="1" stop-color="rgb(83.340454%, 89.091492%, 100%)" offset="0.15625"/><stop stop-opacity="1" stop-color="rgb(83.111572%, 88.941956%, 100%)" offset="0.171875"/><stop stop-opacity="1" stop-color="rgb(82.884216%, 88.792419%, 100%)" offset="0.1875"/><stop stop-opacity="1" stop-color="rgb(82.655334%, 88.642883%, 100%)" offset="0.203125"/><stop stop-opacity="1" stop-color="rgb(82.426453%, 88.493347%, 100%)" offset="0.21875"/><stop stop-opacity="1" stop-color="rgb(82.199097%, 88.343811%, 100%)" offset="0.234375"/><stop stop-opacity="1" stop-color="rgb(81.970215%, 88.194275%, 100%)" offset="0.25"/><stop stop-opacity="1" stop-color="rgb(81.741333%, 88.044739%, 100%)" offset="0.265625"/><stop stop-opacity="1" stop-color="rgb(81.513977%, 87.895203%, 100%)" offset="0.28125"/><stop stop-opacity="1" stop-color="rgb(81.285095%, 87.745667%, 100%)" offset="0.296875"/><stop stop-opacity="1" stop-color="rgb(81.056213%, 87.59613%, 100%)" offset="0.3125"/><stop stop-opacity="1" stop-color="rgb(80.828857%, 87.446594%, 100%)" offset="0.328125"/><stop stop-opacity="1" stop-color="rgb(80.599976%, 87.297058%, 100%)" offset="0.34375"/><stop stop-opacity="1" stop-color="rgb(80.371094%, 87.147522%, 100%)" offset="0.359375"/><stop stop-opacity="1" stop-color="rgb(80.143738%, 86.997986%, 100%)" offset="0.375"/><stop stop-opacity="1" stop-color="rgb(79.914856%, 86.84845%, 100%)" offset="0.390625"/><stop stop-opacity="1" stop-color="rgb(79.685974%, 86.698914%, 100%)" offset="0.40625"/><stop stop-opacity="1" stop-color="rgb(79.458618%, 86.549377%, 100%)" offset="0.421875"/><stop stop-opacity="1" stop-color="rgb(79.229736%, 86.399841%, 100%)" offset="0.4375"/><stop stop-opacity="1" stop-color="rgb(79.00238%, 86.250305%, 100%)" offset="0.453125"/><stop stop-opacity="1" stop-color="rgb(78.773499%, 86.100769%, 100%)" offset="0.46875"/><stop stop-opacity="1" stop-color="rgb(78.544617%, 85.951233%, 100%)" offset="0.484375"/><stop stop-opacity="1" stop-color="rgb(78.317261%, 85.801697%, 100%)" offset="0.5"/><stop stop-opacity="1" stop-color="rgb(78.088379%, 85.653687%, 100%)" offset="0.515625"/><stop stop-opacity="1" stop-color="rgb(77.859497%, 85.50415%, 100%)" offset="0.53125"/><stop stop-opacity="1" stop-color="rgb(77.632141%, 85.354614%, 100%)" offset="0.546875"/><stop stop-opacity="1" stop-color="rgb(77.403259%, 85.205078%, 100%)" offset="0.5625"/><stop stop-opacity="1" stop-color="rgb(77.174377%, 85.055542%, 100%)" offset="0.578125"/><stop stop-opacity="1" stop-color="rgb(76.947021%, 84.906006%, 100%)" offset="0.59375"/><stop stop-opacity="1" stop-color="rgb(76.71814%, 84.75647%, 100%)" offset="0.609375"/><stop stop-opacity="1" stop-color="rgb(76.489258%, 84.606934%, 100%)" offset="0.625"/><stop stop-opacity="1" stop-color="rgb(76.261902%, 84.457397%, 100%)" offset="0.640625"/><stop stop-opacity="1" stop-color="rgb(76.03302%, 84.307861%, 100%)" offset="0.65625"/><stop stop-opacity="1" stop-color="rgb(75.804138%, 84.158325%, 100%)" offset="0.671875"/><stop stop-opacity="1" stop-color="rgb(75.576782%, 84.008789%, 100%)" offset="0.6875"/><stop stop-opacity="1" stop-color="rgb(75.3479%, 83.859253%, 100%)" offset="0.703125"/><stop stop-opacity="1" stop-color="rgb(75.120544%, 83.709717%, 100%)" offset="0.71875"/><stop stop-opacity="1" stop-color="rgb(74.891663%, 83.560181%, 100%)" offset="0.734375"/><stop stop-opacity="1" stop-color="rgb(74.662781%, 83.410645%, 100%)" offset="0.75"/><stop stop-opacity="1" stop-color="rgb(74.435425%, 83.261108%, 100%)" offset="0.765625"/><stop stop-opacity="1" stop-color="rgb(74.206543%, 83.111572%, 100%)" offset="0.78125"/><stop stop-opacity="1" stop-color="rgb(73.977661%, 82.962036%, 100%)" offset="0.796875"/><stop stop-opacity="1" stop-color="rgb(73.750305%, 82.8125%, 100%)" offset="0.8125"/><stop stop-opacity="1" stop-color="rgb(73.521423%, 82.662964%, 100%)" offset="0.828125"/><stop stop-opacity="1" stop-color="rgb(73.292542%, 82.513428%, 100%)" offset="0.84375"/><stop stop-opacity="1" stop-color="rgb(73.065186%, 82.363892%, 100%)" offset="0.859375"/><stop stop-opacity="1" stop-color="rgb(72.836304%, 82.214355%, 100%)" offset="0.864081"/><stop stop-opacity="1" stop-color="rgb(72.721863%, 82.139587%, 100%)" offset="0.875"/><stop stop-opacity="1" stop-color="rgb(72.607422%, 82.064819%, 100%)" offset="0.890625"/><stop stop-opacity="1" stop-color="rgb(72.380066%, 81.915283%, 100%)" offset="0.90625"/><stop stop-opacity="1" stop-color="rgb(72.151184%, 81.765747%, 100%)" offset="0.921875"/><stop stop-opacity="1" stop-color="rgb(71.922302%, 81.616211%, 100%)" offset="0.9375"/><stop stop-opacity="1" stop-color="rgb(71.694946%, 81.466675%, 100%)" offset="0.953125"/><stop stop-opacity="1" stop-color="rgb(71.466064%, 81.317139%, 100%)" offset="0.96875"/><stop stop-opacity="1" stop-color="rgb(71.237183%, 81.167603%, 100%)" offset="0.984375"/><stop stop-opacity="1" stop-color="rgb(71.009827%, 81.018066%, 100%)" offset="1"/></linearGradient><clipPath id="6f0084b74b"><path d="M 223 18.1875 L 299.933594 18.1875 L 299.933594 102 L 223 102 Z M 223 18.1875 " clip-rule="nonzero"/></clipPath><clipPath id="97817dde01"><path d="M 223 18.1875 L 299.933594 18.1875 L 299.933594 114 L 223 114 Z M 223 18.1875 " clip-rule="nonzero"/></clipPath><clipPath id="4b605ebe2e"><path d="M 223 23 L 299.933594 23 L 299.933594 127 L 223 127 Z M 223 23 " clip-rule="nonzero"/></clipPath><clipPath id="c3b844de03"><path d="M 223 37 L 299.933594 37 L 299.933594 141 L 223 141 Z M 223 37 " clip-rule="nonzero"/></clipPath></defs><g clip-path="url(#3f09819958)"><path fill="#1c85e8" d="M 60.144531 18.1875 L 243.75 18.1875 C 246.527344 18.1875 249.191406 19.292969 251.15625 21.257812 C 253.117188 23.222656 254.21875 25.890625 254.21875 28.671875 L 254.21875 40.246094 L 49.675781 40.246094 L 49.675781 28.671875 C 49.675781 25.890625 50.777344 23.222656 52.742188 21.257812 C 54.703125 19.292969 57.367188 18.1875 60.144531 18.1875 Z M 60.144531 18.1875 " fill-opacity="1" fill-rule="nonzero"/></g><g clip-path="url(#53d4177b9c)"><g clip-path="url(#796b096492)"><path fill="url(#474fd72d16)" d="M 49.675781 40.246094 L 49.675781 245.082031 L 254.21875 245.082031 L 254.21875 40.246094 Z M 49.675781 40.246094 " fill-rule="nonzero"/></g></g><path fill="#ffccb3" d="M 183.320312 171.953125 L 127.214844 171.953125 L 127.214844 199.238281 L 183.320312 199.238281 Z M 183.320312 171.953125 " fill-opacity="1" fill-rule="nonzero"/><path fill="#1f2d49" d="M 126.886719 188.773438 C 120.304688 195.257812 117.714844 227.1875 118.0625 245.082031 L 196.386719 245.082031 C 196.386719 245.082031 196.246094 206.058594 190.308594 192.90625 C 184.847656 180.8125 175.769531 198.652344 126.886719 188.773438 Z M 126.886719 188.773438 " fill-opacity="1" fill-rule="nonzero"/><path fill="#1c85e8" d="M 139.832031 112.714844 C 139.832031 112.714844 149.910156 124.042969 146.558594 127.675781 C 139.917969 135.144531 122.265625 149.175781 116.480469 153.820312 C 116.230469 154.015625 115.945312 154.152344 115.640625 154.234375 C 115.335938 154.316406 115.019531 154.335938 114.707031 154.292969 C 114.398438 154.25 114.097656 154.144531 113.828125 153.984375 C 113.554688 153.824219 113.316406 153.613281 113.128906 153.363281 L 99.449219 135.355469 C 98.914062 134.660156 98.664062 133.789062 98.753906 132.917969 C 98.839844 132.042969 99.257812 131.238281 99.917969 130.664062 L 126.414062 107.785156 Z M 139.832031 112.714844 " fill-opacity="1" fill-rule="nonzero"/><path fill="#0e66af" d="M 123.921875 127.117188 C 123.921875 127.117188 111.363281 134.589844 110.234375 149.609375 L 112.734375 152.828125 C 112.734375 152.828125 114.304688 155.566406 116.480469 153.820312 C 118.65625 152.078125 128.722656 144 128.722656 144 Z M 123.921875 127.117188 " fill-opacity="1" fill-rule="nonzero"/><path fill="#1c85e8" d="M 135.664062 132.808594 C 143.496094 132.808594 149.847656 126.449219 149.847656 118.605469 C 149.847656 110.761719 143.496094 104.402344 135.664062 104.402344 C 127.832031 104.402344 121.480469 110.761719 121.480469 118.605469 C 121.480469 126.449219 127.832031 132.808594 135.664062 132.808594 Z M 135.664062 132.808594 " fill-opacity="1" fill-rule="nonzero"/><path fill="#ffccb3" d="M 98.730469 163.128906 L 86.335938 146.695312 L 98.070312 137.574219 L 99.910156 136.089844 L 112.765625 152.929688 L 110.527344 154.539062 Z M 98.730469 163.128906 " fill-opacity="1" fill-rule="nonzero"/><path fill="#ff967c" d="M 110.527344 154.539062 C 107.207031 150.089844 100.964844 141.386719 98.070312 137.574219 L 99.910156 136.089844 L 112.734375 152.828125 Z M 110.527344 154.539062 " fill-opacity="1" fill-rule="nonzero"/><path fill="#ffccb3" d="M 92.34375 165.410156 C 98.03125 165.410156 102.640625 160.792969 102.640625 155.097656 C 102.640625 149.402344 98.03125 144.789062 92.34375 144.789062 C 86.65625 144.789062 82.046875 149.402344 82.046875 155.097656 C 82.046875 160.792969 86.65625 165.410156 92.34375 165.410156 Z M 92.34375 165.410156 " fill-opacity="1" fill-rule="nonzero"/><path fill="#ffccb3" d="M 101.0625 149.550781 C 101.0625 149.550781 67.847656 100.707031 66.3125 96.558594 C 64.820312 92.507812 56.972656 102.253906 56.972656 102.253906 L 82.679688 158.417969 Z M 101.0625 149.550781 " fill-opacity="1" fill-rule="nonzero"/><path fill="#ffccb3" d="M 146.789062 81.433594 L 142.796875 109.3125 C 142.796875 109.3125 141.746094 113.011719 146.398438 113.570312 C 151.050781 114.132812 160.96875 112.878906 164.511719 109.101562 C 168.054688 105.320312 166.816406 103.445312 166.816406 103.445312 L 159.300781 73.1875 Z M 146.789062 81.433594 " fill-opacity="1" fill-rule="nonzero"/><path fill="#ff967c" d="M 146.234375 85.042969 L 156 81.585938 L 143.898438 99.546875 Z M 146.234375 85.042969 " fill-opacity="1" fill-rule="nonzero"/><path fill="#ffccb3" d="M 135.738281 47 C 135.738281 47 127.359375 66.714844 131.726562 80.230469 C 134.574219 89.042969 140.777344 90.625 154.980469 84.023438 C 168.003906 77.964844 171.386719 73.386719 171.386719 73.386719 L 173.308594 51.40625 C 173.308594 51.40625 144.25 29.425781 135.738281 47 Z M 135.738281 47 " fill-opacity="1" fill-rule="nonzero"/><path fill="#1c85e8" d="M 142.726562 101.296875 C 142.726562 101.296875 131.992188 104.285156 129.8125 106.027344 C 127.632812 107.773438 124.183594 116.699219 124.183594 126.917969 C 124.183594 141.402344 126.171875 149.179688 126.171875 158.179688 C 126.171875 167.175781 121.445312 201.488281 121.445312 201.488281 L 191.074219 201.488281 C 189.292969 167.117188 191.074219 105.726562 191.074219 105.726562 L 164.539062 99.601562 C 158.554688 100.636719 142.726562 101.296875 142.726562 101.296875 Z M 142.726562 101.296875 " fill-opacity="1" fill-rule="nonzero"/><path fill="#0e66af" d="M 178.214844 118.605469 C 178.214844 118.605469 168.960938 124.734375 171.683594 130.914062 C 174.75 137.867188 171.683594 145.519531 171.683594 156.195312 C 170.628906 159.398438 170.019531 162.449219 170.019531 165.039062 C 170.019531 167.632812 168.59375 165.15625 168.59375 172.683594 C 168.59375 178.042969 185.410156 182.6875 184.972656 178.359375 C 182.050781 149.390625 194.203125 131.046875 178.214844 118.605469 Z M 178.214844 118.605469 " fill-opacity="1" fill-rule="nonzero"/><path fill="#ffccb3" d="M 210.261719 174.023438 L 189.765625 175.707031 L 186.265625 160.832031 L 182.050781 149.390625 L 203.621094 146.804688 L 206.316406 159.609375 Z M 210.261719 174.023438 " fill-opacity="1" fill-rule="nonzero"/><path fill="#ff967c" d="M 204.351562 150.261719 L 205.105469 153.851562 L 183.863281 154.3125 L 182.464844 150.519531 Z M 204.351562 150.261719 " fill-opacity="1" fill-rule="nonzero"/><path fill="#1c85e8" d="M 187.546875 133.6875 C 195.382812 133.6875 201.730469 127.328125 201.730469 119.484375 C 201.730469 111.636719 195.382812 105.277344 187.546875 105.277344 C 179.714844 105.277344 173.363281 111.636719 173.363281 119.484375 C 173.363281 127.328125 179.714844 133.6875 187.546875 133.6875 Z M 187.546875 133.6875 " fill-opacity="1" fill-rule="nonzero"/><path fill="#1c85e8" d="M 184.8125 112.804688 C 184.8125 112.804688 199.761719 110.347656 201.03125 115.128906 C 203.773438 124.742188 207.144531 140.171875 207.964844 147.550781 C 207.992188 147.863281 207.957031 148.179688 207.863281 148.480469 C 207.765625 148.78125 207.613281 149.058594 207.410156 149.300781 C 207.207031 149.542969 206.960938 149.738281 206.679688 149.882812 C 206.398438 150.027344 206.09375 150.117188 205.78125 150.140625 L 183.269531 152.066406 C 182.398438 152.144531 181.527344 151.890625 180.839844 151.347656 C 180.152344 150.808594 179.695312 150.023438 179.566406 149.15625 L 173.46875 121.511719 Z M 184.8125 112.804688 " fill-opacity="1" fill-rule="nonzero"/><path fill="#080b09" d="M 140.960938 45.125 C 140.960938 45.125 141.492188 54.703125 149.59375 59.34375 C 149.59375 59.34375 151.964844 66.6875 160.804688 68.414062 C 160.804688 68.414062 160.28125 61.664062 164.496094 61.734375 C 171.652344 61.859375 168.132812 72.726562 163.292969 74.511719 C 160.007812 75.722656 158.027344 80.023438 162.90625 89.828125 C 174.113281 85.824219 181.996094 69.660156 178.90625 51.726562 C 176.429688 37.363281 158.652344 32.671875 154.996094 33.140625 C 154.996094 33.140625 139.824219 27.890625 131.839844 42.285156 C 125.007812 54.589844 131.386719 61.933594 131.386719 61.933594 L 135.027344 50.984375 C 135.027344 50.984375 136.546875 52.050781 140.960938 45.125 Z M 140.960938 45.125 " fill-opacity="1" fill-rule="nonzero"/><g clip-path="url(#7881f842b6)"><g clip-path="url(#cf2d3b407f)"><path fill="url(#8861f886e5)" d="M 146.683594 160.832031 L 146.683594 209.511719 L 219.699219 209.511719 L 219.699219 160.832031 Z M 146.683594 160.832031 " fill-rule="nonzero"/></g></g><path fill="#ffffff" d="M 183.320312 188.242188 C 185.425781 188.242188 187.128906 186.53125 187.128906 184.425781 C 187.128906 182.316406 185.425781 180.609375 183.320312 180.609375 C 181.214844 180.609375 179.507812 182.316406 179.507812 184.425781 C 179.507812 186.53125 181.214844 188.242188 183.320312 188.242188 Z M 183.320312 188.242188 " fill-opacity="1" fill-rule="nonzero"/><path fill="#ffccb3" d="M 58.386719 105.464844 L 55.113281 99.179688 C 55.113281 99.179688 43.546875 92.550781 42.207031 90.15625 C 40.863281 87.757812 40.335938 80.917969 42.710938 79.167969 C 42.710938 79.167969 33.480469 72.226562 35.050781 70.816406 C 36.617188 69.308594 54.753906 82.800781 54.753906 82.800781 C 54.753906 82.800781 52.542969 72.859375 55.898438 72.394531 C 56.808594 76.246094 58.367188 79.917969 60.503906 83.246094 C 64.035156 88.714844 64.472656 93.613281 64.472656 93.613281 L 68.632812 101.613281 Z M 58.386719 105.464844 " fill-opacity="1" fill-rule="nonzero"/><path stroke-linecap="round" transform="matrix(0.0671998, 0, 0, 0.0672954, 0.0435473, 18.187499)" fill="none" stroke-linejoin="round" d="M 644.175347 908.772721 L 727.357737 961.18852 " stroke="#ff967c" stroke-width="13.016" stroke-opacity="1" stroke-miterlimit="4"/><path stroke-linecap="round" transform="matrix(0.0671998, 0, 0, 0.0672954, 0.0435473, 18.187499)" fill="none" stroke-linejoin="round" d="M 631.793902 968.734537 L 702.36233 1012.617532 " stroke="#ff967c" stroke-width="13.016" stroke-opacity="1" stroke-miterlimit="4"/><path stroke-linecap="round" transform="matrix(0.0671998, 0, 0, 0.0672954, 0.0435473, 18.187499)" fill="none" stroke-linejoin="round" d="M 645.512311 1033.572242 L 692.596683 1063.291942 " stroke="#ff967c" stroke-width="13.016" stroke-opacity="1" stroke-miterlimit="4"/><path fill="#ffffff" d="M 65.199219 31.882812 C 66.667969 31.882812 67.863281 30.6875 67.863281 29.214844 C 67.863281 27.742188 66.667969 26.546875 65.199219 26.546875 C 63.726562 26.546875 62.535156 27.742188 62.535156 29.214844 C 62.535156 30.6875 63.726562 31.882812 65.199219 31.882812 Z M 65.199219 31.882812 " fill-opacity="1" fill-rule="nonzero"/><path fill="#ffffff" d="M 75.957031 31.882812 C 77.429688 31.882812 78.621094 30.6875 78.621094 29.214844 C 78.621094 27.742188 77.429688 26.546875 75.957031 26.546875 C 74.488281 26.546875 73.292969 27.742188 73.292969 29.214844 C 73.292969 30.6875 74.488281 31.882812 75.957031 31.882812 Z M 75.957031 31.882812 " fill-opacity="1" fill-rule="nonzero"/><path fill="#ffffff" d="M 86.066406 31.882812 C 87.539062 31.882812 88.730469 30.6875 88.730469 29.214844 C 88.730469 27.742188 87.539062 26.546875 86.066406 26.546875 C 84.597656 26.546875 83.402344 27.742188 83.402344 29.214844 C 83.402344 30.6875 84.597656 31.882812 86.066406 31.882812 Z M 86.066406 31.882812 " fill-opacity="1" fill-rule="nonzero"/><path fill="#febb94" d="M 6.046875 28.890625 C 16.753906 38.035156 45 58.894531 80.875 59.890625 C 81.609375 59.910156 82.304688 60.21875 82.816406 60.746094 C 83.324219 61.273438 83.609375 61.980469 83.609375 62.714844 L 83.609375 119.636719 C 83.609375 120.363281 83.332031 121.0625 82.832031 121.589844 C 82.332031 122.113281 81.648438 122.429688 80.925781 122.464844 C 70.140625 123 29.238281 122.9375 2.140625 93.882812 C 1.65625 93.359375 1.386719 92.675781 1.390625 91.960938 L 1.390625 31.042969 C 1.390625 30.503906 1.542969 29.976562 1.835938 29.519531 C 2.125 29.066406 2.539062 28.703125 3.027344 28.476562 C 3.519531 28.25 4.0625 28.167969 4.597656 28.242188 C 5.132812 28.3125 5.632812 28.539062 6.046875 28.890625 Z M 6.046875 28.890625 " fill-opacity="0.7" fill-rule="nonzero"/><g clip-path="url(#e96c96bc14)"><path stroke-linecap="round" transform="matrix(0.0671998, 0, 0, 0.0672954, 0.0435473, 18.187499)" fill="none" stroke-linejoin="miter" d="M 149.789447 408.297618 C 149.789447 408.297618 275.522157 530.485056 447.467307 606.409602 " stroke="#ffffff" stroke-width="33.686001" stroke-opacity="1" stroke-miterlimit="10"/></g><g clip-path="url(#7377d339f8)"><path stroke-linecap="round" transform="matrix(0.0671998, 0, 0, 0.0672954, 0.0435473, 18.187499)" fill="none" stroke-linejoin="miter" d="M 149.789447 556.431747 C 149.789447 556.431747 324.815425 719.715958 552.506145 780.316284 " stroke="#ffffff" stroke-width="33.686001" stroke-opacity="0.4" stroke-miterlimit="10"/></g><path fill="#ffffff" d="M 8.355469 92.089844 L 8.355469 68.316406 L 16.679688 74.28125 L 16.679688 98.632812 Z M 8.355469 92.089844 " fill-opacity="1" fill-rule="nonzero"/><path fill="#ffffff" d="M 22.40625 101.699219 L 22.40625 84.757812 L 30.730469 89.742188 L 30.730469 106.488281 Z M 22.40625 101.699219 " fill-opacity="1" fill-rule="nonzero"/><path fill="#ffffff" d="M 58 114.960938 L 58 98.019531 L 49.675781 96.878906 L 49.675781 113.625 Z M 58 114.960938 " fill-opacity="1" fill-rule="nonzero"/><path fill="#ffffff" d="M 71.671875 115.683594 L 71.671875 86.027344 L 63.347656 86.027344 L 63.347656 115.492188 Z M 71.671875 115.683594 " fill-opacity="1" fill-rule="nonzero"/><path fill="#ffffff" d="M 36.039062 109.121094 L 36.039062 101.375 L 44.363281 103.71875 L 44.363281 112.140625 Z M 36.039062 109.121094 " fill-opacity="1" fill-rule="nonzero"/><path fill="#96bafd" d="M 26.890625 146.835938 C 37.601562 154.710938 65.847656 175.265625 101.722656 172 C 102.070312 171.960938 102.425781 171.996094 102.757812 172.101562 C 103.09375 172.210938 103.402344 172.390625 103.660156 172.625 C 103.917969 172.863281 104.125 173.152344 104.261719 173.476562 C 104.398438 173.800781 104.464844 174.152344 104.457031 174.503906 L 104.457031 231.425781 C 104.4375 232.179688 104.164062 232.902344 103.671875 233.476562 C 103.183594 234.046875 102.511719 234.433594 101.773438 234.570312 C 90.988281 236.386719 46.128906 235.492188 22.984375 212.296875 C 22.746094 212.054688 22.558594 211.769531 22.429688 211.453125 C 22.300781 211.140625 22.234375 210.804688 22.238281 210.464844 L 22.238281 149.546875 C 22.238281 147.132812 25.058594 145.488281 26.890625 146.835938 Z M 26.890625 146.835938 " fill-opacity="0.7" fill-rule="nonzero"/><path fill="#ffccb3" d="M 199.28125 207.878906 C 199.28125 207.878906 202.152344 208.117188 201.71875 209.566406 C 201.289062 211.019531 198.726562 210.347656 196.386719 211.796875 C 194.046875 213.25 184.800781 214.285156 180.179688 213.511719 C 175.5625 212.742188 174.277344 207.878906 174.277344 207.878906 C 174.277344 207.878906 173.503906 203.265625 181.664062 202.792969 C 189.824219 202.320312 193.621094 204.941406 195.042969 207.78125 Z M 199.28125 207.878906 " fill-opacity="1" fill-rule="nonzero"/><path stroke-linecap="round" transform="matrix(0.0671998, 0, 0, 0.0672954, 0.0435473, 18.187499)" fill="none" stroke-linejoin="miter" d="M 2644.389203 2753.83206 L 2670.605316 2824.416347 " stroke="#e56441" stroke-width="10.147" stroke-opacity="1" stroke-miterlimit="4"/><path stroke-linecap="round" transform="matrix(0.0671998, 0, 0, 0.0672954, 0.0435473, 18.187499)" fill="none" stroke-linejoin="miter" d="M 2712.283704 2742.396941 L 2738.557946 2812.923182 " stroke="#e56441" stroke-width="10.147" stroke-opacity="1" stroke-miterlimit="4"/><path stroke-linecap="round" transform="matrix(0.0671998, 0, 0, 0.0672954, 0.0435473, 18.187499)" fill="none" stroke-linejoin="miter" d="M 2784.01471 2748.317662 L 2810.288952 2818.901949 " stroke="#e56441" stroke-width="10.147" stroke-opacity="1" stroke-miterlimit="4"/><g clip-path="url(#2a9065dd38)"><path fill="#1c85e8" d="M 286.117188 151.46875 C 271.179688 164.226562 231.78125 193.320312 181.742188 194.710938 C 180.71875 194.742188 179.746094 195.171875 179.035156 195.90625 C 178.320312 196.644531 177.921875 197.628906 177.925781 198.652344 L 177.925781 278.054688 C 177.925781 279.066406 178.3125 280.039062 179.011719 280.773438 C 179.707031 281.507812 180.660156 281.945312 181.667969 281.996094 C 196.714844 282.746094 253.765625 282.65625 291.570312 242.128906 C 292.242188 241.398438 292.617188 240.441406 292.613281 239.449219 L 292.613281 154.476562 C 292.613281 153.722656 292.398438 152.984375 291.992188 152.347656 C 291.589844 151.714844 291.007812 151.207031 290.328125 150.890625 C 289.644531 150.574219 288.882812 150.460938 288.140625 150.5625 C 287.394531 150.664062 286.695312 150.980469 286.117188 151.46875 Z M 286.117188 151.46875 " fill-opacity="0.7" fill-rule="nonzero"/></g><g clip-path="url(#cda87fe6a6)"><path stroke-linecap="round" transform="matrix(0.0671998, 0, 0, 0.0672954, 0.0435473, 18.187499)" fill="none" stroke-linejoin="miter" d="M 4172.771154 2328.236669 C 4172.771154 2328.236669 3997.338273 2498.71862 3757.556752 2604.595051 " stroke="#ffffff" stroke-width="46.988998" stroke-opacity="1" stroke-miterlimit="10"/></g><g clip-path="url(#20c5c9a3ac)"><path stroke-linecap="round" transform="matrix(0.0671998, 0, 0, 0.0672954, 0.0435473, 18.187499)" fill="none" stroke-linejoin="miter" d="M 4172.771154 2534.881458 C 4172.771154 2534.881458 3928.571839 2762.655095 3610.955783 2847.228538 " stroke="#ffffff" stroke-width="46.988998" stroke-opacity="0.4" stroke-miterlimit="10"/></g><path fill="#ffffff" d="M 272.789062 126.347656 L 227.1875 126.347656 C 226.289062 126.347656 225.40625 126.527344 224.578125 126.867188 C 223.75 127.210938 223 127.714844 222.367188 128.347656 C 221.734375 128.980469 221.234375 129.734375 220.890625 130.5625 C 220.546875 131.386719 220.371094 132.277344 220.371094 133.171875 L 220.371094 147.300781 C 220.371094 148.199219 220.546875 149.085938 220.890625 149.914062 C 221.234375 150.742188 221.734375 151.492188 222.367188 152.125 C 223 152.757812 223.75 153.261719 224.578125 153.605469 C 225.40625 153.949219 226.289062 154.125 227.1875 154.125 L 243.375 154.125 L 248.152344 158.910156 C 248.601562 159.355469 249.207031 159.609375 249.839844 159.609375 C 250.472656 159.609375 251.078125 159.355469 251.527344 158.910156 L 256.300781 154.125 L 272.789062 154.125 C 274.597656 154.125 276.332031 153.40625 277.609375 152.125 C 278.886719 150.847656 279.605469 149.109375 279.605469 147.300781 L 279.605469 133.171875 C 279.605469 131.363281 278.886719 129.628906 277.609375 128.347656 C 276.332031 127.066406 274.597656 126.347656 272.789062 126.347656 Z M 272.789062 126.347656 " fill-opacity="1" fill-rule="nonzero"/><path fill="#f4608a" d="M 239.71875 135.753906 C 239.109375 135.191406 238.3125 134.878906 237.484375 134.878906 C 236.65625 134.878906 235.855469 135.191406 235.246094 135.753906 L 234.40625 136.535156 L 233.5625 135.753906 C 232.953125 135.191406 232.15625 134.878906 231.328125 134.878906 C 230.5 134.878906 229.699219 135.191406 229.09375 135.753906 C 228.769531 136.046875 228.515625 136.402344 228.339844 136.796875 C 228.164062 137.195312 228.070312 137.625 228.070312 138.058594 C 228.070312 138.492188 228.164062 138.921875 228.339844 139.320312 C 228.515625 139.714844 228.769531 140.070312 229.09375 140.363281 L 234.40625 145.292969 L 239.71875 140.425781 C 240.054688 140.136719 240.324219 139.777344 240.507812 139.375 C 240.691406 138.972656 240.789062 138.535156 240.789062 138.089844 C 240.789062 137.648438 240.691406 137.210938 240.507812 136.804688 C 240.324219 136.402344 240.054688 136.042969 239.71875 135.753906 Z M 239.71875 135.753906 " fill-opacity="1" fill-rule="nonzero"/><path fill="#1c85e8" d="M 245.652344 138.636719 C 245.699219 138.039062 245.929688 137.570312 246.34375 137.234375 C 246.757812 136.894531 247.296875 136.726562 247.957031 136.726562 C 248.398438 136.726562 248.777344 136.808594 249.097656 136.96875 C 249.421875 137.125 249.664062 137.339844 249.828125 137.613281 C 249.996094 137.886719 250.078125 138.195312 250.078125 138.539062 C 250.078125 138.941406 249.964844 139.289062 249.730469 139.582031 C 249.5 139.875 249.203125 140.0625 248.835938 140.148438 L 248.835938 140.195312 C 249.253906 140.300781 249.589844 140.503906 249.835938 140.808594 C 250.082031 141.117188 250.207031 141.515625 250.207031 142.007812 C 250.207031 142.378906 250.121094 142.714844 249.953125 143.011719 C 249.785156 143.304688 249.53125 143.535156 249.195312 143.703125 C 248.855469 143.875 248.449219 143.957031 247.976562 143.957031 C 247.289062 143.957031 246.726562 143.777344 246.285156 143.421875 C 245.84375 143.058594 245.597656 142.542969 245.542969 141.882812 L 246.402344 141.882812 C 246.445312 142.273438 246.605469 142.589844 246.878906 142.835938 C 247.148438 143.082031 247.515625 143.207031 247.96875 143.207031 C 248.421875 143.207031 248.765625 143.089844 249 142.855469 C 249.238281 142.617188 249.359375 142.308594 249.359375 141.929688 C 249.359375 141.441406 249.195312 141.09375 248.875 140.878906 C 248.546875 140.664062 248.058594 140.558594 247.402344 140.558594 L 247.179688 140.558594 L 247.179688 139.816406 L 247.414062 139.816406 C 248.007812 139.808594 248.460938 139.710938 248.765625 139.523438 C 249.070312 139.328125 249.222656 139.03125 249.222656 138.625 C 249.222656 138.28125 249.109375 138.007812 248.882812 137.800781 C 248.664062 137.589844 248.34375 137.488281 247.929688 137.488281 C 247.527344 137.488281 247.203125 137.589844 246.953125 137.800781 C 246.707031 138.007812 246.5625 138.285156 246.519531 138.636719 Z M 252.460938 142.679688 L 251.375 145.300781 L 250.78125 145.300781 L 251.488281 142.679688 Z M 257.816406 137.632812 L 254.402344 137.632812 L 254.402344 139.855469 C 254.550781 139.648438 254.769531 139.476562 255.0625 139.347656 C 255.355469 139.210938 255.667969 139.144531 256.007812 139.144531 C 256.546875 139.144531 256.984375 139.257812 257.320312 139.484375 C 257.65625 139.707031 257.898438 139.996094 258.039062 140.351562 C 258.191406 140.703125 258.261719 141.078125 258.261719 141.472656 C 258.261719 141.941406 258.175781 142.359375 258 142.730469 C 257.828125 143.101562 257.558594 143.390625 257.195312 143.605469 C 256.835938 143.820312 256.394531 143.929688 255.859375 143.929688 C 255.179688 143.929688 254.628906 143.753906 254.207031 143.402344 C 253.785156 143.050781 253.527344 142.582031 253.4375 142 L 254.304688 142 C 254.390625 142.367188 254.566406 142.660156 254.839844 142.867188 C 255.109375 143.074219 255.457031 143.179688 255.871094 143.179688 C 256.382812 143.179688 256.769531 143.023438 257.03125 142.71875 C 257.289062 142.40625 257.417969 142 257.417969 141.492188 C 257.417969 140.984375 257.289062 140.597656 257.03125 140.324219 C 256.769531 140.042969 256.386719 139.902344 255.882812 139.902344 C 255.539062 139.902344 255.234375 139.988281 254.972656 140.15625 C 254.722656 140.320312 254.539062 140.542969 254.417969 140.828125 L 253.585938 140.828125 L 253.585938 136.855469 L 257.816406 136.855469 Z M 259.335938 143.199219 C 260.15625 142.535156 260.804688 141.992188 261.269531 141.570312 C 261.738281 141.140625 262.132812 140.695312 262.449219 140.234375 C 262.773438 139.765625 262.933594 139.308594 262.933594 138.859375 C 262.933594 138.4375 262.832031 138.105469 262.625 137.867188 C 262.421875 137.621094 262.09375 137.496094 261.640625 137.496094 C 261.199219 137.496094 260.855469 137.636719 260.609375 137.917969 C 260.367188 138.1875 260.238281 138.554688 260.21875 139.015625 L 259.363281 139.015625 C 259.390625 138.289062 259.609375 137.726562 260.023438 137.332031 C 260.441406 136.933594 260.976562 136.738281 261.632812 136.738281 C 262.296875 136.738281 262.828125 136.921875 263.214844 137.292969 C 263.613281 137.664062 263.808594 138.171875 263.808594 138.820312 C 263.808594 139.359375 263.648438 139.886719 263.324219 140.402344 C 263.003906 140.90625 262.640625 141.355469 262.234375 141.746094 C 261.828125 142.128906 261.300781 142.578125 260.667969 143.089844 L 264.011719 143.089844 L 264.011719 143.832031 L 259.335938 143.832031 Z M 269.367188 137.554688 L 266.664062 143.910156 L 265.765625 143.910156 L 268.511719 137.644531 L 264.757812 137.644531 L 264.757812 136.882812 L 269.367188 136.882812 Z M 269.367188 137.554688 " fill-opacity="1" fill-rule="nonzero"/><g clip-path="url(#718334b459)"><path fill="#1c85e8" d="M 5.214844 256.398438 L 39.597656 256.398438 C 40.273438 256.398438 40.941406 256.265625 41.5625 256.007812 C 42.1875 255.75 42.753906 255.367188 43.230469 254.890625 C 43.707031 254.414062 44.085938 253.847656 44.34375 253.222656 C 44.601562 252.597656 44.734375 251.929688 44.734375 251.253906 L 44.734375 240.601562 C 44.734375 239.925781 44.601562 239.257812 44.34375 238.632812 C 44.085938 238.007812 43.707031 237.441406 43.230469 236.964844 C 42.753906 236.484375 42.1875 236.109375 41.5625 235.847656 C 40.941406 235.589844 40.273438 235.457031 39.597656 235.457031 L 27.390625 235.457031 L 23.789062 231.851562 C 23.453125 231.511719 22.996094 231.324219 22.519531 231.324219 C 22.042969 231.324219 21.585938 231.511719 21.246094 231.851562 L 17.644531 235.457031 L 5.214844 235.457031 C 3.851562 235.457031 2.542969 236 1.582031 236.964844 C 0.617188 237.929688 0.078125 239.238281 0.078125 240.601562 L 0.078125 251.253906 C 0.078125 252.617188 0.617188 253.925781 1.582031 254.890625 C 2.542969 255.855469 3.851562 256.398438 5.214844 256.398438 Z M 5.214844 256.398438 " fill-opacity="0.7" fill-rule="nonzero"/></g><path fill="#ffffff" d="M 21.410156 248.546875 C 22.03125 248.046875 22.519531 247.636719 22.871094 247.320312 C 23.222656 246.996094 23.519531 246.660156 23.757812 246.3125 C 24.003906 245.960938 24.125 245.613281 24.125 245.277344 C 24.125 244.957031 24.046875 244.707031 23.890625 244.527344 C 23.738281 244.339844 23.492188 244.246094 23.152344 244.246094 C 22.816406 244.246094 22.558594 244.351562 22.371094 244.5625 C 22.191406 244.769531 22.09375 245.046875 22.078125 245.394531 L 21.433594 245.394531 C 21.453125 244.847656 21.621094 244.421875 21.933594 244.125 C 22.246094 243.824219 22.648438 243.675781 23.144531 243.675781 C 23.648438 243.675781 24.046875 243.8125 24.339844 244.09375 C 24.636719 244.371094 24.785156 244.757812 24.785156 245.246094 C 24.785156 245.652344 24.664062 246.050781 24.421875 246.4375 C 24.179688 246.820312 23.90625 247.15625 23.597656 247.449219 C 23.289062 247.742188 22.894531 248.078125 22.417969 248.464844 L 24.941406 248.464844 L 24.941406 249.023438 L 21.410156 249.023438 Z M 25.550781 247.898438 L 25.550781 247.390625 L 28.125 243.820312 L 28.925781 243.820312 L 28.925781 247.320312 L 29.660156 247.320312 L 29.660156 247.898438 L 28.925781 247.898438 L 28.925781 249.082031 L 28.265625 249.082031 L 28.265625 247.898438 Z M 28.292969 244.519531 L 26.320312 247.320312 L 28.292969 247.320312 Z M 30.3125 245.109375 C 30.347656 244.65625 30.519531 244.304688 30.832031 244.050781 C 31.144531 243.792969 31.550781 243.667969 32.050781 243.667969 C 32.382812 243.667969 32.667969 243.730469 32.910156 243.851562 C 33.152344 243.96875 33.335938 244.128906 33.460938 244.335938 C 33.585938 244.542969 33.648438 244.773438 33.648438 245.035156 C 33.648438 245.335938 33.5625 245.601562 33.386719 245.820312 C 33.214844 246.039062 32.988281 246.183594 32.710938 246.246094 L 32.710938 246.285156 C 33.027344 246.363281 33.28125 246.515625 33.464844 246.746094 C 33.652344 246.976562 33.746094 247.277344 33.746094 247.648438 C 33.746094 247.929688 33.679688 248.179688 33.554688 248.40625 C 33.425781 248.625 33.238281 248.800781 32.980469 248.929688 C 32.726562 249.054688 32.421875 249.121094 32.066406 249.121094 C 31.546875 249.121094 31.121094 248.984375 30.789062 248.714844 C 30.457031 248.441406 30.269531 248.054688 30.230469 247.554688 L 30.875 247.554688 C 30.910156 247.847656 31.03125 248.089844 31.234375 248.273438 C 31.441406 248.460938 31.714844 248.554688 32.058594 248.554688 C 32.398438 248.554688 32.660156 248.464844 32.835938 248.289062 C 33.015625 248.109375 33.105469 247.875 33.105469 247.589844 C 33.105469 247.222656 32.984375 246.960938 32.738281 246.796875 C 32.496094 246.636719 32.125 246.554688 31.632812 246.554688 L 31.464844 246.554688 L 31.464844 245.996094 L 31.640625 245.996094 C 32.089844 245.992188 32.429688 245.917969 32.660156 245.777344 C 32.890625 245.628906 33.003906 245.402344 33.003906 245.101562 C 33.003906 244.839844 32.917969 244.632812 32.746094 244.476562 C 32.582031 244.320312 32.339844 244.242188 32.027344 244.242188 C 31.726562 244.242188 31.480469 244.320312 31.292969 244.476562 C 31.109375 244.632812 31 244.84375 30.964844 245.109375 Z M 37.601562 245.035156 C 37.496094 244.492188 37.160156 244.21875 36.597656 244.21875 C 36.164062 244.21875 35.835938 244.386719 35.621094 244.726562 C 35.40625 245.058594 35.300781 245.609375 35.308594 246.378906 C 35.417969 246.125 35.605469 245.925781 35.863281 245.785156 C 36.128906 245.636719 36.421875 245.5625 36.746094 245.5625 C 37.25 245.5625 37.648438 245.71875 37.949219 246.03125 C 38.25 246.347656 38.402344 246.78125 38.402344 247.332031 C 38.402344 247.667969 38.335938 247.964844 38.203125 248.230469 C 38.078125 248.496094 37.882812 248.707031 37.617188 248.863281 C 37.359375 249.019531 37.042969 249.097656 36.671875 249.097656 C 36.167969 249.097656 35.773438 248.984375 35.492188 248.757812 C 35.207031 248.535156 35.007812 248.222656 34.894531 247.824219 C 34.785156 247.429688 34.726562 246.941406 34.726562 246.355469 C 34.726562 244.558594 35.355469 243.660156 36.605469 243.660156 C 37.085938 243.660156 37.460938 243.789062 37.734375 244.050781 C 38.007812 244.308594 38.171875 244.636719 38.21875 245.035156 Z M 36.605469 246.128906 C 36.394531 246.128906 36.195312 246.171875 36.011719 246.261719 C 35.824219 246.34375 35.671875 246.472656 35.554688 246.652344 C 35.445312 246.820312 35.386719 247.03125 35.386719 247.28125 C 35.386719 247.65625 35.496094 247.957031 35.710938 248.191406 C 35.925781 248.421875 36.234375 248.539062 36.636719 248.539062 C 36.976562 248.539062 37.25 248.433594 37.449219 248.222656 C 37.65625 248.007812 37.757812 247.71875 37.757812 247.355469 C 37.757812 246.972656 37.660156 246.675781 37.464844 246.460938 C 37.269531 246.238281 36.980469 246.128906 36.605469 246.128906 Z M 36.605469 246.128906 " fill-opacity="1" fill-rule="nonzero"/><g clip-path="url(#f83c47f145)"><path stroke-linecap="round" transform="matrix(0.0671998, 0, 0, 0.0672954, 0.0435473, 18.187499)" fill="none" stroke-linejoin="miter" d="M 2800.348918 3408.071782 C 2800.348918 3408.071782 2963.51661 3373.882517 3038.154058 3294.765426 C 3136.97311 3189.875782 3159.817749 3064.089474 3268.111803 3051.203198 C 3438.080572 3030.886996 3536.608979 3630.969531 3742.966409 3549.762773 C 3949.265711 3468.614061 3900.553732 3020.438664 4023.321871 2944.514119 C 4107.841224 2892.214412 4151.844766 3047.778467 4270.253241 3007.204111 " stroke="#ffffff" stroke-width="46.988998" stroke-opacity="1" stroke-miterlimit="10"/></g><g clip-path="url(#f484b7c686)"><g clip-path="url(#b25836dfc7)"><path fill="url(#f120317b01)" d="M 75.945312 213.800781 L 75.945312 267.089844 L 136.03125 267.089844 L 136.03125 213.800781 Z M 75.945312 213.800781 " fill-rule="nonzero"/></g></g><path fill="#ffffff" d="M 6.792969 250.15625 L 7.917969 250.15625 C 8.128906 250.15625 8.328125 250.074219 8.476562 249.925781 C 8.625 249.777344 8.707031 249.578125 8.707031 249.367188 L 8.707031 244.179688 C 8.707031 243.96875 8.625 243.769531 8.476562 243.621094 C 8.328125 243.472656 8.128906 243.390625 7.917969 243.386719 L 6.792969 243.386719 C 6.585938 243.390625 6.382812 243.472656 6.234375 243.621094 C 6.089844 243.769531 6.003906 243.96875 6.003906 244.179688 L 6.003906 249.367188 C 6.003906 249.578125 6.089844 249.777344 6.234375 249.925781 C 6.382812 250.074219 6.585938 250.15625 6.792969 250.15625 Z M 6.792969 250.15625 " fill-opacity="1" fill-rule="nonzero"/><path fill="#ffffff" d="M 11.765625 240.117188 C 11.3125 240.117188 11.089844 240.34375 11.089844 241.46875 C 11.089844 242.542969 10.050781 243.40625 9.382812 243.851562 L 9.382812 249.441406 C 10.105469 249.773438 11.550781 250.269531 13.792969 250.269531 L 14.511719 250.269531 C 14.9375 250.269531 15.347656 250.121094 15.671875 249.847656 C 16 249.570312 16.214844 249.191406 16.289062 248.773438 L 16.792969 245.839844 C 16.835938 245.578125 16.824219 245.3125 16.757812 245.058594 C 16.6875 244.804688 16.566406 244.570312 16.394531 244.367188 C 16.226562 244.167969 16.015625 244.007812 15.777344 243.894531 C 15.539062 243.785156 15.28125 243.726562 15.015625 243.726562 L 12.890625 243.726562 C 13.128906 243.15625 13.246094 242.542969 13.226562 241.921875 C 13.226562 240.566406 12.214844 240.117188 11.765625 240.117188 Z M 11.765625 240.117188 " fill-opacity="1" fill-rule="nonzero"/><path fill="#ffffff" d="M 44.324219 204.429688 C 38.347656 202.320312 33.5 195.757812 33.5 189.769531 C 33.5 183.785156 38.347656 180.644531 44.324219 182.753906 L 44.324219 175.796875 C 34.667969 172.390625 26.839844 177.464844 26.839844 187.132812 C 26.839844 196.800781 34.667969 207.40625 44.324219 210.8125 C 53.570312 214.078125 61.136719 209.558594 61.757812 200.675781 L 55.101562 198.328125 C 54.632812 203.710938 49.988281 206.429688 44.324219 204.429688 Z M 44.324219 204.429688 " fill-opacity="1" fill-rule="nonzero"/><path fill="#1c85e8" d="M 46.542969 174.359375 L 46.542969 181.316406 C 52.519531 183.425781 57.363281 189.988281 57.363281 195.976562 C 57.363281 196.289062 57.347656 196.589844 57.324219 196.886719 L 63.980469 199.238281 C 64.007812 198.847656 64.027344 198.449219 64.027344 198.039062 C 64.027344 188.371094 56.199219 177.769531 46.542969 174.359375 Z M 46.542969 174.359375 " fill-opacity="1" fill-rule="nonzero"/><path stroke-linecap="butt" transform="matrix(0.0671998, 0, 0, 0.0672954, 0.0435473, 18.187499)" fill="none" stroke-linejoin="miter" d="M 658.940076 2767.530984 L 658.940076 2862.37862 " stroke="#ffffff" stroke-width="11.005" stroke-opacity="1" stroke-miterlimit="10"/><path stroke-linecap="butt" transform="matrix(0.0671998, 0, 0, 0.0672954, 0.0435473, 18.187499)" fill="none" stroke-linejoin="miter" d="M 497.865023 2549.683262 L 398.755327 2514.739396 " stroke="#ffffff" stroke-width="11.005" stroke-opacity="1" stroke-miterlimit="10"/><path stroke-linecap="round" transform="matrix(0.0671998, 0, 0, 0.0672954, 0.0435473, 18.187499)" fill="none" stroke-linejoin="miter" d="M 1076.130859 2564.485065 L 1260.050552 2599.428931 " stroke="#ffffff" stroke-width="46.988998" stroke-opacity="1" stroke-miterlimit="10"/><path stroke-linecap="round" transform="matrix(0.0671998, 0, 0, 0.0672954, 0.0435473, 18.187499)" fill="none" stroke-linejoin="miter" d="M 1076.130859 2852.68489 L 1260.050552 2887.628755 " stroke="#ffffff" stroke-width="46.988998" stroke-opacity="0.4" stroke-miterlimit="10"/><path stroke-linecap="round" transform="matrix(0.0671998, 0, 0, 0.0672954, 0.0435473, 18.187499)" fill="none" stroke-linejoin="miter" d="M 1076.130859 2711.516315 L 1340.384628 2761.726355 " stroke="#ffffff" stroke-width="46.988998" stroke-opacity="1" stroke-miterlimit="10"/><g clip-path="url(#caac05eeb4)"><g clip-path="url(#a77e5123e2)"><path fill="url(#208d0e0dad)" d="M 217.710938 23.039062 L 217.710938 123.394531 L 299.933594 123.394531 L 299.933594 23.039062 Z M 217.710938 23.039062 " fill-rule="nonzero"/></g></g><path fill="#ffffff" d="M 223.367188 68.394531 L 223.367188 101.976562 C 223.367188 102.269531 223.429688 102.558594 223.558594 102.824219 C 223.683594 103.085938 223.867188 103.316406 224.09375 103.5 C 224.324219 103.683594 224.589844 103.8125 224.871094 103.878906 C 225.15625 103.945312 225.453125 103.945312 225.738281 103.882812 C 231.84375 102.511719 248.367188 98.550781 258.800781 93.621094 C 259.136719 93.464844 259.417969 93.214844 259.617188 92.902344 C 259.8125 92.589844 259.917969 92.226562 259.914062 91.859375 L 259.914062 59.152344 C 259.917969 58.828125 259.835938 58.503906 259.675781 58.21875 C 259.519531 57.929688 259.296875 57.6875 259.019531 57.511719 C 258.742188 57.335938 258.429688 57.230469 258.105469 57.207031 C 257.777344 57.183594 257.453125 57.246094 257.15625 57.382812 C 251.339844 60.0625 237.367188 65.921875 225.214844 66.449219 C 224.714844 66.472656 224.242188 66.6875 223.898438 67.050781 C 223.554688 67.414062 223.363281 67.894531 223.367188 68.394531 Z M 223.367188 68.394531 " fill-opacity="1" fill-rule="nonzero"/><path fill="#1c85e8" d="M 224.875 96.570312 L 224.875 100.105469 C 224.875 100.371094 224.9375 100.636719 225.054688 100.875 C 225.175781 101.113281 225.347656 101.324219 225.558594 101.488281 C 225.769531 101.648438 226.019531 101.757812 226.28125 101.8125 C 226.542969 101.863281 226.8125 101.851562 227.070312 101.78125 L 245.347656 96.777344 C 245.636719 96.699219 245.898438 96.546875 246.109375 96.335938 C 246.324219 96.125 246.476562 95.863281 246.558594 95.578125 C 246.640625 95.289062 246.648438 94.984375 246.578125 94.695312 C 246.507812 94.402344 246.363281 94.136719 246.164062 93.917969 L 236.363281 83.359375 C 236.1875 83.167969 235.972656 83.023438 235.730469 82.925781 C 235.492188 82.832031 235.230469 82.789062 234.976562 82.808594 C 234.71875 82.824219 234.464844 82.898438 234.242188 83.027344 C 234.015625 83.152344 233.820312 83.328125 233.671875 83.539062 L 225.195312 95.570312 C 224.988281 95.863281 224.875 96.214844 224.875 96.570312 Z M 224.875 96.570312 " fill-opacity="1" fill-rule="nonzero"/><path fill="#1c85e8" d="M 243.511719 88.289062 L 248.996094 94.117188 C 249.171875 94.304688 249.402344 94.433594 249.648438 94.492188 C 249.898438 94.546875 250.160156 94.527344 250.402344 94.433594 C 252.023438 93.800781 255.664062 92.367188 257.503906 91.574219 C 257.734375 91.472656 257.929688 91.308594 258.070312 91.097656 C 258.207031 90.886719 258.28125 90.640625 258.28125 90.386719 L 258.28125 84.925781 C 258.28125 84.648438 258.191406 84.375 258.027344 84.152344 L 250.3125 73.808594 C 250.175781 73.625 249.988281 73.476562 249.773438 73.390625 C 249.5625 73.300781 249.328125 73.269531 249.097656 73.300781 C 248.871094 73.335938 248.652344 73.429688 248.472656 73.574219 C 248.292969 73.71875 248.15625 73.910156 248.074219 74.125 L 243.242188 86.945312 C 243.15625 87.171875 243.136719 87.417969 243.183594 87.65625 C 243.230469 87.890625 243.347656 88.113281 243.511719 88.289062 Z M 243.511719 88.289062 " fill-opacity="0.6" fill-rule="nonzero"/><path fill="#febb94" d="M 238.695312 79.1875 C 240.320312 79.1875 241.640625 77.867188 241.640625 76.238281 C 241.640625 74.609375 240.320312 73.289062 238.695312 73.289062 C 237.070312 73.289062 235.75 74.609375 235.75 76.238281 C 235.75 77.867188 237.070312 79.1875 238.695312 79.1875 Z M 238.695312 79.1875 " fill-opacity="1" fill-rule="nonzero"/><g clip-path="url(#6f0084b74b)"><path stroke-linecap="round" transform="matrix(0.0671998, 0, 0, 0.0672954, 0.0435473, 18.187499)" fill="none" stroke-linejoin="miter" d="M 3993.501769 566.125478 C 4105.922972 509.124022 4214.158897 444.112178 4317.279484 371.612364 " stroke="#ffffff" stroke-width="46.988998" stroke-opacity="1" stroke-miterlimit="10"/></g><g clip-path="url(#97817dde01)"><path stroke-linecap="round" transform="matrix(0.0671998, 0, 0, 0.0672954, 0.0435473, 18.187499)" fill="none" stroke-linejoin="miter" d="M 3993.501769 755.414426 C 3993.501769 755.414426 4067.151026 719.483773 4168.295232 658.128846 " stroke="#ffffff" stroke-width="46.988998" stroke-opacity="1" stroke-miterlimit="10"/></g><g clip-path="url(#4b605ebe2e)"><path stroke-linecap="round" transform="matrix(0.0671998, 0, 0, 0.0672954, 0.0435473, 18.187499)" fill="none" stroke-linejoin="miter" d="M 3993.501769 940.465995 C 4105.922972 883.464539 4214.158897 818.452695 4317.279484 745.952881 " stroke="#ffffff" stroke-width="46.988998" stroke-opacity="1" stroke-miterlimit="10"/></g><g clip-path="url(#c3b844de03)"><path stroke-linecap="round" transform="matrix(0.0671998, 0, 0, 0.0672954, 0.0435473, 18.187499)" fill="none" stroke-linejoin="miter" d="M 3993.501769 1148.213663 C 4105.922972 1091.212207 4214.158897 1026.200363 4317.279484 953.700549 " stroke="#ffffff" stroke-width="46.988998" stroke-opacity="1" stroke-miterlimit="10"/></g><path fill="#ffffff" d="M 227.566406 113.566406 C 229.050781 113.566406 230.253906 112.363281 230.253906 110.875 C 230.253906 109.386719 229.050781 108.179688 227.566406 108.179688 C 226.078125 108.179688 224.875 109.386719 224.875 110.875 C 224.875 112.363281 226.078125 113.566406 227.566406 113.566406 Z M 227.566406 113.566406 " fill-opacity="1" fill-rule="nonzero"/><path fill="#ffffff" d="M 243.160156 109.210938 C 244.644531 109.210938 245.847656 108.003906 245.847656 106.515625 C 245.847656 105.03125 244.644531 103.824219 243.160156 103.824219 C 241.675781 103.824219 240.472656 105.03125 240.472656 106.515625 C 240.472656 108.003906 241.675781 109.210938 243.160156 109.210938 Z M 243.160156 109.210938 " fill-opacity="1" fill-rule="nonzero"/><path fill="#ffffff" d="M 257.226562 104.398438 C 258.710938 104.398438 259.914062 103.191406 259.914062 101.707031 C 259.914062 100.21875 258.710938 99.011719 257.226562 99.011719 C 255.742188 99.011719 254.535156 100.21875 254.535156 101.707031 C 254.535156 103.191406 255.742188 104.398438 257.226562 104.398438 Z M 257.226562 104.398438 " fill-opacity="1" fill-rule="nonzero"/></svg>